<svg width="24" height="24" viewBox="0 0 24 24" fill="none" xmlns="http://www.w3.org/2000/svg">
<path d="M21.1593 18H2.84067C1.82867 18 1 17.1766 1 16.171V2.82898C1 1.8234 1.82867 1 2.84067 1H21.1593C22.1713 1 23 1.8234 23 2.82898V16.171C23 17.1766 22.1713 18 21.1593 18Z" stroke="#20639B" stroke-width="1.5" stroke-miterlimit="10" stroke-linecap="round" stroke-linejoin="round"/>
<path d="M17.5 21.5H6.5V23H17.5V21.5Z" fill="#20639B"/>
<path d="M23 14H1V15H23V14Z" fill="#20639B"/>
<path d="M15.5 22H8.5L10.2027 18H13.7973L15.5 22Z" stroke="#20639B" stroke-width="1.5" stroke-miterlimit="10" stroke-linecap="round" stroke-linejoin="round"/>
<path d="M5.04004 12.0248L7.42508 9.6551L9.33312 11.5509L12.5401 8.3645L14.1179 9.93218L17.7211 6.35205" stroke="#20639B" stroke-width="1.5" stroke-linejoin="round"/>
<path d="M17.4935 9.20297V6.58533H14.8516L15.9744 5.46973H18.6089V8.09467L17.4935 9.20297Z" fill="#20639B"/>
</svg>
