<svg width="24" height="25" viewBox="0 0 24 25" fill="none" xmlns="http://www.w3.org/2000/svg">
<path d="M4.23514 16.2491L2 17.5396L5.15292 23.0004L7.38806 21.7099L4.23514 16.2491Z" stroke="#276733" stroke-width="1.5" stroke-miterlimit="10" stroke-linecap="round" stroke-linejoin="round"/>
<path d="M5 17.1661L8.36524 15.2372C8.7904 14.9915 9.29483 14.9319 9.76322 15.0808L15.2038 16.7341C15.7875 16.9129 16.119 17.5384 15.9605 18.1416C15.7947 18.7598 15.1822 19.1247 14.5769 18.9608L11.6512 18.1789" stroke="#276733" stroke-width="1.5" stroke-miterlimit="10" stroke-linecap="round" stroke-linejoin="round"/>
<path d="M7 21.3319L8.01951 20.69C8.29755 20.5163 8.63264 20.4634 8.94633 20.5616L13.6161 21.921C14.1936 22.0871 14.8138 21.9889 15.3129 21.6491L20.5245 18.0997C21.0022 17.775 21.1448 17.0953 20.8382 16.5818C20.4889 16.0003 19.7617 15.8266 19.2127 16.1891L15.1133 18.8776" stroke="#276733" stroke-width="1.5" stroke-miterlimit="10" stroke-linecap="round" stroke-linejoin="round"/>
<path d="M5.41808 13.4577C4.79482 12.2772 4.44287 10.928 4.44287 9.49821C4.44287 4.8055 8.24837 1 12.9411 1C17.6338 1 21.4393 4.8055 21.4393 9.49821C21.4393 10.7887 21.1533 12.0205 20.6327 13.1131" stroke="#276733" stroke-width="1.5" stroke-miterlimit="10" stroke-linecap="round" stroke-linejoin="round"/>
<path d="M15.5883 9.03613C15.3537 8.77216 15.075 8.58886 14.7378 8.49353C14.8477 8.44221 14.9577 8.36888 15.0604 8.28823C15.1704 8.20024 15.2657 8.10492 15.3537 7.9876C15.4417 7.87028 15.515 7.74563 15.5663 7.59899C15.6176 7.45234 15.647 7.29103 15.647 7.11505C15.647 6.55779 15.4637 6.11785 15.097 5.78056C14.7524 5.46527 13.8799 5.29662 13.176 5.28196V3.76416H12.3474V5.27463H9.93506V12.1157H12.3474V13.6262H13.176V12.1084C13.5572 12.1011 14.2392 12.0497 14.5251 11.9617C14.8477 11.8591 15.1117 11.7198 15.3243 11.5438C15.537 11.3678 15.691 11.1552 15.7863 10.9059C15.8816 10.6639 15.9329 10.3999 15.9329 10.114C15.9329 9.66671 15.8156 9.30743 15.5883 9.03613ZM14.1292 6.57979C14.3051 6.72643 14.3931 6.92441 14.3931 7.18104C14.3931 7.489 14.3051 7.70897 14.1218 7.84829C13.9605 7.9656 13.4179 8.0316 13.1833 8.04626V6.36715C13.4253 6.38915 13.9752 6.45514 14.1292 6.57979ZM11.2182 6.35982H12.3547V8.05359H11.2182V6.35982ZM11.2182 11.0305V9.12412H12.3547V11.0305H11.2182ZM14.3051 10.7666C14.1072 10.9132 13.4986 11.0012 13.176 11.0232V9.13145C13.4986 9.15345 14.1072 9.22677 14.3051 9.35875C14.5398 9.51273 14.6571 9.74737 14.6571 10.048C14.6571 10.3486 14.5398 10.5906 14.3051 10.7666Z" fill="#276733"/>
</svg>
