<svg width="24" height="24" viewBox="0 0 24 24" fill="none" xmlns="http://www.w3.org/2000/svg">
<path d="M7 10H1V22H7V10Z" stroke="#F2994A" stroke-width="1.5" stroke-miterlimit="10" stroke-linecap="round" stroke-linejoin="round"/>
<path d="M7 10.624H7.15059C8.95052 10.624 10.4062 9.15618 10.4062 7.34129V2.67751C10.4062 1.75199 11.152 1 12.0699 1H13.2388C14.1639 1 14.9168 1.75922 14.9168 2.69197V6.90022C14.9168 7.43529 15.3471 7.86913 15.8777 7.86913H20.7397C22.095 7.86913 23.142 9.06218 22.9842 10.4143L21.966 18.9971C21.8297 20.1396 20.8688 21 19.7214 21H7" stroke="#F2994A" stroke-width="1.5" stroke-miterlimit="10"/>
<path d="M22.75 11H18.75" stroke="#F2994A" stroke-width="1.5" stroke-miterlimit="10" stroke-linecap="round" stroke-linejoin="round"/>
<path d="M22.5 14.5H18.5" stroke="#F2994A" stroke-width="1.5" stroke-miterlimit="10" stroke-linecap="round" stroke-linejoin="round"/>
<path d="M22 18H18" stroke="#F2994A" stroke-width="1.5" stroke-miterlimit="10" stroke-linecap="round" stroke-linejoin="round"/>
</svg>
