<svg width="24" height="24" viewBox="0 0 24 24" fill="none" xmlns="http://www.w3.org/2000/svg">
<path d="M19.8189 12.6403C20.5607 11.6362 21 10.3921 21 9.0388C21 5.69927 18.3208 3 15.0223 3C13.2578 3 11.6734 3.77122 10.5787 5.00081C9.5704 3.77122 8.11559 3 6.49514 3C3.46309 3 1 5.70655 1 9.0388C1 10.6395 1.56896 12.0946 2.49802 13.1787C2.51242 13.1932 2.52683 13.2078 2.53403 13.2223C2.68527 13.3897 2.83651 13.5497 3.00216 13.7025L9.70724 20.4762C10.3986 21.1746 11.5077 21.1746 12.1991 20.4762L14.6334 18.017" stroke="#DD2D4A" stroke-width="1.5" stroke-miterlimit="10" stroke-linecap="round" stroke-linejoin="round"/>
<path d="M23 15.6854C23 14.2021 21.7958 13 20.3099 13C19.5141 13 18.8028 13.3445 18.3099 13.8858C17.8592 13.3374 17.2042 13 16.4718 13C15.1056 13 14 14.2021 14 15.6854C14 16.3954 14.2535 17.0492 14.6761 17.5272C14.6831 17.5343 14.6901 17.5413 14.6972 17.5483C14.7606 17.6257 14.831 17.696 14.9085 17.7592L17.9225 20.768C18.2324 21.0773 18.7324 21.0773 19.0423 20.768L22.2394 17.5765C22.2887 17.5272 22.3239 17.4851 22.3592 17.4288C22.7535 16.9719 23 16.3533 23 15.6854Z" stroke="#DD2D4A" stroke-width="1.5" stroke-miterlimit="10" stroke-linecap="round" stroke-linejoin="round"/>
<path d="M18 9C18 7.34389 16.6576 6 15.0034 6C14.6508 6 14.3119 6.06109 14 6.17647" stroke="#DD2D4A" stroke-width="1.5" stroke-miterlimit="10" stroke-linecap="round" stroke-linejoin="round"/>
</svg>
