<svg width="70" height="70" fill="none" xmlns="http://www.w3.org/2000/svg"><path d="M8.31 54.96H1V69h7.31V54.96zM69 1h-7.31v14.04H69V1z" fill="#231F20" stroke="#231F20" stroke-miterlimit="10" stroke-linecap="round" stroke-linejoin="round"/><path d="M33.95 61.32l10.42-6.05a2.29 2.29 0 013.08.74c.68 1.08.33 2.5-.77 3.14L29.87 69H11.66L8.3 66.55v-9.09h1.01s6.75-4.71 13.95 0h8.95a2.32 2.32 0 012.33 2.31 2.32 2.32 0 01-2.33 2.31h-7.84" fill="#fff"/><path d="M33.95 61.32l10.42-6.05a2.29 2.29 0 013.08.74c.68 1.08.33 2.5-.77 3.14L29.87 69H11.66L8.3 66.55v-9.09h1.01s6.75-4.71 13.95 0h8.95a2.32 2.32 0 012.33 2.31 2.32 2.32 0 01-2.33 2.31h-7.84" stroke="#231F20" stroke-miterlimit="10" stroke-linecap="round" stroke-linejoin="round"/><path d="M44.87 31.3H14.9v21.44h29.98V31.3z" fill="#DCDCDC" stroke="#231F20" stroke-miterlimit="10" stroke-linecap="round" stroke-linejoin="round"/><path d="M33.17 31.3h-5.85v7.4h5.85v-7.4z" fill="#fff" stroke="#231F20" stroke-miterlimit="10" stroke-linecap="round" stroke-linejoin="round"/><path d="M17.82 45.35h6.58M25.86 45.35h2.93M17.82 49.04h6.58M25.86 49.04h2.93" stroke="#231F20" stroke-miterlimit="10" stroke-linecap="round" stroke-linejoin="round"/><path d="M61.69 3.46L57.16 1H38.61l-5.44 4.43" fill="#fff"/><path d="M61.69 3.46L57.16 1H38.61l-5.44 4.43" stroke="#231F20" stroke-miterlimit="10" stroke-linecap="round" stroke-linejoin="round"/><path d="M61.69 12.83h-2.22S54 16.9 47.8 13.99" fill="#fff"/><path d="M61.69 12.83h-2.22S54 16.9 47.8 13.99" stroke="#231F20" stroke-miterlimit="10" stroke-linecap="round" stroke-linejoin="round"/><path d="M47.8 5.43H12.7v19.22h35.1V5.43z" fill="#DCDCDC" stroke="#231F20" stroke-miterlimit="10" stroke-linecap="round" stroke-linejoin="round"/><path d="M46.28 3.96L40.5 9.4c-1.03.96-1 2.57.04 3.51.98.88 2.5.86 3.44-.06l6.02-5.84s3.56 1.82 8.02 0" fill="#fff"/><path d="M46.28 3.96L40.5 9.4c-1.03.96-1 2.57.04 3.51.98.88 2.5.86 3.44-.06l6.02-5.84s3.56 1.82 8.02 0" stroke="#231F20" stroke-miterlimit="10" stroke-linecap="round" stroke-linejoin="round"/><path d="M34.85 14.74a4.54 4.54 0 01-4.5 4.57 4.54 4.54 0 01-4.52-4.57 4.54 4.54 0 014.51-4.56c2.49 0 4.51 2.04 4.51 4.56z" fill="#fff" stroke="#231F20"/></svg>