<svg width="69" height="68" fill="none" xmlns="http://www.w3.org/2000/svg"><path d="M42.91 35.34a6.33 6.33 0 00-3.3-2.18 6.88 6.88 0 002.48-2.07c.7-.9 1.03-1.99 1.03-3.24 0-2.2-.72-3.94-2.16-5.19-1.31-1.13-3.22-1.75-5.7-1.85v-2.7a1.25 1.25 0 00-2.51 0v2.68h-8.93v26.3h8.93v2.85a1.25 1.25 0 002.5 0v-2.88c2.83-.12 5-.81 6.47-2.08a7 7 0 002.46-5.58c0-1.64-.42-3-1.27-4.06zm-5.63-9.53a2.85 2.85 0 011.01 2.32c0 1.12-.34 1.96-1.01 2.52-.53.44-1.2.7-2.03.8v-6.43c.82.1 1.5.35 2.03.79zm-8.55-.84h4.02v6.51h-4.02v-6.51zm0 17.94v-7.33h4.02v7.33h-4.02zm9.2-1.01c-.68.52-1.58.84-2.68.96v-7.23c1.12.1 2.01.39 2.69.84a3 3 0 011.33 2.66 3.3 3.3 0 01-1.33 2.77z" fill="#231F20"/><path d="M22.7 65.55a33.15 33.15 0 01-5-2.28l2.5-4.33c1.32.73 2.7 1.36 4.12 1.87l-1.62 4.74zm-11.08-6.62a34.05 34.05 0 01-3.76-3.98l3.95-3.08a28.82 28.82 0 003.1 3.29l-3.29 3.77zm-3.3-12.55l-4.46 2.25a33.19 33.19 0 01-1.99-5.11l4.82-1.35c.43 1.44.98 2.85 1.64 4.2zM.58 36.16a34.27 34.27 0 01-.01-4.1l4.99.37a28.36 28.36 0 000 3.34l-4.98.39z" fill="#DCDCDC" stroke="#231F20"/><path d="M13.65 6.83l.3.33.36-.26A33.23 33.23 0 0134 .5 33.54 33.54 0 0167.5 34a33.54 33.54 0 01-36.34 33.38l.5-4.98A28.53 28.53 0 0062.5 34 28.53 28.53 0 0018 10.42l-.5.34.43.43 4.24 4.31-17.82 4.76 4.9-18.25 4.4 4.82z" fill="#DCDCDC" stroke="#000"/></svg>