<svg width="67" height="42" fill="none" xmlns="http://www.w3.org/2000/svg"><path d="M66 27.72H1v4.84h65v-4.84z" fill="#C4C4C4" stroke="#231F20" stroke-miterlimit="10" stroke-linecap="round"/><path d="M9.47 1h34.57l-3.8 26.72" fill="#fff"/><path d="M9.47 1h34.57l-3.8 26.72" stroke="#231F20" stroke-miterlimit="10" stroke-linecap="round"/><path d="M66 27.72v-7.1c0-3.46-2.57-6.26-5.73-6.26H46.64L47.9 6" fill="#fff"/><path d="M66 27.72v-7.1c0-3.46-2.57-6.26-5.73-6.26H46.64L47.9 6" stroke="#231F20" stroke-miterlimit="10" stroke-linecap="round"/><path d="M43.33 6h11.45l5 8.36" stroke="#231F20" stroke-miterlimit="10" stroke-linecap="round"/><path d="M66 24.4h-5.47c-1.07 0-1.93-.93-1.93-2.1 0-1.15.86-2.1 1.93-2.1H66v4.2z" fill="#C4C4C4" stroke="#231F20" stroke-miterlimit="10" stroke-linecap="round"/><path d="M49.84 41c4.45 0 8.06-3.94 8.06-8.8 0-4.85-3.6-8.79-8.06-8.79-4.45 0-8.06 3.94-8.06 8.8 0 4.85 3.61 8.79 8.06 8.79z" fill="#231F20" stroke="#231F20" stroke-miterlimit="10" stroke-linecap="round"/><path d="M49.84 35.04c1.44 0 2.6-1.27 2.6-2.83 0-1.57-1.16-2.84-2.6-2.84-1.43 0-2.6 1.27-2.6 2.84 0 1.56 1.17 2.83 2.6 2.83z" fill="#fff" stroke="#231F20" stroke-miterlimit="10" stroke-linecap="round"/><path d="M13.95 41c4.45 0 8.06-3.94 8.06-8.8 0-4.85-3.6-8.79-8.06-8.79-4.45 0-8.05 3.94-8.05 8.8 0 4.85 3.6 8.79 8.05 8.79z" fill="#231F20" stroke="#231F20" stroke-miterlimit="10" stroke-linecap="round"/><path d="M13.95 35.04c1.44 0 2.6-1.27 2.6-2.83 0-1.57-1.16-2.84-2.6-2.84-1.43 0-2.6 1.27-2.6 2.84 0 1.56 1.17 2.83 2.6 2.83z" fill="#fff" stroke="#231F20" stroke-miterlimit="10" stroke-linecap="round"/><path d="M2.8 6.5h12.37M6.84 11.52h14.49M1 16.54h14.79" stroke="#231F20" stroke-miterlimit="10" stroke-linecap="round"/><path d="M46.64 14.36L47.9 6h6.9l4.89 8.36H46.64z" fill="#C4C4C4" stroke="#231F20" stroke-miterlimit="10"/></svg>