<svg xmlns="http://www.w3.org/2000/svg" fill="none" viewBox="0 0 34 34"><path fill="#fff" d="M7.63 10.88c.3 0 .59.05.87.13a3.23 3.23 0 00-1.5.33c.01.16.04.33.07.5a3.9 3.9 0 012.2.16 4.18 4.18 0 00-2.11.22.2.2 0 000 .03l.14.56a6.57 6.57 0 011.5 0c.56.05 1.1.15 1.64.3a8.53 8.53 0 00-3.03.08l.08.28.12.38a5.9 5.9 0 011.43-.03 12.12 12.12 0 011.53.23 11.73 11.73 0 00-2.29.07c-.19.03-.38.07-.56.12l.13.45.03.12a6.4 6.4 0 012.09.1c.24.04.48.12.7.21a4.48 4.48 0 00-1.44-.11 6.55 6.55 0 00-1.24.2l.1.46a6.66 6.66 0 011.76.14c.21.05.42.11.62.2a4.41 4.41 0 00-1.28-.1 5.86 5.86 0 00-1.06.16v.34c.29.02.57.05.85.1.35.04.69.12 1.02.23a5.36 5.36 0 00-1.03-.02c-.3.01-.6.05-.9.09-.02.16-.07.31-.12.46-.14.33-.34.63-.6.87l.23.1a2.28 2.28 0 001.55.02l.06-.03a6.7 6.7 0 00-.98-.34c.48-.02.95.02 1.41.1l.18-.13.07-.07a6.23 6.23 0 00-1.58-.44 9.06 9.06 0 011.89.14l.18-.21c.33-.45.6-.95.78-1.49.15-.4.26-.8.36-1.22-.07-.22-.11-.43-.13-.66-.03-.3.01-.62.13-.91l.07-.19c-.1.04-.2.06-.3.08l-.36.03h-.18c-.07 0-.14 0-.2-.03-.24-.1-.46-.24-.65-.42a4.73 4.73 0 01-.48-.52c-.28-.37-.54-.75-.78-1.15-.24-.4-.46-.8-.67-1.22l-.2-.38.42.08.58.1.57.14c.2.05.38.1.57.17.19.07.37.12.56.2l.54.24c.1.05.17.1.27.14a3.12 3.12 0 01.83.8l.05-.34-.26-.38c-.03-.04-1.35-1.8-2.89-1.8-1.27 0-1.82 1.17-1.96 1.55-.04.28-.06.57-.04.86a3.82 3.82 0 01.64-.08z"/><path fill="#fff" d="M11.15 10.7l-.12-.07-.25-.13c-.17-.08-.33-.16-.52-.22l-.52-.2-.27-.07c.4.13.8.32 1.16.54.3.2.58.43.83.7.16.19.3.4.41.63l.17-.69a3.6 3.6 0 00-.9-.48zM12.27 16.23l-.05-.09-.1-.18-.02-.03c-.17.71-.47 1.38-.88 1.98-.26.38-.58.72-.96.98a2.9 2.9 0 01-1.27.5l-.35.03-.35-.02a1 1 0 01-.17-.02l-.18-.04a2.83 2.83 0 01-1.47-.8 4.6 4.6 0 01-1.08-2.4c.08.43.21.85.4 1.25.19.4.44.76.76 1.07a2.71 2.71 0 001.43.71l.15.03h.17c.1 0 .21.02.32.01l.31-.03a3.04 3.04 0 002-1.46c.47-.72.75-1.54.83-2.4-.1-.2-.19-.42-.26-.64-.04.4-.11.78-.21 1.16a5.9 5.9 0 01-.67 1.64 2.58 2.58 0 01-3.22 1.14c-.3-.1-.57-.27-.8-.48-.24-.2-.43-.45-.6-.72-.29-.52-.5-1.09-.6-1.68a9.07 9.07 0 01.02-3.44l-.03-.02c-.04 0-.09.03-.13.06a1.26 1.26 0 00-.35.4A7.34 7.34 0 004.14 15c-.04.2-.05.4-.08.6-.02.2-.02.4-.02.6 0 .34.03.68.08 1.02l.11.02.28.04-.28.07-.1.02.08.35h.3c.15 0 .3 0 .45-.02a4.86 4.86 0 01-.71.19l.13.46.37-.03c.2-.02.38-.06.57-.11a3.68 3.68 0 01-.89.3l.02.05.14.35.19-.02a3.04 3.04 0 001.08-.35 3.65 3.65 0 01-1 .66l-.09.04c.08.14.18.27.28.4a4.67 4.67 0 00.76-.24c.29-.13.55-.3.8-.5a3.27 3.27 0 01-1.1.95 4.1 4.1 0 01-.2.1c.14.14.28.27.43.38a3 3 0 00.8-.36c.28-.17.54-.37.78-.6a4.27 4.27 0 01-1.22 1.21c.22.13.45.24.7.33a2.55 2.55 0 00.9-.8c.09-.13.16-.27.2-.42a1.93 1.93 0 01-.32.9c-.09.15-.2.28-.3.4l-.06.06c.17.04.35.07.52.09a2.01 2.01 0 00.36-.54 2.6 2.6 0 00.24-.83 2.9 2.9 0 01-.17 1.34l-.02.05c.16 0 .31-.01.47-.03a2.44 2.44 0 00.12-.58c.03-.27.03-.54 0-.8A3.73 3.73 0 019 20.95v.1c.08-.01.15-.03.22-.06l.15-.06c0-.19.02-.38.01-.57 0-.24-.02-.47-.08-.7.12.21.22.44.3.67l.12.44.3-.22v-.19a3.02 3.02 0 00-.13-.6.92.92 0 00-.13-.28c.09.06.17.14.23.22l.17.28.15.29.08-.08.18-.23.04-.05c-.1-.24-.21-.47-.34-.7l.4.31.15.14.13-.18.11-.17-.13-.2c-.07-.11-.15-.2-.24-.3.13.03.26.07.38.13l.17.08.16-.28c-.1-.1-.22-.19-.34-.25.14.01.29.05.42.1l.09-.15.06-.13a1.73 1.73 0 00-.29-.23c.1.01.18.03.27.06l.08.03a12.37 12.37 0 00.66-1.7l-.06-.16-.02-.09z"/><path fill="#fff" d="M10.51 10.73a13.93 13.93 0 00-1.9-.93c.06 0 .12.02.17.03l-.13-.03-.13-.02a17.11 17.11 0 001.2 1.9c.13.17.28.33.44.49.13.14.3.25.49.32l.29.09a2.94 2.94 0 00.64.1h.04l.02-.06a5.91 5.91 0 00.21-.65 4.59 4.59 0 00-1.34-1.24zM13 9.61c-.23.2-.47.4-.69.62l.2.27a8.51 8.51 0 013.4-2.2l-.19-.27c-.64.23-1.25.53-1.82.92-.3.2-.6.43-.9.66zM9.38 7.13l.17-.2.26-.2c.18-.14.37-.25.58-.32a2.4 2.4 0 00-.58.72l-.04.08.31.11a3.73 3.73 0 011.16-.88c.16-.07.33-.13.5-.17a2.93 2.93 0 00-1.3 1.21l.26.13a4.77 4.77 0 012.21-1.18 3.88 3.88 0 00-1.13.66 4.6 4.6 0 00-.73.72l.28.2a6.65 6.65 0 011.1-.74c.43-.25.91-.4 1.41-.47-.47.13-.91.35-1.3.64a6.18 6.18 0 00-.88.8l.25.19.52-.35a7.47 7.47 0 012.16-.86 5.24 5.24 0 00-1.36.68 8.13 8.13 0 00-1 .8l.58.52c.28-.22.56-.43.85-.62.6-.4 1.24-.73 1.91-.97a8.58 8.58 0 00-2-1 6.17 6.17 0 00-3.6-.4 2.63 2.63 0 00-1.38.88 2.63 2.63 0 01.8.02z"/><path fill="#fff" d="M12.05 9.88l.43-.38c-1.74-1.66-2.91-2-3.6-1.99-.29 0-.58.09-.82.26-.22.28-.41.58-.58.9.4-.37.94-.57 1.49-.57 1.46 0 2.67 1.3 3.08 1.78zM29.05 26.1c-.71-.3-1.4-.62-2.07-1a37.5 37.5 0 01-1.56-.95l-.76-.5a4.85 4.85 0 01-1.96-1.96 7.41 7.41 0 01-.67-1.73l-.2-.89c-.06-.3-.1-.6-.13-.92a109.92 109.92 0 01-.18-5.43v-.28l.28.07c.4.12.84.1 1.22-.07.4-.17.77-.42 1.06-.74.2-.2.37-.41.53-.63l-.02-.03.06-.04a6.81 6.81 0 00.8-1.4l-.44.07-.64.13c-.43.1-.85.23-1.26.4a5.86 5.86 0 00-1.69 1.03c-.16.14-.3.32-.42.5a4.22 4.22 0 01.89-.99c.36-.26.75-.5 1.16-.67.4-.19.83-.34 1.26-.46l.65-.17.67-.12.2-.04-.07.2c-.14.4-.32.8-.52 1.17.27-.15.58-.22.88-.2.28-.18.59-.3.91-.35H27a.52.52 0 01.2-.02c.09 0 .17.04.24.1.06.06.1.14.1.22v.18a.5.5 0 01-.09.17l-.08.1-.01.02c.47.44.67 1.77.43 3.16-.21 1.2-.72 1.6-1.04 1.73 0 .03.02.05.03.08.06.11.14.22.22.33l.13.13.15.12a1.09 1.09 0 00.88.17l.18-.06a1.9 1.9 0 00.54-.36h-.04a2.27 2.27 0 01-1.48-.56 2.14 2.14 0 001.92.11l.01.04.01-.02.24-.3h-.22a2.63 2.63 0 01-1.6-.54 2.54 2.54 0 001.57.23c.17-.04.33-.08.49-.15l.02.05c.07-.12.14-.25.2-.39l-.2.02c-.23 0-.45-.02-.67-.07-.42-.1-.81-.26-1.18-.48.39.16.8.25 1.22.27.2.01.4 0 .6-.04.14-.03.28-.08.42-.14l.16-.47a2.05 2.05 0 01-.85.06c-.4-.04-.8-.13-1.18-.27.4.07.79.09 1.18.05.2-.01.38-.05.56-.1.14-.05.27-.13.4-.22v-.01l.05-.51a5.57 5.57 0 01-2.41.05 5.51 5.51 0 002.44-.48l.03-.5-.29.12c-.2.07-.4.12-.6.17-.4.09-.8.13-1.21.13a5.23 5.23 0 002.12-.88v-.38c-.28.17-.59.3-.9.39-.41.12-.83.2-1.26.22.4-.1.8-.24 1.18-.42.36-.17.69-.4.97-.7l-.03-.38-.1-.19c-.23.2-.48.36-.75.5-.4.23-.83.42-1.27.57.4-.22.79-.46 1.15-.74.25-.2.49-.41.7-.66-.1-.15-.18-.3-.27-.46-.19.17-.38.35-.58.5-.44.36-.91.68-1.4.96a11.53 11.53 0 001.8-1.74l-.25-.39-.35.39c-.42.43-.9.81-1.4 1.15a8.92 8.92 0 001.59-1.78l-.26-.37a9.56 9.56 0 01-1.94 1.95 11.4 11.4 0 001.74-2.2l-.45-.54a10.1 10.1 0 01-2 2.6 9.98 9.98 0 001.74-2.9l-.13-.15h-.16l-.15.02c-.43.8-.92 1.57-1.47 2.29.39-.7.72-1.45 1-2.2-.2.04-.4.09-.59.15l-.06.02c-.33.75-.74 1.45-1.22 2.11.3-.62.55-1.27.74-1.94l-.6.28c-.75.38-1.45.85-2.08 1.39-.64.53-1.26 1.1-1.86 1.7v.02l-.02.46-.02-.44c-.36-.11-.71-.25-1.04-.42a9.23 9.23 0 01-1.87-1.3c-.24-.2-.47-.42-.7-.65l-.48.31a12.56 12.56 0 001.73 1.47c.34.25.69.48 1.04.7l1.09.63a11.5 11.5 0 01-1.17-.49 8.83 8.83 0 01-2.05-1.48 5.68 5.68 0 01-.68-.8l-.05.03h-1.42l-.06-.1h-.02l-.79.44a20.56 20.56 0 00-1.87 1.21 34 34 0 00-.74.53l.05.07-.02.08-.1.6a2.8 2.8 0 011.1.31c.14.08.26.18.39.28a5.15 5.15 0 011.23 1.36s.01 0 0 0l.02-.02.14-.17a9.48 9.48 0 01.9-1.03 4.34 4.34 0 013.8-1.24l.44.14c.29.1.57.23.83.38a6.1 6.1 0 00-.87-.24l-.44-.06-.43-.05a4.13 4.13 0 00-3.19 1.23 7.38 7.38 0 00-.88 1l-.14.18a.24.24 0 01-.17.1.24.24 0 01-.18-.08l-.02-.01v-.03a5.83 5.83 0 00-1.18-1.3c-.25-.17-.5-.32-.76-.46-.2-.1-.41-.18-.63-.23a9.8 9.8 0 01-.05.22 2.83 2.83 0 01.95.26l.22.11.4.29c.25.2.47.44.67.7l.28.4c.1.14.16.29.23.43h.03a.52.52 0 00.12-.09c.3-.48.65-.93 1.05-1.34.4-.41.89-.75 1.41-1a4.22 4.22 0 011.71-.28c.3 0 .58.05.86.15.27.08.53.2.77.37-.26-.12-.53-.2-.8-.24-.28-.05-.56-.05-.83-.07-.55-.02-1.1.07-1.62.27-.5.23-.96.56-1.35.95-.4.4-.74.84-1.04 1.31v.02a.72.72 0 01-.2.13.26.26 0 01-.15.02.2.2 0 01-.15-.12l-.23-.4a4.4 4.4 0 00-1.67-1.57c-.21-.12-.44-.2-.67-.27a9.97 9.97 0 01-.35 1.17l-.08.2a2.09 2.09 0 00-.15.48l.1.03c.1.04.2.08.28.13a2 2 0 01.47.4 1.9 1.9 0 00-.8-.37l-.08-.01v.26c.02.25.08.49.16.72.21.14.53.36.73.53.44.42.74.95.88 1.53l-.4-.63h-.36a.54.54 0 01-.2-.08l.04.07.06.1c.11.28.2.57.25.86.11.56.19 1.12.22 1.69.05.57.06 1.14.04 1.7 0 .08 0 .15-.02.23l-.02.13-.04.1-.11.4c-.07.26-.11.52-.12.78-.01.51.17 1 .52 1.39.32.4.76.7 1.25.84.12.02.24.03.37.03.1 0 .25-.04.39-.06a8.42 8.42 0 001.54-.46c.23-.1.44-.25.62-.43.32-.38.5-.91.66-1.43.16-.52.28-1.08.44-1.62a3 3 0 01.93-1.47c.41-.4.86-.73 1.22-1.15.18-.2.33-.44.44-.69.11-.25.17-.53.18-.8.04.57-.14 1.14-.5 1.59-.34.46-.76.84-1.12 1.26-.18.2-.34.41-.48.64-.12.23-.2.48-.26.74l-.44 1.62c-.16.55-.35 1.1-.75 1.59-.21.23-.47.4-.75.53a5.62 5.62 0 01-1.66.5l-.44.06c-.16.01-.32 0-.47-.04-.26-.05-.51-.16-.73-.3.03.36-.01.72-.13 1.05a5.05 5.05 0 00-.38 2.7c.09.43.07 1.07.04 1.76-.03.58-.03 1.17.01 1.76a15.14 15.14 0 0015.68-5.5zM21.9 11.56a5.79 5.79 0 011.3-1.03c.33-.18.66-.34 1-.47l.52-.2c.18-.05.35-.1.54-.13l-.99.48c-.32.17-.65.33-.96.52A10.02 10.02 0 0021.56 12c.1-.15.21-.3.34-.44zm-8.35 10.26a.64.64 0 01-.17-.44c.04-.21.79.33.85.85 0 0-.45-.64-.68-.4zm2.39-.06s-.44-.15-.94.68c0 0 .43-1.24.97-1.13 0 0 .16.14-.04.45zm1.74-7.4a2.07 2.07 0 011.3-.82c.25-.05.51-.05.77 0-.25.04-.5.1-.73.17-.23.07-.45.18-.65.3-.42.27-.76.63-1.02 1.05.06-.26.17-.5.32-.7zm.79 1.4a2.67 2.67 0 001.28-1.21l.15-.01s-.28.65-.49.84c-.22.18-.94.72-1.13.7-.2-.04-.41.05-.81-.18-.28.47-.57 1-.57 1s.4-1.49.92-1.85a3.23 3.23 0 011.56-.63c.35.01.7.06 1.04.13a8.7 8.7 0 00-1.07 0c-.15.03-1.2.34-1.48.71l-.33.52c.3.1.63.1.93-.01z"/><path fill="#fff" d="M29.86 15.36l.02.04h-.04c-.1.18-.22.36-.35.52l-.14.18v.03h-.03c-.14.16-.29.32-.45.46-.12.1-.26.19-.4.27l-.23.08a1.41 1.41 0 01-1.42-.33l-.18-.17a3.25 3.25 0 01-.58-1.29c-.1-.6-.12-1.21-.03-1.82a7 7 0 01.38-1.77c.12-.3.27-.57.47-.82l.15-.17.05-.06c-.36.07-.7.23-.98.47-.3.24-.57.53-.8.84a5.6 5.6 0 00-1.1 3.3 8.22 8.22 0 00.1 1.38l.18.07a1.34 1.34 0 00.68-.01c.12-.03.24-.07.35-.12l-.3.22a1.62 1.62 0 01-.76.23h-.08c.03.16.08.32.13.47a1.94 1.94 0 001.55-.27 2.17 2.17 0 01-1.23.64l-.15.02c.07.15.15.3.25.43a2.11 2.11 0 001.3-.26c.14-.08.3-.18.43-.29a3.28 3.28 0 01-.84.69c-.17.08-.34.15-.52.2l-.07.01c.12.13.26.23.41.33a2.8 2.8 0 001.01-.19 1.71 1.71 0 00.89-.7 1.83 1.83 0 01-.8.9 3 3 0 01-.49.23c.46.11.94.05 1.35-.17l.19-.23c.14-.19.24-.4.31-.62-.03.24-.1.46-.22.67.07-.05.15-.1.21-.17a4.68 4.68 0 001.06-1.3l-.14.1c-.28.2-.6.32-.93.36-.33.04-.67-.01-.98-.16a2.26 2.26 0 01-1.26-1.4c-.2-.6-.28-1.23-.22-1.86-.02.62.09 1.24.32 1.82.12.28.29.54.5.76.2.22.46.38.75.49a1.58 1.58 0 001.63-.27c.45-.38.8-.84 1.06-1.36l.07-.16c.1-.3.17-.6.24-.9l-.2.47-.12.2zM24.76 5.3c-.8.04-1.58.19-2.34.42-.77.26-1.51.58-2.24.94-.66.33-1.31.67-1.95 1.04a10.81 10.81 0 002.56 2.29c.15-.3.32-.59.52-.86a7.4 7.4 0 01-1.65-1.84 6.5 6.5 0 001.9 1.52c.1-.13.22-.25.33-.37a24.3 24.3 0 01-1.38-1.6 29.3 29.3 0 001.66 1.3l.24-.23.1-.08-1.13-1.4 1.43 1.13.35-.28a5.97 5.97 0 00-.87-1.19l.67.5c.1.1.22.18.32.29.06.05.12.1.17.17.1-.08.22-.15.33-.22a5.48 5.48 0 00-.67-.96c.2.11.39.24.57.38.15.11.3.24.42.38l.27-.16a3 3 0 00-.44-.74c.27.15.53.34.74.57.13-.07.25-.13.38-.18L24.98 6l-.23-.38.38.23.19.12.03.02.35-.12a2.46 2.46 0 00-.22-.39 2.75 2.75 0 01.49.21.7.7 0 01.09.08c.34-.1.7-.14 1.05-.14l-.26-.22a7.94 7.94 0 00-2.09-.12z"/><path fill="#fff" d="M25.97 6.22c-.4.14-.8.31-1.17.52-.77.42-1.5.9-2.17 1.44-.69.53-1.3 1.14-1.84 1.83.27.16.55.3.85.42a11.75 11.75 0 012.63-2.8c.35-.26.72-.5 1.11-.69a6.2 6.2 0 012.4-.67l-.31-.3h-.26c-.42.02-.84.1-1.24.25zM13.12 15.99a5.58 5.58 0 00-.36-.49 5.55 5.55 0 00-.7-.6c.08.16.15.33.24.49l.17.33c.1.1.21.17.35.21l.3.06z"/><path fill="#fff" d="M17 34a17 17 0 110-34 17 17 0 010 34zm0-33a16 16 0 100 31.99 16 16 0 000-32z"/></svg>