<svg xmlns="http://www.w3.org/2000/svg" fill="none" viewBox="0 0 34 34"><path fill="#fff" d="M6.75 12a.8.8 0 00.6.17.19.19 0 00.11-.11.44.44 0 01.5-.29.43.43 0 00.33-.1.17.17 0 00.07-.17.67.67 0 00-.3-.42c-.02 0-1.22-.46-1.48.11a.62.62 0 00.17.81zM7.15 14.9c-.1-.23-.16-.47-.19-.71a11.7 11.7 0 01-.06-1.6 1.76 1.76 0 01-.4-.2c-.1-.06-.17-.13-.24-.22-.22.3-.47.93-.2 2.11.17.73.4.89.52.92.06 0 .12 0 .17-.02l.16-.07c.09-.06.17-.13.24-.2zM19 27.6c-.14-.44-.23-.9-.26-1.36-.03-.4.01-.78.14-1.15-.27.39-.5.8-.7 1.22-.2.39-.34.8-.44 1.21-.06.27-.1.54-.1.82l.1.08a6.76 6.76 0 001.2.72l.43.2.57.24a12.27 12.27 0 01-.93-1.97zM12.25 10.07c.04.04.09.07.14.08l.2.05.4.05c.44.02.89-.01 1.33-.09a7.86 7.86 0 00-2.15-.7.75.75 0 00-.38.04c.13.2.28.4.46.57zM24.35 11.97c.45.48.72 1.1.78 1.75.4.22 1.6 1.06 1.46 3.01a39.38 39.38 0 01-.19 2.02 3.95 3.95 0 00.52.36c.23.13.48.22.74.26a2.04 2.04 0 001.15-.15 1.18 1.18 0 01-.57-.54 3.47 3.47 0 01-.27-1.1c-.08-.72-.13-1.43-.28-2.13a4.6 4.6 0 00-.88-1.93 4.86 4.86 0 00-1.66-1.34 4.87 4.87 0 012.34 2.2c.16.33.28.68.36 1.04.1.39.18.79.23 1.18.7.17 1.45.16 2.15 0h.01c.3-.08.58-.17.86-.28a2.33 2.33 0 01-1.56-1.6 4.09 4.09 0 00-1.93-2.5 5.52 5.52 0 00-3.26-.25z"/><path fill="#fff" d="M25.15 14.28c-.02.8-.11 1.58-.25 2.36-.22 1.39-.41 2.58.19 3.24l.13.15c.24.24.53.42.85.52-.27-.6-.18-1.42-.07-2.53.04-.4.09-.84.12-1.32.1-1.4-.54-2.1-.97-2.42z"/><path fill="#fff" d="M19.25 23.98c.27-.35.55-.7.85-1.01.3-.32.6-.63.87-.96.26-.33.63-.72.76-1.1.13-.38.2-.78.24-1.17-.03-.26-.04-.51-.04-.76v-.67c.01-.22.04-.44.04-.66.01-.21.02-.41 0-.62l-.03-.31-.03-.16-.04-.15a5.11 5.11 0 00-1.2-2.2 8.14 8.14 0 00-2.01-1.64 7.53 7.53 0 012.62 1.98l.2.26c.07.1.13.18.18.28l.18.3c.06.09.1.2.14.3.05.1.1.2.13.3l.1.33.05.17.03.17.06.34.02.34v.35l-.02.65v.64c0 .27.03.54.07.81v.04l.08.4c.03.13.06.25.11.37 0-.26.03-.51.06-.77.05-.35.11-.7.18-1.04v-.04h.01l.08-.44c.17-1 .33-1.99.23-2.97a3.23 3.23 0 00-1.36-2.48 7.72 7.72 0 00-2.71-1.3 7.59 7.59 0 012.85 1.1c.44.3.81.68 1.1 1.12l.2.35.14.37c.07.26.13.52.16.78.14 1.04 0 2.08-.16 3.1l-.07.35a1.22 1.22 0 00.45.85c.21.14.46.23.72.24-.44-.84-.25-2.02-.05-3.26.14-.89.29-1.8.24-2.7-.1-2.06-2.48-2.7-2.76-2.78a2 2 0 01-.91.34l-.22.03-.05-.24A5.2 5.2 0 0020 9.45c-.06-.1-.13-.18-.2-.27l-.11-.14-.11-.14a.18.18 0 01.04-.06l.04-.03.08-.08.17-.12a2.72 2.72 0 011.18-.43c.27-.05.55-.07.83-.05l.4.06.41.08.1.02v.07c-.02.33-.04.63-.08.94-.02.32-.09.64-.2.94-.05.17-.14.33-.25.47.32.1.63.24.93.4a7.77 7.77 0 011.58-.84c.3-.12.61-.2.93-.23.31-.04.63 0 .93.1a2 2 0 00-.91.02c-.3.07-.59.18-.86.32a6.09 6.09 0 00-1.26.87l.34.25c.2-.09 1.4-.56 3.6.1.35-.73-.34-1.57-.73-1.96a1.21 1.21 0 00-.8-.25c-.32.02-.64.07-.94.18-.63.2-1.23.5-1.79.86.52-.43 1.1-.8 1.7-1.09.32-.15.66-.25 1-.3.14-.01.27-.02.4 0-.09-.22-.2-.43-.32-.63a1.6 1.6 0 00-.6-.23c-.24-.04-.5-.03-.75.01s-.5.12-.75.22c-.25.09-.49.2-.72.34a4.75 4.75 0 011.42-.8 2.67 2.67 0 01.92-.13 2.67 2.67 0 00-.96-.52c-.24-.07-.48-.1-.72-.13-.5-.03-.99.01-1.47.12.44-.17.9-.3 1.37-.34a2.57 2.57 0 00-1-.18c-.43.02-.86.12-1.26.29-.41.18-.84.35-1.27.48a8.1 8.1 0 01-1.32.3 8 8 0 001.28-.4c.42-.18.82-.38 1.22-.6a3.85 3.85 0 011.78-.44l-.09-.1c-1.02-1.05-2.68-1.03-2.7-1.03h-.07l-.07-.05s-1.25-.83-3.76-.31a4.18 4.18 0 00-3.08 2.37h.2a4.86 4.86 0 012.62-1.86c.35-.1.71-.15 1.07-.16a4.35 4.35 0 00-3.18 2.07h.04l.5.05-.03-.02c.12-.16.26-.3.4-.43a4.7 4.7 0 011.42-.83c.33-.13.67-.24 1.02-.33l.52-.12.52-.08-.51.14-.5.17a7.62 7.62 0 00-1.81 1 3.88 3.88 0 00-.5.5c.27 0 .54-.09.77-.24l.47-.32-.11.56c-.04.16-.1.32-.2.46l.1.01.6-.26a13.79 13.79 0 001.99-1.1c.31-.2.6-.45.9-.69-.23.31-.5.59-.8.84a6.2 6.2 0 01-2.28 1.2 5.4 5.4 0 002.25-.64c.15-.06.3-.14.44-.22l.43-.24-.4.3-.41.27a8.16 8.16 0 01-1.83.84l-.34.07c.2.07.4.15.58.24l.88.44h-.92c.25.13.47.31.64.53l.27.39-.47-.02h-.45c.19.14.37.31.52.5l.43.56-.68-.19a2.27 2.27 0 00-.4 0c.14.23.32.44.53.6l.5.39-.62.04c-.23 0-.45 0-.68-.02.11.08.24.15.37.21l.4.17-.37.24c-.28.18-.6.29-.94.32.12.13.26.24.4.35l.4.27-.45.14c-.4.11-.82.11-1.22.01.13.2.31.35.52.46l.07.03.04.07c.18.36.27.76.27 1.17a2.72 2.72 0 011.94 2.26 4.18 4.18 0 01-.04 1.7l-.09.41-.11.4a4 4 0 01-.13.41l-.15.4c-.21.5-.45 1-.72 1.5l-.82 1.42c-.23.4-.43.8-.61 1.21a5.14 5.14 0 001.04 2.61v.02l.24.28.33.31.05.07c0-.25.02-.49.07-.73.09-.43.22-.85.4-1.25.36-.8.82-1.57 1.37-2.26zm-1.13-2.23c.23-.39.46-.78.67-1.17.44-.76.74-1.59.9-2.45a5.2 5.2 0 00-.22-2.55 3.25 3.25 0 00-1.82-1.8 2.99 2.99 0 012.15 1.65 3.82 3.82 0 01.39 1.36 5.34 5.34 0 01-.43 2.75c-.18.43-.4.83-.65 1.22-.25.38-.52.75-.8 1.1-.29.35-.54.73-.74 1.14.07-.45.33-.85.55-1.25z"/><path fill="#fff" d="M21.2 9.03a6.27 6.27 0 00-.81.44 3.02 3.02 0 01.62.97c.06.14.12.3.16.45.2-.03.38-.1.54-.2a2 2 0 00.57-.59c.3-.48.42-1.05.34-1.62h-.31l-.4.03c-.26.03-.52.03-.77.06a7.75 7.75 0 00-1.15.2l-.19.07-.1.03-.04.02-.02.01.14.07.13.08.15.1.13.12.16.16a2.34 2.34 0 011.31-.74c.18-.04.37-.06.56-.05l-.52.18-.5.21zM15.74 26.4a3.8 3.8 0 01-.14-1.05c-.15.46-.24.93-.26 1.4a4.2 4.2 0 01.1-1.65c.15-.54.35-1.06.6-1.56.5-1 1.04-1.93 1.44-2.93a9.08 9.08 0 00.6-2.3v-.39c0-.13 0-.26-.02-.39a2.78 2.78 0 00-1.11-2c-.15-.1-.3-.19-.46-.26a1.98 1.98 0 01-.66 1.48 3.3 3.3 0 01-2.02.92 3.13 3.13 0 01.15.8c.02.38-.01.75-.1 1.12-.06.36-.17.72-.3 1.06l-.21.5-.24.5.18-.52.16-.52c.1-.34.15-.7.19-1.05a4.14 4.14 0 00-.16-1.54 1.87 1.87 0 00-.15-.33 8.36 8.36 0 01-1.44-.19 25 25 0 00-.68-.13 2.63 2.63 0 01.2.67c.07.34.08.68.04 1.02-.07.66-.25 1.3-.52 1.9-.24.6-.4 1.23-.47 1.86-.08.64-.02 1.3.17 1.91a4.5 4.5 0 01-.3-1.92c.04-.65.17-1.3.38-1.92.22-.6.35-1.22.38-1.86a3.4 3.4 0 00-.23-1.33 1.52 1.52 0 00-.2-.35l.04-.05a2.43 2.43 0 00-.5-.02c.08.4.22 1.53-.36 3.16l-.04.1c-.7 1.9-1.63 4.5 2.04 6.53 2.73 1.5 3.24 2.79 3.28 3.49.34-.31.55-.74.6-1.2l.03-.3.27.1c.36.12.73.21 1.1.27-.4-.81-.66-1.44-.74-1.65-.3-.41-.52-.88-.64-1.37zm-3.93-1.06a4.14 4.14 0 01-.37-2.64c.16-.86.4-1.7.71-2.52.16-.39.3-.8.4-1.2.1-.41.03-.85-.17-1.22.14.17.26.36.33.57.07.22.1.45.08.68a6.6 6.6 0 01-.28 1.28c-.25.82-.45 1.65-.6 2.49a4.44 4.44 0 00.24 2.4c.33.77.86 1.46 1.52 2a4.21 4.21 0 01-1.86-1.84zm1.29-.77a4.58 4.58 0 011.11-3.6 4.54 4.54 0 00.93-3.4c.3.8.3 1.7.02 2.5-.14.41-.34.8-.59 1.15l-.35.5a4.99 4.99 0 00-.76 2.82c.04.81.26 1.6.63 2.33a4.37 4.37 0 01-1-2.3zm1.44 2.55a3.24 3.24 0 01-.58-1.78v-.21-.22l.03-.21.09-.42.14-.4c.04-.13.1-.26.17-.38l.2-.37.47-.7a8.3 8.3 0 001.5-2.74c.28-1 .32-2.1-.1-3.1.3.46.48 1 .54 1.54.06.55.03 1.1-.1 1.65l-.1.4-.13.4c-.1.26-.21.51-.34.76-.13.24-.28.47-.42.71l-.48.67-.45.64-.18.34c-.07.12-.13.23-.18.35l-.14.36-.1.37-.03.18-.02.2-.01.18v.2c.01 1.02.6 1.99 1.4 2.7a3.87 3.87 0 01-1.18-1.12zM20.66 30.68l-.4-.58-.25-.41-.71-.12c-.31-.1-.63-.17-.93-.3a5.42 5.42 0 01-1.09-.64c.23.5.54 1.11.92 1.76a8 8 0 01.7 1.5c.8-.1 1.59-.27 2.36-.5l-.16-.17-.44-.54zM29.14 25.88c.04-.38.01-.76-.09-1.12a2.3 2.3 0 00-.7-1.25c.55.05 1.38.61 1.65 1.06a14.92 14.92 0 001.96-5.82c-.72-.45-1.36-1-1.91-1.64a5.23 5.23 0 01-1.9-.01l.08.46c.04.34.13.67.28.99a.95.95 0 00.76.47l.43.04-.35.26a2.49 2.49 0 01-2.63.19 3.32 3.32 0 01-.35-.2c-.03.66.05 1.12.4 1.41l.53.42h-.66a2.64 2.64 0 01-1.82-.85l-.21.01c-.4 0-.79-.11-1.11-.34-.13-.09-.23-.2-.32-.32l-.04.23a4.4 4.4 0 000 1.43l.1.4-.38-.12a.5.5 0 01-.13-.06 1.15 1.15 0 01-.24-.22 1.6 1.6 0 01-.26-.46l-.09.26a3.6 3.6 0 01-.72 1.16c-.3.33-.63.62-.94.93a15.24 15.24 0 00-1.3 1.47c-.1.46-.12.93-.05 1.4.06.44.19.88.36 1.3a12.81 12.81 0 001.4 2.32l.84 1.06c.11.14.23.26.35.39 2.83-1 5.28-2.84 7.06-5.25z"/><path fill="#fff" d="M28.35 23.51c.4.32.58.78.7 1.25.1.36.14.74.1 1.12.3-.42.6-.86.85-1.3a2.73 2.73 0 00-1.65-1.07zM9.58 17.1c.3-.39.78-.4 2.42-.07 1.52.32 2.49.3 3.52-.63.82-.75.43-1.8.31-2.07a2 2 0 01-.95-1.29l-.11-.6.48.37c.27.2.59.3.92.28a1.8 1.8 0 01-.4-.55l-.16-.4.42.09c.24.04.49.02.72-.06a2.74 2.74 0 01-.66-.67l-.4-.62.7.28c.21.08.45.13.68.15a3.32 3.32 0 01-.42-.7l-.14-.3.34-.02h.21a2.62 2.62 0 00-.58-.31l-.91-.31.95-.14c.23-.04.46-.05.7-.06a3.74 3.74 0 00-.8-.35l-.93-.26.87-.17c-.3-.09-.6-.14-.92-.18l-1.24-.1 1.19-.35a.71.71 0 00.24-.13c-.48.07-.96.07-1.44 0a7.03 7.03 0 00-2.86.14c-.37.1-.7.31-.95.6-.32.35-.72.62-1.16.8-.57.26-1.11.6-1.6.99.21.04.42.1.62.17a1.1 1.1 0 01.6.8.63.63 0 01-.26.61.88.88 0 01-.64.19h-.03a.65.65 0 01-.55.4c-.04.5-.05 1.01-.03 1.51 0 .28.06.56.2.8.15.24.37.42.62.53.27.12.56.2.85.23.29.06.58.05.87-.01a2.18 2.18 0 001.34-1.1 2.24 2.24 0 01-1.3 1.21c-.3.09-.62.11-.93.08a3.02 3.02 0 01-.92-.2 1.79 1.79 0 01-.63-.4c-.13.14-.3.24-.47.32-.06.04-.1.1-.13.16-.1.17-.14.54.17 1.25a1.79 1.79 0 001.17.99c.35.1.72.13 1.08.06-.08-.3.1-.68.33-.97zm2.02-7.78a1 1 0 01.26-.16c.1-.04.2-.06.31-.07a3.42 3.42 0 012.1.66c.3.2.6.4.88.64-.24-.04-.48-.1-.71-.19a3.19 3.19 0 01-1.9.2 2.6 2.6 0 01-.21-.06.58.58 0 01-.2-.14 1.7 1.7 0 01-.36-.7c-.18.07-.34.18-.47.31a1 1 0 01.3-.49z"/><path fill="#fff" d="M17 34a17 17 0 110-34 17 17 0 010 34zm0-33a16 16 0 100 31.99 16 16 0 000-32z"/></svg>