<svg xmlns="http://www.w3.org/2000/svg" fill="none" viewBox="0 0 34 34">
  <path fill="#E274AC" d="M28.26 27.25l.05-.07c-.1.04-.2.07-.3.08l.25-.01z"/>
  <path fill="#fff" d="M23.8 4.62c.39-.15.72-.4.97-.73l-.05-.03c-.28.29-.58.54-.91.76zM23.15 4.32c.17.06.34.1.52.1.3-.2.58-.43.83-.67-.57-.33-1.16-.62-1.77-.86-.02.25-.07.5-.17.74a.8.8 0 00.59.69zM23.96 4.83c.02.23 0 .47-.04.7-.08.44.28.77.38.85.2 0 1.14-.03 1.7-.42h.02l.03-.02c.07-.14.24-.59.1-.93a1.4 1.4 0 00-.22-.35c-.31-.22-.63-.43-.95-.63-.27.35-.62.62-1.02.8zM16.77 13.87l-.12.07c.1.17.24.58.23 1.46-.01.88.14 1.31.21 1.48l.33-.2a3.53 3.53 0 01.02-1.48l.07-.5c.02-.32.08-.64.17-.95l-.25-.25a.72.72 0 00-.64.14l-.03.05.21-.06c.19-.03.38-.03.56 0-.18.01-.36.05-.52.12l-.24.12zM26.04 6.22a3.5 3.5 0 01-1.42.39c.36.02 1-.02 1.42-.39zM26.31 18.29a.7.7 0 01-.06.05l.04 1.31c.25.23.52.42.8.59l.18.1c-.22-.8-.37-1.6-.46-2.42-.14.16-.3.29-.5.37zM26.76 17.53c0-.04-.03-.1-.08-.14-.02.14-.06.29-.1.43a.64.64 0 00.18-.29zM24.88 15.43a1.67 1.67 0 00.16-1.78 2.2 2.2 0 00-1.68-.66 1.87 1.87 0 00-1.22 1.15c.75-.12 2.2.36 2.74 1.29z"/>
  <path fill="#fff" d="M21.66 15.4c.24.06.5.08.74.04l.1-.03.05.1a2 2 0 00.47.64 2.93 2.93 0 011 2.15c.49-.71 1.05-2.04.67-2.73-.48-.85-1.89-1.33-2.56-1.19a4.3 4.3 0 00-1.49.94c.34 0 .68.02 1.02.08z"/>
  <path fill="#fff" d="M22.86 16.33c-.2-.18-.37-.4-.5-.64-.24.02-.5 0-.74-.05-.4-.08-.8-.1-1.21-.06a2.9 2.9 0 00-1.25.56h.03a7 7 0 011.3.13c.28.07.57.09.86.05l.12-.02.02.11c.08.27.23.52.42.72a5.25 5.25 0 011.28 2.5c.37-.42.58-.96.58-1.53-.02-.86-.64-1.53-.9-1.77z"/>
  <path fill="#fff" d="M18.9 17.2c.44.24.85.35 1.02.32l.1-.02.03.1c.08.3.22.56.4.8.16.17 1.42 1.6 1.35 3.04.42-.47.8-.96 1.15-1.48.14-.93-.9-2.34-1.2-2.66-.2-.2-.35-.46-.45-.73-.28.02-.57 0-.85-.07a6.79 6.79 0 00-1.25-.12c-.64 0-1.3.3-1.72.55.49-.03.97.07 1.42.27zM26.24 8.36c.26-.31.4-.7.39-1.11a1.21 1.21 0 00-.41-.87c-.61.57-1.6.48-1.87.45-.54.6-.04 1.39.1 1.57.6.05 1.2.03 1.79-.04zM24.46 8.64c.2.04 1.15.21 1.77 0l.01-.04c-.59.07-1.19.09-1.78.04zM24.44 10.7c.44.12.9.17 1.35.18h.04a1.38 1.38 0 00.7-.87c.05-.4-.04-.8-.25-1.13-.66.2-1.58.05-1.84 0-.74.85-.35 1.6-.23 1.77l.23.05zM24.33 10.93c.45.16.93.23 1.4.2v-.01h-.01c-.45-.01-.9-.07-1.33-.17l-.06-.02zM25.14 13.42c.34-.23.57-.58.67-.98a1.9 1.9 0 00-.07-1.06 3.73 3.73 0 01-1.65-.3c-.95.6-.76 1.41-.68 1.66a2.43 2.43 0 011.73.68zM26.46 17.21l-.13-.15-.17.83-.03-.84-.82.9c-.46.53-1 .98-1.59 1.35-.12.22-.28.43-.45.62a4.98 4.98 0 001.46-.68c.01 0 1.01-.81 1.4-1.1.23-.2.32-.7.33-.93zM21.92 30.49c.24-.37.5-.78.5-.87a.9.9 0 01.36-.63 1.03 1.03 0 00-.85-.43c-.36-.01-.7.09-1 .3.04.15.04.46-.4.83-.48.42-1.28.67-1.49.73l-.2.38.1.07c.33.3.6.68.79 1.1l.48-.1-.12-.22a3.17 3.17 0 00-.91-1.08 3.12 3.12 0 011.06.99l.18.26.8-.2c.23-.4.48-.8.7-1.13zM19.16 31.49a2.53 2.53 0 00-.46-.5c-.4-.28-2.2-1.4-4.12-.37-.54.28-1.01.65-1.4 1.1.98.26 2 .42 3.02.47a3.62 3.62 0 012.96-.7z"/>
  <path fill="#fff" d="M19.35 31.78a3.27 3.27 0 00-2.76.42H17c.83 0 1.66-.07 2.47-.2a4.07 4.07 0 00-.12-.23v.01zM19.53 3.12h.05a2.5 2.5 0 011.61.76.8.8 0 01.12.17 1.2 1.2 0 001.04-.6c.02-.24.01-.48-.01-.72a14.9 14.9 0 00-2.15-.63 1.56 1.56 0 00-.66 1.02zM25.48 20.03l.01.23a.28.28 0 00.04-.07c.03-.12 0-.73-.18-.84l-.2-.1a4.85 4.85 0 01-2.08.95c-.32.48-.67.93-1.05 1.36a.2.2 0 00.08 0l.12-.08a6.35 6.35 0 013.04-1l.06-.17.04-.27a2.25 2.25 0 00-.02-.57 3.08 3.08 0 01.14.56zM18.36 9.2c.3.07.59.2.83.4a1.04 1.04 0 01.35 1.02.65.65 0 01-.9.44l.1.07a.96.96 0 00.85.04c.62-.24 1-.95.86-1.55-.15-.55-.74-.96-.75-.96l-.2-.13.23-.09s.48-.2.8-.9c.17-.36.22-.76.14-1.14 0 .19-.03.37-.1.54.05-.21.05-.44 0-.65a2.8 2.8 0 00-.1-.31v-.02a2.17 2.17 0 01-.1.92c-.05.16-.1.3-.19.45a2.45 2.45 0 00.1-1.4 1.86 1.86 0 00-.14-.38v.01a1.9 1.9 0 01-.22 1.02A2.22 2.22 0 0020 5.9c0-.1-.02-.22-.04-.32a2.46 2.46 0 01-.2.88c-.07.13-.15.26-.24.38a1.9 1.9 0 00.25-.83 2.4 2.4 0 00-.05-.78l-.04-.02c0 .04 0 .08-.02.12-.01.1-.03.2-.06.29-.06.18-.15.35-.25.5a2 2 0 00.11-1.02l-.31-.14a.5.5 0 00-.15 0 .85.85 0 00-.19.05 1.3 1.3 0 00-.34.22c.08-.12.17-.23.29-.32l.04-.04c-.19.03-.36.1-.52.22-.18.13-.35.28-.5.46.12-.2.26-.4.43-.56.08-.08.17-.15.27-.21l-.1-.01v.01a1.47 1.47 0 00-.85.3 2.15 2.15 0 00-.61.72 2.39 2.39 0 01.64-.9c-.15.07-.28.16-.4.27a2.52 2.52 0 00-.75 1.8A1.96 1.96 0 0017 8.42c.38.37.85.63 1.36.77zM18.54 4.3c.85.1 1.97.78 2.17 1.07l.07.14a.97.97 0 00.3-.52c.05-.2 0-.87-.83-1.17-.88-.32-1.32-.15-1.64.06-.15.1-.28.24-.36.4.1 0 .2 0 .3.02z"/>
  <path fill="#fff" d="M18.51 4.54h-.22c.72.03 1.4.42 1.73.61.2.12.38.27.52.45h.01v.03l.02.01a.54.54 0 00-.07-.12 3.92 3.92 0 00-1.99-.98zM20.34 3.6c.3.11.57.3.76.56a.47.47 0 00-.08-.12c-.38-.4-.9-.64-1.45-.68a.63.63 0 00-.41.07c.4-.04.8.02 1.18.18zM26.21 21.74c.33.31.75.7 1.15 1.02.08-.14.14-.28.18-.43l-.2-.01-.02-.05s-.1-.15-.27-.35c-.48-.01-.69-.17-.77-.27l-.07.09zM25.66 19.39c.1.28.14.58.1.87a.5.5 0 01-.05.1 6.23 6.23 0 011.78 1.72l.25.01c.81-.14.95-.55.97-.6v-.17l-.03.03a2.47 2.47 0 01-.63.46c-.11.06-.24.1-.36.14a2.41 2.41 0 00.96-.86 5.64 5.64 0 01-2.99-1.7zM28.41 24.27l.05.38a7.24 7.24 0 01-.05-.38zM22.37 27.75l-.18-.17c-.46.24-.9.53-1.3.86l.05.04v.01a1.67 1.67 0 011.6-.26l.02-.02-.33-.25.14-.2zM26.22 21.03c0 .08-.03.16-.06.24a.7.7 0 00.49.17 5.71 5.71 0 00-.43-.4zM27.55 22.91c.26.23.57.4.9.51.02-.56.08-1.08.12-1.39-.23.16-.5.27-.78.3-.05.21-.13.4-.24.58zM22.15 27.1c-.15 0-.3.03-.43.07a4.1 4.1 0 00-1.36.8 4.68 4.68 0 01.81-.7c.25-.18.52-.3.81-.38-.58-.5-1.19-1.13-1.65-1.6-.2-.23-.42-.45-.65-.65a.43.43 0 00-.39-.04c.03.06.06.11.07.17a.9.9 0 01-.4 1 .79.79 0 01.83.5c.17.5.37 1.77.4 1.98.15.05.3.08.46.07.45-.37.94-.69 1.46-.96l.04-.26z"/>
  <path fill="#fff" d="M19.14 24.9c0 .07-.02.13-.03.2a1.76 1.76 0 01-.15.37.64.64 0 00.18-.56zM3.81 15.73c1.37.01 2.78.03 3.8-1.45a3.8 3.8 0 010-1.87 2.3 2.3 0 00-.66-.34 7.05 7.05 0 00-3.43.1 5 5 0 00-1.1.47 15.23 15.23 0 00-.6 3.3l.06-.03c.57-.2 1.23-.19 1.93-.18zM21.53 21.68c.26-1.42-1.1-2.95-1.25-3.12-.2-.24-.34-.5-.44-.8a2.73 2.73 0 01-1.06-.35 2.9 2.9 0 00-1.79-.18c-.39.1-.94.49-1.29.76h.43c.4.08.8.23 1.17.43.44.2.9.42 1.24.4l.13-.02v.12s.04.4.54 1.08c.81 1.11 1.17 2.03 1.08 2.8.51-.42 1.1-1 1.24-1.12zM20.82 22.82a.4.4 0 00.45-.2.52.52 0 00-.04-.33c-.17.16-.36.34-.56.5l.15.03zM24.95 22.4a2.47 2.47 0 00.3-.76c.03-.13.05-.27.06-.41a2.85 2.85 0 01-.2 1.25l-.01.03.27-.15c.16-.17.23-.65.25-.88l-.34-.39c-.62.28-1.26.5-1.91.7-.89.24-1.63.42-1.9.48.04.1.05.19.05.29 1.09-.05 2.17-.01 3.25.12l.18-.28zM25.6 24.08l-.33-.08c-.33.47-.75.88-1.22 1.22.69-.1 1.35-.37 1.92-.77a1.04 1.04 0 01-.36-.37zM13.9 15.43a2.2 2.2 0 00-1.06-.06 2.99 2.99 0 00-1.18.5 3.14 3.14 0 011.15-.61 2.3 2.3 0 01.83-.1l-.18-.14c-.54-.19-1.3.23-1.45.39-.16.15-.44.5-.57.67.29.32.44.84.48 1.68.02.5-.03 1-.13 1.5h.01a1.97 1.97 0 01.76-.34l.2-.03.2-.03-.2.05-.19.07a2.28 2.28 0 00-.65.41l-.13.14.22.05c.06-.1.15-.17.25-.22.3-.16.65-.3.98-.18l.11-.28c-.4-.75 0-2.3.14-2.69.1-.28.23-.54.4-.78zM26.46 24.36a.92.92 0 00.1-.25 3.14 3.14 0 00-.62-.97c-.04.2-.12.37-.25.52a.87.87 0 00.77.7z"/>
  <path fill="#fff" d="M18.92 24.78v-.2l-.03-.03a.63.63 0 00-.08-.05l-.09-.05-.07-.07-.33-.26.29.05a9.68 9.68 0 001.4-1.12c.21-.75-.1-1.7-.98-2.9-.26-.33-.45-.7-.57-1.09-.38 0-.83-.22-1.26-.42a3.92 3.92 0 00-1.1-.4 2.2 2.2 0 00-1.6.5c-.2.16-.63.47-.9.66.43.06.84.26 1.16.56.3.28 1.09.62 1.71.47l.18-.04-.02.17c0 .01-.11.96.43 1.63.57.71 1.16 1.64.6 2.52-.13.22-.3.4-.51.56.06.11.16.2.26.28.12.1.26.17.4.2a.9.9 0 00.47-.04c.15-.05.28-.13.4-.23l.12-.2a1.41 1.41 0 00.12-.5zM12.21 19.74v.02l.16-.1c.24-.14.52-.23.8-.26-.22-.08-.46 0-.79.17a.3.3 0 00-.17.17z"/>
  <path fill="#fff" d="M17.45 24.58c.47-.75-.06-1.6-.59-2.24a2.57 2.57 0 01-.5-1.65 2.47 2.47 0 01-1.76-.56c-.1-.1-1.01-.9-2.12-.26-.96.56-.96 1.78-.95 1.8v.04l-.03.03c-.61.76-.36 1.88-.35 1.9l.02.07-.07.05a.57.57 0 00-.24.56.94.94 0 01.8-.43h.06l.03.04c.36.45.79.85 1.26 1.19l.05.03v.05a.76.76 0 01-.24.73c.26-.01.5-.12.68-.3l.06-.08.09.04c.87.47 2.02-.16 2.03-.17l.03-.02h.04a1.8 1.8 0 001.7-.82zm-2.92-2.25a7.06 7.06 0 011.42-1.13 6.15 6.15 0 01-1.8 1.6c.1-.16.24-.32.38-.47zm2.36 2.72c-.43.28-.95.38-1.45.27-.5-.09-.95-.36-1.26-.76a2.7 2.7 0 01-.48-1 2.08 2.08 0 01-.04-.26c-.32 0-.65-.08-.94-.22a1.8 1.8 0 01-.96-1.26 2.34 2.34 0 01-.06-.27v-.14l.01-.14c.03-.36.18-.7.43-.95a1.61 1.61 0 00-.19 1.2c0 .04 0 .08.02.12l.02.11.08.24.1.22a1.77 1.77 0 00.29.37c.1.12.24.2.38.28.3.14.62.2.94.2h.13v.12a2.2 2.2 0 00.47 1.23 1.84 1.84 0 002.4.44l.12-.1a1.49 1.49 0 00.38-.34c.14-.18.25-.4.3-.62a1.47 1.47 0 01-.39 1c-.08.1-.18.2-.3.26zM26.8 25.45c-.41.5-.94.9-1.53 1.16a5.03 5.03 0 001.81-.38 5.51 5.51 0 01-.04-.7.91.91 0 01-.24-.08zM26.66 24.49a.5.5 0 01-.14.17c0 .1.03.2.08.28a.73.73 0 00.45.34c0-.23.02-.42.03-.52l-.41-.23v-.04zM8.07 14.81a4.28 4.28 0 010-1.82l.09-.4.12-.4-.08.4-.05.41a4.82 4.82 0 00.15 1.6 2.72 2.72 0 00.27.62c1.03-.27 2.76.04 3.19.13l.1-.1c.2-.2.95-.62 1.58-.48l.01-.1c-.27-.08-.53-.2-.77-.35a26 26 0 00-3.22-1.67c-.39-.17-.75-.4-1.07-.68l-.54.47c-.31 1.08.1 2.16.16 2.32l.06.05zM25.57 22.5c.64.44 1.1 1.09 1.3 1.83a2.03 2.03 0 001.38-.52 2.02 2.02 0 01-.65.51c-.12.07-.25.12-.39.16l-.07.02.11.06c.36 0 .7-.14.95-.38.05-.18.08-.37.1-.56-.71-.24-1.98-1.46-2.45-1.93a1.8 1.8 0 01-.28.8zM27.32 24.82c-.05.45-.17 2.27.67 2.71l.27-.28-.26.02c.1-.02.21-.04.31-.08.23-.25.44-.5.64-.77a3.77 3.77 0 01-.75-1.9 1.7 1.7 0 01-.88.3zM9.9 15.39l.06.04a.66.66 0 01-.01-.07h-.06l.01.03zM13.89 11.61a1.01 1.01 0 01.13-.44.49.49 0 00-.07.05.46.46 0 00-.06.4zM14.16 11.9a.91.91 0 01.27-.5.7.7 0 01.22-.13.64.64 0 00-.18.17.8.8 0 00-.1.23 1.19 1.19 0 000 .48 4.5 4.5 0 012.05 1.4l.06.02a.5.5 0 01.26-.38c.1-.07.23-.11.35-.12l-.03-.06c-.23 0-.45.06-.64.18a1.14 1.14 0 01.43-.32c-.45-.26-1.35-.87-1.67-1.71a1.6 1.6 0 00-.69-.1.52.52 0 00-.32.38.74.74 0 000 .46h-.01zM12.72 13.69c.2 0 .38.02.57.07.03 0 1.03.26 1.32.94l.15.03a.6.6 0 01.48-.45h.16a6.68 6.68 0 01-1.26-.99 3.1 3.1 0 01-.68-1l-.14.11a1.77 1.77 0 00-.4.58l-.07.17-.05.17.03-.17.04-.17a2.16 2.16 0 01.32-.68l.02-.02-.2.02c-.2.26-.46.84-.45 1.04a.8.8 0 00.16.35zM12.64 12.39a.47.47 0 00-.22.25.64.64 0 00-.02.25c.07-.17.14-.34.24-.5zM13.64 12.06c.1.3.26.59.47.83 0-.18.01-.37.05-.55l-.02-.01a.85.85 0 01-.13-.18.67.67 0 01-.33-.38c-.04.07-.1.14-.16.2l.09-.01.03.1zM15.4 17.8l.07.07.38-.3a5.77 5.77 0 01-.02-2.67.55.55 0 00-.66-.14.8.8 0 00-.29.22c.38.7.46 2.15.48 2.66l.09-.02.27-.03c-.08.04-.16.08-.23.14l-.09.07zM14.33 18.51l.03.03c.12-.1.26-.2.4-.27v-.09a7.07 7.07 0 01-.79-2.42 2.98 2.98 0 00-.37.95c.39.47.63 1.03.7 1.63l.06-.02.28-.1c-.08.06-.15.13-.21.2-.04.02-.07.06-.1.1zM9.63 15.35c-.24 0-.48.01-.71.05a4.8 4.8 0 01-1.73 1.73l.03.02a1.79 1.79 0 00.56.3c.14.04.28.08.42.1l.22.05.22.02h-.45a3.26 3.26 0 01-.86-.19c.03.05.08.1.13.13.23.11.72.25.92.19.18-.05.37-.1.56-.12a2.95 2.95 0 00.75-2.14l-.06-.14zM8.3 18.12L8.23 18a2.5 2.5 0 01-.85-.22l-.18.3a2.6 2.6 0 00.45.13c.2.03.41.03.61-.02-.1.04-.2.08-.3.1l-.32.04c-.1 0-.22 0-.32-.02h-.08a6 6 0 001.59 1.93 3.07 3.07 0 01-.53-2.12zM10.14 15.86l-.2-.15c0 .21-.03.43-.07.63.03.28.13.54.29.76-.07-.41-.06-.84.02-1.25l-.04.01zM12.39 13.6a.81.81 0 01-.07-.19c-.15-.25-.2-.56-.13-.85a.64.64 0 01.15-.24 3.64 3.64 0 00-.17-.07l-.08.2-.06.33c-.02.11-.02.22 0 .33.01.12.04.23.09.33a1.2 1.2 0 01-.21-.66v-.17c-.2.24-.44.45-.71.6l.92.49a.92.92 0 01.27-.1zM10.2 15.38l.05.21c.14-.03.42-.09.74-.13a11.3 11.3 0 00-.8-.08zM5.9 17.51c1.2-.6 1.68-1.96 1.86-2.75a3.75 3.75 0 01-.07-.19c-1.08 1.43-2.56 1.41-3.88 1.4-.62 0-1.2-.02-1.7.12-.12.07-.22.16-.32.25a13.15 13.15 0 00.02 1.56l.24.01c1.17.07 2.77.14 3.85-.4z"/><path fill="#fff" d="M17 34a17 17 0 110-34 17 17 0 010 34zm0-33a16 16 0 100 31.99 16 16 0 000-32z"/></svg>