<svg xmlns="http://www.w3.org/2000/svg" fill="none" viewBox="0 0 34 34"><path fill="#fff" d="M17.06 33.88h-.22A16.94 16.94 0 1117.04 0h.24A16.96 16.96 0 0134 17.16a16.96 16.96 0 01-16.94 16.72zm0-33.22a16.28 16.28 0 00-.2 32.56h.2A16.28 16.28 0 0017.28.66h-.21z"/><path fill="#fff" d="M17.78 24.9a1.83 1.83 0 01-.18-.56l-.46.33-1.23-.66-.04.87c.47.21.92.46 1.36.73l.55-.7zM16.35 22.44l.59.01c.07-.1.32-.54.22-1.5l-.32-.05-.7-.15a2.97 2.97 0 00-.27 1.7l.48-.01zM17.4 23.94a2.4 2.4 0 01-.3-1.31c-.25-.02-.5-.02-.75-.02H16v.9l1.11.63.3-.2zM18.04 27.83a9.95 9.95 0 01-.05-.4l-.5.53-.87-.64c0 .16-.02.31-.03.46l1.01.63.45-.35a1.1 1.1 0 01-.01-.23zM20 19.12c-.45.94-.3 1.43-.2 1.59.41-.3.9-.48 1.4-.53-.12-.6-.95-.96-1.2-1.06zM17.3 26.38l-.07-.06a4.16 4.16 0 00-.54-.41l-.02.54.76.56.5-.54c-.02-.39 0-.71 0-.9l-.63.8z"/><path fill="#fff" d="M16.63 27.12l.84.61.5-.51-.04-.51-.48.52-.79-.58-.03.47zM17.71 24.06l.03.03v.07c.18.06.37.08.56.04l.07-.1c-.35-.16-.67-.4-.9-.7l-.05-.06.45-.47a.65.65 0 01-.06-.14 2.3 2.3 0 00-.55-.09c0 1.05.45 1.42.45 1.42zM17.26 22.47c.05-.1.22-.52.17-1.46l-.1-.02c.07.81-.09 1.27-.2 1.47l.13.01zM19.13 22.06c.07-.3-.04-.97-.37-1.06a.44.44 0 00-.41.05.95.95 0 01.18.92c-.05.16-.12.31-.21.46a1 1 0 01-.16.2.48.48 0 01-.18.1.36.36 0 00.4.23c.41-.03.68-.57.75-.9zM17.98 25.23l-.11-.16-.62.77-.06-.05c-.43-.28-.87-.52-1.33-.73l-.01.19c.5.24.99.54 1.44.89l.69-.91z"/><path fill="#fff" d="M17.52 22.49l.17.02a1.17 1.17 0 00.35-1.4l-.44-.07a3.3 3.3 0 01-.17 1.44l.09.01zM18.37 20.55l.06.28a.68.68 0 01.38 0 .7.7 0 01.42.5l.02-.03c.08-.15.2-.3.33-.42a2.08 2.08 0 00-1.2-.33zM17.88 20.19c-.2.17-.35.4-.41.65l.73.12a.39.39 0 01.07-.06l-.07-.37c-.13-.1-.23-.21-.32-.34z"/><path fill="#fff" d="M17.88 22.56l.04.02s.03 0 .05-.02a.37.37 0 00.08-.05c.05-.05.1-.11.14-.18.08-.13.14-.27.18-.41a.9.9 0 00.02-.44.8.8 0 00-.14-.3 1.34 1.34 0 01-.37 1.38zM18.67 23.86l-.32-.73a.52.52 0 01-.37-.14l-.33.35c.23.27.51.48.84.62v.02a.6.6 0 01.18-.12zM23.51 26.94a.32.32 0 00-.03-.12.55.55 0 00-.18-.21l-.03.04a.84.84 0 01-1.06.03c-.29-.26-.35-.65-.33-1 .01.35.11.72.38.93a.71.71 0 00.9-.09.4.4 0 00.1-.4.52.52 0 00-.23-.38.27.27 0 00-.37.06.26.26 0 00-.06.2c0 .06.04.13.08.18l.18.2-.25-.06a.48.48 0 01-.32-.33 1.54 1.54 0 01-.06-.4v-.4c0-.12 0-.24-.04-.36a.7.7 0 00-.1-.18c-.23.35-.36.76-.37 1.17-.02.44.02.88.11 1.31.05.21.13.41.25.6.1.17.27.3.47.35.23.05.47 0 .67-.11a.75.75 0 01-.3-.1.44.44 0 01-.2-.3.32.32 0 01.25-.39c.05 0 .11 0 .16.02a.24.24 0 00-.21.13.37.37 0 00-.04.22c.02.14.2.24.37.25a.35.35 0 00.31-.12v-.02a.4.4 0 00.06-.09.4.4 0 00.03-.23.21.21 0 00-.13-.15l-.08-.03.03-.09a.29.29 0 00.04-.13z"/><path fill="#fff" d="M23.52 24.56a2.05 2.05 0 00-2.66-1.5 2.35 2.35 0 00-1.08 3.43l.02-.03.09-.2-.02.02c-.2-.3-.3-.67-.3-1.04a2.35 2.35 0 01.26-1.02 1.92 1.92 0 011.73-1.01c-.35 0-.7.1-.98.3a1.88 1.88 0 00-.84 1.23c-.03.17-.05.34-.04.51 0 .3.09.6.25.86l.14-.36c.17-.49.39-1.01.82-1.36a.98.98 0 01.39-.2.84.84 0 01.42.03.97.97 0 01.63.55c.04.14.05.28.04.42v.39c0 .11.02.23.05.35a.43.43 0 01.1-.22.44.44 0 01.27-.18c.08-.01.16 0 .24.03l.08-.27.04-.33c.02-.22 0-.45-.08-.66a1.65 1.65 0 00-.94-.95 1.62 1.62 0 011.15 1.62c0 .12-.01.23-.03.35l-.08.33a.6.6 0 01.16.2c.22-.39.28-.85.17-1.29zM21.45 20.17c.42-.02.84.06 1.22.24.3-.6-.17-1.32-.32-1.52-1.08.66-.91 1.23-.9 1.28zM16.04 30.15l-.31-.03a3.88 3.88 0 01-1.15 1.74c.35.06.7.1 1.06.14.2-.6.35-1.23.46-1.85h-.06zM18.1 31.75a.76.76 0 01-.28.04.5.5 0 01-.37-.17.52.52 0 01-.13-.4c.01-.1.06-.2.14-.27a.64.64 0 01-.17-.3.56.56 0 01.07-.44.76.76 0 01.63-.36.49.49 0 01.03-.32.64.64 0 01.4-.32 4.46 4.46 0 01-.32-.98l-.48.38-1.05-.64c-.1 1.37-.36 2.73-.76 4.05a15.4 15.4 0 002.54 0L18.3 32a.5.5 0 01-.2-.25zM23.88 25.45l-.18-.04a1.7 1.7 0 01-.27.64.2.2 0 010 .03v.1a1.1 1.1 0 00.78-.46.79.79 0 01-.33-.27zM25.32 23.83c-.25.24-.57.39-.91.42a.85.85 0 01-.33-.07c.1.39.08.8-.07 1.16.08.12.2.2.33.24 1.05-.4 1.28-1.42 1.32-1.77l-.3.02h-.04zM25.9 20.93l-.13.04c-.14.06-.3.1-.45.14a.32.32 0 00-.08.19.12.12 0 00.05.08c.14.13.79-.04.91-.11a.6.6 0 00.05-.38.28.28 0 00-.07-.16.75.75 0 01-.28.2zM25.73 22.06a.87.87 0 01-.5-.1c-.1.3-.31.7-.7.82.24.07.6.27.82.88.11 0 .23 0 .34-.03l.02-.01c.33-.22.31-1.13.27-1.57l-.25.01zM15.37 28.87l-.1.06a1.15 1.15 0 00.95.52l.01-.08c-.57-.12-.78-.36-.86-.5zM17.57 24.16a.8.8 0 01-.08-.09l-.38.27-1.29-.73v-1h-.09l.02 1.11 1.37.75.45-.31zM18.35 19.12a1.5 1.5 0 00-.38.9c.08.14.19.27.32.38.46-.04.91.07 1.31.3-.1-.25-.17-.78.26-1.67a3.22 3.22 0 00-.22-.63c-.32-.05-.78.2-1.3.72z"/><path fill="#fff" d="M20.83 17.78c-.7.13-.97.43-1.04.53.1.2.17.41.22.63.17.06.97.38 1.26.95.05-.28.26-.7 1-1.16.02-.27.01-.54-.02-.81a2.47 2.47 0 00-1.42-.14zM14.73 28.93a1.14 1.14 0 00.78-.41c.46-.57.46-1.57.4-2.3.05.95-.12 1.68-.51 2.2-.17.22-.4.4-.67.51zM13.55 30.2l.4.11a.32.32 0 01.23.34c.3-.26.58-.55.83-.86-.25-.2-.47-.44-.62-.73l-.03-.06a2.67 2.67 0 01-.5-.13c-.19-.08-.4-.13-.6-.15a.52.52 0 00-.42.18.81.81 0 00-.12.7.63.63 0 00.4.47c.14.05.28.1.43.13zM15.13 29c-.17.07-.35.1-.53.1.18.28.67.93 1.53.88l.06-.36a1.3 1.3 0 01-1.06-.62z"/><path fill="#fff" d="M14.03 30.98c-.2.13-.43.23-.67.29.06.01.11.04.16.07.1-.1.21-.16.34-.18a.57.57 0 01.67.53c.48-.44.83-1 1.04-1.6-.15-.05-.29-.12-.42-.2-.33.4-.7.77-1.12 1.09zM26.24 21.43a2.28 2.28 0 01-.86.16.22.22 0 00-.05.24c.06.1.75.09.88.02.06-.08.1-.17.09-.28a.18.18 0 00-.06-.14zM15.04 22.47h.08c-.07-.31-.21-1.23.32-1.93l-.07-.02c-.54.66-.36 1.73-.33 1.95zM13.29 15.87a4.28 4.28 0 00-.13 1.03v.12c0 .03.12.28.26.57.15-.18.53-.64.93-1.21a1.76 1.76 0 01-1.06-.51z"/><path fill="#fff" d="M15.6 20.6c-.54.66-.37 1.61-.31 1.86h.2a2.7 2.7 0 01.3-1.8l-.19-.06z"/><path fill="#fff" d="M15.95 20.7c-.3.54-.4 1.16-.29 1.75h.05c-.08-.59.01-1.19.27-1.73l-.03-.01zM25.16 21.6c-.7-.35-1.08-.2-1.21-.12a2.4 2.4 0 01.43 1.17c.54-.1.73-.83.78-1.04zM14.23 20c.22.05.43.11.64.18l.33.14a18.11 18.11 0 001.67.43l.43.07c.08-.31.25-.58.5-.78.02-.39.17-.76.43-1.05.3-.3.71-.63 1.1-.74 0-.4.04-.8.12-1.2a6.62 6.62 0 00-1.62-2.68c-.39.27-.84.43-1.31.46h-.22c-.27 0-.54-.04-.8-.12a8.93 8.93 0 01-.85 1.52 6.9 6.9 0 001.72-.18c.14-.02.29-.05.45-.06.15-.02.3 0 .44 0 .3 0 .6 0 .9.02l-.9.06c-.14 0-.3 0-.44.02-.03 0-.06 0-.1.02a2.34 2.34 0 01.04 1.23l.31.04.35.04a1.53 1.53 0 01-.7.09 1.18 1.18 0 01-.68-.01l.65-.15-.01-.2-.02-.36c0-.22.02-.45.05-.67l-.32.07c-.58.15-1.18.23-1.78.21h-.07c-.32.47-.67.92-1.05 1.35.1.19.2.36.32.53.37.5.42 1.61.42 1.72zm2.4-1.29c.08-.18.11-.37.1-.56.04.04.06.1.08.15.02.05.03.11.03.17 0 .09 0 .18-.03.26l.09.01.18.02h.2l.2.01a1.25 1.25 0 01-.6.13l-.07-.01a1.17 1.17 0 01-.01.49l-.1-.3a4.18 4.18 0 01-.06-.2.98.98 0 01-.22.03.6.6 0 01-.31-.07c.18 0 .36-.05.52-.13zM15.77 25.4l-.05-.03-.05-.02.06-1.16c-.23.2-.49.39-.76.53 0 .46-.03.92-.09 1.37.29-.2.61-.33.95-.4l-.06-.3zM15.64 28.62l-.14.14c.04.09.2.31.76.44.15-1.12.24-2.26.26-3.4a9.52 9.52 0 00-.56-.31c.1.5.4 2.26-.32 3.13zM25.2 23.72c-.25-.68-.67-.78-.82-.8-.01.38-.1.75-.24 1.1.45.2.92-.19 1.05-.3zM22.89 30.66a1.4 1.4 0 01-.27-.5 1.98 1.98 0 01-.09-.4.2.2 0 00-.03 0 .74.74 0 01-.35-.04c.08.46.26.9.53 1.28l.4-.16a1.32 1.32 0 01-.2-.18zM24.18 30.14a.28.28 0 00-.15.17l-.01.1.55-.3a.37.37 0 00-.15-.03.56.56 0 00-.24.06zM21.96 29.6a.78.78 0 01-.13-.16c0 .6.19 1.2.52 1.7l.16-.07c-.3-.44-.48-.95-.55-1.48zM21.33 29.4a.53.53 0 01-.13-.1.26.26 0 00-.2 0 .27.27 0 00-.18.15.4.4 0 000 .24.41.41 0 01-.02-.25.32.32 0 01.18-.2c.04-.01.1-.03.15-.02a.63.63 0 01-.04-.06.96.96 0 01-.23-.17.76.76 0 01-.23-.58c0-.08.02-.15.04-.22a.57.57 0 01-.22-.2 8.45 8.45 0 01.02 1.3c-.01.12-.04.24-.07.36a.6.6 0 01-.25.3.76.76 0 01-.37.13c-.06 0-.13 0-.2-.02a.23.23 0 01-.17-.17l-.02-.1h.11a.16.16 0 00.17-.13.22.22 0 00-.06-.23.3.3 0 00-.27-.05.35.35 0 00-.22.17l-.06.11-.08-.1a.69.69 0 00-.27-.19.4.4 0 00-.3 0 .48.48 0 00-.24.21.34.34 0 000 .3l.08.14-.16-.02a.6.6 0 00-.65.43.39.39 0 000 .16c.03.11.1.2.2.27l.09.07-.1.07a.35.35 0 00-.15.23.36.36 0 00.2.35l.15.03c.1 0 .2-.02.29-.07l.1-.05.02.12a.35.35 0 00.15.23.6.6 0 00.59-.04.7.7 0 00.21-.24l.05-.09.08.06c.08.07.18.1.29.11.1 0 .2-.03.28-.1a.32.32 0 00.14-.24.7.7 0 00-.06-.31l-.06-.14.15.02a.4.4 0 00.24-.04.19.19 0 00.07-.19l-.01-.13.12.05a.5.5 0 00.19.03.4.4 0 00.17-.05c.06-.03.1-.08.15-.13a.87.87 0 00.1-.17l.01-.03.03-.02a.55.55 0 00.29-.3v-.05a.53.53 0 00-.04-.4.31.31 0 00-.05-.05zM12.28 30.7c-.21-.2-.37-.33-.52-.33-.05 0-.1.02-.14.04a.32.32 0 00-.17.2.73.73 0 00.04.4c.23.1.47.18.72.27.25-.02.5-.05.76-.1-.26-.1-.5-.27-.69-.48zM14 30.64c0-.03.04-.12-.12-.17a3.31 3.31 0 00-.37-.11 3.13 3.13 0 01-.4-.12c-.34.06-.68.09-1.01.1l.3.24c.22.21.46.44.76.47.44.04.8-.21.85-.4z"/><path fill="#fff" d="M19.29 31.72a.85.85 0 01-.2.22l.25-.03.02-.15a.6.6 0 01-.07-.04zM23.96 28.13l-.08-.03.02-.07a.9.9 0 000-.13c0-.04 0-.08-.02-.11a.14.14 0 00-.07-.06.24.24 0 00-.08 0 1.26 1.26 0 01-.51.43c-.22.1-.47.13-.71.07a.98.98 0 01-.58-.42 2.86 2.86 0 01-.33-.98 3.24 3.24 0 01-.01-1.03c.04-.42.21-.83.48-1.16a.8.8 0 00-.14-.13c-.85.85-.64 2.58-.64 2.6h-.07c.05.16-.1.35-.25.28a.18.18 0 00.13-.02.17.17 0 00.08-.1.2.2 0 000-.15h-.05v-.07h-.02a.47.47 0 00-.49.12.64.64 0 00-.08.5c0 .09.04.17.09.24a.4.4 0 00.19.13l.08.03-.02.08a.92.92 0 00-.05.25.61.61 0 00.17.46c.06.06.13.1.2.15l.03.01.01.02a.44.44 0 00.43.24c.06 0 .12-.01.17-.03l.07-.03.04.07c.06.1.14.18.23.24.1.05.22.07.33.06a.9.9 0 00.34-.1c.1-.04.19-.12.24-.22l.03-.04h.04a.4.4 0 00.23-.1.26.26 0 00.07-.1.32.32 0 00.03-.11l.14-.06.05.01a.6.6 0 00.08 0c.05 0 .1 0 .16-.03a.37.37 0 00.23-.2.5.5 0 00.03-.32.31.31 0 00-.22-.2zM18.77 29.22c.1.04.19.1.26.18a.5.5 0 01.48-.19c.07.01.14.04.2.09.06.04.1.11.13.19a.5.5 0 010 .22.34.34 0 01-.13.2h-.03.1a.58.58 0 00.48-.32 4.97 4.97 0 00.13-.64.35.35 0 01-.18.17.42.42 0 01-.32 0 .32.32 0 01-.16-.21.81.81 0 01-.2.1.57.57 0 01-.32 0 .42.42 0 01-.27-.2.53.53 0 01-.06-.22c-.14.02-.28 0-.41-.03a.59.59 0 01-.13-.05c.06.23.14.46.24.68a.6.6 0 01.19.03z"/><path fill="#fff" d="M18.95 28.4l.12-.02-.01.12c-.01.08 0 .16.03.23a.26.26 0 00.16.15.6.6 0 00.49-.1l.07-.04v.08a.27.27 0 00.11.23c.09.04.18.05.27.02a.32.32 0 00.21-.2c.03-.29.04-.6.05-.9a.6.6 0 01-.09-.2.98.98 0 01-.52.64.94.94 0 01-.74-.06.55.55 0 01-.2-.19.63.63 0 01-.05-.52.5.5 0 01.63-.38c.1.02.17.07.24.14a.4.4 0 01.07.28c0 .04 0 .09-.02.13h.01c.04-.04.07-.1.1-.15.04-.12.08-.24.1-.37.06-.26.1-.54.17-.8.07-.27.16-.54.26-.8.13-.24.27-.48.42-.7-.1.25-.2.5-.27.77-.1.25-.18.5-.25.77-.07.26-.1.52-.16.8-.03.13-.07.27-.13.4a.6.6 0 01-.13.2.23.23 0 01-.3.04l-.04-.04.03-.06a.37.37 0 000-.35.36.36 0 00-.34-.1c-.24.07-.35.45-.2.66.03.05.07.1.13.12.06.04.13.06.2.08.13.03.27.02.4-.03a.97.97 0 00.57-.52.77.77 0 01.17-.6h-.02c0-.08.1-1.94.96-2.77a.77.77 0 00-.45.17c-.38.32-.6.8-.77 1.3-.08.24-.18.5-.3.73a.66.66 0 01-.13.18.35.35 0 01-.23.1.52.52 0 01-.4-.22l-.1-.12.17-.02a.1.1 0 00.1-.1c0-.05-.04-.1-.1-.11a.2.2 0 00-.2.05.35.35 0 00-.05.1c-.02.03 0 .06-.01.06l-.09.13a.35.35 0 00-.37.21.69.69 0 00-.07.25c0 .07 0 .15.05.22l.07.11-.13.02a.34.34 0 00-.23.29l-.01.1.07.43.06.07a.5.5 0 00.17.1c.15.03.3.03.45 0z"/><path fill="#fff" d="M21.68 24.38c-.78.62-.97 2.2-1 2.63.13-.06.29-.07.43-.01-.03-.43-.07-1.8.67-2.58a.74.74 0 00-.1-.04zM18.32 27.28a.58.58 0 01-.03-.24c.01-.1.04-.2.08-.3.05-.11.13-.2.23-.26a.53.53 0 01.22-.05l.02-.09c.02-.05.05-.1.1-.14a.37.37 0 01.09-.07c-.35-.2-.67-.45-.93-.75-.03.68-.01 1.37.06 2.04.04-.06.1-.1.16-.14zM23.8 21.3c.51-.25.25-1.29.16-1.59-.79.29-1 .54-1.06.67a.16.16 0 00-.01.13c.35.2.66.47.92.79zM19.27 26.1c.06.01.1.04.15.07a2.45 2.45 0 01-.16-.59.75.75 0 01-.18-.37v-.09l-.02.15c-.31-.03-.62-.1-.92-.2l-.06-.02v-.07c.02-.2.06-.4.14-.59h-.1c-.12 0-.24-.02-.36-.05.18 1.1 1.45 1.7 1.47 1.71l-.02.04.06.01zM20.28 23.17l-.02.04c.16-.13.35-.23.55-.3l.14-.05-.3-.06c-.14.1-.27.22-.37.37zM19.66 26.63l-.14-.25a.3.3 0 01-.08.17.15.15 0 01-.04.03c.05.04.1.07.17.07.04 0 .07 0 .1-.02zM18.07 25.36v.01h.02l-.02-.01z"/><path fill="#fff" d="M19.28 21.5c.04.2.05.4.01.6-.08.36-.35.9-.78 1l.54 1.6-.31-.7c-.35.13-.46.72-.49.92.27.09.54.14.82.18l-.01-.42-.02-1.03h.01c.11.33.17.68.18 1.03v.26l-.01.24c0 .07 0 .14.03.2-.03-.38.04-.75.19-1.1.13-.31.32-.6.55-.83a.99.99 0 01.4-.6.6.6 0 01.14-.08c-.14-.01-.3 0-.43.02v-.02a.65.65 0 01.52-.16c.17.02.32.1.43.22.28-.06.58-.07.86-.02l-.52-.59c-.3-.24-.66-.4-1.04-.43a4.41 4.41 0 01-1.07-.3zM23.85 25.27c.12-.27.15-.58.1-.87-.06.1-.14.2-.24.28.03.19.03.38.01.56l.13.03z"/><path fill="#fff" d="M24.2 22.44c-.17-.96-1.37-2.27-2.9-2.1-1.3.13-1.79.84-1.9 1.03l.05.01a2.55 2.55 0 012.51-.97c.83.14 2.1 1.14 2.16 2.22.04.62-.13 1.23-.48 1.73l.04.14c.43-.6.61-1.33.51-2.06z"/><path fill="#fff" d="M23.95 22.64c-.05-1-1.26-1.94-2.02-2.07-.76-.13-1.76.1-2.32.88.24.08.48.15.74.18l.26.05v-.01c.02-.02.6-.48 1.63-.3a1.58 1.58 0 011.11.91 1.79 1.79 0 01.04 1.54c.06.1.12.22.17.35.29-.46.42-1 .39-1.53z"/><path fill="#fff" d="M22.52 23.02c.09.05.18.1.27.17 0-.24-.06-.8-.51-1a1.35 1.35 0 00-.82-.1l.03.03.66.74-.02.01c.14.04.26.1.39.15z"/><path fill="#fff" d="M23.28 23.66a1.64 1.64 0 00-.08-1.3 1.41 1.41 0 00-1-.82c-.47-.1-.96-.03-1.39.2.04 0 .09.03.13.04a1.96 1.96 0 011.54 0 1.26 1.26 0 01.68.75c.12.33.14.68.04 1.02.01.03.05.07.08.1z"/><path fill="#fff" d="M23.06 23.41c.05-.27.03-.56-.06-.82a1.11 1.11 0 00-.59-.66 1.8 1.8 0 00-1.26-.06l.15.1c.35-.11.72-.08 1.05.07.6.26.65 1.02.6 1.26l.11.11zM17.15 9.44c-.09.23-.24.42-.44.56-.2.1-.43.15-.66.14-.36 0-.72-.09-1.05-.25a1.7 1.7 0 01-.3-.23v.92c-.04.24.31 1.61 1.03 1.87a1.15 1.15 0 001.02-.09 1.25 1.25 0 00.55-.98 6.5 6.5 0 00-.15-1.94zM13.26 15.84a2.48 2.48 0 01-.56-1.12.82.82 0 00-.49-.67c.15.05.28.14.38.25a.8.8 0 01.2.4 2.37 2.37 0 00.55 1.02c.13.14.28.25.44.34.21.1.44.17.68.18.34-.5.63-1.02.87-1.57-.4-.16-.77-.4-1.06-.73-.22-.25-.41-.53-.56-.82a3.88 3.88 0 00-2.03-1.28c-.18.14-.35.29-.5.45-.18.2-.33.41-.44.66-.2.49-.28 1.02-.23 1.55.01.27.05.52.07.8l.05.54c.17.09.82.35 2.5.35.03-.12.08-.24.13-.35zM11.57 5.72l.18.11a6.46 6.46 0 012.01-1.64.58.58 0 01.06-.13l.06-.13-.1.04a7.1 7.1 0 00-2.2 1.75z"/><path fill="#fff" d="M16.8 14.43a.64.64 0 01-.35.03h-.05c-.95 0-1.73-.5-2.32-1.46a6.22 6.22 0 01-.7-2.36l-.17.05c.07.8.29 1.6.65 2.33a4 4 0 00.54.8 2.53 2.53 0 002.1.84 2.19 2.19 0 001.7-.92 5.86 5.86 0 00.95-3.54l-.21-.01c.1 2.82-1.16 4.04-2.13 4.24z"/><path fill="#fff" d="M13.5 10.62c.01.26.15 1.44.68 2.33.5.82 1.14 1.29 1.91 1.38a.85.85 0 01-.38-.6c-.78-.2-1.4-.83-1.74-1.8a5.59 5.59 0 01-.3-1.35l-.18.04zM13.1 16.35c-1.49 0-2.18-.2-2.46-.33v.16c.16.07.85.34 2.44.28 0-.04 0-.08.02-.11zM12.56 16.64c-1.1 0-1.67-.18-1.9-.28v.65c.77.16 1.56.19 2.35.09l-.02-.03.05-.02v-.15l.01-.28-.49.02zM11.84 22.2l.03.04c.06.06.44 0 .67.08.25.06.5.1.75.14.5.04 1.02.04 1.52 0h.06c-.05-.28-.18-1.32.35-2.01l-.07-.03-.32-.14a5.8 5.8 0 00-1.85-.43c-.02 0-.03.02-.04.03-.2.08-.41.11-.62.07.2 0 .4-.06.56-.18a.57.57 0 00.28-.45c0-.4-.01-.8-.06-1.2l-.04-.6c-.38.04-.75.06-1.13.07-.43 0-.86-.04-1.28-.13v1.07l.02.82c0 .54.08 1.07.26 1.57s.5.94.9 1.28zM10.66 17.18v.12c.23.06 1 .22 2.4.07v-.11a7.65 7.65 0 01-2.4-.08zM12.68 7.54c-.03.2.21.66.55.97a5.66 5.66 0 00-.33-1.11c-.06 0-.11 0-.16.03a.14.14 0 00-.06.1z"/><path fill="#fff" d="M15.7 13.62c0-.12.03-.23.08-.34-.34-.1-1.5-.59-1.66-2.8l-.33.07c.04.47.3 2.61 1.92 3.07zM12.67 6.68c.37-.54.85-.99 1.42-1.31h-.06l-.7-.07-.12-.02.06-.1c.05-.1.3-.53.46-.63a.3.3 0 01.06-.03.35.35 0 01-.04-.1.4.4 0 010-.1c-.73.4-1.38.93-1.9 1.57.31.23.59.5.82.8z"/><path fill="#fff" d="M14.35 5.48a.36.36 0 01-.11-.07c-.6.33-1.12.8-1.5 1.37l.1.15c.14-.3.53-.94 1.51-1.45zM16.82 12.5c-.2.13-.44.2-.68.2-.16 0-.33-.03-.48-.1-.82-.29-1.19-1.74-1.15-2.04l.01-.18-.29.07c.14 2.24 1.34 2.67 1.6 2.73a.84.84 0 011.18-.27c.2-.1.38-.24.5-.44.23-.35.46-1.05.29-2.35l-.4-.03c.06.43.08.87.05 1.3a1.42 1.42 0 01-.63 1.11zM16.16 5.43c-.4.05-.82.48-.9.93l-.01.11-.1-.05a1.73 1.73 0 00-1.24-.07.72.72 0 00-.46.37c-.12.26-.1.65.07 1.07a5.1 5.1 0 001.55 1.95c.54.29 1.25.3 1.55.12.29-.18.41-.51.57-1.14.14-.56-.18-2.14-.51-2.95a.48.48 0 00-.52-.34zm.41 1.18v.02a.73.73 0 00-.35.14.64.64 0 00-.23.3h-.02a.31.31 0 01-.03-.27.41.41 0 01.15-.2.38.38 0 01.49 0h-.01zm-.7-.62c.1-.06.2-.1.31-.11.11-.02.23 0 .33.05v.02a1.12 1.12 0 00-.94.6h-.01a.64.64 0 01.32-.56zm-1 1.42c-.15-.02-.3-.01-.44.02a.7.7 0 00-.2.07.41.41 0 00-.17.14h-.02a.3.3 0 01.1-.29.48.48 0 01.24-.13.54.54 0 01.26 0c.09.04.17.09.23.16v.03zm.1-.55c-.12-.06-.24-.1-.37-.1-.13-.02-.26 0-.39.04-.25.08-.47.23-.65.42l-.01-.02a1.34 1.34 0 01.62-.54c.14-.06.29-.1.44-.1.16.01.3.05.45.11l.01.01c.11.08.2.19.28.3a1.88 1.88 0 01.22.7l.01.34c.01.21 0 .48.06.44.06 0 .11 0 .16.02a.2.2 0 00.12 0l.3-.15v.02l-.25.2a.6.6 0 01-.33.05.17.17 0 01-.16-.07.39.39 0 01-.05-.16l-.04-.33a3.17 3.17 0 00-.1-.64 1.1 1.1 0 00-.32-.54zm1.22 2.35c-.11.03-.23.04-.34.04v-.01a.65.65 0 01.29-.2l.14-.02h.19l.01.01a.66.66 0 01-.29.18zm.16-.43c-.1.05-.2.08-.31.12l-.63.19v-.02c.17-.15.37-.26.58-.33l.32-.08c.1-.02.22-.02.33-.03l.01.01c-.1.06-.2.1-.3.14z"/><path fill="#fff" d="M17.03 5.24a4 4 0 00-1.95.14l-.12.23-.03.06-.35-.12c-1.24.6-1.57 1.4-1.63 1.56.4.78.53 1.77.56 2.14l.5-.34a5.33 5.33 0 01-.63-1.06c-.11-.27-.27-.78-.07-1.2a.87.87 0 01.56-.46c.42-.13.86-.11 1.26.04.13-.48.57-.9 1.02-.96a.64.64 0 01.7.43c.26.68.43 1.38.52 2.1l.68-.04a3.68 3.68 0 01-1.02-2.52zM13.05 10.87c-.4.27-.8.54-1.19.84.62.18 1.18.51 1.65.96a6.56 6.56 0 01-.46-1.8zM20 31.69a.65.65 0 01-.3.12v.03l.34-.06v-.13c-.02.02-.03.04-.05.04zM19.55 31.81a.7.7 0 01-.18-.04v.13l.18-.03v-.06zM14.37 31.68a.4.4 0 00-.17-.28.43.43 0 00-.58.08l-.05.09-.08-.06a.66.66 0 00-.38-.12c-.1 0-.2.03-.28.08.5.14 1.01.26 1.52.36l.02-.15zM21.77 31.17a6.8 6.8 0 01-.3-1.05.62.62 0 01-.15.17c.06.38.15.75.27 1.12l.24-.09-.06-.15zM21.66 29.46c-.06 0-.12 0-.18-.02.07.12.1.26.08.4h.03c.05.43.15.87.3 1.29l.06.15.24-.08a3.27 3.27 0 01-.53-1.74zM20.97 31.38c0-.25.02-.5.05-.75a.7.7 0 01-.1.07.59.59 0 01-.4.06.4.4 0 010 .07.32.32 0 01-.14.16.48.48 0 01-.17.06h-.05a.76.76 0 01.02.37l.02.33.78-.18-.01-.19zM21.23 30.34a.95.95 0 01-.1.19.6.6 0 01-.07.07 6.4 6.4 0 00.08.92l.33-.1a6.4 6.4 0 01-.16-1.13.53.53 0 01-.08.05zM13.41 25.1c-.03.64-.16 1.28-.4 1.9l.22-.04c.23 0 .45-.07.64-.19.1-.56.16-1.14.18-1.72-.07.02-.15.03-.22.03l-.35.01h-.07zM15.75 23.92h-.01a4.5 4.5 0 01-1.91.9h-.33c-.34.01-.68-.04-1-.15a.51.51 0 01-.1.11c.46.14.94.19 1.41.14a3.45 3.45 0 001.94-.96v-.04z"/><path fill="#fff" d="M12.56 29.63a.97.97 0 01.16-.84.67.67 0 01.54-.24c.22.02.44.07.65.15.18.08.36.12.56.12.32-.06.6-.25.79-.52.4-.52.56-1.36.43-2.42-.44.16-.86.39-1.23.68l-.47.33c-.23.15-.49.23-.76.23-.15.01-.23.02-.31.12-.22.27-.25.27-.65.3h-.17c-.1.01-.18.03-.27.06a9.06 9.06 0 00-.4 2.73.43.43 0 01.1-.07.42.42 0 01.33-.05v-.06c.33.02.66 0 .99-.05a.75.75 0 01-.29-.47zM12.64 24.1c.4.11.8.15 1.22.11.72-.07 1.53-.6 1.71-.73v-.14c-.4.32-.88.55-1.4.67a3.07 3.07 0 01-1.52-.05l-.01.14z"/><path fill="#fff" d="M12.6 24.32a1 1 0 01-.03.19c.4.13.82.17 1.24.13a4.3 4.3 0 001.77-.82v-.14c-.29.2-1.01.63-1.7.7l-.33.01a3.5 3.5 0 01-.93-.12l-.01.05zM11.73 27.44l.04.02c.1-.04.21-.06.33-.07l.17-.01c.35-.02.35-.02.52-.24l.03-.02-.03-.02s.35-.65.46-2.01c-.21-.01-.42-.04-.62-.08-.1.29-.46 1.18-.85 1.6-.25.3-.4.66-.42 1.04.11-.08.23-.14.35-.18l.02-.03zM14.21 25.02c-.01.55-.06 1.09-.14 1.63l.3-.21.34-.24h-.02s.08-.18.11-1.39c-.19.1-.38.16-.59.21zM13.27 22.63l-.33-.06c-.05.21-.17.77-.25 1.23.48.13.98.15 1.46.05.52-.13 1.01-.38 1.42-.72v-.51l-.74.02c-.52.04-1.04.03-1.56-.01zM13.74 3.87l.2-.09.07-.17-.16.07a7.23 7.23 0 00-2.51 1.89l.14.08a7.18 7.18 0 012.26-1.78zM17.37 6.35c.05.15.1.3.17.43.06-.49.05-.97-.05-1.03a.27.27 0 00-.26-.01c.03.2.07.41.14.61zM17.11 12.99c.1.1.19.21.24.35.22-.13.4-.31.52-.53.26-.41.55-1.2.48-2.66l-.43-.03c.26 2.15-.5 2.72-.8 2.87zM17.23 3.34c-.94-.1-1.89.02-2.78.35l.23.1h.02a6.4 6.4 0 012.5-.28l.03-.17zM14.1 3.83l-.13.31a.32.32 0 00-.07.24c.02.05.05.09.09.12.05 0 .1 0 .15.02a.4.4 0 01.48-.17.87.87 0 01.14-.12h-.02a.2.2 0 00.03-.19.2.2 0 00-.13-.08l-.4-.18-.14.05zM15.03 5.06a.14.14 0 00-.03-.11h-.2a.4.4 0 01-.32.16h-.06l-.1.13v.02c0 .03.06.06.14.08l.38.13.1-.21h.02l.07-.2zM13.47 5.15l.58.06c.04 0 .08-.02.11-.05a.38.38 0 01.05-.12l.04.02v-.01a.4.4 0 01-.17-.33v-.04a.45.45 0 00-.28.02c-.13.13-.24.28-.33.45zM20.54 17.68l.26-.06c.52-.1 1.05-.05 1.54.16.28-.1.58-.12.87-.06a18.8 18.8 0 00-.65-1.81c-.62.56-1.36.96-2.17 1.16l.15.61z"/><path fill="#fff" d="M20.35 16.9c.8-.2 1.54-.6 2.14-1.16l-.07-.16c-.6.57-1.32.97-2.1 1.18l.03.15zM18.68 13.25c-.1.2-.21.4-.33.58-.1.16-.24.3-.38.43a6.9 6.9 0 011.58 2.53c.13-.27.23-.56.3-.86a1.09 1.09 0 00-.33-.48c-.1.09-.22.16-.34.22.23-.18.43-.4.6-.63.16-.23.28-.49.35-.76.04-.29.06-.57.05-.86l.02-.44c0-.08.02-.15.04-.22a.3.3 0 01.05-.11.28.28 0 01.1-.06c-.14.09-.11.25-.1.39l.02.44.02.44c0 .15-.01.3-.04.45a1.92 1.92 0 01-.64 1.03c.1.1.18.2.24.32.3-.12 1.48-.59 1.95-1.3-.1-.27-.18-.54-.23-.82-.12-.6-.27-1.33-.7-1.92a3.02 3.02 0 00-.2-.24c-.81.5-2.01 1.86-2.03 1.87zM15.87 13.62a.68.68 0 101.37 0 .68.68 0 00-1.37 0zm1.17 0a.5.5 0 11-.98 0 .5.5 0 01.98 0z"/><path fill="#fff" d="M20.11 16.16c.06.14.1.3.15.44.79-.2 1.5-.62 2.1-1.18l-.25-.52a5.39 5.39 0 01-2 1.26zM19.97 15.8l.02.06h.04l-.01.06.03.08c.3-.11 1.32-.53 1.98-1.27a7.65 7.65 0 00-.11-.22 4.48 4.48 0 01-1.95 1.29zM17.38 13.44a.85.85 0 01-.2.74c.85-.41 1.75-1.63 1.65-4l-.37-.03c.12 2.52-.8 3.16-1.08 3.29zM14.72 4.72a.23.23 0 10-.47 0 .23.23 0 00.47 0zM16.23 13.62a.32.32 0 10.65 0 .32.32 0 00-.65 0zM20.6 11.26c-.37-.36-.8-.64-1.27-.81 0 .8-.14 1.6-.44 2.34a9.93 9.93 0 011.7-1.53zM12.79 3a7.65 7.65 0 012.13-.83l.03-.17a4.43 4.43 0 00-2.3.92l.14.08zM25.6 19.4l-.36.35a.5.5 0 00-.16.14.57.57 0 00-.1.35h.05l.1-.02c.16-.03.31-.08.46-.13a1 1 0 00.38-.23.31.31 0 00.05-.18.52.52 0 00-.03-.2.4.4 0 00-.11-.16c-.02-.03-.12-.03-.2-.04l-.36-.08c.06.08.12.17.16.26l.11-.06zM15.55 4.34a4.03 4.03 0 00-.5-.06.48.48 0 00-.28.16.4.4 0 01.11.28.4.4 0 010 .06c.1 0 .2 0 .3-.03.14-.12.27-.26.37-.41zM11.7 4.43l.26.28a8.56 8.56 0 011.82-1.18c.83-.4 1.73-.61 2.65-.65l-.04-.35a8.94 8.94 0 00-3.62 1.1c-.4.21-.75.48-1.07.8z"/><path fill="#fff" d="M24.11 21.24c.34-.06.69 0 .99.15a.27.27 0 01-.03-.08.4.4 0 01.06-.2l-.06-.02a.23.23 0 01-.12-.14c-.06-.18.14-.42.35-.6-.05 0-.09.02-.13.03l-.13.02h-.07l-.06-.01a.16.16 0 01-.05-.04.25.25 0 01-.05-.18.71.71 0 01.13-.38.6.6 0 01.2-.18l.2-.09c-.2-.38-.53-.68-.93-.83-.04.33-.14.65-.3.94.07.22.33 1.14 0 1.61zM12.7 3.54a9.1 9.1 0 013.67-1.11l-.02-.23c-2.54-.09-4.55 1.63-4.92 1.96l.18.2c.33-.33.7-.6 1.1-.82zM24.98 18.66c.01-.2.03-.54-.05-.61h-.03c-.18.02-.27.38-.3.54.14.07.26.15.38.24v-.17zM17.17 3.63c-.8-.14-1.9.12-2.33.24a.28.28 0 01.1.27 5.63 5.63 0 01.78.06l.13.02-.08.1c-.14.2-.3.39-.48.55a5.01 5.01 0 011.74-.03c.02-.4.06-.81.14-1.2zM17.03 5.07v-.12c-.61-.1-1.23-.08-1.83.05v.1l-.02.07c.6-.17 1.23-.2 1.85-.1z"/><path fill="#fff" d="M25.74 20.2c-.34.24-.67.58-.64.7a.07.07 0 00.04.04c.11.05.4-.06.58-.12l.12-.05a.62.62 0 00.37-.43.35.35 0 00-.18-.33c-.09.08-.19.14-.3.19h.01zM14.3 3.63c.95-.37 1.96-.5 2.96-.4l.04-.16a6.54 6.54 0 00-3.16.49l.17.07zM22.42 17.93c.03.26.04.54.03.8.08.1.54.71.49 1.34.3-.24.66-.43 1.03-.54.16-.28.25-.6.28-.93v-.01s-.08-.35-.72-.6a1.62 1.62 0 00-1.1-.06zM14.76 1.85l-.05-.03c-.65.1-1.3.25-1.92.43l-.15.44a4.62 4.62 0 012.12-.84z"/></svg>