<svg xmlns="http://www.w3.org/2000/svg" fill="none" viewBox="0 0 34 34"><path fill="#fff" d="M17.06 33.89h-.22A16.94 16.94 0 0117.05 0h.23a16.96 16.96 0 0111.68 29 16.96 16.96 0 01-11.9 4.89zm0-33.23a16.28 16.28 0 00-.2 32.56h.2A16.28 16.28 0 0017.29.67h-.22z"/><path fill="#fff" d="M20.36 3.37c-.65.1-1.27.37-1.8.76-.54.4-1.05.85-1.5 1.35-.48.5-.94 1-1.4 1.51-.47.51-.99 1-1.5 1.46-.52.46-1.1.84-1.67 1.24-.45.3-.7.57-1.15.85a9.58 9.58 0 013.6.2c.14-.05.28-.07.43-.07l.19-.02c.3-.26.58-.55.8-.88.33-.48.62-.98.88-1.5.12-.26.26-.52.4-.77l.4-.77a5.4 5.4 0 011.08-1.47c.46-.42 1-.73 1.57-.93.29-.1.58-.18.88-.24l.4-.1.38-.16c.4-.2.77-.48 1.08-.81-.2-.1-.4-.19-.62-.27l-.4.14c-.67.2-1.36.36-2.05.48zM25.67 7.6c-1.89-.15-4.1 1.2-5.28 1.93-1.5.92-2.37 1.32-4.98 1.56-.71.07-1.22.32-1.53.74a2.18 2.18 0 00-.3 1.58c.18.47 1.02.89 2.88.66 2.12-.27 4.66-2.5 5.89-3.58l.18-.16a7.35 7.35 0 015.28-1.97c.59.06 1.18-.04 1.71-.28l-.14-.2c-.58-.01-1.37-.08-2.38-.18-.44-.02-.9-.06-1.33-.1zM24.03 12.8c.3-.11.58-.27.83-.47-.23.24-.49.44-.77.6l-.15.08c.34 0 .67-.02.9-.04.66-.04 1.76-.9 2-1.82-.37.33-.84.51-1.34.53-.86.05-2.3.28-2.92 1.34h.76c.23-.06.46-.13.69-.22zM31.06 10.58l-.07.07.02.05.05-.12z"/><path fill="#fff" d="M26.18 12.97s.32.06.78.09l.23-.05a5.25 5.25 0 001.4-.58c.2-.14.4-.3.59-.49a3.52 3.52 0 01-1.21.96 8.6 8.6 0 01-.36.18c.49 0 .97-.06 1.45-.2 1.06-.32 1.77-1.76 1.96-2.18l-.02-.04c-.42.4-.93.74-2.42.78-1.6.05-2.4 1.53-2.4 1.53zM29.96 13.02l1.17.07a2.06 2.06 0 01.54-.6l-.31-.93c-.57.38-1.05.88-1.4 1.46zM31.54 12.92l-.12.19.43.03-.13-.46c-.06.07-.13.15-.18.24z"/><path fill="#fff" d="M31.95 13.6c-2.9-.2-5.66-.18-7.45-.16H23.4c-2.4 0-3.43-.17-3.77-.26-.47.3-.96.58-1.47.81.47.26.9.57 1.3.93.43.48.8 1 1.13 1.55a10.7 10.7 0 011.3 3.58l.12.74-.5-.57a8.62 8.62 0 00-2.82-2.1l-.41-.17a2.89 2.89 0 01-1.11-.95c-.31-.55-.5-1.15-.57-1.77a5.44 5.44 0 001.5 2.12c.1.08.22.14.34.2l.43.17a9.35 9.35 0 012.43 1.65 10.85 10.85 0 00-1.09-2.7 8.42 8.42 0 00-1.07-1.48A7.6 7.6 0 0018.07 14c-.32.15-.64.26-.98.35l.16.05a3.64 3.64 0 011.33.86l.54.52c.38.34.74.7 1.07 1.1.35.4.58.88.66 1.4a4.13 4.13 0 00-.9-1.18c-.36-.34-.75-.66-1.13-1a8.18 8.18 0 01-.54-.57 4.75 4.75 0 00-1.11-.93 2.98 2.98 0 00-.35-.18l-.3.06c-.35.04-.7.06-1.05.07-1.74 0-2.19-.7-2.3-1.03v-.03c0-.04-.24-1.1.36-1.93a2.1 2.1 0 011.1-.76 8.36 8.36 0 00-2.02-.16 5 5 0 00-2.36.64c-.35.2-.7.44-1.06.66l-.24.15c.1.06.2.14.27.23.6-.12 1.2-.07 1.78.13.3.11.58.28.83.5.24.21.45.44.67.66.42.45.85.9 1.4 1.16.28.13.58.2.89.19.3-.02.6-.1.9-.22-.29.14-.59.23-.9.27-.32.02-.63-.03-.93-.15-.58-.24-1.05-.69-1.5-1.1-.45-.43-.9-.87-1.46-1.03a3.1 3.1 0 00-1.73 0l-.17.04-.07-.17a.36.36 0 00-.18-.14 1.1 1.1 0 00-.27-.09l-.14.08.05.02a.8.8 0 01.36.35c.34-.02.68 0 1.02.05.38.05.76.17 1.1.33.19.09.35.2.5.32.15.12.3.25.43.38.26.26.52.53.8.75.56.47 1.23.87 1.96.88l.28-.01.27-.06.13-.03.13-.05.26-.1c.16-.08.31-.17.47-.28l.44-.35-.42.37-.47.3-.26.12-.13.06-.14.03-.27.07-.29.02c-.38.01-.76-.07-1.1-.22a4.64 4.64 0 01-.97-.59c-.3-.23-.58-.48-.86-.73a3.02 3.02 0 00-.87-.6 4.32 4.32 0 00-2.1-.27l-.14.02-.06-.14a.42.42 0 00-.23-.24.74.74 0 00-.36-.05l-.02-.07a1.67 1.67 0 00-.72 1.19l-.03.3c0 .12-.03.24-.07.36-.09.24-.25.44-.45.6-.18.13-.37.25-.56.35l-1.1.63c-.73.41-1.4.9-2 1.48-.33.29-.6.54-.68.9-.06.36.01.74.22 1.06a2.8 2.8 0 00.78.9l.95.84.04.04.02.06a2.17 2.17 0 00.59.92c.13.12.29.22.46.29.16.06.34.1.52.12h.06l.04.02a5 5 0 01.88.7c.14.14.27.3.37.47a1.17 1.17 0 01.14.48.7.7 0 010 .16c-.03.31-.12.6-.14.83.05-.27.2-.51.4-.7l.12-.11a.66.66 0 00.23-.59 2.3 2.3 0 00-.59-1.08l-.22-.26c-.1-.1-.17-.2-.23-.31a.77.77 0 01.03-.9l.03-.05.08-.02c.96-.15 1.93-.25 2.9-.3.49-.02.98-.03 1.47 0a10.08 10.08 0 011.46.16c.9.15 1.88.12 2.74-.25a2.93 2.93 0 001.72-2.12 3.1 3.1 0 01-.5 1.36 2.2 2.2 0 01-.9.85c1.47.12 2.74.52 4.14 1.08l.54.24.27.14.26.15.26.15.25.18c.17.11.31.24.47.37.61.49 1.18 1.03 1.76 1.55a37.36 37.36 0 003.64 2.93l.02.01a15.25 15.25 0 003.57-5.09l-.15-.24a5.42 5.42 0 00-.66-.89c-.53-.52-1.11-.94-1.86-.92a2.87 2.87 0 012.13.64c.28.26.52.55.73.87l.02.01c1.07-2.78 1.3-5.81.66-8.73v.03zM4.03 18.64l-.9.1s1.48-.78 1.72-.4c.24.4-.82.3-.82.3zm7.18-3.24a15.1 15.1 0 00-.78-.4 4.6 4.6 0 00-.82-.31.87.87 0 00-.81.15l-.22.17a9.15 9.15 0 001.63.26c.2 0 .39 0 .58-.03-.17.1-.36.17-.56.2a2.24 2.24 0 01-1.66-.42c-.15.13-.28.27-.4.42l-.03-.02c.05-.34.22-.65.47-.88.14-.13.3-.23.5-.28a1 1 0 01.32-.03l.15.01a2.66 2.66 0 011.66 1.12l-.03.04z"/></svg>