<svg xmlns="http://www.w3.org/2000/svg" fill="none" viewBox="0 0 34 34"><path fill="#fff" d="M22.94 16.73a1.73 1.73 0 00.4-.48c-.17.14-.3.3-.4.48z"/><path fill="#fff" d="M21.69 15.99a1.16 1.16 0 01.7.78c.1.02.2.02.32 0 .1-.46.77-.92 1.42-1.36.25-.17.5-.35.73-.54.42-.34.92-.56 1.45-.64l-.08-.2-.18-.3c-.13-.2-.28-.38-.45-.55a3.47 3.47 0 01.76.77l.01-.98a2.9 2.9 0 00-1.47-1.34c-.38-.06-.76-.1-1.15-.1a3.9 3.9 0 011.17 1 4.32 4.32 0 00-1.27-.88c-.11-.05-.23-.09-.34-.12a3.64 3.64 0 01-2.19 3.31 3.03 3.03 0 01.8.5 2.44 2.44 0 01.7 1 2.7 2.7 0 00-.77-.92 2.7 2.7 0 00-.91-.44c.02.27.01.54-.02.8.27.03.52.1.77.2z"/><path fill="#fff" d="M21.65 16.2a.97.97 0 00.45.65l.08-.05a.95.95 0 00-.53-.6zM21.44 16.12a2.25 2.25 0 00-.72-.15l.01.12a.1.1 0 01-.02.08.1.1 0 01-.07.04.46.46 0 00-.22.08c.35.04.7-.02 1.02-.17zM26.25 11.3a3.86 3.86 0 011.06.45l.2.15-.01-.05c-.14-.28-.2-.59-.21-.9.02-.15.02-.3.01-.45a.92.92 0 00-.07-.29 2.3 2.3 0 01-.9.82 1.88 1.88 0 01-.55.17l.2.04.27.07z"/><path fill="#fff" d="M24.98 11.43c.57.24 1.06.64 1.41 1.15l.06-.06.21-.15c.15-.08.31-.14.48-.17l.12-.02.12-.01.11-.02a2.28 2.28 0 00-.28-.27 3 3 0 00-.98-.53l-.27-.08-.21-.06-.15.02a5.9 5.9 0 01-.73.03l.05.15.06.02zM17.56 2.43c-.1.07-.19.15-.27.23.34-.07.69-.12 1.04-.13a4.7 4.7 0 011.61.21c.53.17 1 .47 1.39.87.38.39.7.85.91 1.35.2.5.36 1 .47 1.53.1.5.29 1 .53 1.45.14.22.3.42.5.6.18.18.38.33.61.46.23.12.48.2.74.22.26.03.52-.02.76-.14-.23.14-.5.2-.77.2-.27-.01-.53-.08-.77-.2a3.03 3.03 0 01-1.21-1.04c-.29-.46-.5-.96-.64-1.48l-.2-.61-.25-.11-.45-.19a6.76 6.76 0 01-1.3-.7c-.13-.1-.25-.22-.35-.35a1.88 1.88 0 01-.3-.54 4.5 4.5 0 00-.18 1.43l.03.46c0 .15.04.3.06.45l.06.22.05.22.07.22.04.1.04.12a6.02 6.02 0 002.28 2.8 5.49 5.49 0 003.5.84 1.94 1.94 0 00.82-.27 1.95 1.95 0 00.6-.62c.3-.53.45-1.13.46-1.73a4.85 4.85 0 00-.15-1.36l-.07-.21a8.46 8.46 0 00-.9-1.88c-.04-.08-.1-.16-.15-.23a15.27 15.27 0 00-7.08-2.9 4.35 4.35 0 00-1.53.71zM17.41 16.24a1.17 1.17 0 01-.15-.72.65.65 0 01.07-.22 2.83 2.83 0 01.23-.38 1.87 1.87 0 01-.67-.2v.3c0 .18-.03.35-.07.51a1.73 1.73 0 01-.21.47l-.2.29c.33.06.67.04 1-.05zM7.76 22.24a2.06 2.06 0 01.45-1.08l.18-.22.2-.2-.18.22-.16.23c-.1.16-.18.33-.24.51a1.9 1.9 0 00-.08.82l.02.1.18-.16c-.04-.26 0-.52.11-.76.15-.36.38-.6.65-.66l.03-.37a3.71 3.71 0 01-1.8-.9 2.49 2.49 0 01-.63-1.32 2.22 2.22 0 00-.83.12 2.8 2.8 0 00-.83.45c-.17.13-.33.28-.47.44a2.91 2.91 0 01.96-.86 3.12 3.12 0 01.8-.3 2.28 2.28 0 00-.52-.06c-.53.01-1.4.68-1.47 1.14-.05.32-.06.65-.03.97 1.51.56 3.09 1.75 3.65 2.2v-.31zM4.55 18.48c-.19.05-.39.07-.59.08-.11 0-.23-.01-.34-.04l-.1-.03-.09-.05-.08-.06-.03-.03v.14a1.68 1.68 0 00.04.31 1.61 1.61 0 01.67.23c.14-.21.32-.4.52-.55zM3.7 18.22c.09.02.17.03.26.02.4-.02.78-.1 1.15-.24a8 8 0 002.1-1.12 3.75 3.75 0 001.3-1.92 5.72 5.72 0 00.21-2.11 4.2 4.2 0 01-.61.62 2.2 2.2 0 01-.49.3c-.12.04-.25.08-.38.1v.04l-.06.24-.06.24a5.93 5.93 0 01-.84 1.74c-.36.55-.9.95-1.53 1.14.3-.1.57-.28.8-.5l.18-.17.15-.18a4.48 4.48 0 00.67-1.23c.12-.29.2-.59.28-.9.08-.3.15-.6.19-.9a3.33 3.33 0 01.13-.62l.04-.12.05-.12.05-.1a3.49 3.49 0 01.9-1.19l.04-.03-.14.01a5.23 5.23 0 00-1.67.57c-.35.2-.68.42-1 .67l-.23.18-.23.2a5.13 5.13 0 00-1.14 1.37 4.89 4.89 0 00-.66 2.25c-.02.4.02.78.13 1.16.05.17.13.34.25.48.04.06.1.1.16.12zM11 17.57a1.47 1.47 0 01-.46.25l-.06.01.2.22c.1.13.2.27.25.43l.05.24a3.48 3.48 0 01.05.6c.29-.15.54-.35.75-.6h-.11l-.12-.03a.4.4 0 01-.11-.04.63.63 0 01-.18-.16 1.83 1.83 0 01-.1-.16l-.03-.05c-.04-.15-.08-.3-.1-.46l-.02-.25zM24.84 21.06c.12-.09.24-.17.37-.24.25-.05.5-.05.74-.02l.16-1.26c.03-.33-.38-1.07-.52-1.16a2.32 2.32 0 00-.59-.18 3.2 3.2 0 01.47.83c.08.2.14.4.2.6l.07.3.05.3-.08-.3a4.6 4.6 0 00-.66-1.38c-.07-.1-.15-.19-.24-.28-.03.22-.1.44-.2.63-.18.3-.94 1.08-1.18 1.34a12 12 0 01-.25 1.77 9.65 9.65 0 001.66-.95zM29 17.82c.08-.26.1-.53.06-.79a.53.53 0 00-.13-.26c.09.34.11.7.07 1.05zM3.23 23.42l-.12-.02.05.1.07-.08zM5.95 25.4l.03-.03a1.24 1.24 0 01-.27-.77c-.04-.67.37-.87.46-.9l-.12-.24-.05.05-.14.15a1.53 1.53 0 00-.3.79c-.02.14-.01.29.02.43a1.5 1.5 0 01-.03-.88c.04-.15.1-.3.18-.43l.04-.07a3 3 0 01-.8.12 13.5 13.5 0 01-1.51-.16.89.89 0 00-.22.18l-.01.03c.3.61.64 1.2 1.02 1.78.17-.07.35-.12.54-.15a2.2 2.2 0 011.16.1z"/><path fill="#fff" d="M28.53 18.75v-.01l-.17.12a.1.1 0 01-.12-.02.32.32 0 00-.05-.02.3.3 0 000 .21c.02.06.06.1.12.13a.82.82 0 00.2-.06c.08-.03.16-.07.23-.12.14-.1.26-.23.37-.38.1-.15.2-.3.26-.47l.1-.26.08-.26-.05.27-.08.27c-.06.18-.13.35-.23.52a1.76 1.76 0 01-.6.61c-.05.03-.1.06-.15.07 1 2.19.84 3.38.75 3.72l.11.02c.8-1.06.45-3.93.33-4.88v-.05c-.05-.41-.07-.73-.08-.96-.01-.27-.02-.44-.08-.5a.63.63 0 00-.35-.05c.09.1.14.22.16.35a1.7 1.7 0 01-.75 1.75zM8.46 21.71c-.1.22-.15.46-.13.7.15-.03.3-.03.44 0l-.01-.1a.11.11 0 01.03-.1c.18-.16.32-.35.42-.57-.12-.1-.22-.24-.28-.4a.82.82 0 00-.47.47zM6.03 24.08a.83.83 0 00-.11.5c0 .2.05.38.14.55-.05-.35-.06-.7-.03-1.05zM26.1 18.74a.72.72 0 00-.04-.06l.08.17a.6.6 0 00-.05-.11zM24.7 17.31a3.34 3.34 0 00-.69-.08v.23l-.03.27a4.84 4.84 0 01-.25 1.06c-.06.17-.14.34-.24.49l-.04.63c.35-.35.68-.72.98-1.12.12-.23.19-.49.2-.75a.11.11 0 01.03-.08.11.11 0 01.08-.02c.08 0 .3.05.52.1a.84.84 0 01.07-.47.1.1 0 01.1-.05h.02c.1 0 .2-.02.28-.05a8.54 8.54 0 01-.47-.58 4.16 4.16 0 01-.45-.74c.15.24.33.47.53.67.19.2.38.39.58.56.25-.13.47-.3.67-.49l.62-.57-1.04-.82c-.14.3-.38.54-.68.67a.87.87 0 01-.83-.14c-.13.38-.21.77-.26 1.16l.3.07c.12.05.22.13.3.23.08.1.15.2.2.3-.06-.1-.13-.2-.22-.29a.72.72 0 00-.28-.19z"/><path fill="#fff" d="M25.8 17.67l.1.06a1.47 1.47 0 01.53.77l.06.23.04.22-.06-.22-.09-.2a1.71 1.71 0 00-.24-.39 1.3 1.3 0 00-.53-.37 1.04 1.04 0 00-.12-.03c-.02.12-.02.24 0 .37.3.1.58.28.8.52.07.16.1.34.09.51l.14.06c1.01-.83 1.6-.66 1.79-.56.84-.52.39-1.97.37-2.04a.87.87 0 00-.47-.45l.08.13c.1.19.17.38.2.59a3 3 0 01-.05 1.2 3.15 3.15 0 00-.05-1.18 1.9 1.9 0 00-.23-.53c-.1-.13-.2-.24-.33-.33-.13.13-.46.45-1.08 1.02-.27.27-.6.48-.94.62zM23.04 22.45l-.08.77a.1.1 0 01-.08.1.9.9 0 00-.16.05l-.01.15c.22 0 .43-.02.65-.06.52-.1 2.06-1.08 2.67-1.5a.1.1 0 01.12 0l.35.24c.26-.89-.08-2.5-.16-2.84l-.01.05v.15l-.18 1.37a.1.1 0 01-.11.1 2.6 2.6 0 00-.74 0l-.35.2c-.46.32-1.23.83-1.84 1.03l-.07.19zM28.13 19.3a6.12 6.12 0 01-1 2.84 3.25 3.25 0 00.28-.33.1.1 0 01.1 0l.03.03s.73.84 1.28 1.11c.05.03.1.05.16.06.07-.3.24-1.48-.78-3.65a.5.5 0 01-.07-.05zM29.44 25.68l-.3.03a.8.8 0 01-.25-.03c-.05.1-.11.19-.2.26.03.28.05.55.04.83.31-.36.6-.75.87-1.14a.71.71 0 01-.16.05zM6.84 25.8c.62-.2 1.97.03 2.7.18a9.64 9.64 0 01-1.78-1.79.1.1 0 010-.05.1.1 0 01.08-.06 2 2 0 01-.97-.61l-.57.4c-.15.32-.05 1.17.01 1.52l.3.27a5.4 5.4 0 01-.03-.9 5.08 5.08 0 01.2-1.2 5 5 0 00.06 2.25zM22.76 23.12l.06-.55-.16.1a4.34 4.34 0 00-.82.78l.21-.32a4.9 4.9 0 01.51-.59 1.64 1.64 0 01.25-.18l.05-.02c.18-.49.3-1.29.36-2.15l-.02-.02.03-.03c.1-1.35.1-2.84.09-3.49-.2.25-.56.56-1.03.48a1.09 1.09 0 01-.82-.8c-.54.22-.99.25-1.35.08-.2-.1-.38-.27-.48-.48a1.59 1.59 0 01-1.68.3 2.38 2.38 0 01-1.84.2c-.56.65-1.65.78-1.9.8-.66.85-1.68.99-1.99 1.01-.16.87-1.23 1.34-1.55 1.46.09.7-.87 1.26-1.13 1.4a1.78 1.78 0 01-.57 1.23c.04.38 0 .77-.09 1.14-.13.5-.6.7-.85.77.58.7 1.25 1.32 1.99 1.85h.03c.7.53 1.44 1 2.2 1.43l.23-.1.3-.06a4.58 4.58 0 011.17.03l.28.06.28.07-.29-.04-.28-.04a4.55 4.55 0 00-1.14.08l-.26.09-.08.04.42.22a4 4 0 01.73-.07c.59-.01 1.17.15 1.66.48l3.76-.4a6.63 6.63 0 01-1.12-2.49 4.36 4.36 0 00.53 1.31 7.78 7.78 0 00.7 1c.1-.26.25-.5.45-.7l1.83-1.62c.02-.48.15-.95.38-1.37.19-.4.53-.72.95-.89zm-4.51-5.8c.04-.25.13-.5.26-.72-.05.25-.09.5-.1.74v.74c0 .24.03.5.04.74l.06.75a4.6 4.6 0 01-.31-1.48c0-.26.01-.51.06-.76h-.01zm-6.68 3.64a3.66 3.66 0 011.85 1.26c.1.12.17.24.25.37l-.32-.3-.18-.14-.08-.08-.09-.06-.17-.14-.18-.12-.08-.07-.1-.06-.18-.11a6.01 6.01 0 00-1.61-.65c.3-.02.6.02.9.11zm8.85.72c-.31.2-.63.36-.97.5l-.25.1-.24.11-.23.12-.12.07-.1.08a2.02 2.02 0 00-.79 1.8h-.02l.03.04c.05.08.1.18.11.28l.02-.01a.58.58 0 00.25.22.71.71 0 00.68-.06c.1-.08.18-.17.23-.29a.76.76 0 00.06-.36.59.59 0 00-.14-.35.43.43 0 00-.34-.15.44.44 0 00-.36.13.45.45 0 01.36-.16.49.49 0 01.38.14c.1.1.15.24.17.37.02.14 0 .29-.04.42a.79.79 0 01-.64.52.76.76 0 01-.62-.15.93.93 0 01-.36.64.87.87 0 01-.83.1.62.62 0 01-.4-.68.59.59 0 01.19-.36.43.43 0 01.39-.09.41.41 0 00-.37.11c-.1.1-.15.22-.16.35 0 .13.02.25.1.36.06.1.17.18.29.22a.74.74 0 00.7-.12.77.77 0 00.3-.65v-.04l-.02-.02a.7.7 0 00-.1-.27.88.88 0 00-.28-.24 1.43 1.43 0 00-.72-.2c-.26 0-.52.02-.78.08-.26.05-.52.12-.77.19-.52.15-1.03.32-1.55.48-.51.17-1.05.29-1.59.36a2.92 2.92 0 01-1.6-.26 2.04 2.04 0 01-1-1.24 2.08 2.08 0 001.8 1.35c.26.04.52.03.78-.01a9.73 9.73 0 001.55-.4c.52-.15 1.02-.33 1.55-.48.26-.08.52-.15.79-.2.27-.05.55-.08.83-.07a1.83 1.83 0 01.8.24l.1.07c.02-.3.08-.6.2-.88.17-.34.41-.63.72-.85l.11-.08.12-.07c.08-.05.16-.1.25-.13l.25-.1.26-.1c.33-.13.65-.29.96-.47a5.33 5.33 0 001.62-1.38c.22-.29.38-.62.46-.96.04-.18.05-.36.04-.54 0-.15-.05-.3-.12-.43.08.13.12.28.13.43.02.18.01.36-.02.54-.08.36-.23.7-.44.99a5.45 5.45 0 01-1.6 1.45zM13.65 28.22c.03.23.13.61.5.7a.3.3 0 00.27-.03c.1-.12.17-.28.17-.44h-.05a1.8 1.8 0 01-.89-.23z"/><path fill="#fff" d="M14.76 28.23c-.33-.14-.69-.21-1.04-.22.31.19.68.27 1.04.22zM22 24.1a3 3 0 00-.3.82c.25-.16.67-.54.8-1.41-.21.16-.38.36-.5.6zM13.44 28.24l-.39-.13c-.12.1-.45.25-1.21.2a2.14 2.14 0 01-1.32-.54l-.03.1-.06.3c-.03.19-.03.39-.02.59.02.2.06.4.14.58.07.19.19.36.34.5-.16-.14-.3-.3-.38-.48a2 2 0 01-.2-.59c-.03-.2-.04-.41-.03-.62l.03-.31v-.04c-.27.22-.52.47-.53.57 0 .05-.14 1.12.45 1.42l.39.17c.15.06.3.1.46.13.27-.2.57-.33.88-.41a19.5 19.5 0 011.82-.35l-.08-.07a1.96 1.96 0 01-.46-.62 1.68 1.68 0 01-.1-.37 1.63 1.63 0 00.84.98l.02-.14c-.41-.17-.53-.6-.56-.87zM29.2 25.5c.07 0 .14-.02.2-.03a.56.56 0 00.44-.43.7.7 0 00.02-.22c-.14.29-.37.53-.66.67zM27.95 19.01a.52.52 0 01.03-.24c-.26-.02-.71.07-1.39.63a.14.14 0 01-.03.02c.11.52.4 2.03.11 2.9.25-.22 1-1.06 1.27-3.3h.01zM26.1 22.17c-.7.47-2.16 1.38-2.7 1.5a2.9 2.9 0 01-.73.06c-.08.43-.27.82-.57 1.14h.06a.52.52 0 00.12-.04.87.87 0 00.32-.29l.16-.26.05-.14.04-.15-.01.15-.04.16c-.02.1-.06.2-.1.3-.05.1-.11.18-.18.25h.17a.79.79 0 00.13-.13 1.4 1.4 0 00.22-.39l.08-.21c0 .08-.02.15-.03.23a2.15 2.15 0 01-.13.45l-.02.05c1.31-.03 2.59.05 2.88.07l.16-.32a3.34 3.34 0 00.23-.83l.04-.44v.44a4.23 4.23 0 01-.13.89v.03c.18-.15.35-.33.5-.53a.6.6 0 00.04-.18c.05-.46.05-.92.01-1.39l-.58-.42zM29.68 24.7c.28-.57.15-.94.15-.94a.1.1 0 010-.08 1 1 0 00.02-.43l-.24.04c.02.1.01.2 0 .29-.03.13-.08.25-.15.37.03-.13.04-.25.04-.38a.75.75 0 00-.07-.27c-.24 0-.48-.06-.7-.16a5.26 5.26 0 01-1.26-1.07c-.12.16-.26.31-.41.45.13.08.23.2.28.35.12.34-.07.9-.4 1.2l.13-.02a.96.96 0 00.44-.38 1.12 1.12 0 00.16-.52v-.19l.02.2v.18c-.02.13-.05.26-.1.38s-.12.23-.2.32c.31.08.84.7.97.9l.06.02a.49.49 0 00.32-.02.8.8 0 00.2-.12l.1-.08.08-.1-.06.11-.08.1a.91.91 0 01-.2.18.63.63 0 01-.25.1.6.6 0 01-.08 0c.03.08.04.16.05.23h.45a1.17 1.17 0 00.73-.65z"/><path fill="#fff" d="M27.13 22.93a.43.43 0 00-.24-.26c.03.38.03.76 0 1.14.21-.26.33-.64.24-.88zM7.5 28.06c-.1-.11-.18-.23-.26-.37.02.08.05.15.09.2.05.07.1.13.17.17zM7.64 28.74a.53.53 0 01.15-.2 1.15 1.15 0 01-.83-.38 1.62 1.62 0 01-.36-.6c-.01.18-.04.35-.08.52.34.33.71.64 1.1.94-.01-.1 0-.19.02-.28z"/><path fill="#fff" d="M7.16 28.02a.94.94 0 01-.11-.7l-.33-.05c.02.13.04.26.09.4.05.15.13.3.23.44a1.17 1.17 0 00.77.44.6.6 0 01.1-.07 1.4 1.4 0 01-.75-.46zM8.88 28.78h-.04-.03l-.64-.19a.5.5 0 00-.34.23 1.2 1.2 0 000 .37c.3.23.6.44.92.64.14-.37.24-.74.3-1.12l-.17.07zM10.4 27.47a.1.1 0 01.14.02 1.83 1.83 0 001.3.6c.3.04.61.02.9-.06-.22-.12-.95-.51-1.8-1.07-.56.03-1.12.01-1.67-.05-.35-.08-.68-.2-.99-.37a2.4 2.4 0 00-.46-.18 1.56 1.56 0 00.04.89 3.18 3.18 0 00.42.92 3.4 3.4 0 01-.53-.89 2.47 2.47 0 01-.14-.72c-.12.2-.22.4-.31.61 0 .11.08.68.92 1.22l.62.17.24-.09v-.2a.1.1 0 01.1-.1l.44.01c.22-.27.48-.51.77-.71z"/><path fill="#fff" d="M10.47 30.13l-.34-.15c-.66-.33-.6-1.34-.57-1.59H9.3v.14l.01.22.09.46a1.39 1.39 0 00.5.8c-.14-.1-.26-.2-.36-.33a2.08 2.08 0 01-.32-.66c-.07.32-.16.63-.27.93.4.24.8.47 1.22.68.08-.18.19-.34.32-.48l-.02-.02zM10.38 17.67a.73.73 0 100-1.46.73.73 0 000 1.46zM17.46 14.74a.73.73 0 100-1.46.73.73 0 000 1.46z"/><path fill="#fff" d="M17 34a17 17 0 110-34 17 17 0 010 34zm0-33a16 16 0 100 31.99 16 16 0 000-32z"/></svg>