<svg xmlns="http://www.w3.org/2000/svg" fill="none" viewBox="0 0 34 34"><path fill="#fff" d="M17.06 33.88h-.22A16.94 16.94 0 0117.04 0h.24A16.96 16.96 0 0134 17.16a16.96 16.96 0 01-16.94 16.72zm0-33.22a16.28 16.28 0 10-.2 32.56h.2A16.28 16.28 0 0017.28.67h-.21z"/><path fill="#fff" d="M19.14 17.02v.44c1.05-.09 1.52-.6 1.53-.82a.21.21 0 00-.4-.16l-.15-.13a.44.44 0 01.43-.17h.02l.2.05a.8.8 0 00.35.05c.16-.03.28-.24.36-.41-.3.03-.6-.02-.87-.14-.44-.15-.6.08-.6.08l-.07.1-.1-.08s-.1-.09-.33 0a.35.35 0 00-.2.22.45.45 0 00.06.39.37.37 0 00.33.14l.2-.01-.1.17c-.1.16-.39.24-.66.28zM20.48 25.73c.34-.28.58-.66.72-1.07.11-.31.18-.63.22-.96l-1.33.04a.4.4 0 01.11.4c-.08.3-.48.64-1.07.69h-.01c-.3-.03-.59-.13-.84-.29a.58.58 0 01-.23-.6c.01-.04.03-.09.06-.13l-1.82.06c.1.66.41 1.27.88 1.74.14.13.3.24.46.34v-.02c.02 0 .35.07.74-.28.5-.45 1.02-.39 1.3-.2.26.17.6.32.81.28z"/><path fill="#fff" d="M18.51 25.8c-.15.14-.33.24-.52.3a2.9 2.9 0 002.23-.18 2.01 2.01 0 01-.65-.3c-.23-.15-.64-.2-1.06.18zM14.78 16.8c.05-.06.1-.13.12-.2-.29.09-.6.12-.9.1l.02.1a.68.68 0 01-.12.32c.4-.02.71-.13.88-.32zM14.94 16.94c-.13.13-.28.23-.46.29.06.1.1.2.1.3a1.6 1.6 0 001.07-.89c-.19.07-.39.1-.6.1a.86.86 0 01-.11.2zM18.68 15.59a1.31 1.31 0 01-.18-1.25.94.94 0 00-.18.37 1.76 1.76 0 00.25 1.4c.17.21.4.37.65.46l-.02-.04a.64.64 0 01-.09-.55.55.55 0 01.33-.35.59.59 0 01.46 0c.11-.1.35-.25.78-.1.47.16.73.17.92.07l.22-.14-.07.25c-.02.07-.2.7-.6.76-.1.02-.2.01-.3-.02a.6.6 0 01.03.19c0 .05-.02.1-.04.14.72.08 1.66.11 2.34-.17.55-.22 1.13-.5 1.64-.76.45-.23.9-.44 1.38-.62l-.46-.27.01.04-1.9.92a4.72 4.72 0 01-2.05.52 4.87 4.87 0 002-.61l1.78-.97-2.16-1.26c-.09.17-.2.33-.34.46a6.96 6.96 0 01-1.6 1.03c.37-.2.72-.44 1.05-.7.16-.13.31-.27.44-.43.12-.13.22-.29.29-.46l-.12-.06a5.1 5.1 0 01-2.7 1.8c-.16.03-.31.05-.46.05a.62.62 0 01-.47-.15c-.23-.24-.13-.69-.02-1.15l.07-.33c-.24.07-.46.19-.67.33v.04l-.08.01c-.1.2-.16.41-.17.63-.03.3 0 .61.07.9l-.03.02zM19.04 6.72c.2-.18.46-.3.73-.32a2.67 2.67 0 01-.07-.19 1.7 1.7 0 00-.67.3v.21zM18.61 17.07h-2.96c-.13.17-.28.31-.46.42l3.55-.02h.2v-.42l-.33.02zM19.66 6.08a3.28 3.28 0 01-.03-1.43 5 5 0 00-.87.14c.15.5.24 1.03.26 1.56.2-.13.41-.22.64-.27z"/><path fill="#fff" d="M23.04 11.16c-.46 1.37-1.24 1.53-1.76 1.62l-.17.04-.37.1c-.3.1-.62.17-.93.22 0 .3-.05.6-.13.9-.1.41-.2.8-.03.96.1.1.35.12.72.04a4.96 4.96 0 002.6-1.75 4.5 4.5 0 01.6-2.22c-.15.05-.31.08-.47.08h-.06z"/><path fill="#fff" d="M18.77 11.78c-.01.5-.02.89.29 1.08.37.23 1.1.02 1.62-.14l.38-.1.18-.04c.52-.1 1.22-.23 1.63-1.57.14-.48.36-.94.67-1.34.22-.9.17-1.62-.14-2.1a1.3 1.3 0 00-.7-.53c-.1.07-.2.12-.3.17a2.2 2.2 0 01-2.25-.3 1.5 1.5 0 01-.26-.3c-.7.06-.86.48-.86.5l-.03.31a17.9 17.9 0 00-.23 3.6c.02.26.02.51 0 .76zm3.57-2.42a2.62 2.62 0 00-.98-.21.65.65 0 00-.31.1l-.02-.03a.5.5 0 01.32-.23.87.87 0 01.38-.02 1 1 0 01.35.12c.1.06.2.15.27.25v.02zm-.98-1.24a2.06 2.06 0 011.96.6l-.02.02c-.37-.25-.8-.4-1.25-.45a2.76 2.76 0 00-.67-.01.83.83 0 00-.58.27h-.02c.08-.25.35-.38.58-.43zm-1.88 3.5a.79.79 0 01-.4-.2l.02-.02h.24l.18.02c.15.04.29.11.4.21v.02c-.15.01-.3 0-.44-.03zM19 7.55c.4.08.82.2 1.14.57.04.05.08.1.1.17.03.06.04.13.04.2 0 .12-.03.24-.07.35-.08.2-.18.4-.29.58l-.32.52c-.1.18-.2.37-.15.4.12.26.7.09 1.06.28v.02c-.2-.05-.4-.06-.61-.03-.2.02-.44 0-.58-.17a.3.3 0 01-.02-.3c.04-.1.08-.2.14-.29l.31-.52c.11-.17.2-.36.28-.54a.55.55 0 00-.02-.57c-.12-.16-.28-.3-.46-.39-.18-.1-.36-.19-.56-.25v-.03zm.01.98v-.02a.4.4 0 01.48-.02c.07.04.13.1.16.18a.33.33 0 01.02.26h-.02a.66.66 0 00-.27-.28.87.87 0 00-.37-.12zm-.06 2.39a3.13 3.13 0 011.6.36v.03a4.68 4.68 0 01-1.6-.37v-.02zM10.8 16.8c-.16.02-.32 0-.47-.04.24.6.84.82 1.07.89.01-.11.04-.22.09-.32a1.07 1.07 0 01-.6-.35.62.62 0 01-.1-.17z"/><path fill="#fff" d="M22.3 7c.45-.18.99-.63 1.05-1.68a3.81 3.81 0 00-.4-.18c-.04.96-.58 1.34-.91 1.47-.2.08-.4.12-.61.12-.36.01-.7-.12-.97-.36-.53-.55-.35-1.46-.27-1.74h-.34c-.06.27-.27 1.49.44 2.11.41.38 1.28.59 2.02.27zM12.98 17.35c.2-.15.49-.41.48-.57-.02-.16-.3-.37-.5-.47-.14.13-.26.28-.36.45-.1.18.22.47.38.6zM10.96 16.67c.02.07.05.13.09.18.11.15.39.32 1.05.35a.7.7 0 01-.12-.35l.01-.08c-.23.03-.73.03-1.03-.1zM13.2 12.15a.7.7 0 01-.08-.08v.68l.48-.5a.26.26 0 01-.08.01.51.51 0 01-.32-.11zM14.04 11.78c.23-.24.5-.44.78-.61.15-.09.3-.15.48-.19.06 0 .13-.03.2-.05l.02-.04v-.08c.02-.1-.1-.14-.26-.15-.15 0-.3 0-.45.04-.07 0-.14.02-.22.04l-.04.02a.34.34 0 01-.05.03l-.12.06-.35.12-.11.45c-.06.22-.11.43-.15.65l.27-.29zM16.24 23.49c0 .05 0 .1.02.17l2.77-.09v-.2l-2.8.12zM21.44 23.26l-2.2.1v.2l2.2-.07v-.23zM13.88 16.46l.03.03c.38.02.92-.01 1.03-.17l.15-.21.04.25v.18c.23 0 .45-.07.64-.2l.21-.18-.04.28a1.4 1.4 0 01-.16.42h2.84c.26 0 .51-.04.76-.1a1.5 1.5 0 01-.9-.57 1.9 1.9 0 01-.28-1.51c.05-.23.17-.43.34-.59a8.1 8.1 0 00-4.66 2.37zM18.74 17.68h-.07l-.17 5.5.53-.02-.08-5.48h-.21z"/><path fill="#fff" d="M13.09 18.02l-.06.05-.07-.04c-.26-.17-.5-.37-.72-.6-.18 0-.36-.02-.55-.05a.68.68 0 00.18.88c.45.38.96.74 1.13.86l1.1-.9c.03-.01.5-.41.18-.94-.17.04-.34.05-.52.05-.2.25-.43.48-.67.69zM17.6 29.89v1l.51.48.64-.5v-.8l-.58-.67-.57.49z"/><path fill="#fff" d="M19.53 31.51c0-.26 0-1.55.62-2.05l-.32.02a6.24 6.24 0 01-1.46-.06l.52.6v.93l-.78.6-.64-.6v-1.12l.57-.5c-.19-.05-.36-.11-.52-.17l-.4-.13-.22 2.12.82.92c.3-.02.6-.03.89-.06l.92-.5zM23.7 30.28v-.03a5.47 5.47 0 01-3.31 1.23l-.27-.01-.02.3c1.27-.25 2.5-.67 3.66-1.24v-.03a2.13 2.13 0 01-.05-.22z"/><path fill="#fff" d="M20.2 31.02l-.06.31c.38.04 1.9.06 3.54-1.24-.03-.14-.05-.3-.06-.44a5.5 5.5 0 01-3.41 1.37z"/><path fill="#fff" d="M23.59 29.44l-.09-.84v-.3c-.17.54-.74 1.5-2.68 1.9a1.15 1.15 0 00-.57.7 5.37 5.37 0 003.34-1.4v-.06z"/><path fill="#fff" d="M23.45 27.93a.94.94 0 00-.27-.7c.02.18.03.36.01.55-.01.22-.07.43-.17.63-.2.38-.5.7-.87.94-.33.18-.68.32-1.04.4v.08a.4.4 0 01-.05.18c1.83-.46 2.36-1.51 2.39-2.08zM20.83 29.97c.04-.04.07-.1.07-.15a.32.32 0 00-.12-.23.59.59 0 00-.38-.13c-.79.35-.73 2.07-.73 2.09v.04l-.69.36c.3-.04.6-.08.9-.14.05-1.49.79-1.8.95-1.84zM16.75 31.18l.22-2.18c-.06 0-.1 0-.13.03-.14.17-.25 1.54-.3 2.4l.6.64h.4l-.79-.89zM16.8 32.07h.05l-.04-.05-.01.05zM16.65 31.84l-.09.22h.1l.04-.16-.05-.06zM26.27 22.21c-.31 0-.63-.03-.93-.11v.16c0 .36.05.72.13 1.07 1.15.2 2.34.01 3.37-.52a16.44 16.44 0 00-.32-1.24c-.45.3-.96.5-1.5.58-.25.04-.5.06-.75.06zM23.15 6.6c.22.12.42.3.57.5.28.36.57 1 .42 2.03.19-.1.4-.17.6-.18a7.5 7.5 0 011.34-1.53 10.2 10.2 0 00-2.52-1.98c-.03.41-.17.81-.41 1.15z"/><path fill="#fff" d="M22.47 4.76a8.34 8.34 0 013.17 1.92l.04-1C24 4.14 21.03 3.75 20.63 3.7l-.83.73c.9-.03 1.8.08 2.67.34z"/><path fill="#fff" d="M25.53 4.47c-.67-.8-2.22-1.3-2.47-1.37l-1.44.55c1.03.2 2.65.66 3.86 1.6l.05-.78zM23.99 9.23c.3-1.68-.58-2.34-.92-2.53l-.17.19c.27.12.5.32.67.57.3.47.4 1.11.25 1.92l.17-.15zM28.98 25.73v-.01c.12-.93.08-1.86-.12-2.77a5.39 5.39 0 01-3.35.53c.07.26.18.52.31.76.18.3.35.61.5.94.09.16.16.33.21.5.07.2.08.4.05.6-.05.2-.12.37-.2.54a3.05 3.05 0 00-.3 1.47l-.05.87c1.13-.82 2.15-1.8 3.02-2.9-.03-.3-.07-.5-.07-.5v-.03zM20.34 4.64c-.06.2-.28 1.12.22 1.64.31.32.94.4 1.43.2.3-.12.81-.47.82-1.4l-.4-.13c-.67-.19-1.37-.3-2.07-.31zM24.74 9.6a.72.72 0 000-.44c-.31.02-.69.21-1.03.64.1-.06.21-.1.33-.12.15-.03.3-.02.44.02v.02a2.22 2.22 0 00-1.07.52c-.12.23-.22.47-.3.71.3-.02.58-.1.84-.27.38-.25.67-.64.79-1.09zM25.35 21.43v.53c.54.14 1.1.16 1.66.06a3.5 3.5 0 001.47-.59l-.06-.19a9.52 9.52 0 01-.13-.37 4.35 4.35 0 01-2.94.56z"/><path fill="#fff" d="M25.35 21.02v.28c1 .17 2.03-.03 2.9-.57-.04-.1-.06-.23-.09-.35-.62.56-1.57.68-2.2.68-.21 0-.41-.02-.6-.04zM19.05 23.97a.76.76 0 00-.46-.15c-.07 0-.14 0-.21.02a.17.17 0 00-.13.15.38.38 0 00.15.39c.22.13.47.21.73.24.46-.04.8-.3.87-.52a.2.2 0 00-.07-.23c-.3-.21-.76.1-.77.1l-.05.05-.06-.05zM16.29 32.2l.05-.14h-.14l.09.14zM16.33 31.5v-.05l.05-.77c-.67-.19-1.26-.88-1.5-1.2l-.3.81c.25.1.9.48 1.62 1.75h.14l.15-.38-.16-.16z"/><path fill="#fff" d="M14.5 30.49c-.17.42-.33.85-.47 1.28.63.13 1.27.21 1.92.26-.66-1.14-1.24-1.46-1.45-1.54zM14.95 19.73c.2-.09.41-.14.63-.15a2.37 2.37 0 01-.05-.24c-.03-.18-.03-.36-.05-.54-.05-.35-.15-.7-.31-1.01l.01-.01c.12.14.22.3.29.47a3.32 3.32 0 01.22.8c0 .1.02.18.03.26.03.16.08.32.14.47.11.3.32.57.6.74.13.1.28.18.44.24l.25.1c.08.01.17.04.26.07v.02a2.5 2.5 0 01-1.04-.29c-.22-.12-.42-.3-.56-.52 0 .52 0 1.43.18 1.87.12.41.2.84.23 1.28l2.07-.1.17-5.5-3.66.02v-.02l-.06.03c.17.65.24 1.33.21 2.01z"/><path fill="#fff" d="M24.88 15.99c-.5.25-1.09.53-1.64.76-.47.17-.96.25-1.46.23-.34 0-.67-.02-1-.06-.2.31-.73.68-1.63.75l.08 5.48 2.41-.11v.1c0 .03.08 1.84-1.05 2.77v.01h-.02c-.41.32-.91.5-1.43.53h-.23c-.7.02-1.38-.23-1.89-.7a3 3 0 01-.7-1.02c.06.6.07 1.2.04 1.81-.05.22-.13.43-.24.63-.15.31-.3.63-.24.84.12.4.38.74.74.97a.4.4 0 01.04-.09c.16-.21.47-.1.91.06.36.15.74.26 1.13.31.37.04.74.04 1.1 0 .5-.03.9-.05 1.12.17.08.07.14.17.17.28.33-.14.64-.32.93-.54.34-.2.61-.5.8-.86.17-.36.22-.77.14-1.16a4.75 4.75 0 01-.04-.64c0-.22.05-.43.1-.64.23-.8.52-1.6.87-2.36.18-.38.39-.75.63-1.09.25-.31.53-.61.74-.94l.02-.28a.99.99 0 00-.06-.52.76.76 0 00-.36-.36v-.02c.16.08.3.2.39.37l.07.2c.17.02 1.93.21 2.8-.66-.07-.58-.1-1.15-.07-1.73.04-2.05-1.75-3.11-1.76-3.12v-.02c-.48.18-.95.4-1.4.65zm-.11 4c-.28.38-.62.71-1.02.97-.39.28-.85.42-1.33.42-.47.02-.94-.03-1.4-.13v-.02c.23.01.46.03.7.02a5.27 5.27 0 001.34-.15 4.1 4.1 0 001.93-1.78c.1-.2.19-.42.25-.65h.02a2.8 2.8 0 01-.5 1.31zM14.6 17.75a.87.87 0 01-.12.34c.1.6.14 1.2.1 1.8l.23-.1a6.73 6.73 0 00-.21-2.04zM13.28 10.63c.04.16.02.32-.05.46l-.01.19c-.12.48.03.66.13.72a.27.27 0 00.21.05c.04-.23.09-.45.15-.68.06-.21.11-.43.15-.65 0-.13-.23-.5-.5-.82a.22.22 0 00-.16-.09c-.1 0-.19.04-.26.1.1.15.18.32.24.5l.1.22zM15.42 28.07l-.35.92c.3.57.77 1.03 1.35 1.3.02-.26.05-.52.09-.75a2.4 2.4 0 01-1.09-1.47z"/><path fill="#fff" d="M15.7 28.07c-.08-.25.05-.57.2-.88a.5.5 0 00-.28.35c-.08.33.02 1.1.92 1.77l.03-.13a1.96 1.96 0 01-.88-1.1zM14.23 18.39l-.29.23c.05.53.06 1.07.03 1.6a4.39 4.39 0 00.47-.25 7.3 7.3 0 00-.07-1.72.97.97 0 01-.14.14zM15 29.17l-.05.16c.17.24.77 1 1.45 1.22v-.1a3.05 3.05 0 01-1.4-1.28zM9.14 17.02h.37l.12-.22a3.97 3.97 0 01-1.9-1.07l-.16.21c.42.49.97.86 1.57 1.08zM9.24 17.85c-.06.2-.14.41-.22.62a7.2 7.2 0 011.12-.62h-.9zM8.8 17.02c-.51-.22-.96-.55-1.32-.97l-.2.24c.27.29.58.54.93.73h.58zM7.18 16.4l-.53.62h1.28a4.84 4.84 0 01-.75-.62zM6.43 17.83h-.2l-.14 4.18c.15.07.31.1.47.12l-.07-4.3h-.06zM6.05 23.35l.53-.02-.02-1c-.16-.01-.32-.04-.48-.1l-.03 1.12zM11.24 14.32l.09-.12h-.19c.08 0 .16-.03.24-.05a1.8 1.8 0 00.6-.35c.26-.19.5-.4.72-.62l.19-.2v2.96c-.28.22-.7.63-.7.92 0 .32.55.76.83.95.33-.29.8-.78.8-1.02 0-.23-.45-.63-.79-.88V11.8h-.12v-.03l-.01.03h-.01v.02l-.08.14a3.19 3.19 0 00-.23.44.18.18 0 01-.08.04l-.07.01a.48.48 0 01-.33-.15.6.6 0 01-.15-.3l-.15.2-.1.14a.17.17 0 01-.15.08.3.3 0 01-.13-.03c-.17-.09-.4-.39-.24-.83.19-.54.41-.72.42-.73l.13.16c-.17.18-.29.4-.35.64a.5.5 0 00.05.5.2.2 0 00.13.09.6.6 0 01.08-.13l.34-.51v-.01c.12-.17.23-.34.32-.53.04-.13-.2-.7-.28-.9l-.06-.15c-.02-.04-.23-.07-.45-.03l-.19.66.11-.77v-.02l.03-.01V9.76l.1-.01c.16-.12.3-.27.42-.44l.2-.3a.72.72 0 00.03-.07v-.05a.12.12 0 00-.05-.09c-.05-.04-.12-.04-.2.04l-.32.23-.65.4a.5.5 0 00-.24.2c-.05.1-.09.22-.1.33-.05.24-.09.5-.12.74-.1.5-.25 1-.47 1.46a16.44 16.44 0 01-.42.83 1.94 1.94 0 001.6 1.29zm1.67 1.85l.03-.03.04.02c.06.03.59.3.61.6.03.31-.52.7-.58.73l-.04.03-.03-.03c-.07-.04-.64-.45-.46-.8.11-.2.26-.37.43-.52z"/><path fill="#fff" d="M11 14.64l.14-.2a2.1 2.1 0 01-1.58-1.27 2.52 2.52 0 01-.14.21c.08.22.41.9 1.58 1.26zM5.8 21.83l.09.07.12-3.55c-.2.35-.48.96-.5 1.52 0 .41.02.83.07 1.24.02.15.03.3.03.46 0 .04.04.14.18.26zM12.16 9.9c0 .04.03.1.06.16.22.52.35.87.28 1.05-.1.2-.2.38-.33.56a.47.47 0 00.1.5.21.21 0 00.18.08c.04-.13.1-.26.17-.38.15-.26.28-.53.4-.8v-.12h.03a.39.39 0 00.02-.23 4.1 4.1 0 01-.1-.24c-.09-.24-.18-.49-.36-.6a.56.56 0 00-.49 0 .2.2 0 01.04.03zM9.85 16.36l-.02.08a23.02 23.02 0 01.88-1.4c-.76-.1-1.45-.87-1.66-1.12l-.6.84-.38.52c.43.58 1.07.97 1.78 1.08z"/><path fill="#fff" d="M9.8 16.5a2.86 2.86 0 01-1.82-1.1l-.18.22c.24.23.96.9 1.9 1.06l.1-.19zM10.8 14.92l.11-.17c-1.06-.33-1.45-.93-1.58-1.22l-.2.28c.18.2.9 1.05 1.67 1.1zM4.05 16.44c.11 0 .23-.01.34-.05l.2-.05h.02a.44.44 0 01.44.18l-.17.12a.21.21 0 00-.38.17c0 .24.58.87 1.93.82l4.22.02h.22c-.2-.1-.36-.24-.5-.42H6.56c-.18 0-1-.04-1.19-.33l-.1-.18.2.02a.37.37 0 00.33-.15.45.45 0 00.06-.37.35.35 0 00-.21-.22c-.23-.1-.33 0-.34 0l-.09.08-.07-.1c0-.01-.16-.24-.6-.09-.27.12-.57.17-.87.14.08.17.21.38.37.4zM7.48 24.04c-.3-.22-.75.1-.76.1l-.06.05-.06-.05a.77.77 0 00-.45-.15c-.07 0-.14 0-.21.02a.17.17 0 00-.13.15.38.38 0 00.15.39c.22.13.47.22.73.24.46-.04.8-.3.87-.52a.19.19 0 00-.08-.23zM13 19.37l-.06-.04-.28-.2a6.1 6.1 0 01-.05 1.61c.42-.12.83-.27 1.22-.45.04-.52.03-1.05 0-1.57l-.83.65zM6.59 23.54l-2.8.12.02.17 2.78-.08v-.21zM11.73 18.42a.87.87 0 01-.33-.56h-.73a6.9 6.9 0 00-1.66.65c-.13.34-.27.67-.42 1a1.97 1.97 0 01-1.31 1.17 1.97 1.97 0 001.22-1.22c.2-.52.38-1.06.52-1.61l-2.32-.01.07 4.29.22-.04c.25-.07.42-.13.58-.2.37-.12.7-.24 1.88-.45 1.01-.16 2.02-.38 3.01-.65.1-.58.12-1.17.04-1.76l-.77-.6zM4.73 25.78l.06.05c-.27-.37-.53-.76-.77-1.17.15.43.39.8.7 1.12z"/><path fill="#fff" d="M5.2 26.1a.93.93 0 00.73-.28c.5-.46 1.02-.4 1.3-.2.25.18.59.32.81.29.33-.3.58-.66.72-1.08.11-.3.18-.63.21-.96l-1.32.05a.39.39 0 01.1.4c-.07.3-.48.64-1.06.68h-.02c-.3-.03-.58-.13-.84-.28a.58.58 0 01-.22-.6c.01-.05.03-.1.06-.14l-1.82.06c.04.21.1.42.17.63.24.4.5.79.78 1.17.12.1.25.2.4.27z"/><path fill="#fff" d="M6.69 26.41c.38-.01.76-.12 1.09-.32a1.97 1.97 0 01-.66-.3c-.23-.15-.64-.2-1.05.18-.15.14-.33.24-.52.3.37.12.75.17 1.14.14zM9 23.42l-2.2.1v.21l2.19-.07.01-.24z"/></svg>