<svg xmlns="http://www.w3.org/2000/svg" fill="none" viewBox="0 0 34 34"><path fill="#fff" d="M17 34h-.23a17 17 0 11.23 0zM16.99.66a16.34 16.34 0 00-.2 32.67h.2A16.34 16.34 0 0017.22.66h-.22z"/><path fill="#F79420" d="M8.85 19.81a.43.43 0 10.86 0 .43.43 0 00-.86 0zm.67 0a.24.24 0 11-.48 0 .24.24 0 01.48 0z"/><path fill="#fff" d="M29.3 14.46a3.85 3.85 0 00-.68-.02l.02.22-.01.12.67-.02a.21.21 0 00.05-.14c0-.09-.03-.15-.05-.16zM25 16.69a2.1 2.1 0 00-.11-1.33l-.19.01-.42.02c.24.43.32.93.23 1.4l.5-.1zM23.98 15.4c.24.45.32.96.24 1.45l.08-.01c.11-.5.03-1-.24-1.44h-.08zM29.24 15.85a.25.25 0 00-.09-.34h-.62c0 .02 0 .05-.02.07a.18.18 0 01-.06.07.16.16 0 01-.08.02.32.32 0 01-.2-.08.71.71 0 01-.1-.1c-.32 0-.4.09-.4.1a.3.3 0 00-.06.23c0 .03.03.06.06.08l1.33.07.07.02c.04 0 .1-.04.17-.14zM27.84 15.19l-.08.13.2-.02a.82.82 0 01-.07-.22l-.05.1zM23 15.43c.12.3.36 1 .23 1.66l.11-.03c.2-.55-.17-1.45-.24-1.63H23zM28.44 16.78c.22-.03.43-.1.62-.2a.35.35 0 00.05-.31.16.16 0 00-.09-.1.35.35 0 01-.08-.02l-1.29-.07a.13.13 0 00-.1.1.04.04 0 000 .04c.1.07.21.12.33.12l.6.12-.04.18v.14zM26 15.26c.18.39.25.81.2 1.23h.03c.14-.45-.07-1.03-.14-1.23h-.1zM23.3 15.43c.12.27.38 1.02.25 1.58l.47-.11c.1-.51 0-1.04-.26-1.49l-.45.02zM25.09 15.35c.17.41.21.86.13 1.3l.08-.02a1.9 1.9 0 00-.16-1.29h-.05zM25.43 15.32h-.08c.19.4.25.84.17 1.27l.48-.09a2 2 0 00-.2-1.22l-.37.04zM28.61 14.97c0 .12-.03.23-.04.34h.59c.07-.04.16-.12.17-.18a.28.28 0 00-.07-.18l-.65.02zM17.26 17.71l-.04-.03s.54-.67.46-1.86l-.58.1c.05 1-.26 1.58-.44 1.81l.6-.02zM17.66 15.63l-.01-.07-.58.02.02.15.57-.1z"/><path fill="#fff" d="M16.8 15.97c.02.63-.17 1.26-.53 1.78h.18l-.02-.02s.54-.53.5-1.77l-.13.01zM16.9 15.76l-.02-.18h-.1l.02.2.1-.02zM17.97 15.58v-.02h-.12v.04l.12-.02zM28.4 14.32a.1.1 0 00-.03-.05l-.03-.02a1.54 1.54 0 00-1.2.08.4.4 0 01-.01.05l-.04-.02c-.31.23-.59.5-.83.8.08.19.3.8.17 1.31.22.02.43.06.64.1a.5.5 0 00.02-.06v-.7l-.18.03.18-.05v-.04h.13a.89.89 0 00.23-.16.87.87 0 01.06-.11.26.26 0 01.13-.11 1.46 1.46 0 00.23-.57l.12.02c0 .2.06.39.17.54a.5.5 0 00.1.1.2.2 0 00.08.03v-.04l.02-.16c.04-.2.07-.41.08-.62 0-.1-.01-.2-.03-.29l-.01-.06zM17.86 17.69c.58-.03 1.15-.07 1.7-.15.24-.04.47-.08.7-.14v-.02h.04c.3-.07.6-.2.88-.37-.2.17-.42.3-.66.4.8.05 1.6-.03 2.37-.24l.13-.03c.17-.67-.14-1.5-.22-1.71l-1.02.01c-.35.02-.7.06-1.05.12l.13.08a.63.63 0 01.3.45.29.29 0 01-.4.3.19.19 0 01-.08-.25.16.16 0 01.17-.08c.02 0 .04 0 .06.02a.14.14 0 00-.17.02.14.14 0 00-.04.16.14.14 0 00.09.08.21.21 0 00.27-.24.51.51 0 00-.28-.34 1.1 1.1 0 00-.43-.12h-.02c-.39-.04-.77-.06-1.16-.07l-.97.16c.1.67-.03 1.36-.35 1.96h.01z"/><path fill="#fff" d="M17.62 17.7c.33-.59.47-1.26.39-1.93l-.14.02c.07.67-.08 1.34-.43 1.92l.18-.01zM9.81 26.19a2.85 2.85 0 01-.15-.35l-1.32.63-.95-.76v-.3c-.04.18-.11.36-.2.52l1.25 1.08 1.37-.82z"/><path fill="#fff" d="M7.48 26.46l-.18.75.96.96 1.06-.85-.04-.58-.86.53-.94-.8zM7.26 16.55c0 .18 0 .88.27 1.23h.02c-.18-.39-.27-.8-.25-1.23h-.04zM7.5 16.47c-.04.45.06.9.27 1.3.46 0 1.08.06 1.5.1l.34.04c.25.02.76.06 1.02-.04.28-.16.54-.34.77-.54h-.01l-.3.1-.33.02.27-.2.3-.1.48-.16.13-.04.31-.08.23-.04a.4.4 0 00-.1-.06.56.56 0 00-.07-.04h-.03v-.02l-.03-.02c-.17.12-.36.2-.56.27-.23.07-.44.11-.67.16l-.68.02.65-.22c.21-.04.44-.08.65-.14l.04-.02-.14.03-.01-.1.48-.08.2-.12.28-.2.03-.02a.88.88 0 00-.28 0 4.23 4.23 0 01-1.66.35 3.8 3.8 0 01-.67-.11c.22-.01.45-.04.67-.08l.26-.02a1.76 1.76 0 00-.2-.2 1.05 1.05 0 00-.3-.2.66.66 0 00-.33-.04 11.87 11.87 0 00-2.5.5z"/><path fill="#fff" d="M9.57 26.57l-.1.06.04.78-1.26 1.02-1.16-1.16.23-.95-.06-.05-.3 1.11 1.33 1.28 1.08-.9v-.02l.26-.2-.06-.97zM13.4 15.9c-.2.2-.44.37-.7.48l-.04.02-.07.06-.05.03.53-.09c.12-.16.23-.33.32-.5zM30.1 13.72l-.13.02.67.1 1.14-.51-1.24-.08-.59.4.13-.03.02.1zM9.91 19.31l.46.65-.47.36c.07.16.51 1.08 1.83 1.77l.02.02c.2-.53.46-1.02.77-1.49-.18.08-.38.12-.58.1.18-.02.35-.08.5-.17l.22-.13.05-.08.02.01.14-.11c.13-.12.25-.26.35-.4a7.55 7.55 0 01.64-.74l-1.37-1.73c-.77.75-1.64 1.4-2.58 1.94zM14.45 18.06c.5-.17 1.02-.27 1.56-.3 0 0 .58-.58.6-1.76l-3.42.58c-.2.26-.41.5-.64.74l1.37 1.72c.36-.38.75-.74 1.15-1.08-.2.02-.42.05-.62.1zM19.68 27.4a.19.19 0 00.09.15.31.31 0 00.29.07.32.32 0 00.16-.24l-.54-.03v.06zM12.9 16.63l-.3.05c.03.02.06.06.07.1v.1c.09-.08.16-.17.23-.25z"/><path fill="#fff" d="M11.61 23.29c-.07-.34-.04-.68.07-1l-.04-.02a4.17 4.17 0 01-1.9-1.83l-.61.48-.51-.7c-.18.08-.91.4-1.76.89-.02.95-.05 2.13-.02 2.42.04.4 1 .8 2.03.85a6.8 6.8 0 002.42-.3c.44-.17.33-.77.32-.8zm-2.96-.12a.59.59 0 01-.22-.11 1.03 1.03 0 01-.15.47.35.35 0 01-.07-.34c.02-.05.04-.1.08-.15h-.07a.33.33 0 01-.2-.11c.13 0 .26-.03.37-.09l.05-.02.06.05.1.07.11.08.27.13a.5.5 0 01-.32.02zm.4-1a.77.77 0 01-.26-.13l-.06.11-.13.22a.51.51 0 01-.02-.27l.04-.12a1.1 1.1 0 01-.21-.04.81.81 0 01-.32-.17l.57.03a.37.37 0 01.15-.32c0 .12 0 .24.04.35l.1.1.15.09.16.08.18.07a.74.74 0 01-.4 0zM9.4 24.57v.95l-.98.5-.67-.5.02-1.13a3.1 3.1 0 01-.19-.06v1.3l.79.64 1.24-.6a.88.88 0 01-.03-.23c.02-.23.03-.66.03-.87h-.22z"/><path fill="#fff" d="M9.2 25.4v-.82l-.34-.01c-.3-.02-.6-.06-.9-.13l-.02.97.5.37.76-.38zM11.12 24.71c-.5.1-1.12.2-1.33.23v.1a9.36 9.36 0 001.75-.3c.3-.12.64-.36.68-.63a.44.44 0 00-.11-.35c-.02.48-.37.83-1 .95z"/><path fill="#fff" d="M11.35 24.25a6.3 6.3 0 01-1.55.3v.2l1.29-.23c.52-.1.83-.4.83-.8a.4.4 0 00-.1-.3c.01.3-.08.69-.47.83zM8.5 19.74l.67.9.93-.72-.68-.98-.91.8z"/><path fill="#fff" d="M7.36 17.98c-.19.07-.37.16-.53.27v.08a1.21 1.21 0 00.17.66c.06.1.14.2.23.27.1.07.21.13.33.17a1.16 1.16 0 01-.35-.13.98.98 0 01-.4-.4l.06.7v.09l-.02 1.19c.77-.43 1.42-.73 1.64-.83l-.25-.35.63-.55a3.1 3.1 0 01-.6-1.17 4.4 4.4 0 00-.91 0zM12 17.14l-.09.03c-.17.15-.95.79-1.2.88-.26.1-.7.09-1.1.06l-.37-.04L8.5 18c.1.37.29.73.54 1.03l.42-.37.35.5a13.2 13.2 0 002.56-1.94l-.1-.15-.27.07zM12.57 17a.47.47 0 01-.13.04l-.1.02.08.1.15-.16zM6.75 16.73l-.3.1c.01.2.1.84.5 1.12.12-.07.24-.12.37-.16a2.36 2.36 0 01-.26-1.18l-.31.12zM6.7 23.94c.18.21.4.38.65.5l.01-.2a1.52 1.52 0 01-.6-.43c-.03.04-.04.08-.06.13zM9.3 28.06l-1.02.85-1.21-1.17c-.02.14-.05.38-.07.7.7.6 1.45 1.14 2.25 1.62a6.88 6.88 0 01.06-2zM7.32 24.64a1.97 1.97 0 01-.67-.48v.05c0 .13.35.5.65.66l.02-.23zM4.42 17.56l-.44.16c.02.26.12 1.36.9 1.7l.1-.06.3-.23a2.1 2.1 0 01-.86-1.57z"/><path fill="#fff" d="M4.73 17.45l-.12.04c0 .17.09 1.05.83 1.52l.11-.09c-.44-.37-.73-.9-.82-1.47zM6.77 18.07c-.38-.33-.49-.91-.51-1.16l-.05.02c.02.2.13.87.54 1.15l.02-.01zM6.02 17l-.68.23-.42.15c.03.19.18.96.8 1.42.33-.24.61-.45.86-.6-.4-.33-.53-.95-.56-1.2zM16.6 15.8c0-.06 0-.14-.02-.2H16.3l-.03-.03a5.4 5.4 0 00-.97-.59 4.01 4.01 0 00-1.09-.3l-.14-.03c-.04.18-.1.34-.17.5-.12.43-.3.83-.56 1.2l3.26-.54zM28.69 26.76a8.98 8.98 0 00-3.04-.2c-.67.1-1.34.24-1.99.42-1.04.3-2.12.44-3.2.4a1.11 1.11 0 01.4 1.11 1.32 1.32 0 01-.57.9c-.38.21-.83.26-1.25.15a.37.37 0 01-.32.4l-.09.01a.4.4 0 01-.38-.33c-.05-.23.06-.53.45-.61l.2-.05c.5-.12.75-.18.76-.42a.24.24 0 00-.05-.17.18.18 0 00-.12-.03c-.05 0-.65-.01-.86-.86-.33-.11-2.26-.72-3.9-1.33a4.75 4.75 0 01-2.38-1.83c-.16.28-.42.5-.73.6-.42.18-1.5.28-1.83.31l-.01.21c-.02.23.17.61.25.74l.05.08-.32.2.07 1.16-.29.24c-.16.76-.2 1.54-.08 2.31a15.2 15.2 0 007.56 2.01h.27l.02-.1.03-.3c.03-.42 0-.83-.09-1.24-.09-.4-.27-.79-.52-1.11.27.32.47.7.57 1.1.11.41.16.83.14 1.26l-.02.31-.01.09a15.25 15.25 0 0011.28-5.43zM3.8 17.79l-.06.01c.01.28.1 1.36.94 1.77l.03-.02c-.76-.4-.9-1.4-.92-1.76zM6.9 27.6l-.15-.16.36-1.3-.2-.16.07-.08c.13-.14.22-.47.28-.82-.3-.16-.55-.38-.73-.66-.47.8-.73 1.72-.75 2.66v.17c.33.36.68.7 1.04 1.03.03-.42.07-.68.07-.69h.02zM9.72 11.07v.02a2.69 2.69 0 01-1.05-.82c-.02.25.03.5.16.7.13.23.31.42.53.57.22.15.43.32.63.5.05.05.1.11.13.18.03.04.04.08.03.13 0 .05-.02.1-.05.14a.32.32 0 01-.22.12.8.8 0 00.28.19l.12.04.02.01c.14.04.28.05.42.04a.43.43 0 00.37-.32c.05-.15.06-.32.05-.48a1.1 1.1 0 01-.52-.1c-.18-.08-.35-.2-.49-.35-.14-.14-.26-.3-.36-.48l-.05-.09zM9.04 7.9l.2.12a1.5 1.5 0 01.04-.88l.08-.2.1.2s.25.56.68.67l.04.01a2.07 2.07 0 01-.35-.54.6.6 0 00-.16-.2c-.14-.1-.3-.18-.46-.22a2.54 2.54 0 00-.53-.1h-.05l-.02.13c0 .02-.1.67.43 1.01z"/><path fill="#fff" d="M9.62 10.83a.43.43 0 010-.3.24.24 0 01.08-.1.4.4 0 01.09-.04.65.65 0 01.17-.03 2.02 2.02 0 01.67.13l.06-.18a.68.68 0 01-.25-.68c.04-.16.1-.3.18-.44-.15-.37-.6-.58-1.05-.79-.22-.1-.43-.2-.64-.33a1.11 1.11 0 01-.48-.73c-.17.52-.37 1.43 0 2.22.25.54.66.98 1.17 1.27zM9.5 13.77l-.09.03c-.02.21-.05 1.12.54 1.55a1.86 1.86 0 002.04.15c.4-.25.72-.59.94-1a.87.87 0 01-.12-.04c-.1.2-.67 1.2-1.72 1.2h-.18a1.5 1.5 0 01-1.09-.55c-.26-.4-.38-.87-.32-1.34z"/><path fill="#fff" d="M14.67 8.62l-.02.01a2.7 2.7 0 01-1.47.39c-.36.02-.73-.04-1.07-.18a1.13 1.13 0 00-.58-.1c-.47.06-.82.52-.91.93a.5.5 0 00.22.53l.06.04-.1.35.03.02c.07.04.13.08.19.14l.05-.46a.68.68 0 01-.28-.31.43.43 0 01-.02-.27 1.39 1.39 0 01.4-.57c.12-.1.27-.17.43-.19.16 0 .3.01.46.06a4.62 4.62 0 001.24.13c.28 0 .55-.04.81-.13l.41-.15a.64.64 0 01.25-.01c.07 0 .13.05.17.1 0-.11-.05-.21-.12-.3a.11.11 0 00-.15-.03zM12.72 16.15a2.38 2.38 0 001.16-1.51l-.1-.01a2.3 2.3 0 01-1.11 1.49c.02 0 .04.02.05.03z"/><path fill="#fff" d="M9.75 7c.08.07.14.15.18.24.03.08.06.18.1.25.06.12.12.24.2.35.46.14.97.46 1.15.73.04-.01.08-.03.13-.03.23-.02.47.02.68.12.31.13.65.19.99.17.84-.04 1.1-.2 1.38-.35l.02-.01a.3.3 0 01.38.04c.05.05.09.1.11.17.18-.44.14-1-.12-1.57a1.14 1.14 0 00-.7-.58c.13.14.23.31.3.5.1.23.13.5.08.76a1.86 1.86 0 00-.41-1c-.07-.1-.16-.18-.25-.25-.2-.14-.42-.26-.65-.34a5.94 5.94 0 00-.54-.18l.23.16c.31.22.53.55.6.92a1.63 1.63 0 00-.68-.81l-.23-.14a3.09 3.09 0 00-.77-.18 9.06 9.06 0 00-1.1-.03L9.97 6l.2.13.25.23.17.02c.32.06.63.15.93.29.3.14.54.36.71.64-.2-.25-.46-.43-.76-.54a3.86 3.86 0 00-2.42-.07l.22.06c.18.05.35.13.5.25zM12.37 16.07s1.04-.49 1.21-1.46l-.2-.03-1.15 1.5h.14zM12.09 15.66c-.31.17-.66.26-1.02.27-.44 0-.87-.16-1.23-.42-.62-.46-.64-1.32-.62-1.65-.16.05-.34.1-.53.13 0 .19-.05 1.33.58 1.89l.34-.04c.12-.02.26 0 .39 0l.2.01c.06.02.12.04.18.08.2.12.36.29.46.5a4.15 4.15 0 001.2-.3l1.21-1.58-.1-.01c-.05.08-.44.78-1.06 1.12zM11.19 8.64c-.3-.31-.68-.53-1.1-.64-.3-.1-.54-.3-.7-.56-.03.23 0 .47.07.7l.18.09c.44.2.88.4 1.1.78.11-.16.27-.29.45-.37zM4.13 17.46l.05-.02a1.66 1.66 0 01-.32-.71l-.04.02c0 .1.04.5.31.7zM5.07 17.12l.07-.02a1.4 1.4 0 01-.37-.88l-.06.05c0 .1.03.63.36.85zM3.82 20.2l.7-.5c-.8-.46-.94-1.45-.96-1.82-.33.13-.65.3-.95.5-.2.14-.38.3-.53.48l-.16.25.1.52a.3.3 0 00.27-.07.29.29 0 00.02-.3.2.2 0 00-.24-.03.2.2 0 00-.06.06.22.22 0 01.34-.07.3.3 0 01.07.2c0 .06-.01.14-.05.2a.41.41 0 01-.33.16c.05.28.1.55.17.83h.04c.5 0 .9.01 1.57-.41zM1.92 18.74c.16-.2.36-.38.57-.53.42-.28.88-.5 1.37-.66l.07-.03a1.16 1.16 0 01-.29-.65c-.57.44-1.1.94-1.58 1.49l-.21.26.02.17.05-.05zM8.12 16.1c.22-.06.43-.1.65-.14-.56-.63-.54-1.56-.53-1.86a4.6 4.6 0 00-.13 2h.01zM5.35 17.02l1.33-.47.13-.05c.05-.13.1-.27.13-.4.03-.15.04-.3.03-.44.05.15.07.3.06.44 0 .12 0 .22-.02.33l.38-.13.54-.16a5.2 5.2 0 01.1-2l-.36.08c-1.44.17-2.02.93-2.4 1.44l-.02.02-.31.38h.01s0 .65.4.96zM4.86 17.2c-.2-.22-.32-.5-.33-.8-.14.08-.28.15-.43.2l-.06.03c.04.27.15.53.33.74l.49-.17z"/><path fill="#fff" d="M8.49 14.04l-.05.01c-.02.2-.08 1.26.56 1.87h.03c-.54-.6-.54-1.58-.54-1.88zM29.97 13.75l-.02-.1L12 16.62c-.1.06-.22.1-.33.15l18.3-3.02z"/><path fill="#fff" d="M11.53 16.79l.14-.02c.11-.05.23-.1.33-.16l-.48.08.01.1zM29.97 13.74l.13-.02-.02-.1-.13.03.02.09zM13.24 14.56l.14.01.6-.78h-.15l-.59.77zM20.72 4.86l-.08.1.1.03.05-.07-.07-.06z"/><path fill="#fff" d="M20.32 2.06l.08.11-.13.04a1.18 1.18 0 00-.7.69 1.35 1.35 0 00.05 1.13 1.8 1.8 0 001.02.93l.08-.1.07.06-.05.07h.03c.04 0 .64.14.85-.3a.47.47 0 00-.1-.56l-.05-.05.03-.09c.04-.07.14-.1.39-.1.38 0 1.79.4 3.7 2.08 1.96 1.75 2.13 4.18 1.9 5.02-.21.79-.5 2.3-.57 2.61.13.1.22.26.24.42l.91-.15v-1a.66.66 0 01.6-.63.64.64 0 01.51.2 7.01 7.01 0 00-1.97-5.53c-2.07-2.22-4.06-3.28-5.23-3.54-1.1-.24-1.34.18-1.34.19l-.03.05h-.05a.44.44 0 01-.45-.31.46.46 0 01.25-.55.7.7 0 01.76.03.9.9 0 00-.04-.61c-.29-.08-.57-.15-.86-.21l.1.1zM28.8 18.42c-.42-.09-.5-.73-.5-.76l-.06-1.05a2.48 2.48 0 00-.36-.07.74.74 0 01-.47-.2.23.23 0 01-.06-.17.31.31 0 01.12-.2.34.34 0 01-.05-.1.38.38 0 010-.2l-.13.08h-.01v.77c-.02.3-.31.63-.46.78.22.2.68.86.4 2.7-.15 1.1-1.18 3.68-3.91 5.59a5.07 5.07 0 01-3.3.86l.02-.2c.15.02.35 0 .42-.11a.43.43 0 00-.06-.42c-.14-.2-.58-.26-.98-.02-.05.03-.1.06-.13.1l.02.03-.08.06-.01-.03a1.7 1.7 0 00-.4 1.53c.14.71.59.77.65.77a.35.35 0 01.27.07.39.39 0 01.12.33c-.01.4-.39.48-.91.6l-.2.05c-.27.06-.33.24-.3.38a.21.21 0 00.24.17.21.21 0 00.15-.1.27.27 0 000-.2l-.08-.18.2.05c.5.14.94.1 1.24-.09a1.13 1.13 0 00.5-.77.92.92 0 00-.31-.9.43.43 0 01-.72.15.39.39 0 01-.17-.29c-.02-.3.3-.62.33-.65l.03-.04.05.01c1.67.34 3.5-.36 5.42-2.06a18.85 18.85 0 003.28-3.9c.7-1.14.74-2.12.7-2.58a.49.49 0 01-.5.2z"/><path fill="#fff" d="M14.56 12.85c.03-.12.07-.24.12-.35a.64.64 0 01-.28.07c-.1.01-.21 0-.3-.04a.32.32 0 01.13-.1c.05-.03.1-.04.15-.05a.41.41 0 01.3.1l.05-.11.1-.24-.32.04-.33.06c-.22.04-.44.11-.64.2a.7.7 0 01.25-.26 1.11 1.11 0 011.04-.06c.05-.17.07-.35.06-.52a2.3 2.3 0 00-.08-.4 1.24 1.24 0 01-.05-.46c.03-.23.1-.45.13-.65a1.8 1.8 0 01-.2.02l-.2.01a1.6 1.6 0 00-.4.08.33.33 0 01.14-.2.53.53 0 01.24-.07.5.5 0 01.41.14l.02-.16v-.42c0-.13-.03-.26-.08-.38-.02-.05-.05-.08-.08-.09-.06 0-.12 0-.18.02-.13.04-.26.08-.39.14-.28.1-.58.15-.87.14a5.7 5.7 0 01-1.3-.14 1.1 1.1 0 00-.39-.05.8.8 0 00-.59.45.33.33 0 00-.06.31c.05.11.14.2.25.25l.06.03v.07l-.07.57-.02.15a.11.11 0 01-.13.09l-.05-.02a.14.14 0 01-.03-.05.2.2 0 00-.03-.05.66.66 0 00-.19-.16 1.55 1.55 0 00-.77-.2c-.08 0-.18.03-.17.06-.01.07 0 .14.03.2l.11.25c.1.16.2.3.33.44.12.13.27.24.44.31.15.08.32.1.5.07l.1-.02.01.1c.04.23.02.45-.04.67a.7.7 0 01-.2.3.6.6 0 01-.33.15c-.11.01-.23 0-.34-.01l-.06-.02c-.18.24-.4.45-.65.63-.02.17-.06.83.3 1.3a1.31 1.31 0 00.95.47c1.15.11 1.7-1.11 1.71-1.13h.02a.3.3 0 01-.07-.17.89.89 0 01.18-.48 3.41 3.41 0 01-.96-.74c-.19-.21-.33-.47-.4-.75.1.27.25.5.45.7.2.2.42.37.67.5.4.24.84.38 1.3.39H14c.05 0 .08 0 .13-.02l.1-.01.04-.01.02-.02a.33.33 0 00.08-.13c.05-.13.09-.26.12-.4l.01-.07 6.23-8.14a.98.98 0 01-.1-.02l-6.08 7.89zm.15-1.26c-.03.01-.06.02-.14-.02-.02-.08 0-.11.01-.13.02-.03.06-.03.14.01.02.08.01.11-.01.14zm-.2-1.15a.31.31 0 01.28.07.63.63 0 01-.25.12.54.54 0 01-.28-.02.35.35 0 01.24-.17zm-.4 1.07a.23.23 0 01.18.18.37.37 0 01-.4-.13.24.24 0 01.22-.05zm-3.3-.2a1.2 1.2 0 00-.18-.15 3 3 0 00-.44-.24.51.51 0 01.28-.02.65.65 0 01.46.32.5.5 0 01.06.28l-.19-.19zm.87-1c.1-.15.24-.29.4-.37.18-.1.4-.12.59-.07a1.84 1.84 0 01.94.57 5.57 5.57 0 00-.99-.38.83.83 0 00-.48.02c-.16.05-.32.14-.46.24zm.97.43c-.21 0-.43-.03-.64-.06a1.38 1.38 0 01.97-.08c.11.04.2.1.29.18a7.9 7.9 0 00-.62-.04zM13.92 19.03l-.06.07 5.35 6.75.07-.07-5.36-6.75zM19.3 25.82l-.02-.04-.07.07.01.03.08-.06z"/></svg>