<svg xmlns="http://www.w3.org/2000/svg" fill="none" viewBox="0 0 34 34"><path fill="#fff" d="M17.06 33.89h-.22A16.94 16.94 0 1117.05 0h.23a16.96 16.96 0 0111.68 29 16.96 16.96 0 01-11.9 4.89zm0-33.23a16.3 16.3 0 10.22 0h-.22z"/><path fill="#fff" d="M15.42 25.46c-.37.27-.75.53-1.13.78.27.17 1.03.72 1.34 1.35l1.02-1.18a3.28 3.28 0 00-1.23-.95zM12.36 22.77c0 .18 0 .36.03.54.05.28.14.54.26.79a2.15 2.15 0 001.24 1.03c.26.1.53.14.81.15.18.03.37.03.55.01l.26-.18c.45-.35.94-.7 1.21-1.16.24-.52.41-1.07.51-1.63l.13-.55-.02-.08c-.24.12-.5.2-.75.27.04.16.05.34.03.5a2.03 2.03 0 01-.9 1.5c-.34.25-.73.4-1.14.41-.4.01-.8-.06-1.17-.22a1.66 1.66 0 01-1.05-1.38zM15.65 25.3l-.08.06c.46.21.87.53 1.19.93l.23-.28a5.3 5.3 0 00-1.18-.84l-.16.13z"/><path fill="#fff" d="M12.99 21.19c-.22.29-.35.63-.38.99-.07.36-.03.72.12 1.06.16.32.43.57.76.7.34.13.7.2 1.07.2a1.8 1.8 0 001-.36c.3-.22.54-.5.7-.84.2-.29.3-.63.31-.98-.2.05-.4.08-.62.08a2 2 0 01-.48-.06v.29a1.11 1.11 0 01-.45.79 1.05 1.05 0 01-.9.1.65.65 0 01-.35-.33.73.73 0 01-.04-.45.86.86 0 01.17-.4.5.5 0 01.38-.18.47.47 0 00-.32.23.76.76 0 00-.1.37c-.02.12 0 .25.07.35.06.1.16.16.27.2a.79.79 0 00.68-.08.87.87 0 00.35-.62c.03-.25-.04-.5-.18-.7a2.2 2.2 0 00-.56-.56 4.59 4.59 0 01-.64-.57.64.64 0 01-.2-.45.56.56 0 01.09-.22l-.13.01c-.1.03-.2.07-.23.13a.23.23 0 01-.15.12.27.27 0 01-.18-.02.58.58 0 01-.18-.16 1.02 1.02 0 01-.19-.38 1.76 1.76 0 01-.03-.4.45.45 0 00-.4-.4h-.1c.05.07.1.14.12.22.03.14.03.28 0 .41-.02.23-.02.46 0 .69.02.23.11.44.27.61.14.14.33.24.53.27.27-.15.58-.19.88-.12a1.22 1.22 0 00-.96.46zM16.9 24.1c-.04.08-.1.16-.17.24.42.15.79.4 1.1.7l.1-.1.02-.04h.07a2.7 2.7 0 00-1.11-.8zM16.63 24.47l-.3.29-.38.31c.42.22.8.5 1.15.83l.62-.72c-.3-.32-.68-.56-1.1-.7zM21.28 24.34a2.1 2.1 0 01-.73.02c-.2-.07-.4-.19-.55-.35-.36.36-.78.66-1.25.87.21.17.46.28.72.34.31.1.64.14.96.11a2.2 2.2 0 001.64-.94c.2-.3.33-.66.36-1.03l-.04.08a1.55 1.55 0 01-1.11.9zM22.68 23.01a5.38 5.38 0 001.57-.5l-.06-.31c-.47.26-1 .42-1.54.48l.03.33zM22.63 22.49v.04a3.98 3.98 0 001.53-.5l-.05-.28-.08-.42a6.8 6.8 0 01-1.57.5c.07.22.12.43.17.66zM21.97 24.89a8.3 8.3 0 001.64 5.2 7.7 7.7 0 010-2.12 10.05 10.05 0 01-1.47-3.27l-.17.19zM22.43 21.68a6.18 6.18 0 001.57-.51l-.04-.21c-.5.25-1.04.43-1.6.52l.07.2zM20.35 23.25c.33-.44.76-.8 1.25-1.03.06-.02.12-.05.15-.08a.25.25 0 00-.04-.03c-.33-.24-.74.05-.81.1a.35.35 0 01-.08.1.5.5 0 01-.24.12h.01a1.47 1.47 0 01-.64.34h-.02c-.28-.02-.55.03-.8.17-.24.14-.45.34-.6.58.12-.26.32-.49.56-.66.24-.16.53-.25.82-.26.1-.03.2-.08.28-.14.03-.01.05-.04.07-.06a2.15 2.15 0 01-1.05-.55.45.45 0 00-.52-.14.55.55 0 01.68-.03 1.94 1.94 0 001.09.52.3.3 0 00.2-.06c.03-.02.04-.04.04-.05l-.03-.03a.39.39 0 00-.12-.04l-.17-.05a1.37 1.37 0 01-.32-.15 2.07 2.07 0 01-.23-.18h-.01v-.01c-.1-.08-.17-.17-.27-.24a.48.48 0 00-.23-.14l-.3-.06h-.07l-.01-.02-.52-.14c-.06.25-.11.5-.15.77 0-.28.03-.56.07-.84.04-.27.12-.55.16-.81.04-.26.06-.53.05-.8a.74.74 0 00-.1-.33.14.14 0 00-.04-.05 3.17 3.17 0 00-.74 2.56c-.08.27-.14.55-.2.84-.1.52-.26 1.02-.46 1.5.5.2.94.52 1.27.94a4.04 4.04 0 002.07-1.56zM20.84 17.49c.15.04.24.26.2.52-.04.37-.17.73-.38 1.03-.3.41-.53.87-.67 1.36l.35.07c.32-.28.6-.66.61-1.07v-.1l.1.04c.1.04.19.1.27.17l.09.12c.07-.09.13-.2.17-.31a.74.74 0 00.04-.25c0-.07-.03-.17-.03-.28a1 1 0 01.17-.62.72.72 0 01.6-.29h.18l-.09.18c-.1.2-.14.44-.11.67.02.13.05.25.09.37a1.77 1.77 0 01-.22 1.17 1.2 1.2 0 01-.3.34c.12.2.24.43.35.65a5.05 5.05 0 001.66-.55v.02l-.13-.86a12.1 12.1 0 00-.4-1.86c-.1-.3-.23-.58-.41-.83a1.8 1.8 0 00-.74-.55c-.18-.1-.37-.18-.55-.27-.24.4-.54.78-.88 1.11l.03.02zM14.7 25.52a2.86 2.86 0 01-1.66-.57c.22.48.37 1 .46 1.53a44.8 44.8 0 001.52-1.01l-.32.05z"/><path fill="#fff" d="M12.34 21.58c.13-.27.3-.51.5-.73l-.1.26.07-.09.23-.17a.99.99 0 01-.58-.2 1.2 1.2 0 01-.4-.65 2.53 2.53 0 01-.02-.76c.03-.1.03-.21 0-.32a.26.26 0 00-.14-.17l-.16-.06.1-.12a.47.47 0 01.46-.16c.15.02.29.1.4.2.1.11.18.26.2.41-.01.12 0 .24.02.36.03.11.07.21.14.3l.1.09h.02a.4.4 0 01.17-.18.79.79 0 01.2-.07c.14-.03.28-.04.42-.03h.22l-.13.17a.81.81 0 00-.17.3c0 .11.05.21.13.29.19.19.4.36.61.52.24.17.45.38.61.62.08.12.14.26.18.4.75.23 1.62-.15 1.87-.27a2.86 2.86 0 00-.7-1.2c.37.28.67.65.87 1.08.04-.13.08-.25.14-.37l.16-.4a5.3 5.3 0 00.38-1.65v-.02c0-.05.03-.1.05-.13a5.27 5.27 0 01-1.61.06 4.48 4.48 0 01-3.94-2.79l-.23.08c-1.14.5-2.44 2.18-2.76 4.8l-.09.78c.27.14 1.12.51 2.58.54.05-.25.11-.49.2-.72zM12.46 24.23l-.02-.02a2.98 2.98 0 01-.2-.53c-.06.52-.1 1.02-.12 1.4v.1c-.05.62-.04 1.74-.04 2.21l.17-.11c.05-.74.11-1.48.21-2.21 0 .68.04 1.35.09 2.02l.07-.05.67-.42a7.77 7.77 0 00-.84-2.37v-.02zM14.15 26.33l-.24.16c.3.2 1 .75 1.34 1.53l.1-.12.16-.18c-.28-.67-1.2-1.28-1.36-1.39zM19.52 31.98a.7.7 0 00.04-.11l-.13.02.1.1z"/><path fill="#fff" d="M19.58 31.63c-.05-.2-.22-.4-.53-.57l-.35-.2c-.29.2-.55.44-.77.7a.36.36 0 00-.03.48 1.06 1.06 0 011.53-.14l.13-.02a.52.52 0 00.02-.25zM19.82 31.8v.03l.38-.07a.34.34 0 00-.38.05zM22.5 24.1a5.1 5.1 0 001.96-.43l-.05-.28c-.64.37-1.6.46-1.83.47-.03.08-.05.17-.09.25zM18.55 20.6a4 4 0 00-.12.42l.45-.05c.22-.09.46-.14.7-.17a4.87 4.87 0 011.04.18c.16 0 .33-.04.47-.13l-.65-.12a8.59 8.59 0 00-1.04-.18c-.25 0-.73.05-.85.06zM19.44 21.05c.1.03.2.09.27.16l.07.07v-.23a1.56 1.56 0 00-.21-.02.7.7 0 00-.13.02zM20.8 17.98a.45.45 0 00-.02-.25v.02l-.08.17c-.17.35-.48 1.01-.75 1.3-.29.35-.54.71-.77 1.1h.22c.12 0 .24.02.35.04.15-.53.4-1.02.72-1.46.19-.28.3-.6.34-.92zM18.55 18.78l.1.1c.08.14.12.3.13.46.02.29-.02.58-.1.85l-.06.18.27-.02c.25-.45.55-.88.87-1.28.25-.27.55-.9.7-1.24l.04-.07c-.57.48-1.25.83-1.98 1.02h.03z"/><path fill="#fff" d="M21.09 19.52c-.04.2-.13.38-.26.53-.13.16-.3.3-.48.42l.13.02.66.12c.05 0 .19.03.23.14a.2.2 0 01-.04.2c-.18.17-.42.26-.66.27l-.1-.01-.3-.06-.24-.05c-.02.13-.02.27 0 .4.05.05.1.1.15.13a1.11 1.11 0 00.41.16c.07.02.13.04.19.08l.1.08c.2-.12.6-.29.96-.02.09.06.18.14.17.24-.01.1-.13.18-.3.27-.47.22-.87.55-1.17.97-.16.2-.34.4-.53.6.18.07.38.12.57.12.22.03.43.03.65-.02a1.3 1.3 0 00.94-.76 1.47 1.47 0 00.06-1.22c-.09-.2-.22-.37-.37-.52a3.1 3.1 0 00-.47-.5c.23.07.44.19.64.33.04.03.07.08.1.12-.06-.32-.15-.63-.24-.95a.74.74 0 01-.28.14c.1-.04.2-.1.27-.19.1-.1.18-.22.24-.35.1-.22.15-.47.16-.71 0-.12-.01-.24-.04-.35a2.18 2.18 0 01-.11-.38c-.04-.2-.03-.42.03-.61a.48.48 0 00-.21.16c-.1.13-.14.3-.14.46l.03.29c0 .1-.02.22-.06.32-.07.2-.2.37-.35.5l-.17.16.01-.22a.4.4 0 00-.18-.3zM9.33 24.1l-.06.61c.23.16.99.57 2.6.38v-.04l.05-.49-.33.02a4.6 4.6 0 01-2.26-.47zM21.72 25.1c-.37.28-.8.44-1.26.48-.36.03-.72-.01-1.06-.12a1.8 1.8 0 01-.7-.54c-.2.08-.41.15-.63.2l-2.54 2.93c-.44.48-.9.93-1.4 1.36.06.55.05 1.12-.02 1.67.05.1.12.19.19.27a1.92 1.92 0 00.52.56c.62.1 1.24.15 1.87.16l.38-.33a.62.62 0 01.55-.13.75.75 0 01.11-.19c.26-.3.56-.57.9-.8l.05-.04.48.27a1.16 1.16 0 01.63.7.6.6 0 01.65.1l.06.05c.97-.23 1.91-.54 2.82-.95a4 4 0 00.2-.35 8.54 8.54 0 01-1.8-5.3zm-3.3 5.08a.47.47 0 01-.1-.3.48.48 0 01.3-.46c.02.2.01.34.02.46v.2l.02.24a.37.37 0 01-.24-.14z"/><path fill="#fff" d="M11.93 24.4l.02-.27h-.17c-1.46 0-2.12-.35-2.4-.56l-.03.36c.26.16 1.06.54 2.58.48zM9.26 24.9l-.02.24c.27.15 1.15.54 2.62.31v-.2c-.26.03-.53.05-.8.05-1 0-1.54-.25-1.8-.4z"/><path fill="#fff" d="M11.97 23.97l.1-.96h-.02c-.88.01-1.75-.16-2.56-.49l-.1.85c.18.18.82.63 2.58.6zM23.59 30.46v-.01l-.1.22.22-.1-.05-.17-.07.06zM19.67 13.06a3.52 3.52 0 00-.63 1.92.4.4 0 00.05.07c.2.16.4.3.64.4l.7.32a1.7 1.7 0 01-.6-.76c-.1-.35-.1-.7-.03-1.05.13-.68.35-1.32.5-1.97l.15-.69a10.75 10.75 0 01-.78 1.76zM16.61 18.67a4.94 4.94 0 004.87-2.4l-.46-.12.04.02a4.54 4.54 0 01-3.96 2.18h-.04a4.06 4.06 0 01-3.71-2.4c-.16.02-.31.06-.47.1.15.44.97 2.32 3.73 2.62z"/><path fill="#fff" d="M17.15 16.52a2.76 2.76 0 002.17-1.05 1.88 1.88 0 01-.4-.27.8.8 0 01-.2-.4 4.85 4.85 0 01-.03-1.2c.05-.47.14-.94.26-1.4a6.41 6.41 0 01-1.04.84c-.13.1-.28.16-.43.2a.68.68 0 01-.51-.08l.03.01a3.67 3.67 0 01-1.37-.88c.03.62.08 2-.13 2.72a.85.85 0 01-.43.52 2.67 2.67 0 002.08 1z"/><path fill="#fff" d="M20.08 10.64a.57.57 0 01-.17.02c-.04.18-.1.35-.19.5-.2.38-.45.72-.75 1.02a11.17 11.17 0 00-.09 2.2c.02.19.06.36.13.53a3.07 3.07 0 01.54-1.92 10.83 10.83 0 00.92-2.18c.04-.12.08-.24.1-.36.04-.13.02-.24.03-.35a1.1 1.1 0 01-.26.4.65.65 0 01-.26.14zM12.12 22.59v-.04a6.23 6.23 0 01-2.58-.52l-.03.32c.81.34 1.69.51 2.58.5 0-.09.02-.18.03-.26zM16.96 17a3.34 3.34 0 002.83-1.3l-.16-.06-.1-.05a2.94 2.94 0 01-2.37 1.17 2.86 2.86 0 01-2.32-1.11l-.06.02-.22.06a3.03 3.03 0 002.4 1.27z"/><path fill="#fff" d="M17.06 18.27h.04a4.46 4.46 0 003.9-2.14 16.3 16.3 0 01-1.13-.39 3.4 3.4 0 01-2.79 1.34h-.12a3.1 3.1 0 01-2.48-1.33c-.2.05-.4.08-.6.1l-.45.08a3.98 3.98 0 003.63 2.34zM14.49 10.46a.61.61 0 01-.27.01.7.7 0 01-.37-.21c-.19-.22-.31-.48-.35-.76-.06-.28-.04-.57.05-.83a.79.79 0 01.26-.35.56.56 0 01.4-.1v-.45c-.04.03-.08.05-.1.08-.26.2-.47.46-.61.74-.14.29-.18.6-.11.92.1.62.58 1.15 1.1 1.5l.3.2-.14-.29a4.3 4.3 0 01-.16-.46z"/><path fill="#fff" d="M14.25 9.1l-.04-.87a.65.65 0 00-.47.5c-.06.24-.06.5 0 .73.03.24.12.48.25.68a.65.65 0 00.49.28 7.1 7.1 0 01-.16-.73l-.02-.03-.09-.3c-.03-.09-.08-.18-.14-.26a.61.61 0 00-.21-.22v-.03c.15.04.3.13.4.26zM20.46 8.85c-.07-.26-.16-.5-.3-.74 0-.03-.03-.06-.05-.09l-.01 1.13.05-.06c.08-.1.19-.18.3-.24zM19.95 10.46h.1c.07 0 .15-.02.21-.06.13-.08.25-.2.33-.33V10c.01-.37-.03-.75-.13-1.11a.98.98 0 00-.22.28c-.07.12-.12.25-.16.38l-.11.77-.02.15zM17.07 12.96h.02l.02.01c.1.05.21.06.32.04.12-.03.24-.08.35-.16.23-.15.46-.32.67-.5.42-.36.78-.8 1.05-1.3.12-.24.2-.5.23-.78.05-.28.08-.56.11-.84.09-.49.16-.98.23-1.47a4.93 4.93 0 00-.96-1.1c-.25.02-.5.08-.73.16-.28.08-.53.21-.75.4l-.02-.02a1.06 1.06 0 01.7-.61 1.48 1.48 0 01.66-.05l-.12-.1c-.51-.43-1.07-.82-1.6-1.23-.18-.13-.36-.27-.53-.42-.08.3-.22.59-.42.84a7 7 0 01-1.26 1.31l.17-.03a2.72 2.72 0 01.93.06c.16.04.3.1.45.17h.01l.02.01c.24.22.4.52.43.84.01.29-.01.58-.06.86-.04.27-.12.53-.15.79l-.01.17a.15.15 0 00.04.13c.1.08.21.14.34.17v.03a.78.78 0 01-.4-.13.27.27 0 01-.1-.17v-.2c0-.28.05-.55.08-.81.04-.27.05-.54.04-.81a1.14 1.14 0 00-.34-.7 2.64 2.64 0 00-1.55-.3l-.04.03-.68.51c.09.52.17 1.03.28 1.53.06.53.19 1.04.37 1.54.22.48.53.91.9 1.28.37.38.81.67 1.3.85zm.74-1.3c-.13.05-.26.08-.4.08-.13 0-.26-.01-.4-.04a.41.41 0 01-.3-.24h.02c.05.04.11.06.18.06h.16l.35-.02h.34c.12-.01.25-.03.37-.07l.02.02a.7.7 0 01-.34.22zm.89-3.86c.22-.03.44.01.63.11v.02c-.2.05-.4.08-.6.1-.21.04-.42.04-.63.05v-.02c.17-.15.38-.24.6-.26zm-1.99 3.12l.57.03c.19 0 .38-.02.56-.05l.62-.07.01.03c-.37.19-.77.3-1.19.33-.41-.02-.82-.11-1.2-.27v-.03c.23 0 .43.01.63.03zm-1.88-2.76v-.03c.2-.13.45-.2.7-.17.24.01.48.1.66.27v.03a8.66 8.66 0 00-.67-.06c-.23-.02-.46-.04-.69-.04zM22.62 23.7c.3-.03 1.19-.13 1.76-.48l-.1-.55c-.42.26-1.32.45-1.6.5 0 .18-.03.36-.06.53zM11.95 31.17v.02c.28.1.57.2.86.28-.06-.28-.11-.56-.14-.84l-.72.54zM11.93 31.18h.01v-.01l-.01.01zM18.25 32.03l.82-.08a.83.83 0 00-.82.08zM25.37 27.35c-.1-.3-.22-.6-.3-.91-.09-.32-.16-.63-.23-.94l-.33-1.6c-.64.28-1.33.43-2.02.45h-.1l-.08.11a9.55 9.55 0 001.7 4.05c-.15-.17-.28-.35-.4-.52a8.4 8.4 0 00.3 2.48c.74-.37 1.44-.8 2.1-1.27v-.05l-.64-1.8zM14.06 31.35c-.02.11-.05.21-.09.32l-.01.03.02.06.41.08c-.1-.11-.2-.24-.29-.37l-.04-.12zM26 26.28a3.62 3.62 0 01-1-1.14l.06.32c.08.3.15.61.24.91.1.3.2.6.32.9.22.57.44 1.15.64 1.74l.43-.34a6.15 6.15 0 00-.7-2.39zM8.64 28.53c.02-.76.11-1.5.28-2.24.05-.87.13-1.78.21-2.6l-.23.67a18.9 18.9 0 00-.67 4.87l.46.32a6.7 6.7 0 01-.05-1.02zM8.85 28.38zM8.16 26.16c.17-.55.37-1.08.58-1.61l.08-.19c.1-.3.21-.6.33-.88l.22-2.02-.03.08-.6 1.63c-.21.54-.46 1.08-.7 1.59a13.56 13.56 0 00-.83 3.68l.38.31c.03-.3.07-.62.13-.93.11-.56.26-1.11.44-1.66zM15.07 28.2a3.71 3.71 0 00-1.38-1.57l-.95.6-.73.48c-.23.16-.44.34-.64.53-.42.4-.65.96-.66 1.53a2.21 2.21 0 01.5-1.65c.18-.23.39-.42.63-.57v-1.86c-.28.05-.57.07-.86.07a3.9 3.9 0 01-1.77-.37c-.13 1.78-.2 3.55-.03 4.39l.03.1c.77.48 1.6.88 2.44 1.2a27.25 27.25 0 003.42-2.87zM13.92 29.6c-.4.35-.83.7-1.23 1.02.07.3.17.6.28.9l.73.18.05-.11c.23-.64.2-1.57.17-1.99z"/><path fill="#fff" d="M15.07 1.88l-.05.01a3.1 3.1 0 00-1.65 1.07 4.37 4.37 0 00-.86 1.83c-.3 1.34-.29 2.74-.16 4.11.06.7.15 1.38.25 2.07l.14 1.03c.03.36.01.72-.06 1.06a4.9 4.9 0 01-.91 1.88 8.87 8.87 0 01-1.46 1.5c.53-.46 1-.97 1.4-1.53.42-.56.71-1.2.86-1.87.06-.34.07-.68.03-1.02l-.1-.57c0 .28 0 .56-.04.83-.07.6-.31 1.18-.71 1.64-.14.15-.29.28-.45.4-.6.5-1.23.93-1.62 1.55-.2.3-.35.65-.43 1-.09.37-.14.74-.15 1.12-.02.38 0 .75 0 1.14 0 .2 0 .4-.02.59a8.38 8.38 0 01-1.94 4.82c-.17.19-.35.36-.54.52a6.24 6.24 0 001.9-1.94l.02-.05c.21-.53.4-1.07.6-1.62l.29-.81.13-.4c.04-.13.06-.28.09-.42.1-.56.17-1.13.25-1.71.08-.6.3-1.16.68-1.64.19-.23.42-.43.67-.6l.39-.21c.12-.06.23-.14.34-.22.41-.38.71-.86.87-1.4a7.6 7.6 0 00.13-3.41c.22 1.13.33 2.31.02 3.45a3.17 3.17 0 01-.88 1.54c-.11.1-.24.19-.37.26l-.37.2c-.24.15-.45.33-.62.55-.34.44-.56.97-.63 1.52l-.06.48a4.93 4.93 0 012.28-2.65c.24-.1.48-.18.73-.23.35-.52.46-1.22.46-1.88 0-.69-.08-1.37-.24-2.04.2.66.32 1.35.36 2.04.02.35 0 .7-.05 1.05-.04.27-.12.53-.23.77l.47-.07.1-.02c.12-.2.2-.41.24-.64.05-.26.08-.52.08-.78a9.04 9.04 0 00-.1-1.57c.11.52.19 1.04.22 1.57.01.27 0 .54-.03.8-.02.2-.06.4-.13.58l.43-.1a1.8 1.8 0 00.14-.36 7.23 7.23 0 00.1-1.48c-.03-.66-.08-1.34-.16-2l.17 1c.05.32.1.66.13 1a7.34 7.34 0 01-.03 1.53l-.05.2a.66.66 0 00.33-.4c.24-.82.12-2.7.1-2.92a4.72 4.72 0 01-.5-.68l-.47-.13c-.36-.1-.7-.27-.98-.51s-.5-.56-.62-.91a2.38 2.38 0 01-.1-1.1c.07-.37.23-.7.49-.98.24-.26.5-.5.79-.72a5.9 5.9 0 001.4-1.55c.2-.3.34-.62.44-.95-.07.34-.2.68-.39.98-.18.3-.38.6-.6.87-.44.57-1.06.96-1.5 1.49-.22.25-.37.56-.42.9-.04.33-.01.66.1.98.14.4.4.73.75.95l-.16-.18c-.22-.27-.36-.6-.43-.95a1.7 1.7 0 01.14-1.04c.16-.3.4-.58.68-.79.26-.2.55-.39.82-.58a6.8 6.8 0 001.45-1.35c.2-.24.36-.5.46-.8-.35-.3-.66-.63-.93-1a3.49 3.49 0 01-.5-1.04 3 3 0 01-.6 1.41 3.27 3.27 0 01-1.24 1.03A5.33 5.33 0 0015.3 2.9c-.08-.28-.1-.58-.07-.87h.03c-.06.67.24 1.32.64 1.85.42.52.92.97 1.47 1.34.55.4 1.12.77 1.65 1.2.56.41 1.03.93 1.39 1.52.34.62.5 1.32.48 2.02a9.43 9.43 0 01-.3 2.03c-.16.67-.4 1.3-.54 1.95-.08.31-.08.64 0 .95.1.3.3.56.56.75l.28.14a1.46 1.46 0 01-.17-.2c-.2-.3-.32-.66-.34-1.03a7.3 7.3 0 01.28-2.12c.17-.7.38-1.38.47-2.07.1-.69-.02-1.38-.32-2.01-.58-1.27-1.69-2.23-2.77-3.12-.27-.22-.55-.44-.82-.68a4.92 4.92 0 01-1.32-1.69 2.7 2.7 0 01-.29-1.02c.1.71.5 1.33.95 1.86.23.27.48.51.75.74l.84.65c.57.43 1.11.9 1.62 1.4.51.52.94 1.1 1.26 1.75.3.67.42 1.41.31 2.14-.12.7-.29 1.4-.5 2.09-.17.68-.36 1.37-.35 2.07 0 .35.1.7.27 1 .08.1.17.21.27.3l1.27.64c.3.13.57.33.77.59.18.26.33.56.42.87.17.61.31 1.24.4 1.87.1.63.22 1.25.35 1.88l.09.41.09-.69c.09-.46.16-.92.2-1.39.04-.46.03-.92-.03-1.38a3.3 3.3 0 00-.47-1.27 4.3 4.3 0 00-.91-1.02c-.35-.3-.75-.55-1.13-.83a3.06 3.06 0 01-1-1.02 1.26 1.26 0 01.11-1.36 1.25 1.25 0 00-.02 1.3c.23.4.62.68 1 .93.79.5 1.61 1.05 2.14 1.88.26.41.42.88.49 1.36.06.48.06.96 0 1.43-.07.47-.15.94-.27 1.4a7.7 7.7 0 00-.16.87c.17.86.36 1.71.56 2.57.13.25.29.48.47.7.32.32.68.62 1.07.87a9.93 9.93 0 011.37 1.14l.28-.3c-.35-.41-.74-.8-1.16-1.15a6.35 6.35 0 01-1.67-1.92c-.2-.4-.31-.82-.33-1.25-.02-.43.03-.86.14-1.28.24-.8.39-1.62.44-2.45v-.27a4.32 4.32 0 00-.53-1.63 5.24 5.24 0 00-1.2-1.48 4.98 4.98 0 00-.5-.4 4.14 4.14 0 012.03 2 3.87 3.87 0 00-.94-1.6 4.6 4.6 0 00-.94-.77c-.35-.22-.73-.35-1.11-.58a1.7 1.7 0 01-.5-.45 1.4 1.4 0 01-.25-.63 6.18 6.18 0 01-.05-1.28l.08-1.25c.15-1.66.2-3.33.13-5a6.5 6.5 0 00-.61-2.37 4.7 4.7 0 00-1.45-1.73c-1.5-.26-3.03-.3-4.54-.1a.93.93 0 00-.06.08l-.02.09zm-1.54 4.67c.27-.27.53-.53.77-.82.51-.55.9-1.2 1.12-1.92-.05.38-.17.75-.35 1.08-.18.34-.4.65-.65.94A7.16 7.16 0 0112.7 7.3c.3-.24.57-.5.84-.75zm4.91-3.5c.42.32.81.68 1.19 1.06.38.38.72.79 1.03 1.22.32.43.56.92.7 1.44l-.18-.35-.2-.34a14.78 14.78 0 00-1.5-1.8l-1.15-1.1-1.18-1.06c.45.28.88.59 1.29.92zm-1 .17c.46.48.9.98 1.4 1.4.5.46.97.93 1.41 1.44.43.5.85 1.06 1.05 1.7a4.3 4.3 0 00-.53-.83 21.25 21.25 0 00-2.08-2.12 16.5 16.5 0 01-1.38-1.47c-.43-.51-.84-1.05-1.22-1.59l1.35 1.47zM17.23 31.93l-.18.15h.04l.55-.01a.54.54 0 01-.05-.22.39.39 0 00-.36.08z"/></svg>