<svg xmlns="http://www.w3.org/2000/svg" fill="none" viewBox="0 0 34 34"><path fill="#fff" d="M23.76 22.73c.43-.05.89-.04 1.27-.07.4-.04.78-.16 1.13-.35.34-.18.62-.46.81-.8a1.53 1.53 0 00-.43-1.98 1.32 1.32 0 00-1.04-.19c-.38.06-.72.25-.97.54a1.2 1.2 0 00-.26 1.06.83.83 0 00.85.64c.2 0 .41-.06.58-.17a.63.63 0 00.29-.53.67.67 0 01-.25.58 1.14 1.14 0 01-1.27.1.96.96 0 01-.43-.55 1.5 1.5 0 01.21-1.35c.17-.23.39-.42.64-.56a6.92 6.92 0 01-3.77-.76 5.4 5.4 0 01-1.35-.96 4.42 4.42 0 01-1.29-2.8 7.2 7.2 0 00-1.1-.35c.35-.01.7.02 1.06.1.34.05.69.11 1.04.14a5.4 5.4 0 002 0c.62-.16 1.16-.6 1.61-1.1a5.65 5.65 0 001.09-1.75l-.36.1c-.37.05-.74.07-1.1.06a8.3 8.3 0 01-1.08-.12 6.13 6.13 0 00-3.05-.02c-.33.04-.65.14-.93.3-.3.2-.51.47-.62.8.01-.14.04-.28.1-.41-.18.02-.35.07-.51.16a10.04 10.04 0 00-1.04.65h-.01c-.16.1-.31.22-.47.34-.64.5-1.22 1.06-1.83 1.6l-.27.23a8.29 8.29 0 00-1 2.14c-.01.16.01.31.07.45l.21.55c.07.21.08.44.03.67-.17.82-.6 1.46-.83 2.16a7.7 7.7 0 00-.5 2.16c-.02.36 0 .73.08 1.08a2.21 2.21 0 00.83 1.27l.23.12.24.12c.31.14.66.2 1 .19a1.11 1.11 0 00.8-.46c.2-.27.27-.6.24-.92a.43.43 0 00-.18-.36.7.7 0 00-.44-.16.58.58 0 00-.44.2.64.64 0 00-.14.5.7.7 0 01.03-.58.76.76 0 01.53-.35c.22-.04.44 0 .64.11a1.09 1.09 0 00.29-1.28.85.85 0 00-.62-.46 2.12 2.12 0 00-.87 0c.28-.1.58-.13.88-.1a1.02 1.02 0 01.8.45c.17.29.23.62.17.95-.05.27-.17.52-.34.74.05.08.1.18.12.27.03.19.03.38-.02.56.3-.11.56-.32.72-.6.05-.13.11-.26.19-.38.1-.26.18-.54.23-.82a16 16 0 01.64-2.36c.15-.4.35-.77.6-1.1a1.9 1.9 0 011.08-.8c.23-.04.47-.03.7.05l.16.04.16.07c.1.04.2.1.3.17.2.14.35.35.44.58.07.23.08.48.03.72-.12.44-.38.83-.75 1.1-.08.07-.17.14-.27.2l-.26.14c-.17.1-.35.2-.5.31-.67.43-1.28.93-1.83 1.5-.25.27-.5.6-.55.89a1.24 1.24 0 00.33.94c.25.26.57.45.92.54.25.07.5.11.76.12a1.46 1.46 0 01-.03-.37c.02-.25.08-.48.18-.7A3.77 3.77 0 0120 23.75c.4-.17.8-.32 1.22-.45.4-.13.8-.27 1.24-.37.43-.1.86-.16 1.3-.2zm-7.92-7.32c-.18.06-.35.14-.5.25.04.25.05.5.01.76-.05.35-.2.67-.43.93a1.6 1.6 0 01-.9.53c-.25.05-.51.02-.75-.08l-.05.04a1 1 0 01-.37.1.42.42 0 01-.34-.13.52.52 0 00.42-.32c.15-.12.27-.26.38-.42.25-.33.52-.65.8-.96.3-.32.63-.6.98-.84.2-.12.4-.22.6-.3.24 0 .47.03.68.12-.19.08-.37.19-.53.32zm2.97-2.17c.24-.08.48-.17.71-.29.22-.11.45-.26.7-.39a5.22 5.22 0 013.13-.58 7.45 7.45 0 00-3 .85c-.23.11-.45.25-.7.37-.26.12-.52.2-.78.26-.53.13-1.08.12-1.61-.01.52.02 1.05-.05 1.55-.21z"/><path fill="#fff" d="M14.44 16.42c-.27.3-.53.61-.78.93l-.26.32c.18-.01.35-.05.52-.11A2.2 2.2 0 0015 16.35l.17-.59c-.27.2-.51.42-.74.66zM18.57 21.96c.17-.08.33-.18.49-.3.28-.21.49-.51.58-.85a.94.94 0 00-.02-.47.79.79 0 00-.28-.37c-.07-.05-.14-.1-.22-.13L19 19.8l-.13-.03a.94.94 0 00-.5-.03c-.33.1-.62.32-.8.62-.22.32-.4.65-.56 1a15.86 15.86 0 00-.92 2.56l.05-.05a10.7 10.7 0 012.43-1.9z"/><path fill="#fff" d="M3.43 16.64c.13-.13.24-.28.32-.44.1-.22.18-.45.23-.7 0 .26-.03.51-.1.76-.04.19-.12.37-.23.54.23.15.47.28.72.39l.43.16c.15-.18.26-.39.32-.61.1-.3.15-.6.18-.92a4.5 4.5 0 01-.16 1.43 1.7 1.7 0 01-.08.18c.45.14.9.22 1.38.25l.05-.27a3.79 3.79 0 00-.11-1.56 3.85 3.85 0 01.32 1.86c.4 0 .78-.02 1.17-.09 0-.31-.06-.63-.14-.93-.1-.37-.23-.73-.4-1.08.21.33.4.67.54 1.04.13.3.21.6.27.92a6.68 6.68 0 001.42-.45 4.39 4.39 0 00-1.07-2.09 4.81 4.81 0 011.33 1.98c.45-.2.89-.42 1.31-.68-.06-.39-.2-.76-.4-1.11-.21-.4-.47-.76-.77-1.1.34.3.64.65.9 1.02.23.32.4.67.52 1.04.35-.22.7-.45 1.04-.7-.05-.5-.2-.98-.44-1.4-.28-.51-.6-.98-1-1.4.43.39.8.83 1.12 1.32.27.39.46.83.57 1.3l.45-.35.62-.52a4.71 4.71 0 00-.52-1.58c-.26-.51-.6-.99-.99-1.4A6.1 6.1 0 0114 14.21c.35-.27.7-.55 1.05-.8l.27-.19-.1-.46-.11-.46a6.37 6.37 0 00-.82-1.7c-.18-.26-.4-.5-.66-.68.27.17.51.38.72.63a5.19 5.19 0 01.97 1.68l.16.46.1.36a11.42 11.42 0 011.05-.58l.29-.1-.09.01a8.38 8.38 0 00-1.34-3.44 8.51 8.51 0 011.63 3.39h-.03.06c.08-.21.2-.4.37-.56.28-.25.6-.45.97-.56a5.48 5.48 0 00-.2-1.72 6.94 6.94 0 00-.75-1.76 7.04 7.04 0 011.26 2.62c.06.26.1.51.11.77.38-.06.77-.1 1.15-.1l.12-.38c.03-.17.08-.33.1-.5a6.92 6.92 0 00.07-2.08 3.5 3.5 0 00-.3-1.01c.18.3.32.64.4.98a5.79 5.79 0 01.17 2.15l-.06.54-.06.32h.18c.35.04.7.1 1.06.17h.05a5.61 5.61 0 00.8-2.02c.14-.78.16-1.58.04-2.36a7.24 7.24 0 01-.05 3.6c-.09.29-.2.58-.35.85l.53.04c.33.01.67 0 1-.06.06 0 .1-.02.16-.03a6.23 6.23 0 00.99-1.55 5.19 5.19 0 00.4-1.89 5.55 5.55 0 01-.8 3.33l.07.06a.37.37 0 01.1.3c-.01.1-.03.21-.07.31-.1.26-.22.51-.36.75a5.87 5.87 0 002.11-.33 3.89 3.89 0 001.98-1.6 4.12 4.12 0 01-1.9 1.81 5.47 5.47 0 01-2.46.54 6.67 6.67 0 01-.9 1.06 7.82 7.82 0 002.71.79 4.35 4.35 0 002.98-.83 4.38 4.38 0 01-2.98 1.05 7.15 7.15 0 01-3.08-.7l-.3.2a5.15 5.15 0 002.9 2.85c.22.1.45.19.7.26.23.07.48.1.73.17-.25-.04-.5-.06-.75-.11a6.18 6.18 0 01-2.1-.86 5.45 5.45 0 01-1.87-2.1c-.13.06-.27.11-.42.15l-.19.03A3.84 3.84 0 0022.85 18a3.8 3.8 0 01-1.32-1.34 4.26 4.26 0 01-.56-1.67c-.28.02-.57.02-.85 0a3.55 3.55 0 00-.22 1.5 4.27 4.27 0 01-.19-1.31l.01-.22-.32-.05a3.57 3.57 0 01-.55-.2c.11.98.59 1.87 1.33 2.51.8.72 1.52 1 2.55 1.2 1.04.22 2.14.34 3.13.02.49-.16.96-.4 1.38-.7l.3-.24.16-.13.13-.14.28-.28.24-.3c.32-.42.59-.87.79-1.35.1-.24.16-.5.22-.74l.06-.39c.03-.12.04-.25.03-.38a6.32 6.32 0 00-.7-3.03 8.7 8.7 0 00-3.2-3.44 9.2 9.2 0 00-7.68-.5c-1.01.37-1.97.86-2.86 1.45-.9.58-1.77 1.23-2.57 1.94-.82.71-1.6 1.46-2.41 2.2-.8.75-1.67 1.43-2.6 2.01-.48.3-1 .52-1.54.68a4.68 4.68 0 01-3.33-.28 5.82 5.82 0 01-.5-.25l-.06.51c.15.26.32.5.51.73.27.32.59.6.92.83z"/><path fill="#fff" d="M3.76 9.94a3.4 3.4 0 00.68-1.11 2.97 2.97 0 01-.5 1.25l-.09.12c.35.18.72.34 1.1.46a2.97 2.97 0 00.44-.73c.15-.32.26-.66.32-1a4.26 4.26 0 01-.49 1.82c.4.12.79.2 1.19.27a2.92 2.92 0 00.4-.94 4.83 4.83 0 00.15-1.25 5.93 5.93 0 01-.01 1.27 4.16 4.16 0 01-.26.96c.4.06.8.1 1.21.12.1-.35.18-.7.23-1.06a6 6 0 00.06-1.25c.08.42.1.84.09 1.26-.01.36-.04.71-.1 1.07.23 0 .45 0 .68-.03l.68-.09a6.9 6.9 0 00.03-2.7 6.78 6.78 0 01.3 2.06c0 .2 0 .4-.03.6l1.1-.08.47-.43a7.23 7.23 0 000-1.52c-.04-.29-.11-.56-.2-.83-.1-.28-.23-.54-.4-.77.2.22.35.47.46.74a4.78 4.78 0 01.43 2.11l.45-.4c.31-.28.63-.54.96-.8a3.55 3.55 0 00-.6-2.2 3.61 3.61 0 01.85 1.99c.45-.35.92-.67 1.4-.98l.1-.06c.05-.23.06-.46.03-.69-.03-.29-.11-.58-.23-.85.16.26.3.54.38.82.05.18.08.37.09.55.43-.26.88-.51 1.34-.73a2.3 2.3 0 00-.1-1.06c.18.29.3.6.34.94a12 12 0 01.94-.4c.04-.24 0-.49-.1-.72.16.19.27.41.31.65.75-.26 1.53-.44 2.33-.53a5.95 5.95 0 00-2.05-.47c-.86-.05-1.7.05-2.56.14a13.34 13.34 0 00-3.67 1.09l-1.16.6a13.29 13.29 0 01-5.08 1.42c-.43.03-.85.03-1.28 0-.31.46-.6.95-.85 1.45l.08.05.14-.13zM32.12 16.92c0-1.41-.2-2.81-.58-4.17-.6-.1-1.19-.23-1.77-.4a5.94 5.94 0 01.1 1.85l-.07.43-.24.81c-.22.52-.51 1.01-.86 1.46l-.26.33-.3.3-.14.15-.17.13-.32.27a6 6 0 01-1.5.77 1.74 1.74 0 011.28.82c.07.1.11.21.17.32.05.1.07.22.1.34.11.48.04.97-.2 1.4-.23.4-.57.73-.98.96-.4.22-.84.36-1.3.4-.46.05-.86.04-1.28.08-.41.04-.82.1-1.23.2-.35.07-.7.2-1.06.31.19 0 .38.02.57.06.5.07.99.25 1.42.52.4.3.77.66 1.06 1.08.28.41.52.85.73 1.3.35.76.61 1.52.9 2.28a15.1 15.1 0 005.93-12z"/><path fill="#fff" d="M17 34a17 17 0 110-34 17 17 0 010 34zm0-33a16 16 0 10.01 31.99 16 16 0 00-.01-32z"/></svg>