<svg xmlns="http://www.w3.org/2000/svg" fill="none" viewBox="0 0 34 34"><path fill="#fff" d="M11.4 21.82a3.27 3.27 0 01-.46 2.63c-.35.58-.6 1.03-.64 1.53.18-.37.48-.67.86-.83.84-.36.94-.86.92-1.14a.32.32 0 01.19-.35.35.35 0 01.37.09.16.16 0 00.17.04c.07-.02.06-.13.05-.19-.05-.34-.14-.9.2-.98a.23.23 0 01.29.16c.03.07.05.1.1.1.07 0 .09-.07.1-.1a.78.78 0 000-.6c-.1-.1-.23-.17-.36-.24-.2-.1-.4-.25-.55-.43a.95.95 0 01-.17-.3.37.37 0 01.04-.35.37.37 0 000 .32c.04.1.1.2.18.28.16.16.35.29.55.38.22.09.42.22.59.4.11.12.22.26.3.4.05-.2.06-.42.05-.63-.02-.28-.1-.54-.26-.77l-.13-.16-.15-.13-.32-.3c-.1-.1-.19-.23-.25-.36a.74.74 0 01-.09-.3l-.02-.02a1.15 1.15 0 01-.2-.2.8.8 0 01-.13-.23c.09.14.21.27.36.36v-.02.02c.11.07.23.12.35.16a2.4 2.4 0 00-1.16-1.1l-.16-.08-.17-.05c-.12-.04-.24-.05-.35-.08-.1-.03-.22-.03-.34-.05a2.09 2.09 0 01-.22.26l.8.45-.99-.3-.13.13-.02.02a4.93 4.93 0 011.53.63 4.97 4.97 0 00-1.68-.43l-.08.16a2.29 2.29 0 01.98.4c.3.2.55.46.77.74a3.26 3.26 0 00-1.3-.84 2.59 2.59 0 00-.54-.08c-.03.08-.04.16-.06.25a1.88 1.88 0 01.83.34c.24.18.44.4.58.67a1.94 1.94 0 00-1.03-.73 1.74 1.74 0 00-.4-.06v.16l-.01.2c.15.01.94.13 1.2 1.15z"/><path fill="#fff" d="M10.31 26.41l-.07.4c.22-.18.44-.32.64-.5.37-.33.63-.76.74-1.23-.12.08-.25.15-.39.21a1.65 1.65 0 00-.92 1.12zM11.31 23.04c.05-.4.03-.8-.07-1.18a1.35 1.35 0 00-.62-.9 1.86 1.86 0 01-.39.59 1.33 1.33 0 01-.7.37 1.33 1.33 0 00.76-.8l.07-.27a.9.9 0 00-.2-.03c-.04.16-.1.31-.2.45a1.44 1.44 0 01-.65.51l-.13.06-.13.04-.2.05c.6.4 1.27.7 1.98.9.17.04.33.11.48.2zM17.37 17.18c-.82-1.26-3.52-3-4.81-3.12-1.17-.1-1.6-.13-2.1.38.15 0 .3 0 .45.02.1-.1.21-.18.34-.24.16-.05.32-.08.49-.08-.14.08-.26.17-.37.28a.68.68 0 01-.09.08c.19.02.37.06.56.1.2-.15.42-.25.67-.3.23-.04.47-.06.71-.04-.22.06-.43.15-.63.26-.1.06-.19.13-.27.2l.51.18c.21-.07.43-.13.65-.18.23-.03.46-.04.69-.02a3.6 3.6 0 00-.63.25l-.3.11c.2.09.39.18.57.28a4.29 4.29 0 011.61.09c-.26.01-.52.05-.77.1-.15.04-.28.04-.4.06.23.15.47.3.7.47a4.43 4.43 0 011.37.08c-.34.03-.68.1-1 .21l.28.24.07.06a5.15 5.15 0 011.46.27 3.41 3.41 0 00-1.08.1l.32.35a3.25 3.25 0 011.18.32 2.7 2.7 0 00-.87.05l.27.36c.36.08.7.22 1 .41-.24-.03-.49-.03-.73 0l.18.3.24.09a2.16 2.16 0 01.48.28.8.8 0 01.18.2.82.82 0 00-.24-.1 1.51 1.51 0 00-.44-.04l.15.33v-.02c.15.08.3.16.43.25a2 2 0 01.38.3 1.93 1.93 0 00-.63-.1l.11.33a3.56 3.56 0 01.64.48l.16.2a1.9 1.9 0 00-.67-.21l.1.44c.14.06.27.15.38.25.13.1.24.23.32.37-.2-.12-.41-.18-.64-.2.02.17.04.33.04.5.12.07.22.16.32.26s.18.2.25.33a1.46 1.46 0 00-.56-.16c0 .14 0 .28-.02.43.09.08.16.17.23.26.09.12.15.25.2.4-.1-.1-.23-.17-.35-.22l-.13-.04-.08.38c.08.09.15.18.2.29.08.11.13.24.15.37-.08-.09-.19-.16-.3-.2l-.16-.07c-.03.12-.08.23-.12.34l.14.28.08.19c.03.06.04.13.04.2a.44.44 0 00-.14-.13 2.4 2.4 0 00-.15-.1l-.13-.08-.1.2c.12.2.2.43.23.67a1.19 1.19 0 00-.43-.32l-.06.08c.06.2.1.4.12.6l-.33-.3-.07.1a1.49 1.49 0 01.07.55 1.49 1.49 0 00-.3-.27l-.05.06v.22c0 .1 0 .19-.02.28a2.96 2.96 0 00-.2-.2l-.04-.04-.07.07v.2l-.06.28a2.35 2.35 0 00-.17-.22l-.02-.02-.16.14c-.02.14-.04.27-.08.4a2.58 2.58 0 00-.2-.19l-.13.11-.1.32-.18-.13-.1.07-.08.33-.2-.15-.1.07-.09.25-.15-.11-.13.07-.06.14-.1-.06c-.57.3-1.16.58-1.77.8a5.38 5.38 0 002.08-.58l.38-.2c1.1-.6 1.9-1.04 2.55-1.82a6.2 6.2 0 00.97-6.01c.01-.02-.5-1.84-1.34-3.1zM8.8 22.1a2.5 2.5 0 01.2.75 2.1 2.1 0 00-.4-.63l-.1-.15c.03.04.04.1.06.14l.07.35c.04.22.02.46-.06.67.03-.21 0-.43-.1-.63a2.52 2.52 0 00-.3-.59h-.01c.04.1.08.2.1.3a2.08 2.08 0 010 .92c-.03.15-.07.29-.13.43a2.38 2.38 0 00.03-.87 1.92 1.92 0 00-.19-.55 2.2 2.2 0 01-.02.85l-.15.39a1.79 1.79 0 00-.05-1.18 3.05 3.05 0 00-.2-.42l-.13-.05c.29.82.06 1.43-.2 2.07a4.63 4.63 0 00-.24 3.05c-.05-.78.16-1.57.52-1.73a.65.65 0 00.46-.52c.05-.23.18-.33.52-.36.19-.03.2-.22.18-.49v-.11a.32.32 0 01.12-.3.27.27 0 01.26 0h.03c.06.04.14.07.19.05.05-.05.09-.1.1-.18.04-.3.03-.6-.03-.89-.18-.1-.36-.2-.53-.33zM2.17 14.87a.22.22 0 00-.05.08.44.44 0 00-.01.22c.02.12.06.24.12.35l.07-.65a.34.34 0 00-.13 0z"/><path fill="#fff" d="M10.96 29.38c.23-.14.47-.26.73-.36l.74-.28c.98-.36 1.92-.82 2.8-1.38a6.83 6.83 0 002.16-2.2 5.05 5.05 0 00.7-2.94 7.3 7.3 0 00-.8-2.97 8.75 8.75 0 00-4.52-4.08 6.03 6.03 0 00-2.78-.43 4.4 4.4 0 01.62.8 4.69 4.69 0 00-.55-.5c-.19-.15-.4-.28-.63-.37a.55.55 0 00-.3 0l-.21.04-.85.1c-.56.07-1.13.13-1.7.18-.56.06-1.14.08-1.71.05a8.45 8.45 0 01-1.42-.26c.08.15.14.32.17.49a2.5 2.5 0 001.01 1.55c.24.21.5.4.78.57-.3-.12-.6-.28-.88-.46-.29-.17-.54-.4-.74-.67-.17-.29-.3-.6-.4-.92a2.2 2.2 0 00-.42-.77h-.02a.43.43 0 00-.18-.05.22.22 0 00-.18.1.7.7 0 01.18.08c.1.07.18.16.24.26.11.17.2.36.28.56l.23.56.13.27a3.65 3.65 0 001.09 1c.34.2.7.38 1.08.53a3.96 3.96 0 01-2.31-1.44 2.8 2.8 0 01-.16-.28l-.26-.54c-.15-.3-.32-.67-.58-.73l-.07.65.06.11c.17.32.36.64.5.98.08.17.14.34.2.52.06.16.14.31.24.46a16.95 16.95 0 002.08 2.5c.5.5 1.07.95 1.68 1.34.3.2.64.33.98.41.18.04.35.04.53.02l.13-.01.14-.03c.08 0 .17-.03.26-.05l.12-.04.11-.07c.08-.03.15-.08.22-.13a1 1 0 00.31-.32c.1-.16.15-.33.17-.51l.03-.27.01-.27c.03-.38.19-.73.45-1 .13-.13.3-.22.41-.36a1.92 1.92 0 00.48-1.5c-.04-.36-.02-.68-.19-1 .18.32.3.67.35 1.03a1.95 1.95 0 01-.33 1.36h.51a2.44 2.44 0 00.15-.82c0-.31-.03-.62-.13-.92a2.83 2.83 0 01.3 1.22 2.44 2.44 0 011.07.36c.4.24.78.52 1.12.85.52.6.92 1.29 1.15 2.04.24.76.23 1.58-.04 2.32a5.2 5.2 0 01-1.53 1.9c.56-.52 1-1.18 1.24-1.92.23-.73.23-1.52-.03-2.25a5.48 5.48 0 00-1.18-1.93 3.74 3.74 0 00-1.41-.9 2.38 2.38 0 00-.4-.1c0 .07-.02.13-.03.2a2.22 2.22 0 011.18.72c.16.2.29.42.37.66l.04.11-.11-.03a1.79 1.79 0 01-.45-.23c.02.1.06.19.11.27a2.85 2.85 0 00.6.6c.05.04.1.09.17.13l.15.17c.17.24.28.53.3.83.03.29 0 .59-.08.87l-.05.18-.1-.17c-.09-.18-.2-.34-.34-.5a.8.8 0 01-.07.46.27.27 0 01-.23.17.27.27 0 01-.25-.17c-.04-.07-.05-.09-.12-.07-.2.04-.11.57-.08.8.03.23-.07.33-.13.36a.32.32 0 01-.35-.09.2.2 0 00-.2-.04c-.06.02-.1.1-.09.2a1.12 1.12 0 01-.36.87c-.05.34-.19.65-.39.92.27-.23.54-.46.84-.68a6.37 6.37 0 01-1.54 1.42l-.58.49a5.36 5.36 0 00-1.48 2.15c.46.3.94.59 1.43.84l.14-.14c.2-.19.43-.35.67-.48zM6.54 15.54c.15-.1.3-.18.48-.24s.38-.07.57-.04a4.07 4.07 0 011.78 1.02l-.7-.3a1.28 1.28 0 01-.54.37c-.05 0-.1.02-.16.04a.83.83 0 01-.19.02c-.11 0-.22-.02-.33-.05a4.6 4.6 0 01-1.04-.44l-.6.36c.2-.3.44-.54.73-.74zm-3.38 1.37a3.62 3.62 0 01-.43-.84l-.15-.44a.74.74 0 00-.1-.2.42.42 0 00-.17-.12c.08 0 .16.03.22.08.06.06.12.12.16.2l.22.4.2.41a3.82 3.82 0 00.86 1.01c.24.2.5.38.75.54a3.1 3.1 0 01-1.57-1.04zm6.71 3.1a2.6 2.6 0 00-.02.49c0 .18-.04.36-.12.52a1 1 0 01-.38.41 1.85 1.85 0 01-1.05.24c-.36-.03-.7-.14-1.02-.3a7.52 7.52 0 01-1.64-1.24c-.5-.47-.95-.97-1.36-1.51.51.45 1 .9 1.52 1.33.26.21.51.43.79.62.26.2.54.36.83.51.28.16.59.26.9.3.16.02.32.01.47-.02.15-.02.3-.07.44-.14a.81.81 0 00.33-.3c.07-.13.12-.28.14-.44.01-.17.04-.35.1-.52a.92.92 0 01.26-.43c-.1.14-.17.3-.19.47z"/><path fill="#fff" d="M7.74 16.13c.04 0 .08-.02.11-.03a1.16 1.16 0 00.34-.23l.06-.07c-.23-.1-.47-.17-.72-.21-.3-.03-.6.04-.86.19a4.3 4.3 0 00-.24.12c.34.12.68.2 1.04.25.09 0 .18 0 .27-.02zM18.91 11.16l-.15.08-.16.09a2.4 2.4 0 00-.84.94c.12-.04.23-.1.34-.16v-.03.02c.15-.09.28-.2.37-.36a.8.8 0 01-.14.24c-.05.07-.12.14-.2.2l-.02.01c0 .11-.03.22-.09.31-.06.13-.15.25-.24.36l-.32.3-.16.13-.13.16c-.15.23-.24.49-.25.76-.02.21 0 .43.04.64.08-.15.19-.28.3-.4.17-.18.37-.32.6-.4.2-.1.38-.23.54-.39a.88.88 0 00.2-.27.37.37 0 00-.02-.32.37.37 0 01.05.34.95.95 0 01-.17.3c-.16.19-.35.33-.56.44-.13.06-.25.14-.36.23a.78.78 0 000 .6c.01.03.05.1.1.1.04 0 .07-.02.1-.1a.23.23 0 01.3-.15c.34.08.25.64.2.98-.02.06-.02.17.04.2a.16.16 0 00.17-.05.35.35 0 01.38-.09.32.32 0 01.18.34c-.01.28.09.79.92 1.14.38.17.69.47.86.84a3.7 3.7 0 00-.63-1.53 3.27 3.27 0 01-.46-2.63c.26-1.02 1.06-1.14 1.2-1.15v-.2-.16a1.74 1.74 0 00-.8.21c-.25.14-.47.34-.63.57a2.03 2.03 0 01.97-.89c.14-.06.28-.1.43-.12a2.03 2.03 0 00-.05-.25 2.35 2.35 0 00-1.01.28c-.31.17-.6.4-.83.65a3.32 3.32 0 011.25-1c.16-.07.33-.12.5-.15l-.08-.16a5.13 5.13 0 00-1.68.44 4.93 4.93 0 011.52-.64l-.02-.02a1.55 1.55 0 00-.13-.12l-.98.29.8-.45-.1-.08a2.1 2.1 0 01-.13-.17l-.34.04c-.12.02-.24.04-.35.08l-.17.06-.16.07z"/><path fill="#fff" d="M19.87 17.49a2.36 2.36 0 01-.4-.21c.12.47.39.9.75 1.23.2.17.43.33.64.5l-.07-.4a1.66 1.66 0 00-.92-1.12zM20.81 13.32c.05.12.1.23.18.33a1.21 1.21 0 00.6.47 1.3 1.3 0 01-.71-.37 1.67 1.67 0 01-.4-.58 1.35 1.35 0 00-.61.9c-.1.38-.13.78-.07 1.17.15-.1.31-.17.48-.21.7-.19 1.38-.49 1.98-.9a1.45 1.45 0 01-.2-.05l-.13-.04-.13-.05a1.54 1.54 0 01-.66-.52 1.37 1.37 0 01-.19-.45.9.9 0 00-.2.04l.06.26zM12.82 13.44c.02-.14.05-.29.09-.43a2.96 2.96 0 00-.44.1l-.23.1.16-.2.2-.17c.14-.11.28-.21.44-.3l.11-.33-.17.01c-.16.01-.31.04-.46.09a5 5 0 01.81-.55v.02l.15-.33h-.2c-.08 0-.16.02-.24.04a.81.81 0 00-.24.1c.05-.08.1-.14.18-.2a1.8 1.8 0 01.72-.37l.18-.3c-.24-.03-.49-.03-.73 0 .3-.2.64-.33 1-.41.09-.13.17-.25.27-.36a2.59 2.59 0 00-.87-.05 2.8 2.8 0 011.18-.32c.1-.12.21-.23.33-.34a4.26 4.26 0 00-1.09-.1 4.9 4.9 0 011.46-.27l.07-.07.28-.24c-.32-.1-.65-.18-1-.2.23-.06.46-.1.69-.12.23 0 .46 0 .68.03.23-.17.47-.32.7-.47l-.4-.06a4.93 4.93 0 00-.77-.1c.26-.07.52-.1.78-.13.28-.01.56 0 .83.04.19-.1.38-.2.57-.28l-.3-.12c-.2-.1-.4-.18-.63-.25a3.45 3.45 0 011.34.2l.51-.17a1.6 1.6 0 00-.27-.2c-.2-.11-.41-.2-.63-.26.24-.02.48 0 .71.04.25.05.48.15.68.3a6 6 0 01.55-.1.7.7 0 01-.09-.08c-.1-.11-.23-.2-.37-.28.17 0 .33.03.49.08.13.06.24.14.34.24l.45-.02c-.5-.51-.93-.48-2.1-.38-1.29.12-3.98 1.86-4.8 3.12-.83 1.25-1.36 3.08-1.37 3.1-.15.36-.25.73-.32 1.12.14 0 .28.02.44.04.1-.08.2-.15.33-.2zM21.32 31.16l-.04-.1h-.03l.07.1zM20.9 30.13a.7.7 0 01.13-.36c.06-.1.15-.19.24-.26.18-.13.39-.24.6-.3.19-.07.37-.15.54-.25.34-.2.6-.5.78-.85.18-.36.29-.74.33-1.14.05-.4.05-.8.02-1.2-.06-.4-.16-.8-.31-1.18a7.03 7.03 0 00-.54-1.1l-.02-.02h-.04a3.55 3.55 0 01.45 1.4c.05.25.08.51.1.77.01.25-.05.51-.05.77a6.78 6.78 0 00-.7-2.93h-.02a8.1 8.1 0 01.13 2.44c-.03.28-.07.55-.12.83.04-.28.07-.55.08-.83v-.83c0-.28-.04-.55-.08-.83a7.66 7.66 0 00-.16-.8h-.03a15.05 15.05 0 01-.23 2.65c.04-.46.07-.91.08-1.36v-1.23l-.72 1.19.6-1.25a5.15 5.15 0 00-.75.58 3.99 3.99 0 00-.62.8c.06-.15.15-.3.24-.45a3.68 3.68 0 01.7-.77c.1-.1.2-.18.31-.26l-.05-.02a2.85 2.85 0 00-.8.48c-.25.2-.48.44-.68.7a4.4 4.4 0 011.33-1.27l-.06-.04a5.9 5.9 0 00-1.01.6 8.25 8.25 0 00-.91.79 11.14 11.14 0 01.86-.86 5.67 5.67 0 01.93-.64l-.02-.02a5.06 5.06 0 00-1.9.96l-.23.2a5.9 5.9 0 01-1.98 3.03 3.39 3.39 0 00.76 1.46l.12.1c.02.03.1.06.14.1.1.08.19.2.23.32.04.13.04.27-.01.4a.79.79 0 01-.24.3c-.1.09-.18.14-.26.2a.74.74 0 00-.1.12c.1-.07.21-.13.32-.18.25-.1.48-.2.53-.44a.62.62 0 00-.01-.34c-.04-.12-.1-.23-.18-.33a1 1 0 01-.19-.38.47.47 0 01.02-.24.78.78 0 01.1-.2.46.46 0 01.19-.13l.18-.08a.5.5 0 00.15-.1.47.47 0 00.11-.13.4.4 0 000-.33 1.65 1.65 0 01-.05-.2.3.3 0 01.05-.24.36.36 0 01.43-.11.29.29 0 01.14.2V27.24a.28.28 0 00.47.22.4.4 0 00.09-.33c-.02-.17 0-.34.05-.5a.55.55 0 01.4-.25c.08 0 .15.01.21.06.07.04.12.11.14.2v.1a.92.92 0 01-.04.1 1.09 1.09 0 00-.09.36.12.12 0 00.12.08c.12-.03.23-.1.3-.2a1.73 1.73 0 00.24-.33.41.41 0 01.38-.14.39.39 0 01.24.47.47.47 0 01-.25.32 1.1 1.1 0 00-.34.1c-.06.05-.1.06-.12.12a.15.15 0 00.04.15.2.2 0 00.17.06l.2.02a.36.36 0 01.2.63.39.39 0 00.01-.38.4.4 0 00-.27-.17.67.67 0 01.09.6c-.07.2-.2.38-.38.51-.1.08-.2.15-.32.21l-.27.14c-.18.08-.34.2-.47.34a.56.56 0 00-.13.27c-.01.09 0 .18.02.27.09.18.22.33.4.43l.12.08.15.09c.06.05.12.1.17.17h.02c-.03-.1-.08-.19-.13-.28-.15-.18-.25-.4-.26-.64z"/><path fill="#fff" d="M21.19 22.93c-.6.1-1.18.3-1.72.58a8.5 8.5 0 01-.14.58l.13-.12a5.3 5.3 0 011.84-1.04l-.02-.02-.09.02zM23.88 16.09c-.25-.64-.49-1.25-.2-2.07l-.13.05c-.08.13-.14.27-.2.41a2.03 2.03 0 00-.12.79c.01.13.03.26.07.4a1.85 1.85 0 01-.2-.81c0-.15 0-.29.03-.43a2.59 2.59 0 00-.18.55 2.11 2.11 0 00.02.87 2.55 2.55 0 01-.18-.89 2.08 2.08 0 01.15-.76 3.72 3.72 0 00-.32.58c-.08.2-.12.43-.09.64-.08-.21-.1-.45-.06-.67a2.8 2.8 0 01.13-.5l-.1.16a2.44 2.44 0 00-.4.63 2.2 2.2 0 01.2-.76c-.17.11-.34.21-.52.3-.06.3-.07.6-.03.9.01.07.05.13.1.17.05.02.13-.01.19-.04l.03-.01a.27.27 0 01.25 0 .32.32 0 01.13.3v.12c-.01.27 0 .46.18.48.33.04.46.13.52.37a.65.65 0 00.46.51c.36.16.57.95.52 1.74a4.63 4.63 0 00-.25-3.03zM22.44 21.56a5.12 5.12 0 00-1.55-2.35c-.19-.16-.4-.31-.59-.48a6.46 6.46 0 01-1.53-1.43c.3.22.57.45.84.7a2.1 2.1 0 01-.4-.93 1.12 1.12 0 01-.35-.87c0-.1-.03-.17-.1-.2a.2.2 0 00-.2.04.32.32 0 01-.34.09c-.06-.03-.17-.12-.13-.36.04-.24.12-.76-.08-.8-.07-.02-.08 0-.12.07a.27.27 0 01-.25.18.27.27 0 01-.23-.18.8.8 0 01-.08-.45c-.13.15-.24.31-.34.5l-.09.16-.05-.18c-.08-.28-.1-.58-.08-.87.02-.3.13-.59.3-.83l.15-.17.17-.13a2.84 2.84 0 00.6-.6.8.8 0 00.1-.27 1.47 1.47 0 01-.44.23l-.11.04.04-.12a2.1 2.1 0 01.94-1.14c.19-.11.4-.2.6-.25l-.02-.18a3.34 3.34 0 00-1.81 1 5.47 5.47 0 00-1.18 1.92c-.17.5-.23 1.02-.18 1.54a9.2 9.2 0 012.15 2.18c.34.56 1.3 2.77 1.5 3.87a4.65 4.65 0 011.2.77l.29.31c.09.12.16.25.21.38l.06.15a2.1 2.1 0 001.06.47c.07.01.15.01.22.03h.04a5.43 5.43 0 00-.22-1.84z"/><path fill="#fff" d="M27.52 8.46c-.2.27-.46.5-.75.67-.27.18-.56.33-.87.46.28-.17.54-.36.78-.57a2.5 2.5 0 001-1.55c.04-.17.1-.34.18-.5-.46.13-.94.22-1.42.27-.57.02-1.15 0-1.72-.05-.57-.05-1.13-.1-1.7-.18l-.84-.1a4.25 4.25 0 01-.22-.04.55.55 0 00-.17-.02.8.8 0 00-.13.02c-.22.1-.44.22-.62.37-.2.15-.38.32-.55.5a4.76 4.76 0 01.61-.8c-.95-.07-1.9.07-2.78.44a8.75 8.75 0 00-4.52 4.07c-.37.72-.62 1.5-.73 2.3.56.14 1.1.36 1.61.65.32.18.62.38.91.58-.03-.45.02-.9.16-1.33.24-.76.63-1.45 1.16-2.05a5.41 5.41 0 011.66-1.1c.17-.05.34-.09.51-.1l.03-.33c.04-.31.14-.61.28-.9a2.76 2.76 0 00.03 1.74l.16-.02.34.01a1.95 1.95 0 01-.33-1.36c.05-.36.17-.71.35-1.03-.17.32-.15.64-.19 1a1.92 1.92 0 00.48 1.5c.12.14.28.23.41.36.26.27.42.62.45 1l.01.27a1.9 1.9 0 00.2.78 1 1 0 00.31.32c.07.05.14.1.22.13l.1.07.14.03c.08.03.17.05.26.06l.13.02.13.02c.18.02.35.01.52-.02.35-.08.68-.22.98-.41a9.82 9.82 0 001.69-1.35 16.94 16.94 0 002.07-2.5c.1-.14.18-.3.24-.46.06-.17.12-.34.2-.51.15-.35.33-.66.5-.98l.03-.05-.16-.2a.45.45 0 00-.06.05.74.74 0 00-.1.2l-.15.43c-.1.3-.25.58-.42.85a3.1 3.1 0 01-1.55 1.04c.25-.17.5-.35.74-.55.23-.18.44-.4.62-.63.09-.12.17-.25.23-.38.08-.13.14-.27.21-.4l.22-.42c.04-.07.1-.13.16-.19a.38.38 0 01.07-.04c-.05-.07-.1-.14-.17-.21-.1.15-.18.3-.26.46l-.26.55-.16.28-.2.24a3.96 3.96 0 01-2.11 1.2c.37-.15.74-.33 1.08-.54a3.65 3.65 0 001.09-1 47.97 47.97 0 01.35-.83c.08-.19.18-.38.29-.56l-.13-.16c-.12.17-.2.36-.27.55-.08.33-.2.64-.36.93zm-4.98-.6c.3-.2.63-.33.98-.4.19-.03.38-.01.57.05.17.06.33.14.48.24.28.2.53.44.72.73l-.6-.36a4.6 4.6 0 01-1.03.45c-.11.03-.23.04-.35.05l-.19-.03a1.58 1.58 0 01-.62-.32.87.87 0 01-.08-.1l-.69.31c.24-.24.52-.45.81-.62zm4.29 2.96c-.42.54-.87 1.05-1.36 1.52-.5.48-1.05.9-1.65 1.23a2.8 2.8 0 01-1.02.32 1.85 1.85 0 01-1.05-.25 1 1 0 01-.38-.41 1.23 1.23 0 01-.11-.53c0-.17 0-.33-.03-.5a.97.97 0 00-.19-.45c.13.12.22.27.27.43.05.17.08.34.1.52.01.16.06.3.14.44.08.13.19.23.32.3.14.07.3.12.45.14.15.03.3.04.46.02.31-.04.62-.14.9-.3.3-.15.57-.32.84-.51.27-.2.53-.4.79-.62.52-.44 1-.9 1.52-1.35z"/><path fill="#fff" d="M23.12 8.24l.12.06.11.04c.1.01.19.02.28.01.35-.04.7-.12 1.03-.24a4.38 4.38 0 00-.23-.12 1.47 1.47 0 00-.86-.2c-.25.04-.5.12-.72.21l.06.08c.06.06.13.11.21.16z"/><path fill="#fff" d="M17 33.78h-.22A16.9 16.9 0 0117 0h.22A16.89 16.89 0 0117 33.78zm0-32.77a15.89 15.89 0 10.22 0H17z"/></svg>