<svg xmlns="http://www.w3.org/2000/svg" fill="none" viewBox="0 0 34 34"><path fill="#fff" d="M17 34h-.23a17 17 0 11.23 0zM17 .65a16.37 16.37 0 10.21 0H17z"/><path fill="#fff" d="M24.69 14.7c.4.4.92.68 1.48.79a1.02 1.02 0 00.86-.19c.18-.18.29-.42.3-.67l-.02-.04c-.45-.65-.87-1.32-1.25-2a2.53 2.53 0 01-1.07 1.92l-.3.2zM15.11 29.24l-.18-.52c-.3.36-.57.74-.84 1.11l-.72.88c.32.11 1.22.5 1.7 1.32.27-.19.62-.44.92-.63-.31-.72-.61-1.43-.88-2.16zM16.06 30.67h-.12l.1.22c.72 0 1.43-.2 2.03-.6a8.36 8.36 0 01-.03-.2 3.3 3.3 0 01-1.98.58zM13.2 30.9l-.06.08c.28.1 1 .43 1.4 1l.23.04a3.2 3.2 0 00-1.57-1.12zM17.98 29.68c-.57.35-1.23.53-1.9.52-.14 0-.25 0-.34-.02l.1.24c.37.02 1.47.01 2.15-.61l-.01-.13zM22.28 26.99l-.44-.52c.1.15.19.3.29.43.27.45.58.88.9 1.29.53.68 1.14 1.3 1.82 1.83.3-.17.58-.36.87-.56A7.52 7.52 0 0122.28 27zM20.57 25.83c-.08-.86-.3-1.7-.64-2.5l-.01-.04c-.23-.54-.5-1.06-.8-1.55a5.64 5.64 0 01-3.53 2.04c.11.18.24.35.38.5.18.2.4.38.62.57l.62.58c.18.23.35.46.5.7-.04-.03.06.05 0 .02.24.43.24.8.32 1.3.03.28.02.55.03.8a12.1 12.1 0 00.19 1.65 7.46 7.46 0 001.66-1.75l.4-.52c.15-.18.3-.32.33-.5.01-.21 0-.43-.02-.63l-.05-.67z"/><path fill="#fff" d="M22.89 28.3c-.33-.41-.64-.85-.92-1.3-.19-.34-.37-.68-.53-1.04l-.07-.1a14 14 0 01-.73-1.14c.09.36.15.72.18 1.1l.06.65c.03.24.03.47 0 .7a.8.8 0 01-.14.35l-.22.26-.09.12c.08 1 .88 2.16 2.18 3.23a15.1 15.1 0 002.08-1 11.26 11.26 0 01-1.8-1.83zM15.34 23.31l.11.24c1.4-.2 2.66-.92 3.53-2.03l-.13-.18c-1.5 1.69-3 1.94-3.51 1.97zM19.25 21.01a7.82 7.82 0 01-.04-.73l-.3.72c.15.2.3.4.43.62-.04-.2-.07-.4-.09-.61zM15.1 28.47l.03-.03-.03.04.24.68.3.77c.26.03 1.41.12 2.3-.52l-.04-.35c-.04-.26-.06-.52-.07-.8-.02-.27-.01-.52-.04-.79 0-.5-.08-1-.24-1.47l-.5-.4c-.2-.2-.41-.39-.62-.57l-.32-.28a3.8 3.8 0 01-1.13-1.64c-.13.3-.38.87-.65 1.55.07.73.19 1.46.35 2.17.1.56.24 1.1.42 1.64zM18.82 20.61c-.19-.22-.4-.42-.63-.61.17.27.35.54.55.8l.08-.19zM17.8 19.29l.16.3c.35.24.66.53.95.84l.06-.12c-.31-.42-.7-.77-1.17-1.02z"/><path fill="#fff" d="M15.23 23.07c.35 0 1.93-.17 3.47-1.92l-.07-.1c-.25-.31-.47-.63-.67-.97-.66 1.43-2.56 1.77-3.12 1.84l.05.15c.1.34.21.68.34 1z"/><path fill="#fff" d="M17.8 19.83h.02l-.11-.2c-.67 1.38-2.47 1.72-3.08 1.8l.12.24c.45-.04 2.5-.37 3.05-1.84zM19.05 20.13l.19-.39a3.35 3.35 0 00-1.86-1.3l.1.2.18.38c.55.24 1.03.62 1.4 1.1z"/><path fill="#fff" d="M20.5 17.64c.14-.16.3-.3.46-.42.18-.11.4-.17.6-.17-.2 0-.4.08-.58.2-.16.13-.31.27-.44.44-.25.33-.47.7-.65 1.07-.21.43-.41.88-.6 1.32a3.98 3.98 0 01.2 1.8 11.63 11.63 0 01.9 2.01 13.94 13.94 0 001.95 2.9l.04.06c.65.7 1.3 1.28 2.18 1.64.03-.35.17-.67.27-1.02.1-.37.24-.73.4-1.07.35-.68.86-1.27 1.32-1.85l.2-.26-.01-.03.05-.02a5.4 5.4 0 00.85-1.62c.23-.7.4-1.43.48-2.17l.01-.08.07-.02c.31-.11.6-.28.84-.5l.01-.26-.43.03.14-.47-.5-.15.28-.49-.47-.26.4-.44-.42-.42.5-.25-.18-.38.44-.08-.01-.32c-.37-.36-.71-.74-1.03-1.15a1.41 1.41 0 01-1.25.95h-.14c-.73 0-1.48-.47-2.18-1.1h-.23c-.92 0-1.4-.5-1.98-1.13-.2-.2-.4-.43-.65-.65-.77-.7-1.45-.6-1.73-.5-.39.27-.73.63-1 1.03a7.67 7.67 0 00-1.05 2.39 3.44 3.44 0 012.94 1.44zm3.58 9.59l-.07.22c-.05.15-.07.31-.13.5a.54.54 0 01-.12-.27.73.73 0 01.01-.3.6.6 0 01.16-.26.44.44 0 01.27-.14l-.12.25zm-1.83-9.63l.12.27c.05-.21.12-.42.21-.62a4.6 4.6 0 00-.1 1.56c0 .5.15 1 .41 1.44.26.44.66.78 1.13.96.48.17 1 .2 1.5.1.39-.08.76-.24 1.1-.47l-.14-.32-.47.09.05-.48-.63-.08.25-.42-.48-.38.37-.44-.38-.52.49-.31-.3-.53.68-.19-.01-.62.6.32.07-.28-.15-.25c.37.39.68.83.93 1.3a3.2 3.2 0 01.04 2.42c-.12.26-.3.49-.5.67a3.12 3.12 0 01-3.1.62 2.5 2.5 0 01-1.25-1.06 3.26 3.26 0 01-.46-1.56c0-.23.03-.46.08-.68l-.06-.23a4.55 4.55 0 00-.2-.54c.08.06.14.14.2.23z"/><path fill="#fff" d="M27.16 18.18c-.12 0-.25.25-.25.61 0 .37.13.62.25.62.13 0 .26-.25.26-.62 0-.36-.13-.61-.26-.61z"/><path fill="#fff" d="M26.35 18.8c0 .62.27 1.13.6 1.13.27 0 .52-.39.57-.89v-.02c-.05.3-.19.5-.36.5-.21 0-.38-.31-.38-.73 0-.41.17-.73.38-.73a.31.31 0 01.25.18l-.08-.28a.49.49 0 00-.39-.28c-.32 0-.59.52-.59 1.13zM21.63 11.48a4.94 4.94 0 001.17-2.55c.04-.27.03-.55-.04-.81l-.25-.44a.72.72 0 01-.18.4.53.53 0 01-.46.16.48.48 0 01-.36-.26.33.33 0 01.06-.39l.03.01a.3.3 0 00.01.3.35.35 0 00.42.12.34.34 0 00.13-.1.5.5 0 00.1-.28c0-.14-.01-.27-.06-.4l-.24-.28c-.29-.4-.6-.76-.95-1.1l-.2.1c.05 0 .1.02.16.04v.03a1.81 1.81 0 00-.84.3c-.25.15-.45.39-.56.67h-.03a.75.75 0 01.1-.5l.12-.15-.09.03c-.14.06-.29.1-.44.12l.06.06-.08.07c-.2.18-.44.31-.69.41l-.37.14h.12a1.1 1.1 0 01.52.18l.14.11c.17.16.3.35.4.56a3.65 3.65 0 01.36 1.57v.09l-.02.07v.03c.04.04.1.06.17.05a1 1 0 00.26-.03c.13-.12.27-.23.43-.32l.01.02c-.14.13-.27.26-.39.4a.9.9 0 01-.3.07.42.42 0 01-.3-.07.15.15 0 01-.06-.16c.01-.05.02-.1.01-.15l-.03-.3c-.06-.4-.18-.8-.35-1.17-.16-.37-.44-.72-.86-.77a.98.98 0 00-.6.07 1.1 1.1 0 00-.45.39l-.02-.02c.06-.13.15-.25.26-.35l-.53.22c.04.15.09.29.16.42.12.2.29.37.49.5.1.1.19.21.24.35.04.12.08.25.1.37a2.63 2.63 0 001.2 1.65c.2.11.43.22.65.32l.66.3c.22.08.45.14.68.18.17.04.37-.12.53-.28zM18.2 8.36c-.14.05-.29.1-.43.13v-.03a.64.64 0 01.35-.33.64.64 0 01.22-.03c.1 0 .19.02.27.06v.02l-.41.18zm1.93-.86l-.02-.01a.66.66 0 01.14-.35.95.95 0 01.26-.23.9.9 0 01.67-.13l.01.02a5.56 5.56 0 00-1.06.7zm.45 3.25a.91.91 0 01-.44.04v-.02c.06-.06.12-.11.2-.16a.7.7 0 01.15-.09 1.1 1.1 0 01.43-.04l.02.02c-.1.1-.23.19-.36.24v.01zm-.18-.43c-.25.13-.51.22-.79.26v-.02a3.45 3.45 0 011.46-.74l.01.02c-.2.18-.43.34-.67.48zM23.3 12.67a3.4 3.4 0 00-1.68-.86l-.05.03-.18.18c.6.16 1.16.46 1.63.87.25.25.5.5.72.78.27.34.56.66.87.96l.23-.3c.18-.25.31-.54.37-.85v-.05a.8.8 0 01-.37.1c-.38 0-.77-.24-1.13-.51l-.17.08.11-.12c-.1-.1-.23-.2-.35-.3z"/><path fill="#fff" d="M26.88 20.65a1.85 1.85 0 00.55-.92.6.6 0 01-.49.32c-.4 0-.71-.54-.71-1.24s.31-1.25.71-1.25c.1 0 .2.03.27.09a4.53 4.53 0 00-.17-.4l-.24-.34-.05.23-.57-.29.01.5-.62.18.28.49-.48.3.36.5-.35.42.47.37-.21.35.56.07-.04.44.4-.07.16.38.16-.13zM22.62 10.4c-.15.32-.32.63-.53.91l.63-.32c.2-.12.37-.3.45-.52.1-.24.13-.49.11-.74-.03-.36-.11-.7-.24-1.04l.01.26c-.06.5-.21.99-.43 1.44zM19.33 19.56l.1-.2c-.6-.95-1.8-1.3-2.28-1.4l.13.27a3.5 3.5 0 012.05 1.33zM29.64 19.04c.06-.11.1-.23.13-.35a1.75 1.75 0 01-.11-1.45l-.04-.06a1.02 1.02 0 00-.15-.21 2.23 2.23 0 00.18 2.07z"/><path fill="#fff" d="M28.56 16.84l.16.35-.45.23.38.38-.37.41.44.25-.26.46.47.15-.13.41.39-.03v.27c.16-.16.3-.35.4-.55a2.35 2.35 0 01-.2-2.3l-.15-.13-.25-.21-.05-.05.01.3-.4.06zM29.75 17.44l-.02-.03c-.1.36-.06.74.09 1.09.07-.35.04-.72-.07-1.06zM28.94 23.59c-.17-.47-.31-2.45-.35-3.14l-.21.09c-.1.73-.26 1.45-.5 2.16a6.46 6.46 0 01-.84 1.63c.13.41.5 1.58.71 2.18.14.27.32.5.54.72a15.3 15.3 0 001.72-2.3l-.2-.2c-.41-.48-.75-.84-.87-1.14zM25.4 28.94c-.46-.1-.9-.25-1.3-.48.55.39 1.16.68 1.8.88l.4-.3c-.3 0-.6-.04-.9-.1zM18.43 32.13c-.12-.53-.23-1.04-.32-1.56a3.9 3.9 0 01-1.97.58l.12.27.32.76.44.01c.48 0 .95-.03 1.41-.06zM20.24 17.98l.14-.2a3.24 3.24 0 00-2.87-1.4l-.07.2c.43-.03 1.72.01 2.8 1.4zM12.66 31.55c.5.15 1 .27 1.5.36a3.46 3.46 0 00-1.19-.74l-.3.38z"/><path fill="#fff" d="M19.52 19.18l.26-.48c.1-.2.22-.38.35-.56-1.14-1.52-2.53-1.4-2.77-1.37-.12.26-.26.5-.41.75l.1.23c.34.06 1.75.37 2.47 1.43zM12.8 29.47c-.34.15-.66.4-1.4.95l-.56.42-.03.02c.2.1.41.18.62.26a7.4 7.4 0 011.45-1.06l-.07-.59zM13 30.76l-.02-.1c-.3.21-.6.45-.89.7l.32.11.39-.47.2-.24zM12.91 30.25c-.46.26-.9.58-1.3.95l.22.08c.35-.33.71-.62 1.1-.9l-.02-.13zM11.3 30.27c.78-.59 1.1-.83 1.5-.99 0-.07 0-.13-.02-.2-.46.25-.89.53-1.29.86-.31.23-.67.5-1.05.75l.17.09.11-.08.58-.43zM12.78 28.82c0-.14 0-.3.03-.44.28-1.55 1.93-5.31 2.05-5.6l-.2-.64a2.6 2.6 0 00-.33-.74l-.18-.3c-.22.14-.4.3-.55.52-.14.23-.27.5-.44.73a2.56 2.56 0 01-1.44.98c-.29.07-.58.1-.88.1a5.17 5.17 0 01-1.73-.25 2.72 2.72 0 01-.8-.39l.03.01a.92.92 0 01-.39-.36c-.1-.14-.15-.3-.18-.48a2.24 2.24 0 010-.5l.03-.24.05-.24c-.02.16-.03.32-.03.49 0 .16.02.31.06.47.03.15.1.3.18.42.08.13.19.22.32.28l.02.02a4.1 4.1 0 001.58.47c.55.09 1.11.08 1.66-.02a2.45 2.45 0 001.37-.85c.18-.22.31-.47.5-.7.16-.2.37-.36.61-.46-.09-.13-.2-.25-.32-.35.25.1.47.25.65.45.37-.03 2.49-.3 3.09-1.82h.02a27.8 27.8 0 01-.32-.65l-.55-1.19c-.17-.4-.39-.77-.65-1.12a2.26 2.26 0 00-1-.74c-.2-.06-.41-.11-.62-.14l-.08-.01c-.38.05-1.76 1.6-2.4 2.8-.56 1.05-1.86 2.32-3.21 2.32-.19 0-.38-.02-.56-.07-1.63-.45-1.9-2.45-1.97-3.93-.05-1.2-.23-1.58-.3-1.68-.19.08-.37.18-.55.3a4.57 4.57 0 00-1.47 1.8c-.35.73-.6 1.49-.78 2.27v.02l-.01.02-.43.66h.01c0 .01-.12 1.33 2.38 2.6l.04-.07c.08-.14.18-.26.29-.36l-.07-.07c-.23-.3-.39-.66-.44-1.05a4.36 4.36 0 01-.06-.56c0-.18 0-.36-.03-.54a3.65 3.65 0 00-.28-1.05c.23.3.4.65.47 1.02.04.18.06.36.07.55l.07.53c.05.35.16.68.35.98.1.14.21.27.35.37.15.1.31.2.48.25a1.58 1.58 0 01-.54-.14 1.1 1.1 0 01-.32-.24v.14c-.02.46-.01.91.04 1.36.08.55.2 1.1.37 1.62.13.55.18 1.12.15 1.7l-.02.34c.47.5.99.97 1.53 1.4v-.14c0-.06.01-.1.03-.16a.78.78 0 01-.26-.04.64.64 0 01-.35-.29c.12.07.26.1.4.12.08 0 .16 0 .25-.02-.03-.1-.05-.2-.05-.3a.7.7 0 01.1-.44c.02.14.05.27.1.4l.1.37c.05.05.1.09.16.12.07.04.15.08.23.1l.24.1.27.07a1.26 1.26 0 01-.57.03.99.99 0 01-.4-.17c-.06.1-.1.22-.15.34.81.63 1.68 1.18 2.6 1.64.42-.28.8-.57 1.14-.83.59-.41 1.05-.75 1.44-.9zm-4.39-1.68a1.8 1.8 0 01-.37-.05 1.25 1.25 0 01-.33-.12h-.25c-.1-.02-.2-.04-.3-.08a.73.73 0 01-.4-.4c.13.12.3.2.47.23l.24.03h.16l.06-.35c.03-.15.08-.3.14-.43a3.07 3.07 0 00.02.8 1.9 1.9 0 00.58.17c.12.03.23.04.36.05l.35.04c-.24.09-.48.12-.73.11zm.3-1.59a1.89 1.89 0 01-.75-.17l-.3-.01a1.5 1.5 0 01-.32-.09.95.95 0 01-.3-.17.56.56 0 01-.17-.28.7.7 0 00.25.18c.09.04.18.07.28.09.14.03.3.04.44.03l-.03-.15a1.85 1.85 0 01.13-.94 1.71 1.71 0 00.15 1.12 2.93 2.93 0 001.02.21h.37c-.24.12-.5.18-.78.18h.01zM20.26 28.1l-.16.2a7.22 7.22 0 01-1.84 1.62c.1.73.24 1.46.42 2.17 1.28-.14 2.53-.44 3.73-.89-1.21-1.02-1.99-2.12-2.15-3.1zM16 31.4l-.23.21c-.09.16-.16.33-.22.5.25.03.5.04.77.06l-.33-.76z"/><path fill="#fff" d="M10.59 16.56c.38-.28.87-.77.68-1.86l-.04.13c-.04.21-.06.42-.04.64a2.29 2.29 0 01-.04-.98l.01-.06a.7.7 0 01-.2.03 1.26 1.26 0 01-.38-.09 4.66 4.66 0 01-2.17-1.73l-.03-.05a8.89 8.89 0 01-.25 1.67.57.57 0 01-.1.15c-.02.18-.1 1.13.38 1.78.53.72 1.76.66 2.18.37z"/><path fill="#fff" d="M13.55 15.37c-.46.22-1.51 1.8-2.1 2.66l-.1.15c-.6.89-1.4 1.86-2.5 1.86a2 2 0 01-.47-.06c-1.5-.35-1.72-2.88-1.75-3.65 0-.51-.08-1.02-.24-1.51l-.26.07c.11.2.26.68.3 1.75.1 2.22.66 3.4 1.8 3.71 1.4.39 2.9-1.04 3.48-2.12.46-.88 1.53-2.25 2.22-2.75l-.19-.04-.19-.07zM26.4 15.69l-.25-.02a3.04 3.04 0 01-1.62-.87l-.06.04.05-.05c-.33-.31-.63-.64-.92-.99a8.46 8.46 0 00-.7-.76 3.85 3.85 0 00-1.7-.88l-.18.07c.76.2 1.45.62 1.95 1.23.94 1.12 2.32 2.6 3.54 2.5a1.25 1.25 0 001.13-.93l-.02-.03-.14-.18c-.05.23-.17.45-.34.61-.2.18-.46.27-.73.26z"/><path fill="#fff" d="M22.13 13.8c.59.63 1.03 1.08 1.89 1.07-.42-.4-.82-.83-1.19-1.29a3.5 3.5 0 00-2.15-1.22c-.18.04-.37.08-.52.13l-.07.03a2.1 2.1 0 011.38.61c.25.24.46.46.66.68zM7.56 10.74l.03-.83c-.02-.1-.05-.19-.1-.28-.03-.1-.09-.19-.15-.27a.76.76 0 00-.23-.2c.2.08.36.23.47.42l.02.05.01-.17c.02-.18-.08-.53-.26-.62a.2.2 0 00-.1-.04.3.3 0 00-.15.05c-.14.08-.18.43-.08.84.1.48.33.9.54 1.05z"/><path fill="#fff" d="M6.6 6.3l-.15.27c-.52.94-.35 1.66-.17 2.43.3 1 .23 2.09-.19 3.05.17-.1.33-.23.46-.38l.28-.32-.06.41c-.08.51-.43 1.02-.68 1.34.18-.11.35-.26.49-.43l.37-.46-.16.57c-.06.31-.05.63.04.93.05-.21.11-.43.19-.64l.18-.5.05.53c.05.56.55 1.16.65 1.28.06-.04.1-.1.13-.16.08-.19.13-.38.16-.57.06-.42.08-.84.08-1.26-.16-.34-.25-.7-.25-1.08v-.2l.08.18c.05.1.13.17.23.22l.2.05c-.14-.13-.25-.3-.3-.48a2.54 2.54 0 01-.13-.69c0-.23 0-.47.03-.7v-.01l-.16.09.17-.18.09-.6v-.01l.02-.02.23-.2.2-.25c.14-.17.26-.34.37-.53l.28-.4-.1.5a5.14 5.14 0 01-.28.85c.22-.14.43-.3.63-.47.32-.26.6-.56.83-.91l.6-.98-.37 1.08a6.28 6.28 0 01-.45 1.01l.06-.03a7.58 7.58 0 001.2-.98l.52-.5-.32.64-.35.66-.14.24c.23-.15.46-.32.69-.5.34-.25.63-.59.82-.98l.09-.2.02.22c.03.25.1.5.18.74a.76.76 0 00.45.5c-.05.47-.2 1.18-.18 1.64.03.46.03.92 0 1.39a3.01 3.01 0 01-.87 1.9l-.47.5c-.14.15-.29.29-.45.4a1.6 1.6 0 00-.12.24l-.02.06.11.02.08.02c0 .01 0-.01 0 0l.8.18c.1-.27.26-.5.45-.71.4-.49.46-1.86.46-1.87l.01-.44.22.38c.05.1.13.17.21.23-.09-.65-.15-1.3-.17-1.96l-.02-.5.25.43c.07.13.17.24.28.33-.05-.82-.06-1.64-.02-2.46l.01-.4.21.34c.05.09.11.17.18.24v-.77c0-.41 0-.88-.03-1.34a3.07 3.07 0 00-.79-1.76s.44.05.57-.02c-.14-.1-.45-.28-.59-.4a4.11 4.11 0 00-2.92-1.1 15.3 15.3 0 00-4.68 3.38l-.1.1c.17-.03.32-.07.48-.12l.3-.1zm.37 2.34a.47.47 0 01.51-.01c.27.16.4.6.38.84l-.04.7-.02.73v.13h-.13c-.42-.05-.76-.71-.88-1.3-.13-.54-.06-.95.18-1.09zM18.44 1.88l-.06-.01c-.06-.02-1.51-.44-2.42 2.02-.96 2.63.2 4.65 1.35 6.34 1.05 1.53.52 3.7.5 3.8a5.31 5.31 0 01-1.44 2.44c.2.31.38.63.53.97l.01.02c.1-.28.18-.56.25-.84.13-.33.22-.66.32-1 .15-.46.33-.9.56-1.31.07-.49.12-.98.14-1.47a7.7 7.7 0 00-.09-1.53c.12.5.2 1.01.2 1.53.02.35.02.68 0 1.03l.13-.2.17-.23a10.02 10.02 0 00.01-2.03 15.56 15.56 0 01.21 1.77l.28-.3c.03-.22.05-.45.05-.68 0-.24-.02-.49-.07-.72.1.23.16.47.2.71l.05.5c.22-.18.48-.32.76-.42l.53-.14.4-.14c-.24-.04-.46-.1-.68-.2-.24-.08-.46-.18-.69-.29-.22-.1-.43-.2-.66-.33a2.86 2.86 0 01-1.32-1.81 2.07 2.07 0 00-.09-.34.73.73 0 00-.18-.25l-.25-.28c-.08-.1-.14-.22-.19-.35-.05-.14-.08-.3-.09-.45l-.5.19-.1.02-.03-.07a2.4 2.4 0 01-.24-.64 4.5 4.5 0 01-.12-1.32c0-.22.02-.44.05-.66 0 .44.04.88.1 1.3.05.4.17.78.35 1.14l.49-.2V7.4v.04l.11-.04a8.28 8.28 0 01-.18-1.83c0-.63.06-1.27.2-1.89a8.68 8.68 0 00.2 3.61l.53-.24h.03c.24-.07.47-.14.7-.24.19-.07.37-.17.54-.29a4.08 4.08 0 01-.7-1.23c-.2-.47-.31-.97-.36-1.47l.21.72a7.02 7.02 0 00.65 1.35c.13.2.28.4.45.58a4 4 0 00.4-.2l.35-.23a10.24 10.24 0 01-.64-.94 4.56 4.56 0 01-.5-1.15c.44.68.9 1.32 1.33 2a3.39 3.39 0 001.3-.57 9.55 9.55 0 00-.87-1.22 4.08 4.08 0 00-1.21-1.01c.49.22.93.54 1.3.93.35.36.68.74.97 1.15a6 6 0 00.16-.14c-.09-.2-.2-.4-.33-.59a4.97 4.97 0 00-1.01-1.07l-.6-.45a9.53 9.53 0 011.2.9c.17.18.34.36.5.56.16.2.3.41.4.65l.01.04-.03.03c-.25.25-.53.47-.82.65l-.1.05c.29.19.55.4.8.64a1.63 1.63 0 01.5.54c.28.35.53.72.73 1.12.26.5.41 1.03.46 1.58a2 2 0 01-.13.84l-.07.14c.08-.07.15-.15.2-.24.17-.3.23-.64.18-.97l-.07-.71.3.65a7.42 7.42 0 01.54 1.66c.05.3.06.59.04.89a1.8 1.8 0 01-.07.33c.09-.1.16-.2.22-.32.14-.28.2-.6.2-.91a5 5 0 00-.5-1.9l-.19-.45-.2-.45c-.14-.3-.28-.61-.43-.9-.3-.6-.66-1.18-1.05-1.71a14.1 14.1 0 011.7 2.5c.15.3.27.61.4.92.28.6.45 1.23.5 1.88l.17.55c.1.32.15.65.18.98a4 4 0 01-.13 1.41c.1-.11.17-.23.24-.36.16-.3.25-.64.27-.99.02-.35 0-.7-.06-1.05-.06-.35-.14-.7-.24-1.03-.22-.68-.48-1.35-.78-2-.3-.64-.63-1.29-.95-1.92.38.6.75 1.22 1.08 1.87.34.64.62 1.3.85 2 .11.34.2.69.27 1.04.06.35.09.7.07 1.06l1.1 1.44-.04-.15c-.05-.21-.09-.43-.12-.64l-.13-1.28a5.82 5.82 0 00-.81-2.35c-.41-.74-.92-1.43-1.37-2.16a36.4 36.4 0 01-1.29-2.22l1.45 2.11c.48.7 1 1.4 1.42 2.15.46.74.73 1.59.8 2.46 0 .43.02.85.05 1.28.01.3.05.6.12.9l.2.26c-.01-.26 0-.52.02-.78.03-.52.1-1.03.13-1.54a4.18 4.18 0 00-1.02-2.8 4.2 4.2 0 011.14 2.8c0 .53-.06 1.03-.07 1.55 0 .42-.04.87.15 1.22.13.18.26.34.4.5.14.05.3.06.45.04a.84.84 0 00.55-.35c.1-.14.17-.3.18-.48a.63.63 0 01-.13.2.69.69 0 01-.47.22.76.76 0 01-.5-.13.7.7 0 01-.25-.44 1.77 1.77 0 01-.02-.47c.03-.3.08-.59.17-.88l.13-.42c.04-.13.06-.26.08-.4a3.47 3.47 0 00-1.25-2.99l-.35-.25-.18-.13-.17-.15a13.76 13.76 0 01-1.2-1.3c-.18-.22-.35-.46-.53-.7l-.25-.34-.23-.38c-.3-.5-.59-1.01-.84-1.54.33.48.66.96 1.01 1.43l.26.35.25.35c.18.23.34.47.53.7l.49.59.08.06c.39.31.72.58 1.85.58.68 0 1.42.03 2.1.3-.08-.13-.15-.25-.24-.37-.4-.1-.82-.18-1.23-.2-.3-.04-.6-.07-.9-.13-1.73-.32-2.53-1.57-3.44-3.05-.51-.8-1.03-1.64-1.77-2.4l-.9-.3a6.14 6.14 0 011.63 2.23c-.28-.42-.59-.82-.92-1.2a6.44 6.44 0 00-1.07-1.01 3.12 3.12 0 00-.37-.22c-.35-.09-.7-.16-1.06-.22-.46.02-.92.18-1.3.45.23-.24.52-.42.83-.53l-.5-.06-.2.12h-.09zm.35.48c.26-.12.54-.18.83-.17.29 0 .57.07.83.2.25.13.49.3.7.48a8.47 8.47 0 011.9 2.67l-.46-.67c-.17-.22-.32-.44-.5-.65-.33-.42-.7-.81-1.1-1.17-.4-.34-.85-.65-1.37-.68-.26-.02-.52.01-.77.1-.26.09-.49.24-.66.44.14-.24.35-.43.6-.55z"/><path fill="#fff" d="M8.84 8.66l.06-.15-.1.11a4.16 4.16 0 01-.46.44l-.08.43.27-.28c.14-.16.24-.35.31-.55zM9.46 13.54c.37.26.77.47 1.2.63.09.04.2.07.3.07.1 0 .19-.02.27-.07v-.02h.01c.18-.11.35-.25.49-.4l.47-.5a3.04 3.04 0 00.87-1.78c.04-.46.06-.92.04-1.38.02-.46.06-.92.15-1.37a2.7 2.7 0 01-.39-.7c-.07-.2-.13-.4-.17-.62-.08.16-.18.3-.28.43a7.2 7.2 0 01-1.56 1.27l-.42.25.29-.4c.13-.2.26-.4.36-.62l.03-.06a7.4 7.4 0 01-.75.56c-.16.1-.33.19-.51.25l-.4.12.27-.33c.13-.17.24-.35.34-.55l-.35.31c-.34.28-.7.52-1.07.74l-.42.25-.02.1c-.03.22-.04.44-.03.67 0 .23.04.45.1.67.06.21.2.4.38.52l.13.07h-.14a.83.83 0 01-.37-.07.63.63 0 01-.18-.13c.03.4.17.8.4 1.13.26.37.59.7.96.96zm1.52-.48a1.4 1.4 0 01-.47-.12l.01-.02c.09-.04.17-.07.26-.09a.85.85 0 01.42.03c.1.03.18.07.26.12V13c-.16.05-.32.07-.48.06zm1.8-3.24a3.36 3.36 0 00-.42-.03 3.03 3.03 0 00-.42 0v-.02a.47.47 0 01.2-.17.5.5 0 01.45 0c.08.05.15.11.2.2l-.01.02zm-.43-1.13a.91.91 0 01.43 0 .46.46 0 01.3.3.73.73 0 00-.35-.11c-.11 0-.23.02-.35.05-.25.06-.51.08-.78.07.22-.15.48-.26.75-.3zm-1.86 2.96c.03-.09.1-.18.19-.18-.1.01-.13.1-.14.18-.01.06.03.16.09.15l.11-.01c.05 0 .1-.01.14 0 .1 0 .19 0 .27.04.15.05.34.06.35-.04.02-.15 0-.31-.03-.46-.07-.34-.15-.67-.21-1.02l-.04-.26c-.02-.1-.01-.18.01-.27.05-.17.12-.34.21-.49-.06.17-.1.33-.12.5-.01.17.01.34.07.5a19.8 19.8 0 01.3 1.27c.01.1 0 .2-.03.3a.27.27 0 01-.12.13.37.37 0 01-.16.04c-.1 0-.2-.03-.28-.07a.63.63 0 00-.35-.06h-.15a.15.15 0 01-.12-.11.26.26 0 01.01-.14zm.41.7a4.07 4.07 0 01.98.18v.02a6.87 6.87 0 01-1.97-.06v-.02a2 2 0 01.5-.1c.17-.02.33-.02.5-.01v-.01zm-1.38-2.8c.1-.04.2-.06.3-.05.11 0 .21.03.31.08s.2.13.25.23v.03a2.85 2.85 0 00-1.14-.08v-.03a.6.6 0 01.28-.19zM8.43 19.8c1.23.3 2.1-.7 2.77-1.72l.1-.15c.77-1.14 1.55-2.27 2.04-2.63l-.23-.09-.62-.21-.98-.33c.15.92-.1 1.6-.78 2.09-.3.18-.64.27-.98.26-.57 0-1.19-.2-1.54-.68a2.64 2.64 0 01-.42-1.76l-.18.05c-.19.04-.38.06-.57.08l.02.22-.1-.2-.38.06c.16.5.24 1.01.24 1.54.03.72.23 3.15 1.61 3.48zM22.07 11.34l-.27.32h-.01c.4.1.79.27 1.14.5l.48.38.39.31.18-.18c.16-.2.26-.45.28-.7.03-.28.01-.55-.04-.83a6.27 6.27 0 00-.3-1.07 1.32 1.32 0 01-.6.95 1.4 1.4 0 01-.54.22l-.71.1zM23.92 12.94c.47.34.96.58 1.35.26.03-.23.03-.45.02-.68-.03-.46-.1-.92-.2-1.37 0 .33-.08.66-.22.96-.16.33-.43.6-.77.75l-.18.08z"/></svg>