<svg width="38" height="30" viewBox="0 0 38 30" fill="none" xmlns="http://www.w3.org/2000/svg">
<path fill-rule="evenodd" clip-rule="evenodd" d="M28.5399 15.43C31.6806 15.43 34.2267 12.8899 34.2267 9.75651C34.2267 6.62313 31.6806 4.08302 28.5399 4.08302C25.3993 4.08302 22.8532 6.62313 22.8532 9.75651C22.8532 12.8899 25.3993 15.43 28.5399 15.43ZM28.5399 17.1798C29.2206 17.1798 29.8799 17.0886 30.5063 16.9178V22.4821C30.5063 23.2728 29.8638 23.9137 29.0713 23.9137H7.2811C6.48859 23.9137 5.84613 23.2728 5.84613 22.4821V15.589H23.9367C25.2032 16.5853 26.802 17.1798 28.5399 17.1798ZM35.9805 9.75651C35.9805 12.5042 34.4842 14.9032 32.2601 16.1867V22.4821C32.2601 24.2391 30.8324 25.6635 29.0713 25.6635H7.2811C5.51996 25.6635 4.09229 24.2391 4.09229 22.4821V10.2868C4.09229 8.52973 5.51996 7.10537 7.2811 7.10537H21.5879C21.3754 7.65976 21.2276 8.24608 21.1537 8.85513H7.2811C6.48859 8.85513 5.84613 9.4961 5.84613 10.2868V11.8774H21.4075C21.207 11.2054 21.0994 10.4935 21.0994 9.75651C21.0994 5.65676 24.4306 2.33325 28.5399 2.33325C32.6492 2.33325 35.9805 5.65676 35.9805 9.75651ZM8.87561 17.4449C8.43533 17.4449 8.07841 17.8009 8.07841 18.2402C8.07841 18.6795 8.43533 19.0356 8.87561 19.0356H13.6588C14.0991 19.0356 14.456 18.6795 14.456 18.2402C14.456 17.8009 14.0991 17.4449 13.6588 17.4449H8.87561ZM8.07841 21.4216C8.07841 20.9823 8.43533 20.6263 8.87561 20.6263H16.8476C17.2879 20.6263 17.6448 20.9823 17.6448 21.4216C17.6448 21.8609 17.2879 22.217 16.8476 22.217H8.87561C8.43533 22.217 8.07841 21.8609 8.07841 21.4216ZM25.621 7.43423C25.9259 7.21118 26.2882 7.10538 26.6887 7.10538C27.0893 7.10538 27.4515 7.21118 27.7564 7.43423C28.0577 7.65463 28.2906 7.96022 28.4505 8.35806C28.6097 8.75423 28.6906 9.21706 28.6906 9.74392C28.6906 10.2708 28.6097 10.7336 28.4505 11.1298C28.2906 11.5276 28.0577 11.8332 27.7564 12.0536C27.4515 12.2767 27.0893 12.3825 26.6887 12.3825C26.2858 12.3825 25.9316 12.2693 25.6237 12.0555L25.6226 12.0547C25.3191 11.8395 25.0864 11.5264 24.9269 11.1298C24.7677 10.7336 24.6868 10.2708 24.6868 9.74392C24.6868 9.21706 24.7677 8.75423 24.9269 8.35806C25.0868 7.96022 25.3197 7.65463 25.621 7.43423ZM26.1244 8.52894C25.977 8.79106 25.8931 9.19124 25.8931 9.74392C25.8931 10.2972 25.9772 10.6977 26.1249 10.9598C26.1987 11.0908 26.282 11.181 26.3726 11.2386C26.4622 11.2957 26.5659 11.3253 26.6887 11.3253C26.8115 11.3253 26.9152 11.2957 27.0049 11.2386C27.0955 11.181 27.1787 11.0908 27.2526 10.9598C27.4002 10.6977 27.4843 10.2972 27.4843 9.74392C27.4843 9.19061 27.4002 8.79014 27.2526 8.52804C27.1787 8.397 27.0955 8.30687 27.0049 8.24922C26.9152 8.19214 26.8115 8.16251 26.6887 8.16251C26.5661 8.16251 26.4641 8.19203 26.3752 8.249C26.2852 8.30662 26.2016 8.39694 26.1244 8.52894ZM29.1572 10.2643C29.2196 10.3816 29.2977 10.4644 29.4069 10.5334C29.5084 10.6024 29.6333 10.63 29.7737 10.63C29.9142 10.63 30.0313 10.6024 30.1405 10.5334C30.2498 10.4644 30.3357 10.3747 30.3903 10.2643C30.4449 10.1538 30.4761 10.0296 30.4761 9.89854C30.4761 9.76744 30.4449 9.64324 30.3903 9.53284C30.3279 9.42243 30.242 9.32583 30.1405 9.26373C30.0391 9.20163 29.9142 9.16713 29.7737 9.16713C29.6333 9.16713 29.5162 9.19473 29.4069 9.26373C29.2977 9.33273 29.2118 9.42243 29.1572 9.53284C29.1026 9.64324 29.0713 9.76744 29.0713 9.89854C29.0713 10.0296 29.0948 10.1469 29.1572 10.2643ZM30.0079 9.89854C30.0079 10.0227 29.9845 10.1193 29.9454 10.1952C29.9064 10.2712 29.8518 10.3126 29.7815 10.3126C29.7113 10.3126 29.6567 10.2712 29.6177 10.1952C29.5786 10.1124 29.5552 10.0227 29.5552 9.89854C29.5552 9.77434 29.5786 9.67774 29.6177 9.60184C29.6567 9.52594 29.7113 9.48454 29.7815 9.48454C29.8518 9.48454 29.9064 9.51904 29.9454 9.60184C29.9845 9.68464 30.0079 9.77434 30.0079 9.89854ZM31.1785 11.5891C31.241 11.7064 31.319 11.7892 31.4283 11.8582C31.5375 11.9272 31.6546 11.9548 31.7951 11.9548C31.9356 11.9548 32.0526 11.9272 32.1619 11.8582C32.2634 11.7892 32.3492 11.6995 32.4038 11.5891C32.4585 11.4787 32.4897 11.3545 32.4897 11.2234C32.4897 11.0923 32.4585 10.9681 32.4038 10.8577C32.3492 10.7473 32.2712 10.6576 32.1619 10.5886C32.0604 10.5265 31.9356 10.492 31.7951 10.492C31.6546 10.492 31.5375 10.5196 31.4283 10.5886C31.319 10.6576 31.2332 10.7473 31.1785 10.8577C31.1239 10.9681 31.0927 11.0923 31.0927 11.2234C31.0927 11.3545 31.1161 11.4718 31.1785 11.5891ZM32.0292 11.2234C32.0292 11.3476 32.0058 11.4442 31.9668 11.5201C31.9278 11.596 31.8731 11.6374 31.8029 11.6374C31.7327 11.6374 31.678 11.596 31.639 11.5201C31.6 11.4373 31.5766 11.3476 31.5766 11.2234C31.5766 11.0992 31.6 11.0026 31.639 10.9267C31.678 10.8508 31.7327 10.8094 31.8029 10.8094C31.8731 10.8094 31.9278 10.8439 31.9668 10.9267C32.0058 11.0095 32.0292 11.0992 32.0292 11.2234ZM31.5866 8.97818C31.7217 9.04427 31.7764 9.20502 31.7089 9.33721L30.3416 12.0133C30.2741 12.1455 30.1098 12.199 29.9747 12.1329C29.8396 12.0668 29.7849 11.9061 29.8524 11.7739L31.2197 9.09785C31.2873 8.96566 31.4515 8.91208 31.5866 8.97818Z" fill="#757575"/>
</svg>
