<svg width="53" height="53" fill="none" xmlns="http://www.w3.org/2000/svg"><g clip-path="url(#clip0)"><path d="M43.911 28.01c-1.212-3.643 1.429-8.16-.355-15.198C41.686 5.433 35.651 0 26.5 0 17.35 0 11.314 5.433 9.444 12.813 7.66 19.85 10.3 24.367 9.089 28.01c-.72 2.164-4.106 1.042-2.798 3.505 3.876 7.296 13.092 8.948 20.209 8.948 7.117 0 16.333-1.652 20.21-8.948 1.307-2.462-2.079-1.34-2.799-3.505z" fill="#46495E"/><path d="M43.91 28.01c-1.211-3.643 1.43-8.16-.354-15.198C41.686 5.433 35.651 0 26.5 0c-.563 0-1.113.02-1.652.061 8.257.634 13.703 6.194 15.462 13.59 1.783 7.498-.857 12.311.354 16.192.72 2.306 4.107 1.111 2.799 3.735a14.524 14.524 0 01-2.822 3.891c2.497-1.355 4.644-3.273 6.068-5.954 1.308-2.462-2.078-1.34-2.798-3.505z" fill="#303449"/><path d="M35.75 36.996l-6.787-2.436a7.405 7.405 0 00-4.993 0l-6.787 2.436a7.139 7.139 0 00-4.715 6.703v7.875c0 .786.64 1.426 1.426 1.426H39.04c.786 0 1.426-.64 1.426-1.426v-7.875a7.139 7.139 0 00-4.715-6.703z" fill="#E87769"/><path d="M35.75 36.996l-6.787-2.436a7.407 7.407 0 00-3.854-.307c.385.072.766.173 1.138.307l6.787 2.436A7.14 7.14 0 0137.75 43.7v7.874c0 .787-.64 1.427-1.427 1.427h2.716c.787 0 1.426-.64 1.426-1.427V43.7a7.14 7.14 0 00-4.715-6.703z" fill="#C95047"/><path d="M34.661 36.786l-1.478-1.343a9.94 9.94 0 00-13.366 0l-1.479 1.343a1.071 1.071 0 00.153 1.702l5.035 3.143a.426.426 0 00.59-.142l1.905-3.167h.957l1.906 3.167a.426.426 0 00.59.142l5.035-3.143a1.071 1.071 0 00.152-1.702z" fill="#D8E6F0"/><path d="M29.934 35.665V30h-6.868v5.641l-1.582.568a5.898 5.898 0 005.016 2.792c2.11 0 3.96-1.108 5.003-2.772l-1.57-.564z" fill="#F0B27D"/><path d="M13.749 25.752h2.618v-4.97h-2.618a2.485 2.485 0 000 4.97z" fill="#FFC599"/><path d="M37.75 33.478a.776.776 0 01-.549-1.325l1.106-1.107a.645.645 0 00.19-.459v-4.54a.776.776 0 111.553 0v4.54c0 .588-.23 1.141-.645 1.557l-1.106 1.107a.774.774 0 01-.55.227z" fill="#B4CBDB"/><path d="M37.166 34.984l.584-.583a1.202 1.202 0 00-1.7-1.7l-.583.584a1.202 1.202 0 101.7 1.7z" fill="#FFDC48"/><path d="M38.299 32.153a1.965 1.965 0 00-1.399-.58c-.528 0-1.025.206-1.399.58l-.583.583c-.374.373-.58.87-.58 1.399 0 .528.206 1.025.58 1.399.385.385.892.578 1.398.578.507 0 1.014-.193 1.4-.578l.583-.584a1.98 1.98 0 000-2.797z" fill="#FFDC48"/><path d="M39.143 27.04h-3.755v-7.166h3.755c1.481 0 2.682 1.2 2.682 2.682v1.802c0 1.482-1.2 2.683-2.682 2.683z" fill="#80B9F9"/><path d="M36.633 17.45v8.933c0 3.888-5.936 8.277-10.133 8.277-4.197 0-10.133-4.389-10.133-8.277v-8.26a6.753 6.753 0 015.836-6.69c2.179 2.89 6.332 5.633 14.43 6.018z" fill="#F9C295"/><path d="M34.053 26.383c0 3.504-4.82 7.412-8.843 8.151a7.51 7.51 0 001.29.125c2.589 0 5.839-1.67 7.95-3.862 1.31-1.361 2.183-2.924 2.183-4.414v-8.932a34.722 34.722 0 01-2.58-.218v9.15z" fill="#DE9962"/><path d="M26.491 28.651a3.96 3.96 0 01-2.764-1.127.776.776 0 111.08-1.114 2.409 2.409 0 003.368 0 .776.776 0 111.08 1.114 3.96 3.96 0 01-2.764 1.127zM33.394 21.608a.775.775 0 01-.586-.268.696.696 0 00-.521-.26.696.696 0 00-.521.26.776.776 0 01-1.173-1.017c.445-.514 1.047-.796 1.693-.796.647 0 1.248.282 1.694.796a.776.776 0 01-.586 1.285zM21.754 21.608a.775.775 0 01-.587-.268.696.696 0 00-.52-.26.696.696 0 00-.522.26.776.776 0 01-1.172-1.018c.445-.513 1.047-.795 1.693-.795.647 0 1.248.282 1.694.795a.777.777 0 01-.586 1.286z" fill="#3A3B4A"/><path d="M15.49 10.428l-.478.478a.857.857 0 000 1.213l2.19 2.19a.857.857 0 001.212 0l.478-.48a.857.857 0 000-1.212l-2.189-2.189a.857.857 0 00-1.212 0z" fill="#FFDC48"/></g><defs><clipPath id="clip0"><path fill="#fff" d="M0 0h53v53H0z"/></clipPath></defs></svg>