<svg width="40" height="30" viewBox="0 0 40 30" fill="none" xmlns="http://www.w3.org/2000/svg">
<path fill-rule="evenodd" clip-rule="evenodd" d="M8.73761 7.25605H31.1716C31.9875 7.25605 32.6489 7.91595 32.6489 8.72997V10.537H7.26025V8.72997C7.26025 7.91595 7.92169 7.25605 8.73761 7.25605ZM7.26025 14.4901V21.2856C7.26025 22.0996 7.92169 22.7595 8.73761 22.7595H31.1716C31.9875 22.7595 32.6489 22.0996 32.6489 21.2856V14.4901H7.26025ZM5.45459 8.72997C5.45459 6.92103 6.92445 5.45459 8.73761 5.45459H31.1716C32.9847 5.45459 34.4546 6.92103 34.4546 8.72997V21.2856C34.4546 23.0946 32.9847 24.561 31.1716 24.561H8.73761C6.92445 24.561 5.45459 23.0946 5.45459 21.2856V8.72997ZM9.70002 17.3137C9.70002 16.8459 10.0802 16.4666 10.5491 16.4666H15.6434C16.1123 16.4666 16.4925 16.8459 16.4925 17.3137C16.4925 17.7815 16.1123 18.1608 15.6434 18.1608H10.5491C10.0802 18.1608 9.70002 17.7815 9.70002 17.3137ZM10.5491 19.8549C10.0802 19.8549 9.70002 20.2342 9.70002 20.702C9.70002 21.1699 10.0802 21.5491 10.5491 21.5491H19.0396C19.5086 21.5491 19.8887 21.1699 19.8887 20.702C19.8887 20.2342 19.5086 19.8549 19.0396 19.8549H10.5491Z" fill="#757575"/>
</svg>
