<svg width="38" height="30" viewBox="0 0 38 30" fill="none" xmlns="http://www.w3.org/2000/svg">
<path fill-rule="evenodd" clip-rule="evenodd" d="M13.5631 8.65226V5.37841H16.8369V8.65226H13.5631ZM18.7077 5.37842V8.76918C18.7077 9.7378 17.9225 10.523 16.9538 10.523H13.4462C12.4775 10.523 11.6923 9.73781 11.6923 8.76918V5.37842H7.01546C6.75716 5.37842 6.54777 5.58781 6.54777 5.84611V20.4615C6.54777 20.7198 6.75716 20.9292 7.01546 20.9292H12.8615V14.6153C12.8615 13.6467 13.6467 12.8615 14.6153 12.8615L23.8524 12.8615V5.84611C23.8524 5.58781 23.643 5.37842 23.3847 5.37842H18.7077ZM16.957 3.50765H23.3847C24.6762 3.50765 25.7232 4.55461 25.7232 5.84611V12.8615H31.5692C32.5378 12.8615 33.323 13.6467 33.323 14.6153V23.9692C33.323 24.9378 32.5378 25.723 31.5692 25.723H14.6153C13.6467 25.723 12.8615 24.9378 12.8615 23.9692L12.8615 22.8H7.01546C5.72397 22.8 4.677 21.753 4.677 20.4615V5.84611C4.677 4.55461 5.72397 3.50765 7.01546 3.50765H13.443C13.4441 3.50765 13.4451 3.50764 13.4462 3.50764H16.9538C16.9549 3.50764 16.9559 3.50765 16.957 3.50765ZM14.7323 14.7323L31.4523 14.7323V23.8523H14.7323V14.7323ZM22.8194 15.6384C22.5127 15.6384 22.264 15.8871 22.264 16.1938V16.4569H21.7282C21.2708 16.4569 20.9 16.8277 20.9 17.2851V21.3852C20.9 21.8426 21.2708 22.2134 21.7282 22.2134H22.264V22.6051C22.264 22.9118 22.5127 23.1604 22.8194 23.1604C23.1262 23.1604 23.3748 22.9118 23.3748 22.6051V22.208C23.6565 22.1955 24.0086 22.1539 24.3295 22.0132C24.5825 21.9022 24.8325 21.7237 25.015 21.4423C25.197 21.1616 25.2846 20.8207 25.2846 20.4303C25.2846 20.04 25.197 19.6991 25.015 19.4184C24.9288 19.2855 24.8274 19.1753 24.7176 19.0844C24.7259 19.0731 24.734 19.0617 24.7421 19.0501C24.9234 18.7877 25.0117 18.4677 25.0117 18.1035C25.0117 17.7393 24.9234 17.4194 24.7421 17.157C24.562 16.8963 24.3199 16.7351 24.0835 16.6363C23.8462 16.5371 23.5942 16.493 23.3748 16.4732V16.1938C23.3748 15.8871 23.1262 15.6384 22.8194 15.6384ZM22.0107 18.6394V17.5676H22.8906C23.1715 17.5676 23.4486 17.5748 23.6549 17.661C23.7445 17.6985 23.7961 17.7419 23.8282 17.7883C23.859 17.8329 23.901 17.9222 23.901 18.1035C23.901 18.2848 23.859 18.3742 23.8282 18.4188C23.7961 18.4652 23.7445 18.5085 23.6549 18.546C23.4486 18.6323 23.1715 18.6394 22.8906 18.6394H22.0107ZM22.0107 21.1026V19.758H23.0211C23.3531 19.758 23.6586 19.7661 23.8834 19.8647C23.9801 19.9071 24.0416 19.9588 24.083 20.0227C24.125 20.0874 24.1738 20.207 24.1738 20.4303C24.1738 20.6537 24.125 20.7733 24.083 20.8379C24.0416 20.9019 23.9801 20.9535 23.8834 20.9959C23.6586 21.0945 23.3531 21.1026 23.0211 21.1026H22.9128C22.8824 21.0975 22.8512 21.0948 22.8194 21.0948C22.7877 21.0948 22.7565 21.0975 22.7261 21.1026H22.0107Z" fill="#757575"/>
</svg>
