<svg width="23" height="14" viewBox="0 0 23 14" fill="none" xmlns="http://www.w3.org/2000/svg">
<path d="M1 3.93011H9.12764" stroke="#E1E1E1" stroke-miterlimit="10" stroke-linecap="round" stroke-linejoin="round"/>
<path d="M3.46231 5.72321H11.5899" stroke="#E1E1E1" stroke-miterlimit="10" stroke-linecap="round" stroke-linejoin="round"/>
<path d="M1 7.51636H9.12764" stroke="#E1E1E1" stroke-miterlimit="10" stroke-linecap="round" stroke-linejoin="round"/>
<path d="M3.78716 7.63333V10.531C3.78716 10.9922 4.15748 11.3626 4.61876 11.3626H6.80172" stroke="#E1E1E1" stroke-miterlimit="10" stroke-linecap="round" stroke-linejoin="round"/>
<path d="M10.414 11.3561H14.637C15.0983 11.3561 15.4686 10.9858 15.4686 10.5245V3.05952V1.8316C15.4686 1.37032 15.0983 1 14.637 1H5.36591" stroke="#E1E1E1" stroke-miterlimit="10" stroke-linecap="round" stroke-linejoin="round"/>
<path d="M5.69725 1.0065H4.61876C4.15748 1.0065 3.78716 1.37682 3.78716 1.8381V3.78068" stroke="#E1E1E1" stroke-miterlimit="10" stroke-linecap="round" stroke-linejoin="round"/>
<path d="M10.1736 11.3561C10.1736 12.2137 9.47848 12.9154 8.61439 12.9154C7.7568 12.9154 7.05513 12.2202 7.05513 11.3561C7.05513 10.4985 7.7503 9.79684 8.61439 9.79684C9.47848 9.79684 10.1736 10.4985 10.1736 11.3561Z" stroke="#E1E1E1" stroke-miterlimit="10" stroke-linecap="round" stroke-linejoin="round"/>
<path d="M18.608 12.9141C19.4678 12.8666 20.1264 12.1311 20.079 11.2712C20.0315 10.4114 19.296 9.75277 18.4361 9.80022C17.5763 9.84767 16.9177 10.5832 16.9651 11.4431C17.0126 12.3029 17.7481 12.9615 18.608 12.9141Z" stroke="#E1E1E1" stroke-miterlimit="10" stroke-linecap="round" stroke-linejoin="round"/>
<path d="M13.4806 11.356H16.859" stroke="#E1E1E1" stroke-miterlimit="10" stroke-linecap="round" stroke-linejoin="round"/>
<path d="M15.4686 3.8067H18.1259C18.3727 3.8067 18.6001 3.93014 18.7431 4.13155L20.8286 7.19159H20.978C21.3873 7.19159 21.7252 7.52293 21.7252 7.93874V10.609C21.7252 11.0183 21.3938 11.3561 20.978 11.3561H20.1984" stroke="#E1E1E1" stroke-miterlimit="10" stroke-linecap="round" stroke-linejoin="round"/>
<path d="M20.8351 7.19161H17.7945C17.3852 7.19161 17.0474 6.86027 17.0474 6.44447V5.27502" stroke="#E1E1E1" stroke-miterlimit="10" stroke-linecap="round" stroke-linejoin="round"/>
</svg>
