<svg width="38" height="38" viewBox="0 0 38 38" fill="none" xmlns="http://www.w3.org/2000/svg">
<path d="M19 38C29.4934 38 38 29.4934 38 19C38 8.50659 29.4934 0 19 0C8.50659 0 0 8.50659 0 19C0 29.4934 8.50659 38 19 38Z" fill="url(#paint0_linear_1714_3521)"/>
<path d="M16.93 24.36C21.0335 24.36 24.36 21.0335 24.36 16.93C24.36 12.8265 21.0335 9.5 16.93 9.5C12.8265 9.5 9.5 12.8265 9.5 16.93C9.5 21.0335 12.8265 24.36 16.93 24.36Z" stroke="white" stroke-width="2" stroke-miterlimit="10" stroke-linecap="round" stroke-linejoin="round"/>
<path d="M28.4999 28.4999L22.1899 22.1899" stroke="white" stroke-width="2" stroke-miterlimit="10" stroke-linecap="round" stroke-linejoin="round"/>
<defs>
<linearGradient id="paint0_linear_1714_3521" x1="4.7785" y1="5.223" x2="34.2234" y2="33.7476" gradientUnits="userSpaceOnUse">
<stop stop-color="#E02B2C"/>
<stop offset="0.1827" stop-color="#E02932"/>
<stop offset="0.4278" stop-color="#E02543"/>
<stop offset="0.7083" stop-color="#DF1E5F"/>
<stop offset="1" stop-color="#DF1584"/>
</linearGradient>
</defs>
</svg>
