<svg width="34" height="21" viewBox="0 0 34 21" fill="none" xmlns="http://www.w3.org/2000/svg">
<path d="M0.75 5.66992H13.26" stroke="#404040" stroke-width="1.5" stroke-miterlimit="10" stroke-linecap="round" stroke-linejoin="round"/>
<path d="M4.54004 8.42969H17.05" stroke="#404040" stroke-width="1.5" stroke-miterlimit="10" stroke-linecap="round" stroke-linejoin="round"/>
<path d="M0.75 11.1899H13.26" stroke="#404040" stroke-width="1.5" stroke-miterlimit="10" stroke-linecap="round" stroke-linejoin="round"/>
<path d="M5.04004 11.3701V15.8301C5.04004 16.5401 5.61004 17.1101 6.32004 17.1101H9.68004" stroke="#404040" stroke-width="1.5" stroke-miterlimit="10" stroke-linecap="round" stroke-linejoin="round"/>
<path d="M15.24 17.1002H21.74C22.45 17.1002 23.02 16.5302 23.02 15.8202V4.33016V2.44016C23.02 1.73016 22.45 1.16016 21.74 1.16016H7.46997" stroke="#404040" stroke-width="1.5" stroke-miterlimit="10" stroke-linecap="round" stroke-linejoin="round"/>
<path d="M7.98004 1.16992H6.32004C5.61004 1.16992 5.04004 1.73992 5.04004 2.44992V5.43992" stroke="#404040" stroke-width="1.5" stroke-miterlimit="10" stroke-linecap="round" stroke-linejoin="round"/>
<path d="M14.8699 17.1002C14.8699 18.4202 13.7999 19.5002 12.4699 19.5002C11.1499 19.5002 10.0699 18.4302 10.0699 17.1002C10.0699 15.7802 11.1399 14.7002 12.4699 14.7002C13.7999 14.7002 14.8699 15.7802 14.8699 17.1002Z" stroke="#404040" stroke-width="1.5" stroke-miterlimit="10" stroke-linecap="round" stroke-linejoin="round"/>
<path d="M27.852 19.4985C29.1755 19.4254 30.1892 18.2933 30.1162 16.9698C30.0432 15.6463 28.9111 14.6326 27.5876 14.7057C26.2641 14.7787 25.2504 15.9108 25.3234 17.2343C25.3964 18.5578 26.5285 19.5715 27.852 19.4985Z" stroke="#404040" stroke-width="1.5" stroke-miterlimit="10" stroke-linecap="round" stroke-linejoin="round"/>
<path d="M19.96 17.1001H25.16" stroke="#404040" stroke-width="1.5" stroke-miterlimit="10" stroke-linecap="round" stroke-linejoin="round"/>
<path d="M23.02 5.47998H27.11C27.49 5.47998 27.84 5.66998 28.06 5.97998L31.27 10.69H31.5C32.13 10.69 32.65 11.2 32.65 11.84V15.95C32.65 16.58 32.14 17.1 31.5 17.1H30.3" stroke="#404040" stroke-width="1.5" stroke-miterlimit="10" stroke-linecap="round" stroke-linejoin="round"/>
<path d="M31.28 10.6902H26.6C25.97 10.6902 25.45 10.1802 25.45 9.54023V7.74023" stroke="#404040" stroke-width="1.5" stroke-miterlimit="10" stroke-linecap="round" stroke-linejoin="round"/>
</svg>
