<svg width="16" height="16" viewBox="0 0 16 16" fill="none" xmlns="http://www.w3.org/2000/svg">
<path d="M3.76489 13.5529V5.74117V1.1294C3.76489 0.752934 4.04725 0.470581 4.42372 0.470581H14.212C14.5884 0.470581 14.8708 0.752934 14.8708 1.1294V13.5529C14.8708 14.6823 14.0237 15.5294 12.8943 15.5294H5.08254H3.76489" stroke="#29ABE2" stroke-miterlimit="10" stroke-linecap="round" stroke-linejoin="round"/>
<path d="M2.0707 15.5294C1.12953 15.5294 0.470703 14.7765 0.470703 13.9294V7.71766C0.470703 7.34119 0.753056 7.05884 1.12953 7.05884H3.76482V13.9294C3.76482 14.7765 3.01188 15.5294 2.0707 15.5294Z" stroke="#29ABE2" stroke-miterlimit="10" stroke-linecap="round" stroke-linejoin="round"/>
<path d="M5.74138 15.5294H2.44727" stroke="#29ABE2" stroke-miterlimit="10" stroke-linecap="round" stroke-linejoin="round"/>
<path d="M6.40015 3.10583H12.2354" stroke="#29ABE2" stroke-miterlimit="10" stroke-linecap="round" stroke-linejoin="round"/>
<path d="M6.40015 5.74121H12.2354" stroke="#29ABE2" stroke-miterlimit="10" stroke-linecap="round" stroke-linejoin="round"/>
<path d="M6.40015 8.28235H12.2354" stroke="#29ABE2" stroke-miterlimit="10" stroke-linecap="round" stroke-linejoin="round"/>
</svg>
