<svg width="22" height="21" viewBox="0 0 22 21" fill="none" xmlns="http://www.w3.org/2000/svg">
<path d="M5.60995 4.91977H20.61L18.3099 13.5398C18.1899 13.8698 17.8799 14.0898 17.5299 14.0898H8.01995C7.59995 14.0898 7.24995 13.7798 7.18995 13.3598L4.77995 0.759766H1.44995" stroke="#404040" stroke-width="1.5" stroke-miterlimit="10" stroke-linecap="round" stroke-linejoin="round"/>
<path d="M17.28 19.9196C18.2023 19.9196 18.95 19.1719 18.95 18.2496C18.95 17.3273 18.2023 16.5796 17.28 16.5796C16.3577 16.5796 15.61 17.3273 15.61 18.2496C15.61 19.1719 16.3577 19.9196 17.28 19.9196Z" stroke="#404040" stroke-width="1.5" stroke-miterlimit="10" stroke-linecap="round" stroke-linejoin="round"/>
<path d="M8.10994 19.9196C9.03226 19.9196 9.77994 19.1719 9.77994 18.2496C9.77994 17.3273 9.03226 16.5796 8.10994 16.5796C7.18763 16.5796 6.43994 17.3273 6.43994 18.2496C6.43994 19.1719 7.18763 19.9196 8.10994 19.9196Z" stroke="#404040" stroke-width="1.5" stroke-miterlimit="10" stroke-linecap="round" stroke-linejoin="round"/>
</svg>
