<svg width="21" height="21" viewBox="0 0 21 21" fill="none" xmlns="http://www.w3.org/2000/svg">
<path d="M13.4101 7.1702C13.4101 8.9602 11.8001 10.3702 9.95007 10.0402C8.63007 9.8002 7.58008 8.3702 7.58008 7.0302V6.1402C7.58008 4.8002 8.63007 3.3702 9.95007 3.1302C11.8001 2.8002 13.4101 4.2102 13.4101 6.0002V7.1702Z" stroke="#404040" stroke-width="1.5" stroke-miterlimit="10" stroke-linecap="round" stroke-linejoin="round"/>
<path d="M10.49 19.91C15.7809 19.91 20.07 15.6209 20.07 10.33C20.07 5.03911 15.7809 0.75 10.49 0.75C5.19914 0.75 0.910034 5.03911 0.910034 10.33C0.910034 15.6209 5.19914 19.91 10.49 19.91Z" stroke="#404040" stroke-width="1.5" stroke-miterlimit="10" stroke-linecap="round" stroke-linejoin="round"/>
<path d="M3.96008 17.34C5.03008 14.94 7.55008 13.25 10.4901 13.25C13.4301 13.25 15.9601 14.94 17.0201 17.34" stroke="#404040" stroke-width="1.5" stroke-miterlimit="10" stroke-linecap="round" stroke-linejoin="round"/>
</svg>
