<svg width="96" height="109" viewBox="0 0 96 109" fill="none" xmlns="http://www.w3.org/2000/svg">
<g filter="url(#filter0_d)">
<mask id="path-1-outside-1" maskUnits="userSpaceOnUse" x="8" y="8.68423" width="80" height="93" fill="black">
<rect fill="white" x="8" y="8.68423" width="80" height="93"/>
<path fill-rule="evenodd" clip-rule="evenodd" d="M62.9993 64.4211C71.6338 59.2942 77.4211 49.8756 77.4211 39.1053C77.4211 22.8565 64.2488 9.68423 48 9.68423C31.7512 9.68423 18.5789 22.8565 18.5789 39.1053C18.5789 49.8756 24.3662 59.2942 33.0007 64.4211H14C11.2386 64.4211 9 66.6596 9 69.4211V95C9 97.7614 11.2386 100 14 100H82C84.7614 100 87 97.7615 87 95V69.4211C87 66.6596 84.7614 64.4211 82 64.4211H62.9993Z"/>
</mask>
<path fill-rule="evenodd" clip-rule="evenodd" d="M62.9993 64.4211C71.6338 59.2942 77.4211 49.8756 77.4211 39.1053C77.4211 22.8565 64.2488 9.68423 48 9.68423C31.7512 9.68423 18.5789 22.8565 18.5789 39.1053C18.5789 49.8756 24.3662 59.2942 33.0007 64.4211H14C11.2386 64.4211 9 66.6596 9 69.4211V95C9 97.7614 11.2386 100 14 100H82C84.7614 100 87 97.7615 87 95V69.4211C87 66.6596 84.7614 64.4211 82 64.4211H62.9993Z" fill="white"/>
<path d="M62.9993 64.4211L62.4888 63.5612L59.3565 65.4211H62.9993V64.4211ZM33.0007 64.4211V65.4211H36.6435L33.5112 63.5612L33.0007 64.4211ZM76.4211 39.1053C76.4211 49.5083 70.8324 58.6071 62.4888 63.5612L63.5099 65.2809C72.4352 59.9814 78.4211 50.2429 78.4211 39.1053H76.4211ZM48 10.6842C63.6965 10.6842 76.4211 23.4088 76.4211 39.1053H78.4211C78.4211 22.3042 64.8011 8.68423 48 8.68423V10.6842ZM19.5789 39.1053C19.5789 23.4088 32.3035 10.6842 48 10.6842V8.68423C31.1989 8.68423 17.5789 22.3042 17.5789 39.1053H19.5789ZM33.5112 63.5612C25.1676 58.6071 19.5789 49.5083 19.5789 39.1053H17.5789C17.5789 50.2429 23.5648 59.9814 32.4901 65.2809L33.5112 63.5612ZM14 65.4211H33.0007V63.4211H14V65.4211ZM10 69.4211C10 67.2119 11.7909 65.4211 14 65.4211V63.4211C10.6863 63.4211 8 66.1074 8 69.4211H10ZM10 95V69.4211H8V95H10ZM14 99C11.7909 99 10 97.2092 10 95H8C8 98.3137 10.6863 101 14 101V99ZM82 99H14V101H82V99ZM86 95C86 97.2092 84.2091 99 82 99V101C85.3137 101 88 98.3137 88 95H86ZM86 69.4211V95H88V69.4211H86ZM82 65.4211C84.2091 65.4211 86 67.2119 86 69.4211H88C88 66.1074 85.3137 63.4211 82 63.4211V65.4211ZM62.9993 65.4211H82V63.4211H62.9993V65.4211Z" fill="#4CC764" mask="url(#path-1-outside-1)"/>
</g>
<path d="M48 61.6842C60.47 61.6842 70.579 51.5753 70.579 39.1053C70.579 26.6353 60.47 16.5263 48 16.5263C35.53 16.5263 25.4211 26.6353 25.4211 39.1053C25.4211 51.5753 35.53 61.6842 48 61.6842Z" fill="#4CC764"/>
<path d="M63.0573 37.79C63.0573 31.046 56.2964 25.5579 47.9845 25.5579C39.6726 25.5579 32.9116 31.046 32.9116 37.79C32.9116 43.8369 38.2741 48.9017 45.5177 49.8585C46.0088 49.9643 46.6763 50.1816 46.8457 50.6022C46.9966 50.9832 46.9444 51.5801 46.8936 51.964C46.8936 51.964 46.7172 53.028 46.6791 53.2552C46.6128 53.6362 46.3757 54.7454 47.9845 54.068C49.5932 53.3907 56.6647 48.9567 59.8271 45.3187C62.0117 42.9154 63.0573 40.4896 63.0573 37.79Z" fill="white"/>
<path d="M58.0434 41.685C58.1183 41.685 58.1901 41.6552 58.243 41.6023C58.2959 41.5494 58.3257 41.4776 58.3257 41.4027V40.3345C58.3257 40.2596 58.2959 40.1878 58.243 40.1349C58.1901 40.082 58.1183 40.0522 58.0434 40.0522H55.166V38.9416H58.0434C58.1183 38.9416 58.1901 38.9119 58.243 38.859C58.2959 38.806 58.3257 38.7342 58.3257 38.6594V37.5897C58.3257 37.5149 58.2959 37.4431 58.243 37.3901C58.1901 37.3372 58.1183 37.3075 58.0434 37.3075H55.166V36.1969H58.0434C58.1183 36.1969 58.1901 36.1671 58.243 36.1142C58.2959 36.0613 58.3257 35.9895 58.3257 35.9146V34.845C58.3257 34.7701 58.2959 34.6983 58.243 34.6454C58.1901 34.5925 58.1183 34.5627 58.0434 34.5627H53.8099C53.735 34.5627 53.6632 34.5925 53.6103 34.6454C53.5574 34.6983 53.5276 34.7701 53.5276 34.845V41.3914C53.5276 41.4663 53.5574 41.5381 53.6103 41.591C53.6632 41.6439 53.735 41.6737 53.8099 41.6737H58.0434V41.685Z" fill="#4CC764"/>
<path d="M42.3793 41.6849C42.4541 41.6849 42.5259 41.6552 42.5789 41.6023C42.6318 41.5493 42.6615 41.4776 42.6615 41.4027V40.3344C42.6615 40.2596 42.6318 40.1878 42.5789 40.1349C42.5259 40.0819 42.4541 40.0522 42.3793 40.0522H39.5005V34.8308C39.5005 34.756 39.4707 34.6842 39.4178 34.6312C39.3649 34.5783 39.2931 34.5486 39.2182 34.5486H38.15C38.0751 34.5486 38.0033 34.5783 37.9504 34.6312C37.8975 34.6842 37.8677 34.756 37.8677 34.8308V41.3914C37.8677 41.4663 37.8975 41.5381 37.9504 41.591C38.0033 41.6439 38.0751 41.6737 38.15 41.6737H42.3835L42.3793 41.6849Z" fill="#4CC764"/>
<path d="M44.9278 34.5302H43.8595C43.7005 34.5302 43.5717 34.6591 43.5717 34.8181V41.3956C43.5717 41.5546 43.7005 41.6835 43.8595 41.6835H44.9278C45.0868 41.6835 45.2157 41.5546 45.2157 41.3956V34.8181C45.2157 34.6591 45.0868 34.5302 44.9278 34.5302Z" fill="#4CC764"/>
<path d="M52.2053 34.5302H51.1371C51.0622 34.5302 50.9904 34.5599 50.9375 34.6129C50.8846 34.6658 50.8548 34.7376 50.8548 34.8125V38.72L47.8448 34.6558C47.8379 34.6451 47.8299 34.6351 47.8208 34.6262L47.8038 34.6092L47.7883 34.5965H47.7799L47.7657 34.5852H47.7559L47.7403 34.5768H47.7319H47.7149H47.7051H47.6881H47.6768H47.6599H47.6486H47.6331H46.5437C46.4688 34.5768 46.397 34.6065 46.3441 34.6594C46.2912 34.7124 46.2614 34.7842 46.2614 34.859V41.438C46.2614 41.5128 46.2912 41.5846 46.3441 41.6375C46.397 41.6905 46.4688 41.7202 46.5437 41.7202H47.6133C47.6882 41.7202 47.76 41.6905 47.8129 41.6375C47.8658 41.5846 47.8956 41.5128 47.8956 41.438V37.4909L50.9084 41.5607C50.9287 41.5891 50.9541 41.6135 50.9832 41.6327L51.0016 41.644H51.0101L51.0242 41.651H51.0383H51.0467H51.0679C51.0928 41.6573 51.1184 41.6606 51.1441 41.6609H52.2067C52.2816 41.6609 52.3534 41.6312 52.4063 41.5783C52.4592 41.5253 52.489 41.4535 52.489 41.3787V34.8181C52.4897 34.7804 52.4829 34.743 52.469 34.708C52.4551 34.673 52.4343 34.6412 52.4078 34.6144C52.3814 34.5875 52.3499 34.5663 52.3151 34.5518C52.2803 34.5374 52.243 34.53 52.2053 34.5302Z" fill="#4CC764"/>
<path d="M20.1328 79V74.0547L19.1562 74.9062L18.0547 74.0234C18.0078 74.0495 17.9427 74.1042 17.8594 74.1875C17.7812 74.2708 17.7031 74.388 17.625 74.5391C17.5469 74.6849 17.4792 74.8698 17.4219 75.0938C17.3646 75.3125 17.3359 75.5703 17.3359 75.8672C17.3359 76.2578 17.3828 76.5755 17.4766 76.8203C17.5755 77.0651 17.7031 77.2526 17.8594 77.3828C18.0156 77.513 18.1953 77.5964 18.3984 77.6328C18.6016 77.6641 18.8125 77.6615 19.0312 77.625V79C18.4531 79.1094 17.9557 79.0964 17.5391 78.9609C17.1276 78.8255 16.7891 78.6094 16.5234 78.3125C16.2578 78.0104 16.0625 77.6458 15.9375 77.2188C15.8125 76.7917 15.75 76.3411 15.75 75.8672C15.75 75.3568 15.8203 74.901 15.9609 74.5C16.1068 74.0938 16.2917 73.7474 16.5156 73.4609C16.7448 73.1745 17.0026 72.9505 17.2891 72.7891C17.5755 72.6276 17.862 72.5339 18.1484 72.5078L19.1562 73.2734L19.9219 72.6016H21.7031V79H20.1328ZM21.7031 71.1797C21.7031 71.3776 21.6354 71.5312 21.5 71.6406C21.3646 71.7448 21.1953 71.7969 20.9922 71.7969H16.3203V70.7578H21.7031V71.1797ZM26.7109 79V73.8516L25.7656 73.8281C25.5417 73.8229 25.3255 73.862 25.1172 73.9453C24.9141 74.0234 24.7344 74.1458 24.5781 74.3125C24.4219 74.4792 24.2969 74.6927 24.2031 74.9531C24.1146 75.2083 24.0703 75.513 24.0703 75.8672C24.0703 76.2578 24.1172 76.5755 24.2109 76.8203C24.3099 77.0651 24.4375 77.2526 24.5938 77.3828C24.75 77.513 24.9297 77.5964 25.1328 77.6328C25.3359 77.6641 25.5469 77.6615 25.7656 77.625V79C25.1719 79.1094 24.6667 79.0964 24.25 78.9609C23.8333 78.8255 23.4922 78.6094 23.2266 78.3125C22.9661 78.0104 22.776 77.6458 22.6562 77.2188C22.5417 76.7917 22.4844 76.3411 22.4844 75.8672C22.4844 75.388 22.5495 74.9479 22.6797 74.5469C22.8099 74.1406 22.9948 73.7917 23.2344 73.5C23.4792 73.2083 23.776 72.9818 24.125 72.8203C24.4792 72.6589 24.875 72.5807 25.3125 72.5859L28.2734 72.6016V79H26.7109ZM33.4453 79V74.0547L32.4688 74.9062L31.3672 74.0234C31.3203 74.0495 31.2552 74.1042 31.1719 74.1875C31.0938 74.2708 31.0156 74.388 30.9375 74.5391C30.8594 74.6849 30.7917 74.8698 30.7344 75.0938C30.6771 75.3125 30.6484 75.5703 30.6484 75.8672C30.6484 76.2578 30.6953 76.5755 30.7891 76.8203C30.888 77.0651 31.0156 77.2526 31.1719 77.3828C31.3281 77.513 31.5078 77.5964 31.7109 77.6328C31.9141 77.6641 32.125 77.6615 32.3438 77.625V79C31.7656 79.1094 31.2682 79.0964 30.8516 78.9609C30.4401 78.8255 30.1016 78.6094 29.8359 78.3125C29.5703 78.0104 29.375 77.6458 29.25 77.2188C29.125 76.7917 29.0625 76.3411 29.0625 75.8672C29.0625 75.3568 29.1328 74.901 29.2734 74.5C29.4193 74.0938 29.6042 73.7474 29.8281 73.4609C30.0573 73.1745 30.3151 72.9505 30.6016 72.7891C30.888 72.6276 31.1745 72.5339 31.4609 72.5078L32.4688 73.2734L33.2344 72.6016H35.0156V79H33.4453ZM33.4453 71.7969V69.8828H35.0156V71.7969H33.4453ZM42.2109 75.7969C42.2109 76.2969 42.1354 76.7526 41.9844 77.1641C41.8333 77.5703 41.6172 77.9193 41.3359 78.2109C41.0547 78.5026 40.7161 78.7292 40.3203 78.8906C39.9245 79.0469 39.4844 79.125 39 79.125C38.474 79.125 37.9974 79.0312 37.5703 78.8438C37.1484 78.651 36.7943 78.3802 36.5078 78.0312C36.2266 77.6771 36.0182 77.25 35.8828 76.75C35.7526 76.2448 35.7188 75.6823 35.7812 75.0625H38.8359V76.3125H37.5078C37.4974 76.5417 37.5312 76.7526 37.6094 76.9453C37.6927 77.138 37.8021 77.3047 37.9375 77.4453C38.0729 77.5807 38.2292 77.6875 38.4062 77.7656C38.5885 77.8438 38.7786 77.8828 38.9766 77.8828C39.1901 77.8828 39.3932 77.8411 39.5859 77.7578C39.7786 77.6693 39.9479 77.5391 40.0938 77.3672C40.2448 77.1953 40.362 76.9792 40.4453 76.7188C40.5339 76.4583 40.5781 76.151 40.5781 75.7969C40.5781 75.4271 40.5312 75.1146 40.4375 74.8594C40.3438 74.599 40.2188 74.388 40.0625 74.2266C39.9115 74.0651 39.737 73.9479 39.5391 73.875C39.3464 73.8021 39.1484 73.7656 38.9453 73.7656C38.763 73.7656 38.5911 73.7969 38.4297 73.8594C38.2734 73.9167 38.1328 73.9948 38.0078 74.0938C37.8828 74.1875 37.776 74.2943 37.6875 74.4141C37.6042 74.5286 37.5443 74.6432 37.5078 74.7578L36.0234 74.3438C36.112 74.0781 36.2448 73.8333 36.4219 73.6094C36.6042 73.3802 36.8229 73.1823 37.0781 73.0156C37.3333 72.8438 37.6224 72.7109 37.9453 72.6172C38.2734 72.5182 38.625 72.4688 39 72.4688C39.4844 72.4688 39.9245 72.5495 40.3203 72.7109C40.7161 72.8672 41.0547 73.0911 41.3359 73.3828C41.6172 73.6745 41.8333 74.026 41.9844 74.4375C42.1354 74.8438 42.2109 75.2969 42.2109 75.7969ZM49.3047 79H47.6406L46.5078 74.6484H46.4766L45.3359 79H43.6562L42.6641 72.6016H44.1719L44.75 76.6953H44.7812L45.8984 72.6016H47.0859L48.2188 76.6953H48.25L48.8125 72.6016H50.2812L49.3047 79ZM54.8438 79V78.1875C54.7396 78.3125 54.6198 78.4297 54.4844 78.5391C54.3542 78.6432 54.2057 78.737 54.0391 78.8203C53.8724 78.8984 53.6901 78.9609 53.4922 79.0078C53.2995 79.0547 53.0885 79.0781 52.8594 79.0781C52.5625 79.0781 52.2917 79.0339 52.0469 78.9453C51.8021 78.8568 51.5911 78.7344 51.4141 78.5781C51.2422 78.4167 51.1094 78.224 51.0156 78C50.9219 77.7708 50.875 77.5182 50.875 77.2422V72.6016H51.5469C51.8229 72.6016 52.0417 72.6745 52.2031 72.8203C52.3646 72.9609 52.4453 73.1927 52.4453 73.5156V76.7578C52.4453 77.1016 52.5208 77.3828 52.6719 77.6016C52.8229 77.8203 53.0781 77.9297 53.4375 77.9297C53.6562 77.9297 53.8516 77.8828 54.0234 77.7891C54.2005 77.6901 54.349 77.5677 54.4688 77.4219C54.5938 77.276 54.6875 77.1172 54.75 76.9453C54.8125 76.7682 54.8438 76.6042 54.8438 76.4531V72.6016H56.4141V79H54.8438ZM53.2969 71.7969V70.0391H54.8672V70.7578H58.3359V71.7969H53.2969ZM61.3438 79V74.7578C61.3438 74.5651 61.3125 74.3984 61.25 74.2578C61.1875 74.112 61.1016 73.9948 60.9922 73.9062C60.888 73.8177 60.7604 73.7526 60.6094 73.7109C60.4635 73.6641 60.3047 73.6406 60.1328 73.6406C59.9661 73.6406 59.8099 73.6641 59.6641 73.7109C59.5182 73.7526 59.3906 73.8177 59.2812 73.9062C59.1771 73.9948 59.0938 74.112 59.0312 74.2578C58.974 74.3984 58.9453 74.5651 58.9453 74.7578V79H57.375V74.6172C57.375 74.3307 57.4271 74.0599 57.5312 73.8047C57.6406 73.5443 57.8047 73.3151 58.0234 73.1172C58.2474 72.9193 58.5339 72.763 58.8828 72.6484C59.2318 72.5286 59.6484 72.4688 60.1328 72.4688C60.6224 72.4688 61.0417 72.5286 61.3906 72.6484C61.7396 72.763 62.026 72.9193 62.25 73.1172C62.4792 73.3151 62.6458 73.5443 62.75 73.8047C62.8594 74.0599 62.9141 74.3307 62.9141 74.6172V79H61.3438ZM69.3203 75.5625C69.3203 76.0729 69.276 76.5391 69.1875 76.9609C69.099 77.3776 68.9609 77.7396 68.7734 78.0469C68.5911 78.349 68.3568 78.5833 68.0703 78.75C67.7839 78.9167 67.4427 79 67.0469 79H64.5703L63.5547 72.6016H65.1875L66.0078 77.8281H66.5703C66.6953 77.8281 66.8281 77.7943 66.9688 77.7266C67.1094 77.6589 67.237 77.5417 67.3516 77.375C67.4661 77.2083 67.5599 76.9818 67.6328 76.6953C67.7109 76.4036 67.75 76.0365 67.75 75.5938C67.75 75.2396 67.7083 74.9479 67.625 74.7188C67.5469 74.4844 67.4401 74.2995 67.3047 74.1641C67.1745 74.0286 67.0208 73.9349 66.8438 73.8828C66.6719 73.8255 66.4896 73.7969 66.2969 73.7969V72.6016H66.9219C67.349 72.6016 67.7135 72.6823 68.0156 72.8438C68.3229 73 68.5729 73.2135 68.7656 73.4844C68.9583 73.75 69.099 74.0625 69.1875 74.4219C69.276 74.7812 69.3203 75.1615 69.3203 75.5625ZM72 79V75.3828C72 75.1901 71.9714 75.0104 71.9141 74.8438C71.862 74.6719 71.7812 74.526 71.6719 74.4062C71.5625 74.2812 71.4245 74.1849 71.2578 74.1172C71.0911 74.0443 70.8958 74.0078 70.6719 74.0078H69.8828V72.6016H70.9609C71.4089 72.6016 71.7969 72.6693 72.125 72.8047C72.4531 72.9401 72.724 73.1276 72.9375 73.3672C73.151 73.6016 73.3099 73.8802 73.4141 74.2031C73.5182 74.5208 73.5703 74.862 73.5703 75.2266V79H72ZM78.5 79V78.1875C78.3958 78.3125 78.276 78.4297 78.1406 78.5391C78.0104 78.6432 77.862 78.737 77.6953 78.8203C77.5286 78.8984 77.3464 78.9609 77.1484 79.0078C76.9557 79.0547 76.7448 79.0781 76.5156 79.0781C76.2188 79.0781 75.9479 79.0339 75.7031 78.9453C75.4583 78.8568 75.2474 78.7344 75.0703 78.5781C74.8984 78.4167 74.7656 78.224 74.6719 78C74.5781 77.7708 74.5312 77.5182 74.5312 77.2422V72.6016H75.2031C75.4792 72.6016 75.6979 72.6745 75.8594 72.8203C76.0208 72.9609 76.1016 73.1927 76.1016 73.5156V76.7578C76.1016 77.1016 76.1771 77.3828 76.3281 77.6016C76.4792 77.8203 76.7344 77.9297 77.0938 77.9297C77.3125 77.9297 77.5078 77.8828 77.6797 77.7891C77.8568 77.6901 78.0052 77.5677 78.125 77.4219C78.25 77.276 78.3438 77.1172 78.4062 76.9453C78.4688 76.7682 78.5 76.6042 78.5 76.4531V72.6016H80.0703V79H78.5ZM30.9688 93V88.8438C30.9688 88.6719 30.9505 88.513 30.9141 88.3672C30.8776 88.2214 30.8203 88.099 30.7422 88C30.6641 87.8958 30.5625 87.8151 30.4375 87.7578C30.3125 87.7005 30.1589 87.6719 29.9766 87.6719C29.7578 87.6719 29.5599 87.7214 29.3828 87.8203C29.2109 87.9141 29.0651 88.0339 28.9453 88.1797C28.8255 88.3255 28.7318 88.4844 28.6641 88.6562C28.6016 88.8281 28.5703 88.9896 28.5703 89.1406V93H27V86.6016H28.5703V87.4141C28.6745 87.2891 28.7917 87.1745 28.9219 87.0703C29.0573 86.9609 29.2083 86.8672 29.375 86.7891C29.5417 86.7057 29.7214 86.6406 29.9141 86.5938C30.112 86.5469 30.3255 86.5234 30.5547 86.5234C30.8516 86.5234 31.1224 86.5677 31.3672 86.6562C31.612 86.7448 31.8203 86.8698 31.9922 87.0312C32.1641 87.1875 32.2969 87.3802 32.3906 87.6094C32.4896 87.8333 32.5391 88.0833 32.5391 88.3594V93H30.9688ZM35.2969 93V89.3828C35.2969 89.1901 35.2682 89.0104 35.2109 88.8438C35.1589 88.6719 35.0781 88.526 34.9688 88.4062C34.8594 88.2812 34.7214 88.1849 34.5547 88.1172C34.388 88.0443 34.1927 88.0078 33.9688 88.0078H33.1797V86.6016H34.2578C34.7057 86.6016 35.0938 86.6693 35.4219 86.8047C35.75 86.9401 36.0208 87.1276 36.2344 87.3672C36.4479 87.6016 36.6068 87.8802 36.7109 88.2031C36.8151 88.5208 36.8672 88.862 36.8672 89.2266V93H35.2969ZM43.2734 89.5625C43.2734 90.0729 43.2292 90.5391 43.1406 90.9609C43.0521 91.3776 42.9141 91.7396 42.7266 92.0469C42.5443 92.349 42.3099 92.5833 42.0234 92.75C41.737 92.9167 41.3958 93 41 93H38.5234L37.5078 86.6016H39.1406L39.9609 91.8281H40.5234C40.6484 91.8281 40.7812 91.7943 40.9219 91.7266C41.0625 91.6589 41.1901 91.5417 41.3047 91.375C41.4193 91.2083 41.513 90.9818 41.5859 90.6953C41.6641 90.4036 41.7031 90.0365 41.7031 89.5938C41.7031 89.2396 41.6615 88.9479 41.5781 88.7188C41.5 88.4844 41.3932 88.2995 41.2578 88.1641C41.1276 88.0286 40.974 87.9349 40.7969 87.8828C40.625 87.8255 40.4427 87.7969 40.25 87.7969V86.6016H40.875C41.3021 86.6016 41.6667 86.6823 41.9688 86.8438C42.276 87 42.526 87.2135 42.7188 87.4844C42.9115 87.75 43.0521 88.0625 43.1406 88.4219C43.2292 88.7812 43.2734 89.1615 43.2734 89.5625ZM49.3594 93V85.4609H50.8594V91.8125H53.7891V93H49.3594ZM54.6484 86.4219V85.0469H56.0938V86.4219H54.6484ZM54.6484 93V87.4297H56.0938V93H54.6484ZM61.2812 93V90.0234C61.2812 89.8568 61.276 89.6797 61.2656 89.4922C61.2552 89.3047 61.2214 89.1328 61.1641 88.9766C61.1068 88.8151 61.0156 88.6823 60.8906 88.5781C60.7656 88.474 60.5859 88.4219 60.3516 88.4219C60.0859 88.4219 59.8698 88.487 59.7031 88.6172C59.5417 88.7422 59.4141 88.8984 59.3203 89.0859C59.2266 89.2734 59.1615 89.4766 59.125 89.6953C59.0938 89.9089 59.0781 90.1042 59.0781 90.2812V93H57.6328V87.4297H58.9922V88.2031H59.0234C59.2526 87.8802 59.5182 87.651 59.8203 87.5156C60.1224 87.375 60.4661 87.3047 60.8516 87.3047C61.1797 87.3047 61.4609 87.3594 61.6953 87.4688C61.9349 87.5781 62.1328 87.7318 62.2891 87.9297C62.4453 88.1224 62.5599 88.3542 62.6328 88.625C62.7057 88.8906 62.7422 89.1797 62.7422 89.4922V93H61.2812ZM65.25 90.6641C65.2865 91.1172 65.4453 91.4661 65.7266 91.7109C66.013 91.9505 66.3828 92.0703 66.8359 92.0703C67.1901 92.0703 67.5182 92.0156 67.8203 91.9062C68.1276 91.7969 68.4141 91.6667 68.6797 91.5156V92.6797C68.4141 92.8307 68.125 92.9427 67.8125 93.0156C67.5052 93.0885 67.1589 93.125 66.7734 93.125C66.3099 93.125 65.8984 93.0625 65.5391 92.9375C65.1797 92.8073 64.875 92.6198 64.625 92.375C64.375 92.125 64.1849 91.8229 64.0547 91.4688C63.9245 91.1094 63.8594 90.7031 63.8594 90.25C63.8594 89.8438 63.9141 89.4635 64.0234 89.1094C64.1328 88.75 64.2943 88.4375 64.5078 88.1719C64.7266 87.9062 64.9974 87.6953 65.3203 87.5391C65.6432 87.3828 66.0208 87.3047 66.4531 87.3047C66.9688 87.3047 67.3958 87.3906 67.7344 87.5625C68.0729 87.7292 68.3438 87.9609 68.5469 88.2578C68.75 88.5547 68.8906 88.9089 68.9688 89.3203C69.0521 89.7318 69.0938 90.1797 69.0938 90.6641H65.25ZM67.7188 89.6719C67.7083 89.4948 67.6771 89.3281 67.625 89.1719C67.5781 89.0104 67.5078 88.8698 67.4141 88.75C67.3203 88.6302 67.2005 88.5365 67.0547 88.4688C66.9089 88.3958 66.7344 88.3594 66.5312 88.3594C66.3281 88.3594 66.151 88.3932 66 88.4609C65.849 88.5286 65.7188 88.6224 65.6094 88.7422C65.5052 88.8568 65.4219 88.9948 65.3594 89.1562C65.3021 89.3177 65.2656 89.4896 65.25 89.6719H67.7188Z" fill="#3C3C3C"/>
<defs>
<filter id="filter0_d" x="0" y="0.684235" width="96" height="108.316" filterUnits="userSpaceOnUse" color-interpolation-filters="sRGB">
<feFlood flood-opacity="0" result="BackgroundImageFix"/>
<feColorMatrix in="SourceAlpha" type="matrix" values="0 0 0 0 0 0 0 0 0 0 0 0 0 0 0 0 0 0 127 0" result="hardAlpha"/>
<feOffset/>
<feGaussianBlur stdDeviation="4"/>
<feComposite in2="hardAlpha" operator="out"/>
<feColorMatrix type="matrix" values="0 0 0 0 0 0 0 0 0 0 0 0 0 0 0 0 0 0 0.25 0"/>
<feBlend mode="normal" in2="BackgroundImageFix" result="effect1_dropShadow"/>
<feBlend mode="normal" in="SourceGraphic" in2="effect1_dropShadow" result="shape"/>
</filter>
</defs>
</svg>
