<svg width="18" height="18" viewBox="0 0 18 18" fill="none" xmlns="http://www.w3.org/2000/svg">
<path d="M17.0001 13.0001L9.6001 16.1001V7.3001L17.0001 4.1001V13.0001Z" stroke="#29ABE2" stroke-miterlimit="10" stroke-linecap="round" stroke-linejoin="round"/>
<path d="M9.6001 16.1001V7.3001L2.1001 4.1001V9.2001" stroke="#29ABE2" stroke-miterlimit="10" stroke-linecap="round" stroke-linejoin="round"/>
<path d="M9.6001 7.3L2.1001 4.1L9.6001 1L17.0001 4.1L9.6001 7.3Z" stroke="#29ABE2" stroke-miterlimit="10" stroke-linecap="round" stroke-linejoin="round"/>
<path d="M6 2.6001L13.4 5.7001" stroke="#29ABE2" stroke-miterlimit="10" stroke-linecap="round" stroke-linejoin="round"/>
<path d="M7.4 13.9002C7.4 15.7002 6 17.1002 4.2 17.1002C2.4 17.1002 1 15.7002 1 13.9002C1 12.1002 2.4 10.7002 4.2 10.7002" stroke="#29ABE2" stroke-miterlimit="10" stroke-linecap="round" stroke-linejoin="round"/>
<path d="M14.9001 9.6001C14.9001 9.7001 14.9001 11.2001 14.9001 11.2001L13.4001 11.8001" stroke="#29ABE2" stroke-miterlimit="10" stroke-linecap="round" stroke-linejoin="round"/>
<path d="M3.1001 12.7002L5.4001 15.0002" stroke="#29ABE2" stroke-miterlimit="10" stroke-linecap="round" stroke-linejoin="round"/>
<path d="M5.4001 12.7002L3.1001 15.0002" stroke="#29ABE2" stroke-miterlimit="10" stroke-linecap="round" stroke-linejoin="round"/>
</svg>
