<svg width="16" height="16" viewBox="0 0 16 16" fill="none" xmlns="http://www.w3.org/2000/svg">
<g clip-path="url(#clip0_2465_89771)">
<path d="M15.8989 2.32711C15.8113 2.21765 15.6787 2.15393 15.5385 2.15393H3.25475L2.91125 0.665489C2.86291 0.456083 2.67644 0.307739 2.46153 0.307739H0.461531C0.206656 0.307739 0 0.514395 0 0.769302C0 1.02421 0.206656 1.23083 0.461531 1.23083H2.09437L4.426 11.3346C4.47431 11.544 4.66081 11.6924 4.87572 11.6924H14.1231C14.378 11.6924 14.5846 11.4857 14.5846 11.2308C14.5846 10.9759 14.3779 10.7693 14.1231 10.7693H5.24291L4.88791 9.23083H14.1539C14.3698 9.23083 14.5568 9.08121 14.6042 8.87061L15.9888 2.71677C16.0195 2.57996 15.9865 2.43661 15.8989 2.32711ZM13.7846 8.30774H4.67487L3.46778 3.07699H14.9615L13.7846 8.30774Z" fill="white" fill-opacity="0.8"/>
<path d="M6.76848 12.3076C5.83536 12.3076 5.07617 13.0668 5.07617 13.9999C5.07617 14.9331 5.83533 15.6922 6.76848 15.6922C7.70161 15.6922 8.4608 14.9331 8.4608 13.9999C8.4608 13.0668 7.70164 12.3076 6.76848 12.3076ZM6.76848 14.7692C6.34433 14.7692 5.99927 14.4241 5.99927 13.9999C5.99927 13.5758 6.34433 13.2307 6.76848 13.2307C7.19264 13.2307 7.5377 13.5758 7.5377 13.9999C7.5377 14.4241 7.19264 14.7692 6.76848 14.7692Z" fill="white" fill-opacity="0.8"/>
<path d="M12.3075 12.3077C11.3744 12.3077 10.6152 13.0669 10.6152 14.0001C10.6152 14.9332 11.3744 15.6924 12.3075 15.6924C13.2407 15.6924 13.9999 14.9332 13.9999 14.0001C13.9999 13.0669 13.2407 12.3077 12.3075 12.3077ZM12.3075 14.7693C11.8834 14.7693 11.5383 14.4242 11.5383 14.0001C11.5383 13.5759 11.8834 13.2309 12.3075 13.2309C12.7317 13.2309 13.0768 13.5759 13.0768 14.0001C13.0768 14.4242 12.7317 14.7693 12.3075 14.7693Z" fill="white" fill-opacity="0.8"/>
</g>
<defs>
<clipPath id="clip0_2465_89771">
<rect width="16" height="16" fill="white"/>
</clipPath>
</defs>
</svg>
