<svg width="16" height="17" viewBox="0 0 16 17" fill="none" xmlns="http://www.w3.org/2000/svg">
<g clip-path="url(#clip0_2465_89769)">
<path d="M7.86639 0H8.13122C8.17006 0.0528378 8.23451 0.0506176 8.28703 0.0723743C10.7265 1.08118 13.1662 2.08924 15.6062 3.09656C15.8763 3.20801 16.0008 3.39938 16.0003 3.69864C15.9965 6.90443 15.9956 10.1099 15.9977 13.3151C15.9977 13.6357 15.8935 13.7947 15.6027 13.915C13.1635 14.9229 10.7241 15.931 8.28438 16.9392C8.19406 16.9796 8.09632 17.0004 7.99748 17.0004C7.89864 17.0004 7.80089 16.9796 7.71057 16.9392C5.27762 15.9301 2.8435 14.9236 0.408194 13.9199C0.101427 13.7933 -0.000976562 13.645 -0.000976562 13.3156C-0.000976562 10.1104 -0.000976562 6.90488 -0.000976562 3.69909C-0.000976562 3.3754 0.101428 3.22044 0.392305 3.10011C2.33001 2.30089 4.26772 1.50062 6.20543 0.699323C6.7607 0.470656 7.31288 0.232664 7.86639 0ZM14.9388 4.4699C14.892 4.48411 14.8708 4.48899 14.8505 4.49698C12.7816 5.35216 10.7119 6.20659 8.64147 7.06028C8.53465 7.10468 8.52538 7.16418 8.52538 7.25964C8.52744 10.017 8.52744 12.7745 8.52538 15.5321V15.6839C8.58232 15.6608 8.61763 15.6471 8.6525 15.6324C10.6917 14.7897 12.7314 13.9477 14.7715 13.1064C14.8955 13.0558 14.941 12.9985 14.941 12.8587C14.936 10.1235 14.9347 7.38826 14.937 4.65283L14.9388 4.4699ZM4.49151 5.87831V6.0759C4.49151 6.76812 4.49151 7.46034 4.49151 8.15211C4.49151 8.36657 4.42133 8.54507 4.23727 8.66051C4.16143 8.71211 4.07277 8.74136 3.98128 8.74497C3.8898 8.74858 3.79913 8.7264 3.71951 8.68094C3.6301 8.63697 3.55537 8.56773 3.50449 8.48169C3.45361 8.39564 3.42878 8.29654 3.43305 8.19652C3.43305 7.32713 3.43305 6.4582 3.43305 5.58882C3.43305 5.49024 3.41716 5.42986 3.31343 5.38812C2.60103 5.09951 1.89171 4.8072 1.18548 4.51119C1.07955 4.46679 1.05748 4.48322 1.05748 4.596C1.05983 7.36991 1.05983 10.1437 1.05748 12.9173C1.05748 13.011 1.08882 13.0505 1.17136 13.0851C3.09024 13.8743 5.00808 14.6649 6.9249 15.457L7.46428 15.6791C7.46869 15.6515 7.47046 15.6462 7.47046 15.6409C7.47046 12.8338 7.47193 10.0269 7.47487 7.22013C7.47487 7.11889 7.43073 7.08959 7.35261 7.05806C6.79881 6.8325 6.2456 6.60502 5.69297 6.37561C5.29616 6.21266 4.902 6.04837 4.49151 5.87831ZM14.1341 3.64225C13.1582 3.23953 12.2101 2.84924 11.2651 2.4554C11.1909 2.42477 11.1402 2.4554 11.081 2.48116L6.9964 4.27364L5.25644 5.03602C5.32088 5.06665 5.36414 5.08974 5.4096 5.10839C6.22573 5.4454 7.04275 5.78019 7.858 6.12075C7.90122 6.14146 7.94843 6.15244 7.9963 6.1529C8.04418 6.15336 8.09158 6.14329 8.13519 6.12341C9.79188 5.43519 11.4495 4.74978 13.1079 4.06718L14.1341 3.64225ZM1.87361 3.63959C1.92658 3.66401 1.95571 3.67866 1.98529 3.69065C2.56307 3.93042 3.14217 4.16664 3.71775 4.41129C3.76829 4.43573 3.82365 4.44842 3.87974 4.44842C3.93582 4.44842 3.99119 4.43573 4.04173 4.41129C5.89557 3.594 7.74942 2.77894 9.60326 1.9661L9.83146 1.86442C9.21749 1.61044 8.6397 1.37201 8.0659 1.13224C8.00233 1.1056 7.95025 1.13002 7.89331 1.15355C7.50842 1.31384 7.1222 1.47102 6.73686 1.62998L1.87361 3.63959Z" fill="white" fill-opacity="0.8"/>
</g>
<defs>
<clipPath id="clip0_2465_89769">
<rect width="16" height="17" fill="white"/>
</clipPath>
</defs>
</svg>
