<svg width="16" height="17" viewBox="0 0 16 17" fill="none" xmlns="http://www.w3.org/2000/svg">
<g clip-path="url(#clip0_2465_89787)">
<path d="M15.5007 7.87987C15.4617 7.75312 15.4393 7.62169 15.434 7.48898C15.429 7.4323 15.4241 7.37352 15.4163 7.31684C15.3026 6.50093 15.0614 5.70884 14.702 4.97066C14.3472 4.24075 13.8857 3.57001 13.3332 2.98137C12.7814 2.39097 12.1449 1.88927 11.4455 1.49339C10.7367 1.09139 9.96957 0.807078 9.17299 0.65115C8.89272 0.594129 8.60938 0.554033 8.32447 0.53107H8.31499C8.30118 0.532098 8.28732 0.529825 8.27452 0.524431C8.26172 0.519037 8.25033 0.510671 8.24126 0.5H7.03108C7.02253 0.511521 7.01134 0.520724 6.99848 0.526801C6.98562 0.532877 6.9715 0.53564 6.95735 0.534848C6.95063 0.535269 6.94389 0.535269 6.93717 0.534848H6.91904C5.42192 0.678757 3.99702 1.2587 2.8144 2.20547C1.86771 2.95639 1.1035 3.91955 0.581046 5.02021C0.530431 5.12292 0.502977 5.23587 0.500696 5.35079C0.498416 5.46572 0.521363 5.5797 0.567862 5.68442C0.614687 5.78515 0.683062 5.87391 0.767957 5.94417C0.852853 6.01443 0.952111 6.06441 1.05844 6.09043C1.11634 6.10543 1.17582 6.11318 1.23557 6.11352C1.51484 6.11352 1.76486 5.93298 1.92056 5.61767C3.02941 3.3794 5.22199 1.98924 7.64317 1.98924C8.24485 1.98958 8.84361 2.07435 9.42261 2.24116C10.2298 2.4721 10.9827 2.86745 11.6358 3.40333C12.2719 3.92404 12.8048 4.56356 13.206 5.28766C13.6106 6.01016 13.8763 6.80476 13.9886 7.62879C14.1034 8.47569 14.0486 9.33751 13.8275 10.1622C13.4884 11.4666 12.7617 12.6321 11.747 13.4988C10.7251 14.3622 9.4664 14.8824 8.14323 14.9885C7.95911 15.0045 7.77251 15.0124 7.5921 15.0124C6.44741 15.0124 5.34762 14.6925 4.32362 14.0615C3.27738 13.4166 2.4581 12.4975 1.88844 11.3324C1.75374 11.0569 1.50783 10.8928 1.22939 10.8928C1.11169 10.8928 0.995709 10.9216 0.891208 10.9768C0.524611 11.169 0.396924 11.5981 0.585576 11.997C0.975651 12.8178 1.46252 13.5224 2.03301 14.0908C3.63739 15.6897 5.49302 16.5 7.54308 16.5C8.13997 16.4976 8.73512 16.4343 9.31963 16.3111C10.101 16.1481 10.8519 15.8591 11.5439 15.455C12.2275 15.0567 12.8481 14.5555 13.3847 13.9682C13.9226 13.3819 14.3714 12.7167 14.716 11.9949C15.0653 11.2661 15.3002 10.4858 15.4121 9.68274C15.4195 9.6311 15.4237 9.57736 15.4278 9.5253C15.4316 9.39751 15.4551 9.27113 15.4974 9.15078L15.5007 7.87987Z" fill="white" fill-opacity="0.8"/>
<path d="M8.61275 11.7446C8.81289 11.7431 9.00431 11.661 9.14534 11.5162C9.75908 10.8998 10.3671 10.2768 11.0401 9.58484C11.658 8.95212 11.658 8.06537 11.0455 7.42886C10.4499 6.80915 9.83446 6.18692 9.23967 5.58484L9.16264 5.50716C9.09079 5.43121 9.00495 5.37045 8.91002 5.32837C8.81509 5.2863 8.71295 5.26373 8.60945 5.26196C8.51559 5.26245 8.42275 5.2818 8.33624 5.3189C8.24973 5.356 8.17124 5.41013 8.10528 5.47819C8.0376 5.54432 7.98352 5.62353 7.94618 5.71118C7.90884 5.79883 7.88899 5.89319 7.88779 5.98874C7.8899 6.09691 7.913 6.20358 7.95578 6.3026C7.99855 6.40161 8.06014 6.49101 8.13699 6.56563C8.29077 6.72294 8.44469 6.8801 8.59874 7.03713C8.77215 7.21389 8.95175 7.39695 9.12722 7.57749C9.13363 7.5836 9.14037 7.58935 9.1474 7.59471C9.1683 7.60818 9.18558 7.62676 9.19766 7.64875C9.20974 7.67074 9.21625 7.69546 9.2166 7.72066V7.76265H6.65166C6.05439 7.76265 5.45713 7.76265 4.85986 7.76265C4.74639 7.75932 4.63363 7.78199 4.5299 7.82901C4.42617 7.87603 4.33412 7.94618 4.26054 8.0343C4.19233 8.1204 4.14397 8.221 4.11902 8.3287C4.09407 8.4364 4.09316 8.54843 4.11637 8.65653C4.18145 9.00208 4.48709 9.24434 4.8578 9.24434H6.81107H9.19189L9.20425 9.25987L9.23884 9.30186L9.26686 9.33671L9.2302 9.36274C9.21702 9.3724 9.20301 9.38121 9.18901 9.39045C9.16211 9.40625 9.13697 9.42497 9.11404 9.44629C8.72314 9.84138 8.40803 10.1601 8.12217 10.454C7.90138 10.6815 7.8363 10.9427 7.92939 11.2311C7.97431 11.38 8.06496 11.5103 8.18798 11.6027C8.31101 11.6952 8.45991 11.7449 8.61275 11.7446V11.7446Z" fill="white" fill-opacity="0.8"/>
</g>
<defs>
<clipPath id="clip0_2465_89787">
<rect width="15" height="16" fill="white" transform="translate(0.5 0.5)"/>
</clipPath>
</defs>
</svg>
