<svg width="111" height="34" viewBox="0 0 111 34" fill="none" xmlns="http://www.w3.org/2000/svg">
<g filter="url(#filter0_d_1_29)">
<rect x="2" y="2" width="107" height="30" rx="2" fill="#DB2127"/>
</g>
<path d="M24.9383 17.1089H29.3483C29.4114 17.1089 29.4746 17.1721 29.4746 17.2352V17.9916C29.4746 18.0547 29.4114 18.1179 29.3483 18.1179H24.9383C24.8751 18.1179 24.812 18.0547 24.812 17.9916V17.2352C24.8128 17.1721 24.8759 17.1089 24.9383 17.1089Z" fill="white"/>
<path d="M24.9376 15.0938H28.067C28.1302 15.0938 28.1934 15.1569 28.1934 15.2201V15.9764C28.1934 16.0396 28.1302 16.1027 28.067 16.1027H24.9385C24.8753 16.1027 24.8121 16.0396 24.8121 15.9764V15.2201C24.8121 15.1356 24.8753 15.0938 24.9376 15.0938H24.9376Z" fill="white"/>
<path d="M24.9386 13.0566H26.8073C26.8704 13.0566 26.9336 13.1198 26.9336 13.183V13.9393C26.9336 14.0025 26.8704 14.0656 26.8073 14.0656H24.9386C24.8754 14.0656 24.8123 14.0025 24.8123 13.9393V13.183C24.8131 13.119 24.8763 13.0566 24.9386 13.0566Z" fill="white"/>
<path d="M9.71202 16.3533L10.6357 13.5601C10.7194 13.3083 10.972 13.1188 11.2443 13.1188H14.1014V11.7751C14.1014 11.6069 14.2277 11.4814 14.3746 11.4814H23.4046C23.5514 11.4814 23.6777 11.6078 23.6777 11.7751V19.4187C23.6777 19.5655 23.5514 19.6919 23.4046 19.6919H22.0182C22.0182 20.7 21.1996 21.4982 20.2119 21.4982C19.2251 21.4982 18.4056 20.6795 18.4056 19.6919H14.8141C14.8141 20.7 13.9955 21.4982 13.0078 21.4982C12.021 21.4982 11.2015 20.6795 11.2015 19.6919H9.8381C9.66994 19.6919 9.5231 19.545 9.5231 19.3769V17.5705C9.5231 17.1513 9.58626 16.7519 9.71177 16.3532L9.71202 16.3533ZM20.212 20.5533C20.6739 20.5533 21.0734 20.1752 21.0734 19.692C21.0734 19.2302 20.6952 18.8306 20.212 18.8306C19.7502 18.8306 19.3507 19.2088 19.3507 19.692C19.3515 20.1752 19.7297 20.5533 20.212 20.5533ZM12.9884 20.5533C13.4503 20.5533 13.8498 20.1752 13.8498 19.692C13.8498 19.2302 13.4716 18.8306 12.9884 18.8306C12.5053 18.8315 12.1484 19.2301 12.1484 19.692C12.1484 20.1752 12.5266 20.5533 12.9884 20.5533ZM11.0148 15.9965H13.8284C13.9752 15.9965 14.0802 15.8915 14.0802 15.7447V14.3379C14.0802 14.191 13.9752 14.086 13.8284 14.086H11.6651C11.5601 14.086 11.4551 14.1492 11.4133 14.2542L10.8883 15.8292C10.867 15.912 10.9301 15.9965 11.0146 15.9965L11.0148 15.9965Z" fill="white"/>
<path d="M41.2402 21V14.1641L40.0586 15.2578L38.7207 14.0957C38.584 14.0892 38.4049 14.138 38.1836 14.2422C37.9688 14.3398 37.7604 14.5026 37.5586 14.7305C37.3568 14.9583 37.181 15.2513 37.0312 15.6094C36.888 15.9674 36.8164 16.3971 36.8164 16.8984C36.8164 17.5365 36.9043 18.0605 37.0801 18.4707C37.2559 18.8743 37.4772 19.1868 37.7441 19.4082C38.0111 19.6296 38.2975 19.7695 38.6035 19.8281C38.916 19.8867 39.209 19.8835 39.4824 19.8184V21C38.8835 21.0977 38.3366 21.0684 37.8418 20.9121C37.3535 20.7559 36.9336 20.4954 36.582 20.1309C36.237 19.7663 35.9701 19.3105 35.7812 18.7637C35.5924 18.2103 35.498 17.5885 35.498 16.8984C35.498 16.2669 35.5924 15.7005 35.7812 15.1992C35.9701 14.6914 36.2207 14.2682 36.5332 13.9297C36.8522 13.5846 37.2201 13.3275 37.6367 13.1582C38.0599 12.9889 38.5026 12.9173 38.9648 12.9434L40.0586 13.9004L41.1035 13.002H42.5391V21H41.2402ZM42.5391 11.1367C42.5391 11.4102 42.4642 11.6217 42.3145 11.7715C42.1647 11.9212 41.9531 11.9961 41.6797 11.9961H36.1035V10.9023H42.5391V11.1367ZM49.3457 21V14.1152L47.8418 14.0957C47.4772 14.0892 47.1257 14.1445 46.7871 14.2617C46.4551 14.3724 46.1589 14.5514 45.8984 14.7988C45.6445 15.0397 45.4395 15.3522 45.2832 15.7363C45.1335 16.1139 45.0586 16.5697 45.0586 17.1035C45.0586 17.6699 45.1432 18.1452 45.3125 18.5293C45.4883 18.9069 45.7064 19.2064 45.9668 19.4277C46.2337 19.6491 46.5234 19.7891 46.8359 19.8477C47.1484 19.9062 47.4447 19.8965 47.7246 19.8184V21C47.1842 21.1107 46.6732 21.1009 46.1914 20.9707C45.7096 20.8405 45.2865 20.6029 44.9219 20.2578C44.5573 19.9062 44.2676 19.457 44.0527 18.9102C43.8444 18.3568 43.7402 17.7188 43.7402 16.9961C43.7402 16.4557 43.8216 15.9414 43.9844 15.4531C44.1536 14.9648 44.3978 14.5384 44.7168 14.1738C45.0423 13.8027 45.4395 13.5098 45.9082 13.2949C46.3835 13.0801 46.9271 12.9759 47.5391 12.9824L50.6445 13.002V21H49.3457ZM57.5879 21V14.1641L56.4062 15.2578L55.0684 14.0957C54.9316 14.0892 54.7526 14.138 54.5312 14.2422C54.3164 14.3398 54.1081 14.5026 53.9062 14.7305C53.7044 14.9583 53.5286 15.2513 53.3789 15.6094C53.2357 15.9674 53.1641 16.3971 53.1641 16.8984C53.1641 17.5365 53.252 18.0605 53.4277 18.4707C53.6035 18.8743 53.8249 19.1868 54.0918 19.4082C54.3587 19.6296 54.6452 19.7695 54.9512 19.8281C55.2637 19.8867 55.5566 19.8835 55.8301 19.8184V21C55.2311 21.0977 54.6842 21.0684 54.1895 20.9121C53.7012 20.7559 53.2812 20.4954 52.9297 20.1309C52.5846 19.7663 52.3177 19.3105 52.1289 18.7637C51.9401 18.2103 51.8457 17.5885 51.8457 16.8984C51.8457 16.2669 51.9401 15.7005 52.1289 15.1992C52.3177 14.6914 52.5684 14.2682 52.8809 13.9297C53.1999 13.5846 53.5677 13.3275 53.9844 13.1582C54.4076 12.9889 54.8503 12.9173 55.3125 12.9434L56.4062 13.9004L57.4512 13.002H58.8867V21H57.5879ZM62.2461 21V16.4199C62.2461 16.1009 62.2168 15.8079 62.1582 15.541C62.0996 15.2676 62.002 15.0332 61.8652 14.8379C61.7285 14.6361 61.5462 14.4798 61.3184 14.3691C61.097 14.2585 60.8203 14.2031 60.4883 14.2031H59.8926V13.002H60.7715C61.2793 13.002 61.709 13.0866 62.0605 13.2559C62.4121 13.4186 62.6986 13.6465 62.9199 13.9395C63.1413 14.2259 63.3008 14.5645 63.3984 14.9551C63.5026 15.3392 63.5547 15.7526 63.5547 16.1953V21H62.2461ZM71.5332 18.5C71.5332 18.8385 71.4811 19.1673 71.377 19.4863C71.2793 19.7988 71.1263 20.0755 70.918 20.3164C70.7161 20.5573 70.4557 20.7526 70.1367 20.9023C69.8177 21.0456 69.4434 21.1172 69.0137 21.1172C68.4342 21.1172 67.9167 21.0195 67.4609 20.8242C67.0117 20.6289 66.6113 20.3262 66.2598 19.916V21H64.9609V13.002H65.459C65.9928 13.002 66.2598 13.2949 66.2598 13.8809V17.9824C66.2598 18.2298 66.3151 18.4837 66.4258 18.7441C66.5365 18.998 66.6895 19.2292 66.8848 19.4375C67.0866 19.6458 67.3242 19.8184 67.5977 19.9551C67.8711 20.0918 68.1706 20.1602 68.4961 20.1602C69.0625 20.1602 69.4922 19.9876 69.7852 19.6426C70.0846 19.291 70.2344 18.8092 70.2344 18.1973V13.002H71.5332V18.5ZM79.7461 12.3965C79.707 12.6178 79.5996 12.8424 79.4238 13.0703C79.248 13.2917 79.0104 13.4674 78.7109 13.5977C79.2122 14.0404 79.4629 14.6133 79.4629 15.3164V21H78.1641V17.6602C78.1185 17.5625 78.0371 17.4583 77.9199 17.3477C77.8092 17.2305 77.666 17.123 77.4902 17.0254C77.321 16.9212 77.1224 16.8366 76.8945 16.7715C76.6732 16.6999 76.429 16.6641 76.1621 16.6641C75.8626 16.6641 75.5827 16.7064 75.3223 16.791C75.0618 16.8757 74.834 16.9961 74.6387 17.1523C74.4499 17.3086 74.3001 17.4974 74.1895 17.7188C74.0788 17.9336 74.0234 18.1745 74.0234 18.4414C74.0234 18.7539 74.0885 19.0208 74.2188 19.2422C74.3555 19.457 74.5312 19.623 74.7461 19.7402C74.9609 19.8574 75.2018 19.929 75.4688 19.9551C75.7422 19.9746 76.0156 19.9486 76.2891 19.877V21.0195C75.8398 21.1042 75.4036 21.1204 74.9805 21.0684C74.5573 21.0228 74.1797 20.8991 73.8477 20.6973C73.5156 20.4954 73.2487 20.209 73.0469 19.8379C72.8451 19.4668 72.7441 19.0013 72.7441 18.4414C72.7441 18.0312 72.8223 17.6504 72.9785 17.2988C73.1413 16.9408 73.3659 16.6348 73.6523 16.3809C73.9388 16.1204 74.2773 15.9154 74.668 15.7656C75.0586 15.6159 75.485 15.541 75.9473 15.541C76.2598 15.541 76.543 15.5671 76.7969 15.6191C77.0573 15.6712 77.2819 15.7331 77.4707 15.8047C77.6595 15.8763 77.8125 15.9479 77.9297 16.0195C78.0469 16.0911 78.125 16.1497 78.1641 16.1953V15.4824C78.1641 15.209 78.1087 14.9746 77.998 14.7793C77.8939 14.584 77.7507 14.4245 77.5684 14.3008C77.3861 14.1706 77.1777 14.0762 76.9434 14.0176C76.709 13.9525 76.4648 13.9199 76.2109 13.9199C75.9701 13.9199 75.7389 13.9492 75.5176 14.0078C75.3027 14.0599 75.1074 14.1413 74.9316 14.252C74.7624 14.3561 74.6159 14.4896 74.4922 14.6523C74.375 14.8086 74.2936 14.9909 74.248 15.1992H72.8906C72.9232 14.8802 73.0241 14.5775 73.1934 14.291C73.3626 14.0046 73.5872 13.7539 73.8672 13.5391C74.1536 13.3242 74.4889 13.1549 74.873 13.0312C75.2637 12.901 75.6934 12.8359 76.1621 12.8359C76.4746 12.8359 76.7643 12.8587 77.0312 12.9043C77.3047 12.9434 77.5553 13.002 77.7832 13.0801C77.9134 12.9824 78.0046 12.8717 78.0566 12.748C78.1152 12.6178 78.151 12.5007 78.1641 12.3965H79.7461ZM79.4727 11.1367C79.4727 11.4102 79.3978 11.6217 79.248 11.7715C79.0983 11.9212 78.8867 11.9961 78.6133 11.9961H73.0371V10.9023H79.4727V11.1367ZM86.1523 21V19.916C85.8008 20.3262 85.4004 20.6289 84.9512 20.8242C84.502 21.0195 83.9844 21.1172 83.3984 21.1172C82.9688 21.1172 82.5944 21.0456 82.2754 20.9023C81.9629 20.7526 81.7025 20.5573 81.4941 20.3164C81.2858 20.0755 81.1296 19.7988 81.0254 19.4863C80.9277 19.1673 80.8789 18.8385 80.8789 18.5V13.002H81.377C81.9108 13.002 82.1777 13.2949 82.1777 13.8809V18.1973C82.1777 18.8092 82.3242 19.291 82.6172 19.6426C82.9167 19.9876 83.3496 20.1602 83.916 20.1602C84.2415 20.1602 84.541 20.0918 84.8145 19.9551C85.0879 19.8184 85.3223 19.6458 85.5176 19.4375C85.7194 19.2292 85.8757 18.998 85.9863 18.7441C86.097 18.4837 86.1523 18.2298 86.1523 17.9824V13.002H87.4512V21H86.1523ZM94.1406 21V15.6582C94.1406 15.3457 94.082 15.082 93.9648 14.8672C93.8542 14.6458 93.7044 14.4668 93.5156 14.3301C93.3333 14.1868 93.1217 14.0827 92.8809 14.0176C92.64 13.9525 92.3958 13.9199 92.1484 13.9199C91.901 13.9199 91.6569 13.9525 91.416 14.0176C91.1816 14.0827 90.9701 14.1868 90.7812 14.3301C90.599 14.4668 90.4492 14.6458 90.332 14.8672C90.2214 15.082 90.166 15.3457 90.166 15.6582V16.5176H92.041V17.6797H90.166V21H88.8672V15.4824C88.8672 15.1374 88.9355 14.8053 89.0723 14.4863C89.2155 14.1673 89.4238 13.8874 89.6973 13.6465C89.9707 13.3991 90.3125 13.2038 90.7227 13.0605C91.1328 12.9108 91.6081 12.8359 92.1484 12.8359C92.6953 12.8359 93.1738 12.9108 93.584 13.0605C93.9941 13.2038 94.3359 13.3991 94.6094 13.6465C94.8828 13.8874 95.0879 14.1673 95.2246 14.4863C95.3678 14.8053 95.4395 15.1374 95.4395 15.4824V21H94.1406ZM92.6758 11.9961V11.1562C92.6758 11.0195 92.6367 10.9089 92.5586 10.8242C92.4805 10.7396 92.373 10.6973 92.2363 10.6973H92.0898V9.70117H93.0371C93.2454 9.70117 93.418 9.72721 93.5547 9.7793C93.6849 9.82487 93.7891 9.88997 93.8672 9.97461C93.9453 10.0527 94.0007 10.1471 94.0332 10.2578C94.0592 10.3685 94.0723 10.4824 94.0723 10.5996V10.9023H97.0898V11.9961H92.6758ZM98.8086 21V16.4199C98.8086 16.1009 98.7793 15.8079 98.7207 15.541C98.6621 15.2676 98.5645 15.0332 98.4277 14.8379C98.291 14.6361 98.1087 14.4798 97.8809 14.3691C97.6595 14.2585 97.3828 14.2031 97.0508 14.2031H96.4551V13.002H97.334C97.8418 13.002 98.2715 13.0866 98.623 13.2559C98.9746 13.4186 99.2611 13.6465 99.4824 13.9395C99.7038 14.2259 99.8633 14.5645 99.9609 14.9551C100.065 15.3392 100.117 15.7526 100.117 16.1953V21H98.8086Z" fill="white"/>
<defs>
<filter id="filter0_d_1_29" x="0" y="0" width="111" height="34" filterUnits="userSpaceOnUse" color-interpolation-filters="sRGB">
<feFlood flood-opacity="0" result="BackgroundImageFix"/>
<feColorMatrix in="SourceAlpha" type="matrix" values="0 0 0 0 0 0 0 0 0 0 0 0 0 0 0 0 0 0 127 0" result="hardAlpha"/>
<feOffset/>
<feGaussianBlur stdDeviation="1"/>
<feComposite in2="hardAlpha" operator="out"/>
<feColorMatrix type="matrix" values="0 0 0 0 0 0 0 0 0 0 0 0 0 0 0 0 0 0 0.25 0"/>
<feBlend mode="normal" in2="BackgroundImageFix" result="effect1_dropShadow_1_29"/>
<feBlend mode="normal" in="SourceGraphic" in2="effect1_dropShadow_1_29" result="shape"/>
</filter>
</defs>
</svg>
