<svg width="111" height="34" viewBox="0 0 111 34" fill="none" xmlns="http://www.w3.org/2000/svg">
<g filter="url(#filter0_d_1_29)">
<rect x="2" y="2" width="107" height="30" rx="2" fill="#DB2127"/>
</g>
<path d="M22.9383 17.1089H27.3483C27.4114 17.1089 27.4746 17.1721 27.4746 17.2352V17.9916C27.4746 18.0547 27.4114 18.1179 27.3483 18.1179H22.9383C22.8751 18.1179 22.812 18.0547 22.812 17.9916V17.2352C22.8128 17.1721 22.8759 17.1089 22.9383 17.1089Z" fill="white"/>
<path d="M22.9376 15.0938H26.067C26.1302 15.0938 26.1934 15.1569 26.1934 15.2201V15.9764C26.1934 16.0396 26.1302 16.1027 26.067 16.1027H22.9385C22.8753 16.1027 22.8121 16.0396 22.8121 15.9764V15.2201C22.8121 15.1356 22.8753 15.0938 22.9376 15.0938H22.9376Z" fill="white"/>
<path d="M22.9386 13.0566H24.8073C24.8704 13.0566 24.9336 13.1198 24.9336 13.183V13.9393C24.9336 14.0025 24.8704 14.0656 24.8073 14.0656H22.9386C22.8754 14.0656 22.8123 14.0025 22.8123 13.9393V13.183C22.8131 13.119 22.8763 13.0566 22.9386 13.0566Z" fill="white"/>
<path d="M7.71202 16.3533L8.63568 13.5601C8.71935 13.3083 8.97202 13.1188 9.24435 13.1188H12.1014V11.7751C12.1014 11.6069 12.2277 11.4814 12.3746 11.4814H21.4046C21.5514 11.4814 21.6777 11.6078 21.6777 11.7751V19.4187C21.6777 19.5655 21.5514 19.6919 21.4046 19.6919H20.0182C20.0182 20.7 19.1996 21.4982 18.2119 21.4982C17.2251 21.4982 16.4056 20.6795 16.4056 19.6919H12.8141C12.8141 20.7 11.9955 21.4982 11.0078 21.4982C10.021 21.4982 9.20146 20.6795 9.20146 19.6919H7.8381C7.66994 19.6919 7.5231 19.545 7.5231 19.3769V17.5705C7.5231 17.1513 7.58626 16.7519 7.71177 16.3532L7.71202 16.3533ZM18.212 20.5533C18.6739 20.5533 19.0734 20.1752 19.0734 19.692C19.0734 19.2302 18.6952 18.8306 18.212 18.8306C17.7502 18.8306 17.3507 19.2088 17.3507 19.692C17.3515 20.1752 17.7297 20.5533 18.212 20.5533ZM10.9884 20.5533C11.4503 20.5533 11.8498 20.1752 11.8498 19.692C11.8498 19.2302 11.4716 18.8306 10.9884 18.8306C10.5053 18.8315 10.1484 19.2301 10.1484 19.692C10.1484 20.1752 10.5266 20.5533 10.9884 20.5533ZM9.01477 15.9965H11.8284C11.9752 15.9965 12.0802 15.8915 12.0802 15.7447V14.3379C12.0802 14.191 11.9752 14.086 11.8284 14.086H9.66514C9.56014 14.086 9.45514 14.1492 9.41331 14.2542L8.88831 15.8292C8.86698 15.912 8.93015 15.9965 9.01464 15.9965L9.01477 15.9965Z" fill="white"/>
<path d="M33.4238 12.7578V21H32.0762V12.7578H29.1367V11.5762H36.3633V12.7578H33.4238ZM41.4219 15.1797C41.3112 15.1276 41.194 15.0951 41.0703 15.082C40.9466 15.069 40.8294 15.0625 40.7188 15.0625C40.4388 15.0625 40.1816 15.1276 39.9473 15.2578C39.7194 15.388 39.5241 15.5736 39.3613 15.8145C39.1986 16.0553 39.0716 16.3483 38.9805 16.6934C38.8893 17.0384 38.8438 17.4258 38.8438 17.8555V21H37.584V14.1152H38.7559V15.1797H38.8047C38.8893 14.9974 38.9935 14.8314 39.1172 14.6816C39.2474 14.5319 39.3906 14.4049 39.5469 14.3008C39.7031 14.1901 39.8691 14.1055 40.0449 14.0469C40.2272 13.9883 40.4128 13.959 40.6016 13.959C40.7839 13.959 40.9336 13.9688 41.0508 13.9883C41.168 14.0013 41.2917 14.0176 41.4219 14.0371V15.1797ZM47.0762 21V20.1016H47.0566C46.9785 20.2057 46.8776 20.3197 46.7539 20.4434C46.6302 20.5671 46.4805 20.681 46.3047 20.7852C46.1289 20.8893 45.9238 20.9772 45.6895 21.0488C45.4616 21.1204 45.2044 21.1562 44.918 21.1562C44.5469 21.1562 44.2051 21.1139 43.8926 21.0293C43.5866 20.9512 43.3197 20.8275 43.0918 20.6582C42.8704 20.4824 42.6979 20.2611 42.5742 19.9941C42.4505 19.7207 42.3887 19.3952 42.3887 19.0176C42.3887 18.5814 42.4928 18.2201 42.7012 17.9336C42.916 17.6406 43.1829 17.4062 43.502 17.2305C43.821 17.0547 44.166 16.931 44.5371 16.8594C44.9147 16.7812 45.2663 16.7422 45.5918 16.7422C45.8392 16.7422 46.0638 16.7454 46.2656 16.752C46.474 16.752 46.7018 16.7617 46.9492 16.7812C46.9492 16.1823 46.8223 15.7331 46.5684 15.4336C46.3145 15.1341 45.8685 14.9844 45.2305 14.9844C44.8854 14.9844 44.5306 15.0462 44.166 15.1699C43.8079 15.2871 43.5052 15.4564 43.2578 15.6777L43.1699 14.6035C43.4954 14.4147 43.847 14.2617 44.2246 14.1445C44.6022 14.0208 45.0124 13.959 45.4551 13.959C45.9434 13.959 46.36 14.0208 46.7051 14.1445C47.0566 14.2617 47.3431 14.4408 47.5645 14.6816C47.7858 14.916 47.9486 15.2122 48.0527 15.5703C48.1569 15.9219 48.209 16.332 48.209 16.8008V19.6621C48.209 20.0527 48.2155 20.349 48.2285 20.5508C48.2415 20.7526 48.2578 20.9023 48.2773 21H47.0762ZM46.9492 17.7188C46.8125 17.7188 46.6758 17.7155 46.5391 17.709C46.4089 17.7025 46.2721 17.6992 46.1289 17.6992C46.0182 17.6992 45.8815 17.7057 45.7188 17.7188C45.556 17.7253 45.3867 17.7448 45.2109 17.7773C45.0352 17.8034 44.8594 17.8457 44.6836 17.9043C44.5143 17.9564 44.3581 18.0312 44.2148 18.1289C44.0781 18.2266 43.9674 18.3503 43.8828 18.5C43.7982 18.6432 43.7559 18.8158 43.7559 19.0176C43.7559 19.1999 43.7949 19.3626 43.873 19.5059C43.9512 19.6426 44.0521 19.7598 44.1758 19.8574C44.2995 19.9486 44.4362 20.0202 44.5859 20.0723C44.7357 20.1178 44.8854 20.1406 45.0352 20.1406C45.3477 20.1406 45.6211 20.0951 45.8555 20.0039C46.0964 19.9128 46.2949 19.7858 46.4512 19.623C46.6139 19.4603 46.7376 19.2682 46.8223 19.0469C46.9069 18.8255 46.9492 18.5846 46.9492 18.3242V17.7188ZM54.8887 20.8828C54.6152 21 54.3385 21.0749 54.0586 21.1074C53.7786 21.14 53.5247 21.1562 53.2969 21.1562C52.776 21.1562 52.3008 21.0618 51.8711 20.873C51.4414 20.6777 51.0703 20.4173 50.7578 20.0918C50.4518 19.7663 50.2142 19.3854 50.0449 18.9492C49.8757 18.513 49.791 18.0508 49.791 17.5625C49.791 17.0352 49.8757 16.5534 50.0449 16.1172C50.2142 15.6745 50.4518 15.2936 50.7578 14.9746C51.0638 14.6556 51.4316 14.4082 51.8613 14.2324C52.291 14.0501 52.7695 13.959 53.2969 13.959C53.5573 13.959 53.8307 13.985 54.1172 14.0371C54.4102 14.0892 54.6478 14.151 54.8301 14.2227L54.7324 15.2773C54.2311 15.082 53.7721 14.9844 53.3555 14.9844C52.9974 14.9844 52.6784 15.0592 52.3984 15.209C52.125 15.3522 51.8939 15.5443 51.7051 15.7852C51.5163 16.0195 51.373 16.293 51.2754 16.6055C51.1777 16.9115 51.1289 17.2305 51.1289 17.5625C51.1289 17.8685 51.1712 18.1745 51.2559 18.4805C51.3405 18.7865 51.474 19.0632 51.6562 19.3105C51.8451 19.5579 52.0859 19.7598 52.3789 19.916C52.6719 20.0658 53.0234 20.1406 53.4336 20.1406C53.6419 20.1406 53.8698 20.1081 54.1172 20.043C54.3646 19.9714 54.5892 19.8704 54.791 19.7402L54.8887 20.8828ZM60.6895 21L57.6133 17.4648V21H56.3535V10.8828H57.6133V16.8984L60.3867 14.1152H62.1055L58.9121 17.1621L62.5059 21H60.6895ZM75.7969 17.5625C75.7969 18.0508 75.7122 18.513 75.543 18.9492C75.3737 19.3854 75.1361 19.7663 74.8301 20.0918C74.5241 20.4173 74.1562 20.6777 73.7266 20.873C73.3034 21.0618 72.8346 21.1562 72.3203 21.1562C71.7995 21.1562 71.321 21.0618 70.8848 20.873C70.4551 20.6777 70.084 20.4173 69.7715 20.0918C69.4655 19.7663 69.2246 19.3854 69.0488 18.9492C68.8796 18.513 68.7949 18.0508 68.7949 17.5625C68.7949 17.0352 68.8796 16.5534 69.0488 16.1172C69.2181 15.6745 69.4557 15.2936 69.7617 14.9746C70.0677 14.6556 70.4388 14.4082 70.875 14.2324C71.3112 14.0501 71.793 13.959 72.3203 13.959C72.8411 13.959 73.3132 14.0501 73.7363 14.2324C74.166 14.4082 74.5339 14.6556 74.8398 14.9746C75.1458 15.2936 75.3802 15.6745 75.543 16.1172C75.7122 16.5534 75.7969 17.0352 75.7969 17.5625ZM74.459 17.5625C74.459 17.2305 74.4102 16.9115 74.3125 16.6055C74.2148 16.293 74.0749 16.0195 73.8926 15.7852C73.7103 15.5443 73.4857 15.3522 73.2188 15.209C72.9518 15.0592 72.6523 14.9844 72.3203 14.9844C71.9753 14.9844 71.6693 15.0592 71.4023 15.209C71.1354 15.3522 70.9076 15.5443 70.7188 15.7852C70.5365 16.0195 70.3965 16.293 70.2988 16.6055C70.2077 16.9115 70.1621 17.2305 70.1621 17.5625C70.1621 17.8685 70.2044 18.1745 70.2891 18.4805C70.3737 18.7865 70.5039 19.0632 70.6797 19.3105C70.8555 19.5579 71.0768 19.7598 71.3438 19.916C71.6172 20.0658 71.9427 20.1406 72.3203 20.1406C72.6914 20.1406 73.0104 20.0658 73.2773 19.916C73.5443 19.7598 73.7656 19.5579 73.9414 19.3105C74.1172 19.0632 74.2474 18.7865 74.332 18.4805C74.4167 18.1745 74.459 17.8685 74.459 17.5625ZM81.3438 15.1797C81.2331 15.1276 81.1159 15.0951 80.9922 15.082C80.8685 15.069 80.7513 15.0625 80.6406 15.0625C80.3607 15.0625 80.1035 15.1276 79.8691 15.2578C79.6413 15.388 79.446 15.5736 79.2832 15.8145C79.1204 16.0553 78.9935 16.3483 78.9023 16.6934C78.8112 17.0384 78.7656 17.4258 78.7656 17.8555V21H77.5059V14.1152H78.6777V15.1797H78.7266C78.8112 14.9974 78.9154 14.8314 79.0391 14.6816C79.1693 14.5319 79.3125 14.4049 79.4688 14.3008C79.625 14.1901 79.791 14.1055 79.9668 14.0469C80.1491 13.9883 80.3346 13.959 80.5234 13.959C80.7057 13.959 80.8555 13.9688 80.9727 13.9883C81.0898 14.0013 81.2135 14.0176 81.3438 14.0371V15.1797ZM87.6523 21V20.0234H87.6133C87.5286 20.1536 87.4147 20.2871 87.2715 20.4238C87.1348 20.554 86.9688 20.6745 86.7734 20.7852C86.5781 20.8958 86.3568 20.9837 86.1094 21.0488C85.862 21.1204 85.5853 21.1562 85.2793 21.1562C84.7585 21.1562 84.3092 21.0521 83.9316 20.8438C83.5605 20.6289 83.2546 20.349 83.0137 20.0039C82.7728 19.6589 82.5938 19.2617 82.4766 18.8125C82.3659 18.3633 82.3105 17.9043 82.3105 17.4355C82.3105 16.9733 82.3724 16.5339 82.4961 16.1172C82.6198 15.694 82.8053 15.3229 83.0527 15.0039C83.3001 14.6849 83.6094 14.431 83.9805 14.2422C84.3581 14.0534 84.7975 13.959 85.2988 13.959C85.5983 13.959 85.8652 13.9883 86.0996 14.0469C86.3405 14.099 86.5521 14.1738 86.7344 14.2715C86.9232 14.3691 87.0859 14.4863 87.2227 14.623C87.3594 14.7533 87.4766 14.8997 87.5742 15.0625H87.5938V10.8828H88.8535V21H87.6523ZM87.5938 17.582C87.5938 17.2565 87.5514 16.9408 87.4668 16.6348C87.3887 16.3223 87.265 16.0456 87.0957 15.8047C86.9264 15.5573 86.7116 15.3587 86.4512 15.209C86.1973 15.0592 85.8978 14.9844 85.5527 14.9844C85.2077 14.9844 84.9147 15.0592 84.6738 15.209C84.4395 15.3587 84.2474 15.554 84.0977 15.7949C83.9479 16.0358 83.8405 16.3092 83.7754 16.6152C83.7103 16.9212 83.6777 17.2305 83.6777 17.543C83.6777 17.8099 83.7135 18.0964 83.7852 18.4023C83.8568 18.7083 83.9674 18.9915 84.1172 19.252C84.2669 19.5059 84.4622 19.7174 84.7031 19.8867C84.944 20.056 85.2337 20.1406 85.5723 20.1406C85.9303 20.1406 86.2363 20.0625 86.4902 19.9062C86.7441 19.7435 86.9525 19.5384 87.1152 19.291C87.278 19.0436 87.3984 18.7702 87.4766 18.4707C87.5547 18.1647 87.5938 17.8685 87.5938 17.582ZM91.9199 17.8359C91.9199 18.181 91.9818 18.4935 92.1055 18.7734C92.2292 19.0534 92.3919 19.2975 92.5938 19.5059C92.8021 19.7077 93.043 19.8639 93.3164 19.9746C93.5898 20.0853 93.8763 20.1406 94.1758 20.1406C94.3841 20.1406 94.5957 20.1178 94.8105 20.0723C95.0319 20.0202 95.237 19.9583 95.4258 19.8867C95.6211 19.8151 95.7936 19.7402 95.9434 19.6621C96.0996 19.5775 96.2168 19.5026 96.2949 19.4375V20.7168C96.1777 20.7624 96.0508 20.8112 95.9141 20.8633C95.7773 20.9154 95.6243 20.9609 95.4551 21C95.2858 21.0456 95.0905 21.0814 94.8691 21.1074C94.6543 21.14 94.4036 21.1562 94.1172 21.1562C93.5052 21.1562 92.9746 21.0684 92.5254 20.8926C92.0827 20.7168 91.7148 20.4661 91.4219 20.1406C91.1289 19.8151 90.9108 19.4245 90.7676 18.9688C90.6243 18.5065 90.5527 17.9954 90.5527 17.4355C90.5527 16.9277 90.6276 16.4622 90.7773 16.0391C90.9336 15.6094 91.1517 15.2415 91.4316 14.9355C91.7181 14.6296 92.0599 14.3919 92.457 14.2227C92.8542 14.0469 93.2936 13.959 93.7754 13.959C94.3483 13.959 94.8301 14.0566 95.2207 14.252C95.6113 14.4473 95.9238 14.7207 96.1582 15.0723C96.3991 15.4173 96.5684 15.8275 96.666 16.3027C96.7702 16.7715 96.8223 17.2826 96.8223 17.8359H91.9199ZM95.4746 16.8984C95.4746 16.638 95.4355 16.3906 95.3574 16.1562C95.2858 15.9219 95.1751 15.7201 95.0254 15.5508C94.8822 15.375 94.7031 15.2383 94.4883 15.1406C94.2734 15.0365 94.0293 14.9844 93.7559 14.9844C93.4434 14.9844 93.1764 15.043 92.9551 15.1602C92.7337 15.2708 92.5482 15.4206 92.3984 15.6094C92.2552 15.7917 92.1445 15.9967 92.0664 16.2246C91.9883 16.4525 91.9395 16.6771 91.9199 16.8984H95.4746ZM102.359 15.1797C102.249 15.1276 102.132 15.0951 102.008 15.082C101.884 15.069 101.767 15.0625 101.656 15.0625C101.376 15.0625 101.119 15.1276 100.885 15.2578C100.657 15.388 100.462 15.5736 100.299 15.8145C100.136 16.0553 100.009 16.3483 99.918 16.6934C99.8268 17.0384 99.7812 17.4258 99.7812 17.8555V21H98.5215V14.1152H99.6934V15.1797H99.7422C99.8268 14.9974 99.931 14.8314 100.055 14.6816C100.185 14.5319 100.328 14.4049 100.484 14.3008C100.641 14.1901 100.807 14.1055 100.982 14.0469C101.165 13.9883 101.35 13.959 101.539 13.959C101.721 13.959 101.871 13.9688 101.988 13.9883C102.105 14.0013 102.229 14.0176 102.359 14.0371V15.1797Z" fill="white"/>
<defs>
<filter id="filter0_d_1_29" x="0" y="0" width="111" height="34" filterUnits="userSpaceOnUse" color-interpolation-filters="sRGB">
<feFlood flood-opacity="0" result="BackgroundImageFix"/>
<feColorMatrix in="SourceAlpha" type="matrix" values="0 0 0 0 0 0 0 0 0 0 0 0 0 0 0 0 0 0 127 0" result="hardAlpha"/>
<feOffset/>
<feGaussianBlur stdDeviation="1"/>
<feComposite in2="hardAlpha" operator="out"/>
<feColorMatrix type="matrix" values="0 0 0 0 0 0 0 0 0 0 0 0 0 0 0 0 0 0 0.25 0"/>
<feBlend mode="normal" in2="BackgroundImageFix" result="effect1_dropShadow_1_29"/>
<feBlend mode="normal" in="SourceGraphic" in2="effect1_dropShadow_1_29" result="shape"/>
</filter>
</defs>
</svg>
