<svg width="62" height="16" viewBox="0 0 62 16" fill="none" xmlns="http://www.w3.org/2000/svg">
  <g clip-path="url(#clip0_1868_526)">
    <path fill-rule="evenodd" clip-rule="evenodd" d="M4.92555 0.865326H1.57583V3.77277H0V6.92251H1.57583V10.6433C1.57583 13.5508 3.85778 15.4285 6.64778 15.4285H8.6111V12.3999H6.61333C6.3805 12.4002 6.15002 12.353 5.93587 12.2612C5.72169 12.1694 5.52828 12.0349 5.36729 11.8658C5.20632 11.6968 5.08113 11.4967 4.99927 11.2776C4.91743 11.0586 4.88064 10.8252 4.8911 10.5914V6.92251H7.0525C7.47216 6.89624 7.86633 6.71112 8.15556 6.40443C8.44478 6.09773 8.60757 5.69228 8.6111 5.26976V3.81604H4.92555V0.865326ZM23.9819 10.7126C23.9819 11.1716 23.8004 11.6118 23.4776 11.9363C23.1546 12.2609 22.7165 12.4432 22.2597 12.4432C21.803 12.4432 21.3649 12.2609 21.0419 11.9363C20.7189 11.6118 20.5374 11.1716 20.5374 10.7126V5.42551C20.5421 5.21158 20.5043 4.99885 20.4266 4.79965C20.3487 4.60044 20.2324 4.41874 20.0842 4.26502C19.936 4.11131 19.7591 3.98867 19.5634 3.90417C19.3677 3.81967 19.1574 3.77501 18.9445 3.77277H17.2222V10.254C17.2222 13.2047 18.6947 15.5756 22.2597 15.5756C25.8247 15.5756 27.3231 13.2047 27.3231 10.254V3.77277H23.9819V10.6953V10.7126ZM38.75 9.9857C38.75 6.38601 36.8383 3.5824 33.3853 3.5824C30.4145 3.5824 27.986 6.11777 27.986 9.56171C27.986 13.3172 30.1905 15.4977 33.4283 15.6189C34.4354 15.6109 35.4208 15.3238 36.276 14.7895C37.1313 14.2552 37.8235 13.4942 38.2764 12.5903L35.2626 11.725C35.0531 12.0287 34.772 12.2754 34.4443 12.443C34.1168 12.6107 33.7528 12.694 33.3853 12.6855C32.8435 12.7026 32.3162 12.5086 31.9134 12.1442C31.5107 11.7798 31.2636 11.2731 31.224 10.7299H38.75V10.003V9.9857ZM31.224 8.29835C31.2825 7.75771 31.5377 7.25789 31.9406 6.89475C32.3434 6.53162 32.8656 6.33079 33.4068 6.33079C33.948 6.33079 34.4702 6.53162 34.873 6.89475C35.2759 7.25789 35.5311 7.75771 35.5897 8.29835H31.224ZM14.4753 3.77277H13.9931C12.743 3.79779 11.5539 4.32031 10.6868 5.22562C9.81985 6.13092 9.34582 7.34499 9.3689 8.60121V15.4199H12.71V8.75697C12.7007 8.52394 12.7384 8.29144 12.8208 8.07341C12.9032 7.85538 13.0286 7.65633 13.1894 7.48824C13.3503 7.32013 13.5433 7.18642 13.7568 7.09516C13.9704 7.00388 14.2001 6.95693 14.4322 6.95712H16.361V3.77277H14.4753Z" fill="#E73525"/>
    <path d="M54.1897 0H47.3611V5.13995C47.3679 5.65023 47.5757 6.137 47.9387 6.49377C48.3018 6.85055 48.7909 7.04827 49.2987 7.04364C49.6481 7.04312 49.9914 6.95006 50.2937 6.77385C50.5961 6.59763 50.8468 6.34448 51.0209 6.03987C51.4281 5.35441 52.0468 4.82115 52.7831 4.52099C53.5192 4.22082 54.3326 4.17015 55.1 4.37664C55.8675 4.58315 56.5471 5.03553 57.0354 5.6652C57.5238 6.29486 57.7945 7.06743 57.8064 7.86568C57.7878 8.66297 57.51 9.43224 57.0155 10.0559C56.5209 10.6797 55.8368 11.1235 55.0675 11.3197C54.2983 11.5159 53.4862 11.4536 52.7555 11.1424C52.0248 10.8312 51.4156 10.2882 51.0209 9.5963C50.8515 9.28707 50.6019 9.02968 50.2987 8.85144C49.9955 8.6732 49.6499 8.58074 49.2987 8.58389C48.7937 8.57921 48.3074 8.77454 47.9448 9.12761C47.5822 9.48066 47.3724 9.96302 47.3611 10.4703V15.5756H54.1468C56.2006 15.5829 58.1749 14.7786 59.6442 13.3362C61.1133 11.8939 61.9594 9.92918 62 7.86568C62 5.78257 61.1777 3.78453 59.7134 2.30991C58.2493 0.835309 56.2628 0.00458331 54.1897 0Z" fill="#979899"/>
    <path d="M45.0793 7.58877C44.9122 7.48291 44.7747 7.33597 44.6797 7.16185C44.5848 6.98774 44.5356 6.7922 44.5368 6.59367C44.5394 6.39707 44.5904 6.20416 44.6849 6.03208C44.7795 5.85999 44.915 5.71405 45.0793 5.60721C45.5239 5.32901 45.8886 4.93921 46.1377 4.47621C46.3866 4.0132 46.5113 3.49299 46.4992 2.96684C46.4873 2.4407 46.3389 1.92678 46.0691 1.47574C45.7992 1.02471 45.4171 0.652126 44.9603 0.394721C44.5034 0.137315 43.9878 0.00397157 43.4641 0.00783301C42.9403 0.0116944 42.4266 0.152627 41.9737 0.416741C41.5206 0.680855 41.1439 1.05903 40.8806 1.514C40.6174 1.96896 40.4767 2.48501 40.4724 3.01128C40.4613 3.5303 40.5858 4.04316 40.8336 4.49866C41.0815 4.95418 41.4438 5.33642 41.8846 5.60721C42.0568 5.70892 42.2008 5.85262 42.3032 6.02504C42.4055 6.19746 42.4629 6.39304 42.4701 6.59367C42.4674 6.79144 42.4166 6.98553 42.3219 7.15899C42.2274 7.33246 42.0921 7.48002 41.9277 7.58877C41.4836 7.85938 41.1164 8.24041 40.8614 8.69511C40.6065 9.1498 40.4725 9.66283 40.4724 10.1847V12.5297C40.4724 13.3329 40.7899 14.1033 41.355 14.6712C41.9203 15.2393 42.687 15.5584 43.4862 15.5584C44.2855 15.5584 45.0522 15.2393 45.6173 14.6712C46.1826 14.1033 46.5001 13.3329 46.5001 12.5297V10.1847C46.5139 9.66423 46.3894 9.14947 46.1398 8.69325C45.8901 8.23704 45.524 7.85584 45.0793 7.58877Z" fill="#979899"/>
  </g>
  <defs>
  <clipPath id="clip0_1868_526">
    <rect width="62" height="15.5756" fill="white"/>
  </clipPath>
  </defs>
</svg>
