<svg xmlns="http://www.w3.org/2000/svg" width="120.906" height="147.781" viewBox="0 0 120.906 147.781">
    <defs>
        <style>
            .cls-4{fill:none;stroke:#dddada;stroke-linecap:round;stroke-linejoin:round;stroke-width:5px}
        </style>
    </defs>
    <g id="Component_15_1" transform="translate(2.5 2.5)">
        <g id="identity_1_" transform="translate(-37.26 13.253)">
            <path id="Path_20" fill="#5f5959" d="M197.614 48.413a42.162 42.162 0 0 0 2.923-15.425V28.16A18.16 18.16 0 0 0 182.377 10a8.713 8.713 0 0 0-6.072 2.452 2.692 2.692 0 0 1-3.764 0A8.712 8.712 0 0 0 166.47 10a27.986 27.986 0 0 0-25.97 38.372z" transform="translate(-73.121 -7.349)"/>
            <path id="Path_21" fill="#f49e9e" d="M94.033 341.938a85.645 85.645 0 0 0-24.082 9.834A32.857 32.857 0 0 0 54 379.958v3.354h106.047v-3.354a32.857 32.857 0 0 0-15.95-28.186 85.638 85.638 0 0 0-24.082-9.834z" transform="translate(-11.023 -251.285)"/>
            <path id="Path_22" fill="#fff5f7" d="M185.882 95.241a5.421 5.421 0 0 0-4.717.231 14.9 14.9 0 0 0-8.425-11.441 11.118 11.118 0 0 1-6.281-10 15.233 15.233 0 0 1-15.112 15.1 15.074 15.074 0 0 1-9.567-3.385 10.822 10.822 0 0 0-6.824-2.448 11.077 11.077 0 0 0-10.916 11.086v1.046a5.42 5.42 0 0 0-4.563-.15 5.361 5.361 0 0 0-2.879 7.126c1.664 3.522 5.549 10.289 7.212 13.811a2.825 2.825 0 0 0 3.65 1.475 60.8 60.8 0 0 0 8.086 15.468 21.436 21.436 0 0 0 4.136 4.318v7.859a12.991 12.991 0 1 0 25.981 0v-7.861a21.436 21.436 0 0 0 4.14-4.323 60.812 60.812 0 0 0 8.1-15.5 2.824 2.824 0 0 0 3.65-1.475c1.664-3.522 5.549-10.289 7.212-13.811a5.361 5.361 0 0 0-2.879-7.126z" transform="translate(-56.673 -54.403)"/>
        </g>
        <g id="Group_33" transform="translate(-673.303 -1035.983)">
            <path id="Path_23" d="M-4588.641-7662.516h-35.059v30.329" class="cls-4" transform="translate(5297 8698.499)"/>
            <path id="Path_25" d="M-4597.671-7630.8h-26.029v-31.715" class="cls-4" transform="translate(5297 8772.152)"/>
            <path id="Path_24" d="M-4623.7-7662.516h37.5v30.329" class="cls-4" transform="translate(5375.404 8698.499)"/>
            <path id="Path_26" d="M-4623.7-7630.8h25.927v-31.715" class="cls-4" transform="translate(5386.979 8772.152)"/>
        </g>
    </g>
</svg>
