<svg xmlns="http://www.w3.org/2000/svg" viewBox="0 0 155 135.625"><path fill="#ffedf0" d="M137.239 19.375H17.761A17.776 17.776 0 000 37.136v80.728a17.776 17.776 0 0017.761 17.761h119.478A17.776 17.776 0 00155 117.864V37.136a17.776 17.776 0 00-17.761-17.761zm0 0"/><path fill="#ff89a0" d="M92.031 0H62.969a11.314 11.314 0 00-11.3 11.3v12.919a11.314 11.314 0 0011.3 11.3h29.063a11.314 11.314 0 0011.3-11.3V11.3A11.314 11.314 0 0092.031 0zm0 0"/><path fill="#f54242" d="M64.583 61.355a16.145 16.145 0 11-16.145-16.147 16.145 16.145 0 0116.145 16.147zm0 0M59.739 83.958h-22.6a17.776 17.776 0 00-17.764 17.761v3.23a4.846 4.846 0 004.844 4.844h48.437a4.846 4.846 0 004.844-4.844v-3.23a17.776 17.776 0 00-17.761-17.761zm0 0"/><g fill="#8b6060"><path d="M130.781 58.126h-35.52a4.844 4.844 0 010-9.687h35.52a4.844 4.844 0 010 9.688zm0 0M130.781 83.959h-35.52a4.844 4.844 0 010-9.687h35.52a4.844 4.844 0 010 9.688zm0 0M130.781 109.792h-35.52a4.844 4.844 0 010-9.687h35.52a4.844 4.844 0 010 9.688zm0 0"/></g></svg>