<svg width="99" height="82" fill="none" xmlns="http://www.w3.org/2000/svg"><ellipse cx="49.48" cy="41.64" rx="37.48" ry="37.5" fill="#D8D8D8"/><rect x="53" width="46" height="82" rx="7" fill="#fff"/><path d="M97.2 2.63L56.23 80l38.93.48a2 2 0 002.02-2V2.63z" fill="#F7F7F7"/><rect x="54" y="1" width="44" height="80" rx="6" stroke="#000" stroke-width="2"/><path d="M65 0h21v2.56a2.5 2.5 0 01-2.5 2.5h-16a2.5 2.5 0 01-2.5-2.5V0z" fill="#000"/><path d="M27.7 17.03l-5.39-5.66a.75.75 0 00-.54-.23h-9.23c-.4 0-.8.17-1.09.47-.29.3-.45.71-.45 1.14v17.77c0 .43.16.84.45 1.14.29.3.68.47 1.09.48h13.84c.41 0 .8-.18 1.1-.48.28-.3.44-.71.44-1.14V17.6a.83.83 0 00-.22-.57z" fill="#fff" stroke="#999"/><path fill="#D8D8D8" stroke="#999" stroke-width=".5" d="M14.76 21.64h9.4v6.68h-9.4z"/><path stroke="#999" stroke-width=".5" d="M14.76 21.64h5.64v1.91h-5.64zM14.76 26.41h9.4v1.91h-9.4zM17.83 21.64v1.9M17.83 26.41v1.91M20.65 26.41v1.91"/><path d="M38.7 33.02l-7-7a1 1 0 00-.7-.3H19a2 2 0 00-2 2v22a2 2 0 002 2h18a2 2 0 002-2v-16a1 1 0 00-.3-.7z" fill="#fff" stroke="#000"/><path fill="#FEB800" stroke="#000" stroke-width=".5" d="M21.89 38.73h12.22V47H21.89z"/><path stroke="#000" stroke-width=".5" d="M21.89 38.73h7.33v2.36h-7.33zM21.89 44.64h12.22V47H21.89zM25.81 38.73v2.36M25.81 44.64V47M29.47 44.64V47"/><path d="M25.08 35.14c-.38 0-.69-.11-.92-.33-.23-.21-.34-.5-.34-.86V32.9h-.46v-.5h.46v-.82h.74v.83h.55v.5h-.55v.91c0 .44.2.66.62.66h.1v.66h-.2zM27 33.08c-.22 0-.43.07-.62.21-.2.14-.3.3-.3.46v1.39h-.74V32.4h.74v.28c.2-.22.49-.31.87-.29h.14v.68H27zm2.65.9c0 .8-.42 1.2-1.28 1.2-.85-.01-1.27-.4-1.27-1.2v-1.57h.23c.07 0 .14 0 .2.03a.46.46 0 01.27.23c.03.06.04.12.04.2v1.15c0 .4.18.59.54.59.35 0 .52-.2.52-.59v-1.61h.75v1.57zm.9.01c.03.44.25.66.63.66.33 0 .53-.16.62-.48l.66.16c-.21.57-.64.85-1.28.85-.43 0-.77-.13-1.01-.38a1.4 1.4 0 01-.37-1.02c0-.4.13-.75.38-1.03s.58-.42.99-.42c.4 0 .72.14.97.41a1.43 1.43 0 01.37 1.13v.12h-1.97zm1.21-.53a.68.68 0 00-.06-.22.55.55 0 00-.12-.17.55.55 0 00-.19-.13.6.6 0 00-.46 0 .58.58 0 00-.2.13c-.05.04-.1.1-.13.17a.62.62 0 00-.06.22h1.22z" fill="#DC2128"/><path d="M46.71 40.52v2.62H45.3v-2.62h-2.62v-1.43h2.62v-2.61h1.41v2.61h2.63v1.43h-2.63z" fill="#BD1D29"/><path d="M11 40.14a10 10 0 01-2.75-19.62" stroke="#BD1D29" stroke-dasharray="2 1"/><path d="M9 36.14l3.24 4-3.24 4" stroke="#BD1D29"/></svg>