<svg width="108" height="82" fill="none" xmlns="http://www.w3.org/2000/svg"><ellipse cx="58.48" cy="39.64" rx="37.48" ry="37.5" fill="#D8D8D8"/><rect x="62" width="46" height="82" rx="7" fill="#fff"/><path d="M106.2 2.63L65.23 80l38.93.48a2 2 0 002.02-2V2.63z" fill="#F7F7F7"/><rect x="63" y="1" width="44" height="80" rx="6" stroke="#000" stroke-width="2"/><path d="M74 0h21v2.56a2.5 2.5 0 01-2.5 2.5h-16a2.5 2.5 0 01-2.5-2.5V0z" fill="#000"/><path fill="#EEEFF3" d="M13 19h26v14H13z"/><path fill="#fff" d="M13 33h26v15H13z"/><path stroke="#000" stroke-width=".72" d="M13 13.44h26v34.67H13z"/><path fill="#666" stroke="#000" stroke-width=".72" d="M13 13.44h26v5.78H13z"/><path d="M18.3 44.11c.02-.42.15-.78.39-1.07.16-.2.45-.44.88-.72a7.98 7.98 0 00.56-.4c.18-.19.28-.38.28-.57a.6.6 0 00-.17-.46.58.58 0 00-.44-.17c-.4 0-.62.31-.63.93h-.78c0-.48.12-.87.38-1.17.26-.3.62-.45 1.08-.45.38 0 .7.1.96.33.27.23.4.54.4.92 0 .46-.23.87-.7 1.21a19.56 19.56 0 01-.6.41 4.79 4.79 0 00-.57.5h1.9v.71h-2.93zm5.73-1.36c0 .41-.14.75-.44 1.02-.29.27-.64.4-1.05.4-.4 0-.75-.1-1.01-.3-.3-.23-.45-.54-.47-.95h.82c0 .1.03.18.07.26a.63.63 0 00.58.35c.2 0 .36-.08.5-.24.13-.15.2-.34.2-.54 0-.22-.07-.4-.2-.54a.64.64 0 00-.5-.21c-.25 0-.45.1-.61.3h-.74l.4-2.2h2.24v.68h-1.66l-.14.91c.21-.2.47-.3.78-.3.38 0 .68.13.9.39.22.25.33.58.33.97zm6-.67c0 .6-.16 1.1-.51 1.5-.37.4-.86.6-1.46.6s-1.07-.2-1.44-.6a2.2 2.2 0 01-.52-1.5c0-.6.18-1.1.52-1.5.37-.43.85-.64 1.44-.64.88 0 1.49.43 1.83 1.3l-.79.2c-.2-.5-.55-.76-1.04-.76a.9.9 0 00-.8.43c-.17.26-.25.58-.25.97 0 .38.08.7.26.96.19.3.45.45.8.45.57 0 .9-.3 1.02-.91h-1.05v-.7h2v.2zm3.58.84c0 .4-.15.7-.44.9-.26.2-.6.3-1 .3H30.2v-4.1h1.92c.87 0 1.3.35 1.3 1.02 0 .39-.18.67-.55.85.5.14.75.49.75 1.03zm-1.07-1.73c0-.31-.2-.47-.61-.47h-.84v.97h.9c.37 0 .55-.17.55-.5zm.18 1.68c0-.39-.22-.58-.65-.58h-.98v1.12h.96c.44 0 .67-.18.67-.54zM19.6 28.43c0 .4-.15.72-.45.97-.28.22-.63.33-1.04.33-.45 0-.8-.13-1.08-.38-.27-.24-.4-.6-.4-1.05h.77c.04.52.27.78.7.78.18 0 .34-.06.46-.18a.6.6 0 00.19-.46c0-.25-.1-.43-.3-.52a1.82 1.82 0 00-.63-.07v-.57c.57.03.86-.14.86-.5a.5.5 0 00-.05-.22.46.46 0 00-.12-.16.55.55 0 00-.18-.11.66.66 0 00-.22-.04c-.4 0-.6.24-.62.71h-.77c.02-.4.16-.74.41-1 .25-.25.58-.38.98-.38.35 0 .65.1.9.3.3.2.44.47.44.82 0 .38-.19.66-.56.82.47.15.7.46.7.9zm3.04-.78c0 1.38-.49 2.08-1.47 2.08-.97 0-1.46-.7-1.46-2.08 0-1.38.49-2.07 1.46-2.07.98 0 1.47.7 1.47 2.07zm-.81 0c0-.93-.22-1.4-.66-1.4-.43 0-.65.47-.65 1.4 0 .95.22 1.43.65 1.43.44 0 .66-.48.66-1.43zm3.88 0c0 1.38-.5 2.08-1.48 2.08-.97 0-1.46-.7-1.46-2.08 0-1.38.49-2.07 1.46-2.07.99 0 1.48.7 1.48 2.07zm-.82 0c0-.93-.22-1.4-.66-1.4-.43 0-.65.47-.65 1.4 0 .95.22 1.43.65 1.43.44 0 .66-.48.66-1.43zm5.98 2.02v-1.33c0-.33-.16-.5-.47-.5-.36 0-.53.24-.53.71v1.12h-.25v-1.34c0-.32-.13-.48-.4-.48-.4 0-.6.24-.6.72v1.1h-.23V27.7h.22v.33a.68.68 0 01.65-.39c.3 0 .5.13.57.38.12-.25.32-.38.62-.38.43 0 .65.23.65.7v1.33h-.23zm.55-2.34v-.39h.24v.39h-.24zm0 2.34V27.7h.24v1.97h-.24zm1.91 0v-1.23c0-.4-.17-.6-.5-.6a.56.56 0 00-.45.2.7.7 0 00-.16.48v1.15h-.24V27.7h.24v.34c.04-.12.12-.21.24-.29a.74.74 0 01.4-.1c.47 0 .7.25.7.75v1.27h-.23zm2.04-.53a.5.5 0 01-.26.45c-.14.08-.32.11-.53.11-.5 0-.78-.22-.81-.67H34c0 .16.07.28.18.37.1.08.23.12.4.12.14 0 .25-.03.35-.08.12-.07.19-.17.19-.3 0-.17-.15-.3-.43-.35l-.31-.07c-.37-.08-.55-.26-.55-.53 0-.18.08-.32.24-.42a.9.9 0 01.5-.13c.2 0 .38.06.5.17.14.1.21.26.22.46h-.24c0-.28-.18-.42-.52-.42-.3 0-.46.1-.46.33 0 .17.14.28.41.34l.32.07c.37.08.56.26.56.55z" fill="#000"/><path d="M23.48 23.78h-.26l-.85-2.36h.22l.77 2.11.76-2.1h.24l-.88 2.35zm2.43-.85c0 .25-.07.46-.2.63a.76.76 0 01-.6.25.75.75 0 01-.6-.25.96.96 0 01-.21-.63c0-.26.07-.47.21-.64a.73.73 0 01.6-.26c.24 0 .44.08.59.26.14.17.21.38.21.64zm-.2 0c0-.2-.06-.36-.16-.5a.53.53 0 00-.45-.23.52.52 0 00-.44.23c-.1.14-.15.3-.15.5s.05.36.15.5c.1.15.25.22.44.22.2 0 .34-.07.45-.23a.8.8 0 00.15-.5zm.37-1.18v-.33h.2v.33h-.2zm0 2.03v-1.7h.2v1.7h-.2zm1.89-.61c-.03.2-.11.36-.24.47a.68.68 0 01-.47.17.75.75 0 01-.6-.25.96.96 0 01-.2-.63c0-.26.07-.47.2-.64a.73.73 0 01.6-.26c.1 0 .18.01.26.04a.6.6 0 01.35.29c.04.07.07.15.08.25h-.2c-.07-.27-.23-.4-.5-.4a.52.52 0 00-.43.22c-.1.14-.16.3-.16.5s.05.36.16.5c.1.15.25.22.44.22.13 0 .24-.04.33-.13.1-.09.15-.2.17-.35h.2zm.26-.19c0 .17.05.32.13.45.1.15.25.22.43.22.27 0 .45-.14.54-.43l.19.06c-.1.35-.35.53-.73.53-.25 0-.45-.08-.58-.25a.97.97 0 01-.19-.63c0-.25.07-.46.19-.62a.68.68 0 01.58-.28c.26 0 .45.1.59.3.12.17.17.39.16.65h-1.3zm1.1-.17a.76.76 0 00-.16-.43.46.46 0 00-.38-.18c-.16 0-.29.06-.4.19-.08.1-.14.25-.16.42h1.1zM24.99 36.6c0 .78-.36 1.18-1.08 1.18h-.82v-2.36h.82c.72 0 1.08.4 1.08 1.18zm-.23 0c0-.35-.07-.6-.23-.75-.15-.16-.4-.24-.74-.24h-.48v1.98h.48c.34 0 .59-.08.74-.23.16-.16.23-.41.23-.76zm1.9 1.16a.74.74 0 01-.14.02c-.1 0-.17-.03-.2-.08-.03-.04-.04-.12-.04-.22h-.01a.86.86 0 01-.24.26.88.88 0 01-.38.07.7.7 0 01-.4-.1.45.45 0 01-.17-.38c0-.21.1-.35.29-.43.1-.04.3-.08.62-.12.1 0 .16-.03.2-.05.04-.04.07-.1.07-.18 0-.23-.15-.35-.45-.35-.3 0-.44.13-.45.4h-.2c.01-.38.24-.57.68-.57.42 0 .63.18.63.54v.9c0 .09.04.13.12.13l.07-.01v.17zm-.4-.91h-.01c-.02.03-.07.05-.17.07l-.53.1c-.18.06-.26.16-.26.3 0 .1.03.18.1.24.09.06.17.1.28.1.16 0 .3-.05.41-.15.12-.1.18-.23.18-.4v-.26zm1.16.93a.6.6 0 01-.23-.04.49.49 0 01-.18-.13.57.57 0 01-.11-.2.92.92 0 01-.04-.29v-.87h-.3v-.18h.3v-.5h.21v.5h.34v.18h-.34v.85c0 .33.13.5.39.5h.04v.18h-.08zm1.7-.02a.74.74 0 01-.14.02c-.1 0-.17-.03-.2-.08-.03-.04-.04-.12-.04-.22h-.01a.86.86 0 01-.24.26.88.88 0 01-.38.07.7.7 0 01-.4-.1.45.45 0 01-.17-.38c0-.21.1-.35.29-.43.1-.04.3-.08.62-.12.1 0 .16-.03.2-.05.04-.04.07-.1.07-.18 0-.23-.15-.35-.45-.35-.3 0-.44.13-.45.4h-.2c.01-.38.24-.57.68-.57.42 0 .63.18.63.54v.9c0 .09.04.13.12.13l.07-.01v.17zm-.4-.91c-.03.03-.08.05-.18.07l-.53.1c-.18.06-.26.16-.26.3 0 .1.03.18.1.24.09.06.17.1.28.1.16 0 .3-.05.41-.15.12-.1.18-.23.18-.4v-.26z" fill="#666"/><path d="M21.64 15.4c0 .21-.07.39-.19.52-.15.16-.36.24-.63.24h-.54V17h-.52v-2.36h1.06c.28 0 .49.08.63.24.12.13.19.3.19.52zm-.5 0c0-.24-.16-.36-.46-.36h-.4v.71h.4c.3 0 .46-.11.46-.35zm1.74 1.6a1.42 1.42 0 01-.03-.17.8.8 0 01-.57.2.71.71 0 01-.41-.11.46.46 0 01-.18-.38c0-.3.2-.47.59-.52a20.75 20.75 0 01.38-.06c.11-.03.17-.09.17-.17 0-.15-.1-.23-.3-.23-.2 0-.3.09-.32.26h-.46c.02-.38.29-.57.8-.57.5 0 .75.16.75.49v.88c0 .2.02.32.06.38h-.48zm-.05-.84a.6.6 0 01-.24.09c-.15.02-.24.03-.29.05a.21.21 0 00-.13.21c0 .15.09.22.28.22.25 0 .38-.13.38-.39v-.18zm2.32.19a.85.85 0 01-.1.3.65.65 0 01-.16.2.72.72 0 01-.25.13c-.1.03-.2.05-.32.05a.86.86 0 01-.62-.24.84.84 0 01-.24-.62c0-.27.08-.5.24-.66a.82.82 0 01.64-.26c.21 0 .4.05.54.16a.6.6 0 01.26.48h-.46c-.03-.2-.15-.29-.34-.29a.34.34 0 00-.31.18.7.7 0 00-.1.38c0 .14.03.26.1.35.06.12.16.18.3.18.2 0 .33-.11.36-.34h.46zm1.28.65l-.47-.76-.18.17V17h-.47v-2.36h.47v1.27l.59-.61h.56l-.65.62.71 1.08h-.56zm1.7 0a1.34 1.34 0 01-.03-.17.8.8 0 01-.57.2.71.71 0 01-.41-.11.46.46 0 01-.18-.38c0-.3.2-.47.59-.52a20.75 20.75 0 01.38-.06c.11-.03.17-.09.17-.17 0-.15-.1-.23-.3-.23-.2 0-.3.09-.32.26H27c.02-.38.29-.57.8-.57.5 0 .75.16.75.49v.88c0 .2.02.32.06.38h-.48zm-.05-.84a.6.6 0 01-.24.09c-.15.02-.24.03-.29.05a.21.21 0 00-.13.21c0 .15.1.22.28.22.25 0 .38-.13.38-.39v-.18zm2.33.73c0 .5-.3.74-.88.74a.94.94 0 01-.5-.13.5.5 0 01-.26-.42h.46c.05.16.16.24.36.24.25 0 .37-.14.37-.41v-.22c-.1.17-.27.26-.52.26a.65.65 0 01-.55-.26.94.94 0 01-.18-.6.9.9 0 01.2-.58.65.65 0 01.54-.26c.24 0 .4.09.5.27h.01v-.22h.45v1.59zm-.45-.76c0-.35-.13-.53-.4-.53a.32.32 0 00-.28.14.6.6 0 00-.1.34c0 .34.13.51.38.51.13 0 .23-.04.3-.14.07-.09.1-.2.1-.32zm1.07.15c.02.28.16.41.4.41.2 0 .33-.1.38-.3l.41.11c-.13.35-.4.53-.8.53a.85.85 0 01-.63-.24.88.88 0 01-.23-.63c0-.26.08-.48.24-.65a.8.8 0 01.62-.26c.25 0 .45.09.6.26a.9.9 0 01.24.7v.07h-1.23zm.76-.32a.42.42 0 00-.12-.25.34.34 0 00-.11-.08.37.37 0 00-.3 0 .37.37 0 00-.11.08.4.4 0 00-.12.25h.76z" fill="#fff"/><path fill="#EEEFF3" d="M22 27h26v14H22z"/><path fill="#fff" d="M22 41h26v15H22z"/><path stroke="#000" stroke-width=".72" d="M22 21.44h26v34.67H22z"/><path fill="#BD1D29" stroke="#000" stroke-width=".72" d="M22 21.44h26v5.78H22z"/><path d="M27.48 50.57c0 1.07-.58 1.6-1.74 1.6-1.15 0-1.73-.53-1.73-1.6v-2.54h.29c.4 0 .6.19.6.57v1.97c0 .59.28.88.84.88.16 0 .29-.02.4-.05.1-.03.2-.09.26-.16a.6.6 0 00.14-.27c.03-.11.05-.25.05-.4v-2.54h.9v2.54zm2.23 1.54v-1.67c0-.49-.18-.73-.52-.73-.43 0-.64.28-.64.85v1.55h-.8v-2.95h.77v.4h.01c.2-.32.5-.48.9-.48.41 0 .7.1.87.33.15.19.22.48.22.88v1.82h-.81zm1.02 0v-4.08h.8v4.08h-.8zm1.03-3.41v-.67h.82v.67h-.82zm0 3.41v-2.95h.82v2.95h-.82zm4.75 0v-1.67c0-.24-.02-.41-.08-.51-.07-.15-.2-.22-.41-.22-.36 0-.55.25-.55.75v1.65h-.81v-1.65c0-.25-.02-.42-.05-.5-.07-.17-.22-.25-.45-.25a.5.5 0 00-.32.12c-.15.12-.22.3-.22.56v1.72h-.82v-2.95h.77v.4h.01c.22-.32.52-.48.9-.48.44 0 .72.16.87.48.22-.32.52-.48.9-.48.72 0 1.08.35 1.08 1.05v1.98h-.82zm1.05-3.41v-.67h.81v.67h-.81zm0 3.41v-2.95h.81v2.95h-.81zm2.6 0a1.4 1.4 0 01-1-.35 1.21 1.21 0 01-.36-.93v-1.14h-.5v-.53h.5v-.9h.8v.9h.6v.53h-.6v1c0 .47.22.71.67.71h.1v.71h-.2zm.84-1.24c.05.48.28.71.7.71.35 0 .57-.17.67-.51l.7.17c-.22.61-.68.92-1.37.92-.47 0-.84-.14-1.1-.4-.27-.28-.4-.65-.4-1.11 0-.45.14-.82.4-1.12.28-.3.64-.45 1.08-.45.44 0 .79.15 1.06.44a1.55 1.55 0 01.4 1.22l-.01.13H41zm1.32-.57a.74.74 0 00-.06-.24.6.6 0 00-.13-.2.6.6 0 00-.2-.12.65.65 0 00-.5 0 .63.63 0 00-.21.13.68.68 0 00-.21.43h1.31zm2.97 1.81v-.38c-.19.29-.49.43-.9.43a1.2 1.2 0 01-1-.46c-.22-.29-.33-.65-.33-1.1 0-.42.1-.77.33-1.05.24-.32.56-.47.98-.47.4 0 .7.14.88.43v-1.48h.82v4.08h-.78zm0-1.49c0-.62-.24-.93-.7-.93-.48 0-.71.31-.71.94 0 .26.05.47.16.65.12.2.3.3.54.3.47 0 .7-.32.7-.96zM28.6 36.3c0 .42-.15.76-.44 1.03-.3.27-.64.4-1.05.4-.41 0-.75-.1-1.02-.3-.3-.23-.45-.55-.46-.95h.81c.01.1.04.18.07.25.04.07.09.14.15.19a.63.63 0 00.43.16c.2 0 .36-.08.5-.23.13-.16.2-.34.2-.55 0-.21-.07-.4-.2-.53a.64.64 0 00-.5-.22c-.25 0-.45.1-.6.31h-.74l.4-2.2h2.23v.67h-1.65l-.15.92c.21-.2.48-.3.79-.3.38 0 .68.12.9.38.22.26.33.58.33.97zm3.04-.65c0 1.38-.49 2.08-1.47 2.08-.97 0-1.46-.7-1.46-2.08 0-1.38.49-2.07 1.46-2.07.98 0 1.47.7 1.47 2.07zm-.81 0c0-.93-.22-1.4-.66-1.4-.43 0-.65.47-.65 1.4 0 .95.22 1.43.65 1.43.44 0 .66-.48.66-1.43zm3.88 0c0 1.38-.5 2.08-1.48 2.08-.97 0-1.46-.7-1.46-2.08 0-1.38.49-2.07 1.46-2.07.99 0 1.48.7 1.48 2.07zm-.82 0c0-.93-.22-1.4-.66-1.4-.43 0-.65.47-.65 1.4 0 .95.22 1.43.65 1.43.44 0 .66-.48.66-1.43zm5.98 2.02v-1.33c0-.33-.16-.5-.47-.5-.36 0-.53.24-.53.71v1.12h-.25v-1.34c0-.32-.13-.48-.4-.48-.4 0-.6.24-.6.72v1.1h-.23V35.7h.22v.33a.68.68 0 01.65-.39c.3 0 .5.13.57.38.12-.25.32-.38.62-.38.43 0 .65.23.65.7v1.33h-.23zm.55-2.34v-.39h.24v.39h-.24zm0 2.34V35.7h.24v1.97h-.24zm1.91 0v-1.23c0-.4-.17-.6-.5-.6a.56.56 0 00-.45.2.7.7 0 00-.16.48v1.15h-.24V35.7h.24v.34c.04-.12.12-.21.24-.29a.74.74 0 01.4-.1c.47 0 .7.25.7.75v1.27h-.23zm2.04-.53a.5.5 0 01-.26.45c-.14.08-.32.11-.53.11-.5 0-.78-.22-.81-.67H43c0 .16.07.28.18.37.1.08.23.12.4.12.14 0 .25-.03.35-.08.12-.07.19-.17.19-.3 0-.17-.15-.3-.43-.35l-.31-.07c-.37-.08-.55-.26-.55-.53 0-.18.08-.32.24-.42a.9.9 0 01.5-.13c.2 0 .38.06.5.17.14.1.21.26.22.46h-.24c0-.28-.18-.42-.52-.42-.3 0-.46.1-.46.33 0 .17.14.28.41.34l.32.07c.37.08.56.26.56.55z" fill="#000"/><path d="M32.48 31.78h-.26l-.85-2.36h.22l.77 2.11.76-2.1h.24l-.88 2.35zm2.43-.85c0 .25-.07.46-.2.63a.76.76 0 01-.6.25.75.75 0 01-.6-.25.96.96 0 01-.21-.63c0-.26.07-.47.21-.64a.73.73 0 01.6-.26c.24 0 .44.08.59.26.14.17.21.38.21.64zm-.2 0c0-.2-.06-.36-.16-.5a.53.53 0 00-.45-.23.52.52 0 00-.44.23c-.1.14-.15.3-.15.5s.05.36.15.5c.1.15.25.22.44.22.2 0 .34-.07.45-.23a.8.8 0 00.15-.5zm.37-1.18v-.33h.2v.33h-.2zm0 2.03v-1.7h.2v1.7h-.2zm1.89-.61c-.03.2-.11.36-.24.47a.68.68 0 01-.47.17.75.75 0 01-.6-.25.96.96 0 01-.2-.63c0-.26.07-.47.2-.64a.73.73 0 01.6-.26c.1 0 .18.01.26.04a.6.6 0 01.35.29c.04.07.07.15.08.25h-.2c-.07-.27-.23-.4-.5-.4a.52.52 0 00-.43.22c-.1.14-.16.3-.16.5s.05.36.16.5c.1.15.25.22.44.22.13 0 .24-.04.33-.13.1-.09.15-.2.17-.35h.2zm.26-.19c0 .17.05.32.13.45.1.15.25.22.43.22.27 0 .45-.14.54-.43l.19.06c-.1.35-.35.53-.73.53-.25 0-.45-.08-.58-.25a.97.97 0 01-.19-.63c0-.25.07-.46.19-.62a.68.68 0 01.58-.28c.26 0 .45.1.59.3.12.17.17.39.16.65h-1.3zm1.1-.17a.76.76 0 00-.16-.43.46.46 0 00-.38-.18c-.16 0-.29.06-.4.19-.08.1-.14.25-.16.42h1.1zM33.99 44.6c0 .78-.36 1.18-1.08 1.18h-.82v-2.36h.82c.72 0 1.08.4 1.08 1.18zm-.23 0c0-.35-.07-.6-.23-.75-.15-.16-.4-.24-.74-.24h-.48v1.98h.48c.34 0 .59-.08.74-.23.16-.16.23-.41.23-.76zm1.9 1.16a.74.74 0 01-.14.02c-.1 0-.17-.03-.2-.08-.03-.04-.04-.12-.04-.22h-.01a.86.86 0 01-.24.26.88.88 0 01-.38.07.7.7 0 01-.4-.1.45.45 0 01-.17-.38c0-.21.1-.35.29-.43.1-.04.3-.08.62-.12.1 0 .16-.03.2-.05.04-.04.07-.1.07-.18 0-.23-.15-.35-.45-.35-.3 0-.44.13-.45.4h-.2c.01-.38.24-.57.68-.57.42 0 .63.18.63.54v.9c0 .09.04.13.12.13l.07-.01v.17zm-.4-.91c-.03.03-.08.05-.18.07l-.53.1c-.18.06-.26.16-.26.3 0 .1.03.18.1.24.09.06.17.1.28.1.16 0 .3-.05.41-.15.12-.1.18-.23.18-.4v-.26zm1.16.93a.6.6 0 01-.23-.04.49.49 0 01-.18-.13.57.57 0 01-.11-.2.92.92 0 01-.04-.29v-.87h-.3v-.18h.3v-.5h.21v.5h.34v.18h-.34v.85c0 .33.13.5.39.5h.04v.18h-.08zm1.7-.02a.74.74 0 01-.14.02c-.1 0-.17-.03-.2-.08-.03-.04-.04-.12-.04-.22h-.01a.86.86 0 01-.24.26.88.88 0 01-.38.07.7.7 0 01-.4-.1.45.45 0 01-.17-.38c0-.21.1-.35.29-.43.1-.04.3-.08.62-.12.1 0 .16-.03.2-.05.04-.04.07-.1.07-.18 0-.23-.15-.35-.45-.35-.3 0-.44.13-.45.4h-.2c.01-.38.24-.57.68-.57.42 0 .63.18.63.54v.9c0 .09.04.13.12.13l.07-.01v.17zm-.4-.91c-.03.03-.08.05-.18.07l-.53.1c-.18.06-.26.16-.26.3 0 .1.03.18.1.24.09.06.17.1.28.1.16 0 .3-.05.41-.15.12-.1.18-.23.18-.4v-.26z" fill="#BD1D29"/><path d="M30.64 23.4c0 .21-.07.39-.19.52-.15.16-.36.24-.63.24h-.54V25h-.52v-2.36h1.06c.28 0 .49.08.63.24.12.13.19.3.19.52zm-.5 0c0-.24-.16-.36-.46-.36h-.4v.71h.4c.3 0 .46-.11.46-.35zm1.74 1.6a1.42 1.42 0 01-.03-.17.8.8 0 01-.57.2.71.71 0 01-.41-.11.46.46 0 01-.18-.38c0-.3.2-.47.59-.52a20.75 20.75 0 01.38-.06c.11-.03.17-.09.17-.17 0-.15-.1-.23-.3-.23-.2 0-.3.09-.32.26h-.46c.02-.38.29-.57.8-.57.5 0 .75.16.75.49v.88c0 .2.02.32.06.38h-.48zm-.05-.84a.6.6 0 01-.24.09c-.15.02-.24.03-.29.05a.21.21 0 00-.13.21c0 .15.09.22.28.22.25 0 .38-.13.38-.39v-.18zm2.32.19a.85.85 0 01-.1.3.65.65 0 01-.16.2.72.72 0 01-.25.13c-.1.03-.2.05-.32.05a.86.86 0 01-.62-.24.84.84 0 01-.24-.62c0-.27.08-.5.24-.66a.82.82 0 01.64-.26c.21 0 .4.05.54.16a.6.6 0 01.26.48h-.46c-.03-.2-.15-.29-.34-.29a.34.34 0 00-.31.18.7.7 0 00-.1.38c0 .14.03.26.1.35.06.12.16.18.3.18.2 0 .33-.11.36-.34h.46zm1.28.65l-.47-.76-.18.17V25h-.47v-2.36h.47v1.27l.59-.61h.56l-.65.62.71 1.08h-.56zm1.7 0a1.34 1.34 0 01-.03-.17.8.8 0 01-.57.2.71.71 0 01-.41-.11.46.46 0 01-.17-.38c0-.3.19-.47.58-.52a20.75 20.75 0 01.38-.06c.11-.03.17-.09.17-.17 0-.15-.1-.23-.3-.23-.2 0-.3.09-.31.26H36c.02-.38.29-.57.8-.57.5 0 .75.16.75.49v.88c0 .2.02.32.06.38h-.48zm-.05-.84a.6.6 0 01-.24.09c-.15.02-.24.03-.29.05a.21.21 0 00-.13.21c0 .15.1.22.28.22.25 0 .38-.13.38-.39v-.18zm2.33.73c0 .5-.3.74-.88.74a.94.94 0 01-.5-.13.5.5 0 01-.26-.42h.46c.05.16.16.24.36.24.25 0 .37-.14.37-.41v-.22c-.1.17-.27.26-.52.26a.65.65 0 01-.55-.26.94.94 0 01-.18-.6.9.9 0 01.2-.58.65.65 0 01.54-.26c.24 0 .4.09.5.27h.01v-.22h.45v1.59zm-.45-.76c0-.35-.13-.53-.4-.53a.32.32 0 00-.28.14.6.6 0 00-.1.34c0 .34.13.51.38.51.13 0 .23-.04.3-.14.07-.09.1-.2.1-.32zm1.07.15c.02.28.16.41.4.41.2 0 .33-.1.38-.3l.41.11c-.13.35-.4.53-.8.53a.85.85 0 01-.63-.24.88.88 0 01-.23-.63c0-.26.08-.48.24-.65a.8.8 0 01.62-.26c.25 0 .45.09.6.26a.9.9 0 01.24.7v.07h-1.23zm.76-.32a.42.42 0 00-.12-.25.34.34 0 00-.11-.08.37.37 0 00-.3 0 .37.37 0 00-.11.08.4.4 0 00-.12.25h.76z" fill="#fff"/><path d="M55.71 38.52v2.62H54.3v-2.62h-2.62v-1.43h2.62v-2.61h1.41v2.61h2.63v1.43h-2.63z" fill="#BD1D29"/><path d="M11 53.61A10 10 0 018.25 34" stroke="#BD1D29" stroke-dasharray="2 1"/><path d="M9 49.61l3.24 4-3.24 4" stroke="#BD1D29"/></svg>