<svg width="92" height="96" fill="none" xmlns="http://www.w3.org/2000/svg"><ellipse cx="42.48" cy="55.5" rx="37.48" ry="37.5" fill="#D8D8D8"/><rect x="26.71" y="13.86" width="46" height="82" rx="7" fill="#fff"/><path d="M70.9 16.5L29.97 93.87l38.92.47a2 2 0 002.03-2V16.5z" fill="#F7F7F7"/><rect x="27.71" y="14.86" width="44" height="80" rx="6" stroke="#000" stroke-width="2"/><path d="M38.71 13.86h21v2.57a2.5 2.5 0 01-2.5 2.5h-16a2.5 2.5 0 01-2.5-2.5v-2.57z" fill="#000"/><path d="M22.7 46.89l-7-7a1 1 0 00-.7-.3H3a2 2 0 00-2 2v22a2 2 0 002 2h18a2 2 0 002-2v-16a1 1 0 00-.3-.7z" fill="#fff" stroke="#000"/><path fill="#FEB800" stroke="#000" stroke-width=".5" d="M5.89 52.59h12.22v8.27H5.89z"/><path stroke="#000" stroke-width=".5" d="M5.89 52.59h7.33v2.36H5.89zM5.89 58.5h12.22v2.36H5.89zM9.81 52.59v2.37M9.81 58.5v2.37M13.47 58.5v2.37"/><path d="M9.08 49c-.38 0-.69-.1-.92-.32-.23-.22-.34-.5-.34-.86v-1.05h-.46v-.5h.46v-.82h.74v.82h.55v.5h-.55v.92c0 .44.2.65.62.65h.1V49h-.2zM11 46.95c-.22 0-.43.07-.62.2-.2.15-.3.3-.3.47V49h-.74v-2.73h.74v.28c.2-.21.49-.3.87-.28h.14v.68H11zm2.65.9c0 .79-.43 1.19-1.28 1.19-.85 0-1.27-.4-1.27-1.2v-1.57h.23a.6.6 0 01.2.03.46.46 0 01.27.24c.03.05.04.12.04.19v1.16c0 .39.18.58.54.58.35 0 .52-.2.52-.58v-1.62h.75v1.58zm.9 0c.03.44.25.66.63.66.33 0 .53-.16.62-.47l.66.16c-.21.56-.64.84-1.28.84-.43 0-.77-.12-1.01-.37a1.4 1.4 0 01-.37-1.02c0-.41.13-.75.38-1.03s.58-.42.99-.42c.4 0 .72.14.97.4a1.43 1.43 0 01.37 1.13v.13h-1.97zm1.21-.52a.68.68 0 00-.06-.22.56.56 0 00-.12-.18.55.55 0 00-.19-.12.6.6 0 00-.46 0 .58.58 0 00-.2.12c-.05.05-.1.1-.13.18a.62.62 0 00-.06.22h1.22z" fill="#DC2128"/><path d="M1 73.83h22" stroke="#BD1D29" stroke-dasharray="2 1"/><path d="M19.76 69.83l3.24 4-3.24 4" stroke="#BD1D29"/><path fill-rule="evenodd" clip-rule="evenodd" d="M72.73 37.66a18.32 18.32 0 10-11.71-4.23L58.87 39l5.7-3.25a18.23 18.23 0 008.16 1.9z" fill="#BD1D29"/><path d="M61.02 33.43l.7.27a.75.75 0 00-.22-.85l-.48.58zM58.87 39l-.7-.27a.75.75 0 001.08.92l-.38-.65zm5.7-3.25l.33-.68a.75.75 0 00-.7.02l.37.66zm25.72-16.42c0 9.7-7.86 17.58-17.56 17.58v1.5a19.07 19.07 0 0019.06-19.08h-1.5zM72.73 1.75c9.7 0 17.56 7.87 17.56 17.58h1.5A19.07 19.07 0 0072.73.25v1.5zM55.16 19.33c0-9.71 7.86-17.58 17.57-17.58V.25a19.07 19.07 0 00-19.07 19.08h1.5zm6.34 13.52a17.55 17.55 0 01-6.34-13.52h-1.5c0 5.9 2.67 11.17 6.88 14.67l.96-1.15zm-1.93 6.42l2.15-5.57-1.4-.54-2.15 5.57 1.4.54zm4.62-4.18l-5.69 3.26.75 1.3 5.69-3.25-.75-1.3zm8.54 1.82c-2.82 0-5.47-.66-7.83-1.84l-.67 1.35c2.56 1.27 5.45 1.99 8.5 1.99v-1.5z" fill="#000"/><path d="M58.18 20.98l1.02-6.52 1.42.23L59.8 20l3.18.5-.18 1.2-4.6-.72zm11.02-.8c-.26 1.7-1.32 2.42-3.17 2.13-1.85-.29-2.64-1.29-2.37-3l.63-4.05.46.07c.65.1.92.46.82 1.07l-.49 3.13c-.14.95.23 1.49 1.13 1.63.25.03.46.04.64.01a.99.99 0 00.46-.18c.12-.1.22-.23.3-.4.07-.17.13-.38.17-.63l.63-4.06 1.43.23-.64 4.05zm6.74 1.01c-.2.8-.6 1.4-1.19 1.78-.6.38-1.28.5-2.08.38a3.12 3.12 0 01-2.21-1.32 3.5 3.5 0 01-.47-2.52c.15-1 .57-1.77 1.25-2.32a3 3 0 012.5-.6c.73.1 1.32.4 1.77.9.48.5.7 1.13.67 1.87l-1.39-.22c0-.33-.12-.63-.36-.88a1.51 1.51 0 00-.89-.48c-.6-.09-1.09.07-1.47.48-.33.36-.55.85-.64 1.48-.1.6-.04 1.13.17 1.57.24.5.66.8 1.25.88.86.14 1.43-.27 1.71-1.22l1.38.22zm4.51 3.27l-1.5-3.23-.95.7-.33 2.1-1.43-.23 1.02-6.51 1.43.22-.43 2.7 2.97-2.3 1.8.28-2.95 2.17 2.17 4.38-1.8-.28zm5.6-1.69l-.38 2.5-1.43-.22.4-2.53-1.74-4.35 1.57.24 1.12 2.82 1.93-2.34 1.58.25-3.04 3.63z" fill="#FEB800"/><path d="M58.18 20.98l1.02-6.52 1.42.23L59.8 20l3.18.5-.18 1.2-4.6-.72zm11.02-.8c-.26 1.7-1.32 2.42-3.17 2.13-1.85-.29-2.64-1.29-2.37-3l.63-4.05.46.07c.65.1.92.46.82 1.07l-.49 3.13c-.14.95.23 1.49 1.13 1.63.25.03.46.04.64.01a.99.99 0 00.46-.18c.12-.1.22-.23.3-.4.07-.17.13-.38.17-.63l.63-4.06 1.43.23-.64 4.05zm6.74 1.01c-.2.8-.6 1.4-1.19 1.78-.6.38-1.28.5-2.08.38a3.12 3.12 0 01-2.21-1.32 3.5 3.5 0 01-.47-2.52c.15-1 .57-1.77 1.25-2.32a3 3 0 012.5-.6c.73.1 1.32.4 1.77.9.48.5.7 1.13.67 1.87l-1.39-.22c0-.33-.12-.63-.36-.88a1.51 1.51 0 00-.89-.48c-.6-.09-1.09.07-1.47.48-.33.36-.55.85-.64 1.48-.1.6-.04 1.13.17 1.57.24.5.66.8 1.25.88.86.14 1.43-.27 1.71-1.22l1.38.22zm4.51 3.27l-1.5-3.23-.95.7-.33 2.1-1.43-.23 1.02-6.51 1.43.22-.43 2.7 2.97-2.3 1.8.28-2.95 2.17 2.17 4.38-1.8-.28zm5.6-1.69l-.38 2.5-1.43-.22.4-2.53-1.74-4.35 1.57.24 1.12 2.82 1.93-2.34 1.58.25-3.04 3.63z" fill="url(#paint0_linear)"/><defs><linearGradient id="paint0_linear" x1="74.48" y1="12.39" x2="72.31" y2="26.23" gradientUnits="userSpaceOnUse"><stop stop-color="#fff"/><stop offset="1" stop-color="#fff" stop-opacity="0"/></linearGradient></defs></svg>