<svg width="104" height="86" fill="none" xmlns="http://www.w3.org/2000/svg"><circle cx="41.5" cy="44.5" r="37.5" fill="#D8D8D8"/><path d="M46 19a5 5 0 015-5h31a5 5 0 015 5v62a5 5 0 01-5 5H51a5 5 0 01-5-5V19z" fill="#fff"/><path d="M85.39 16.31l-36.5 67.94 34.47.41a2 2 0 002.03-2V16.31z" fill="#F7F7F7"/><path d="M46.75 19c0-2.35 1.9-4.25 4.25-4.25h31c2.35 0 4.25 1.9 4.25 4.25v62c0 2.35-1.9 4.25-4.25 4.25H51A4.25 4.25 0 0146.75 81V19z" stroke="#000" stroke-width="1.5"/><path d="M56.7 16.22c0-1.23.99-2.22 2.22-2.22h14.27a2.22 2.22 0 110 4.44H58.92c-1.23 0-2.22-1-2.22-2.22z" fill="#000"/><path d="M0 5a5 5 0 015-5h23a5 5 0 015 5v48a5 5 0 01-5 5H5a5 5 0 01-5-5V5z" fill="#fff"/><path d="M31.7 1.86L2.33 56.6l27.35.33a2 2 0 002.02-2V1.86z" fill="#F7F7F7"/><path d="M.75 5C.75 2.65 2.65.75 5 .75h23c2.35 0 4.25 1.9 4.25 4.25v48c0 2.35-1.9 4.25-4.25 4.25H5A4.25 4.25 0 01.75 53V5z" stroke="#000" stroke-width="1.5"/><path d="M8.6 1.79C8.6.8 9.42 0 10.4 0h11.48a1.79 1.79 0 110 3.58H10.4c-.99 0-1.8-.8-1.8-1.79z" fill="#000"/><circle cx="31" cy="20.97" r="8.5" fill="#FEB800" stroke="#000"/><path d="M33.49 22.32c0 .55-.2.96-.6 1.25-.37.27-.83.4-1.4.4h-2.73v-5.65h2.66c1.2 0 1.8.47 1.8 1.4 0 .53-.25.93-.76 1.18.69.2 1.03.67 1.03 1.42zm-1.48-2.4c0-.43-.28-.64-.85-.64H30v1.33h1.26c.5 0 .75-.23.75-.68zm.24 2.33c0-.53-.3-.8-.9-.8H30V23h1.33c.62 0 .92-.25.92-.75z" fill="#000"/><circle cx="31" cy="20.97" r="6.75" stroke="#fff" stroke-width=".5"/><path stroke="#000" stroke-width=".5" d="M31.25 16.97v8"/><path d="M70.5 35.5h26v42H75a4.5 4.5 0 01-4.5-4.5V35.5z" fill="#fff" stroke="#000"/><path d="M78.49 43.35c0 .55-.2.96-.6 1.25-.37.27-.83.4-1.4.4h-2.73v-5.65h2.66c1.2 0 1.8.46 1.8 1.4 0 .53-.25.93-.76 1.18.69.2 1.03.67 1.03 1.42zm-1.48-2.4c0-.43-.28-.64-.85-.64H75v1.33h1.26c.5 0 .75-.23.75-.68zm.24 2.33c0-.53-.3-.8-.9-.8H75v1.55h1.33c.62 0 .92-.25.92-.75z" fill="#000"/><path stroke="#000" stroke-width=".5" d="M76.25 38v8"/><path stroke="#000" d="M80 40.5h14M80 44.5h14M74 48.5h20M74 52.5h20M74 56.5h20M74 60.5h20M74 64.5h20M74 68.5h20M74 72.5h20"/><path d="M79.65 71c0 6-3.26 6.5-4.65 6.5h25.1c2.97-1.2 3.1-4.83 2.78-6.5H79.65z" fill="#F6F6F6" stroke="#000"/><path d="M44 39l-7.5 4.33v-8.66L44 39z" fill="#BD1D29"/></svg>