
<svg width="121" height="20" viewBox="0 0 121 20" fill="none" xmlns="http://www.w3.org/2000/svg">
  <path d="M3.75702 4.4444V7.56752H9.18383V10.2702H3.75702V15.9759H0V1.7417H9.42238V2.82278C9.42238 3.72368 8.70675 4.4444 7.81222 4.4444H3.75702Z" fill="#FF0000"/>
  <path d="M30.2351 15.9759L29.2213 12.9129H23.9138L22.7807 15.9759H18.964L24.3312 1.80176H27.1341C28.2075 1.80176 29.1617 2.46242 29.5791 3.48344L34.4096 15.9759H30.2351ZM26.657 4.68464L24.8083 10.2102H28.3268L26.657 4.68464Z" fill="#FF0000"/>
  <path d="M45.9788 11.5315C45.9788 12.4324 45.7999 13.2132 45.4421 13.8138C45.0843 14.4144 44.6072 14.8949 44.0108 15.2552C43.4145 15.6156 42.7585 15.8558 42.0429 15.9759C41.3273 16.1561 40.552 16.2162 39.7767 16.2162C39.1207 16.2162 38.4051 16.1561 37.6299 16.036C36.8546 15.9159 36.1986 15.7958 35.5426 15.6156L35.8408 12.4925C36.3179 12.7327 36.9142 12.9729 37.5702 13.1531C38.2262 13.3333 38.9418 13.4534 39.7171 13.4534C40.0153 13.4534 40.3135 13.4534 40.6116 13.3934C40.9098 13.3333 41.1484 13.2732 41.3273 13.2132C41.5658 13.0931 41.6851 12.9729 41.864 12.7928C41.9832 12.6126 42.0429 12.3723 42.0429 12.072C42.0429 11.7117 41.9236 11.4714 41.7447 11.2312C41.5658 10.991 41.3273 10.8708 40.9694 10.6907C40.6713 10.5705 40.3135 10.3904 39.896 10.2702C39.4786 10.1501 39.0611 10.03 38.7033 9.90987C38.2859 9.78975 37.8684 9.60957 37.5106 9.42939C37.1528 9.24921 36.7353 9.00897 36.4372 8.70867C36.139 8.40837 35.9004 8.04801 35.6619 7.56753C35.483 7.14711 35.3637 6.54651 35.3637 5.94591C35.3637 5.10507 35.5426 4.38435 35.9004 3.84381C36.3775 3.18315 36.8546 2.76273 37.451 2.40237C38.0473 2.04201 38.7033 1.86183 39.4189 1.68165C40.1345 1.56152 40.8502 1.50146 41.5658 1.50146C42.2218 1.50146 42.8778 1.56152 43.5338 1.62159C44.1897 1.68165 44.7265 1.86183 45.2035 1.98195L44.965 4.92489C44.4879 4.68465 43.9512 4.50447 43.4145 4.44441C42.8778 4.32429 42.3411 4.26423 41.8043 4.26423C41.5658 4.26423 41.2676 4.26423 41.0291 4.32429C40.7309 4.32429 40.4327 4.38435 40.1942 4.50447C39.9556 4.62459 39.7171 4.74471 39.5382 4.92489C39.3593 5.10507 39.2997 5.34531 39.2997 5.64561C39.2997 5.94591 39.4189 6.18615 39.5978 6.36633C39.7767 6.54651 40.0153 6.72669 40.3731 6.84681C40.6713 6.96693 41.0291 7.08705 41.4465 7.20717C41.864 7.32729 42.2814 7.44741 42.6989 7.56753C43.1163 7.68765 43.5338 7.86783 43.9512 8.04801C44.3687 8.22819 44.7265 8.46843 45.0246 8.76873C45.3228 9.06903 45.5614 9.42939 45.7999 9.90987C45.8595 10.3904 45.9788 10.9309 45.9788 11.5315Z" fill="#FF0000"/>
  <path d="M56.3553 15.9759V9.84981H51.8827V15.9159H48.1257V1.7417H50.034C51.0478 1.7417 51.8827 2.58254 51.8827 3.60356V7.20716H56.3553V1.80176H60.1124V15.9759H56.3553Z" fill="#FF0000"/>
  <path d="M94.1641 15.9759L93.1503 12.9129H87.8428L86.7097 15.9759H82.8931L88.2602 1.80176H92.8522L98.279 15.9759H94.1641ZM90.5264 4.68464L88.6777 10.2102H92.1962L90.5264 4.68464Z" fill="#FF0000"/>
  <path d="M99.7698 15.9759V1.7417H101.678C102.692 1.7417 103.527 2.58254 103.527 3.60356V13.1531H109.371V15.9759H99.7698Z" fill="#FF0000"/>
  <path d="M110.862 15.9759V1.7417H120.821V2.82278C120.821 3.72368 120.105 4.4444 119.211 4.4444H114.619V7.38735H120.463V10.09H114.619V13.3333H121V16.036H110.862V15.9759Z" fill="#FF0000"/>
  <path d="M15.0877 0H21.9458L15.8034 10.2703H18.7851L10.6151 20L13.7758 12.4925H10.3169L15.0877 0Z" fill="#FF0000"/>
  <path d="M81.8196 11.5315C81.8196 12.4324 81.6407 13.2132 81.2829 13.8138C80.9251 14.4144 80.448 14.8949 79.8517 15.2552C79.2553 15.6156 78.5993 15.8558 77.8837 15.9759C77.1681 16.0961 76.3928 16.2162 75.6175 16.2162C74.9616 16.2162 74.2459 16.1561 73.4707 16.036C72.6954 15.9159 72.0394 15.7958 71.3834 15.6156L71.6816 12.4925C72.1587 12.7327 72.7551 12.9729 73.411 13.1531C74.067 13.3333 74.7827 13.4534 75.5579 13.4534C75.8561 13.4534 76.1543 13.4534 76.4524 13.3934C76.7506 13.3333 76.9892 13.2732 77.1681 13.2132C77.4066 13.0931 77.5259 12.9729 77.7048 12.7928C77.8241 12.6126 77.8837 12.3723 77.8837 12.072C77.8837 11.7117 77.7644 11.4714 77.5855 11.2312C77.4066 10.991 77.1681 10.8708 76.8103 10.6907C76.5121 10.5705 76.1543 10.3904 75.7368 10.2702C75.3194 10.1501 74.9019 10.03 74.5441 9.90987C74.1267 9.78975 73.7092 9.60957 73.3514 9.42939C72.9936 9.24921 72.5761 9.00897 72.278 8.70867C71.9798 8.40837 71.7413 8.04801 71.5027 7.56753C71.3238 7.14711 71.2045 6.54651 71.2045 5.94591C71.2045 5.10507 71.3834 4.38435 71.7413 3.8438C72.0991 3.30326 72.5761 2.82278 73.1725 2.52248C73.7689 2.22218 74.4248 1.98194 75.1405 1.80176C75.8561 1.62158 76.5717 1.62158 77.2873 1.62158C77.9433 1.62158 78.5993 1.68164 79.2553 1.7417C79.9113 1.80176 80.448 1.98194 80.9251 2.10206L80.6866 5.04501C80.2095 4.80477 79.6727 4.62459 79.136 4.56453C78.5993 4.4444 78.0626 4.38435 77.5259 4.38435C77.2873 4.38435 76.9892 4.38435 76.7506 4.44441C76.4524 4.44441 76.1543 4.50447 75.9157 4.62459C75.6772 4.68465 75.4386 4.86483 75.2597 5.04501C75.0808 5.22519 75.0212 5.46543 75.0212 5.76573C75.0212 6.06603 75.1405 6.30627 75.3194 6.48645C75.4983 6.66663 75.7368 6.84681 76.0946 6.96693C76.3928 7.08705 76.7506 7.20717 77.1681 7.32729C77.5855 7.44741 78.003 7.56753 78.4204 7.68765C78.8379 7.80777 79.2553 7.98795 79.6728 8.16813C80.0902 8.34831 80.448 8.58855 80.7462 8.88885C81.0444 9.18915 81.2829 9.54951 81.5214 10.03C81.7003 10.3904 81.8196 10.9309 81.8196 11.5315Z" fill="#FF0000"/>
</svg>