<svg width="200" height="181" viewBox="0 0 200 181" fill="none" xmlns="http://www.w3.org/2000/svg">
<g clip-path="url(#clip0_2116_360)">
<g style="mix-blend-mode:color-burn" opacity="0.1">
<path d="M184.609 117.956C184.609 118.875 184.007 119.795 182.771 120.489L152.85 137.884L80.473 179.943C79.108 180.638 77.5982 181 76.0666 181C74.535 181 73.0251 180.638 71.6602 179.943L46.5131 165.411L21.3614 150.88C20.2035 150.213 19.6016 149.326 19.5557 148.453C19.5492 148.413 19.5492 148.373 19.5557 148.333C19.5557 147.414 20.1576 146.494 21.3936 145.8L93.7794 103.737L123.705 86.3419C125.061 85.6259 126.574 85.2623 128.107 85.2845C129.638 85.2583 131.152 85.6221 132.504 86.3419L157.669 100.873L182.817 115.404C184.007 116.099 184.609 117.018 184.609 117.956Z" fill="#4C6FB6"/>
</g>
<path d="M4.98043 129.2C1.7641 125.946 -0.303543 121.206 0.0364687 116.586C0.495944 110.509 4.53014 106.932 9.48329 103.209C10.705 102.345 11.6078 101.102 12.0518 99.6734C13.5956 94.1569 5.6191 92.2078 5.03557 87.2935C4.95763 86.7486 5.03404 86.1928 5.25611 85.6892C5.48327 85.2622 5.81335 84.8988 6.21642 84.6318C8.38515 83.0918 11.3258 83.7124 13.954 84.0848C16.5822 84.4571 19.8307 84.2227 21.0805 81.8782C21.9167 80.3014 21.4848 78.3752 21.0345 76.6513C19.5642 71.0016 18.3282 65.4437 16.6511 59.8307C15.0338 54.3924 16.0676 47.5106 19.771 43.0055C21.7099 40.6518 24.7701 38.8681 27.7429 39.5623C30.2194 40.1185 32.5582 42.3481 33.716 44.5317C34.6947 46.3705 35.9123 49.9286 38.2143 50.5354C40.5163 51.1423 42.6069 48.43 43.3145 46.605C44.1967 44.334 44.1186 41.8194 44.0588 39.3876C43.9991 36.9557 43.9991 34.4228 45.01 32.207C45.7187 30.7143 46.8443 29.4588 48.2508 28.5925C49.6574 27.7261 51.2846 27.2858 52.9359 27.3249C54.9117 27.403 56.8093 28.18 58.785 28.2903C62.1071 28.4742 65.2545 26.7641 67.8551 24.6954C70.4557 22.6267 72.7347 20.1305 75.5192 18.3101C78.3036 16.4896 81.8323 15.3817 84.9706 16.4712C87.4977 17.3539 89.4045 19.5559 90.4613 22.0153C91.5181 24.4747 91.8397 27.187 91.9868 29.8579C92.1016 31.8898 92.1706 34.0504 93.3238 35.7283C95.2123 38.4866 99.3705 38.7302 102.325 37.204C105.279 35.6778 107.31 32.8598 109.217 30.1429C111.721 26.5848 113.711 22.2084 117.869 20.4891C120.892 19.2433 124.692 18.8203 126.374 22.3279C126.841 23.3874 127.058 24.5405 127.008 25.6975C126.967 29.6096 125.147 33.2919 124.711 37.1902C124.591 38.2383 124.614 39.4152 125.313 40.2013C126.539 41.5804 128.832 40.8494 130.321 39.7416C131.81 38.6337 133.363 37.2178 135.191 37.443C137.337 37.7326 138.274 40.307 138.137 42.4676C137.838 47.0371 134.764 49.9148 133.082 54.1671C131.952 56.9851 134.727 58.0241 136.115 58.1895C137.502 58.355 144.009 58.4884 146.191 61.6787C148.92 65.6736 146.402 72.3117 143.802 75.0929C141.201 77.8742 137.714 79.667 134.47 81.6713C130.719 84 127.244 86.745 124.109 89.8541C121.407 92.5388 120.056 96.1291 117.4 98.9838C110.099 106.836 99.8346 111.175 91.4813 117.896C85.2646 122.902 79.9944 129.32 72.6934 132.607C66.8442 135.241 60.2875 135.53 54.3557 137.926C49.329 139.962 45.6257 143.971 39.8317 142.835C34.0377 141.7 28.2207 139.341 22.5462 137.834C16.2422 136.146 9.68546 133.967 4.98043 129.2Z" fill="#F4D7E0"/>
<path d="M102.816 43.0097C102.73 43.0664 102.626 43.0898 102.523 43.0757C102.421 43.0616 102.327 43.0109 102.259 42.9329C102.191 42.8549 102.154 42.755 102.154 42.6517C102.154 42.5483 102.192 42.4485 102.26 42.3707C103.217 41.3378 104.237 40.3659 105.316 39.4608C105.963 38.8953 106.634 38.3069 107.254 37.7047C114.712 30.4781 116.596 19.9968 116.876 12.4576C116.878 12.4015 116.891 12.3463 116.915 12.2953C116.938 12.2442 116.971 12.1982 117.012 12.16C117.054 12.1218 117.102 12.0921 117.155 12.0726C117.207 12.0531 117.263 12.0441 117.319 12.0462C117.375 12.0483 117.431 12.0615 117.482 12.0849C117.533 12.1083 117.579 12.1416 117.617 12.1828C117.655 12.224 117.685 12.2723 117.704 12.325C117.724 12.3777 117.733 12.4337 117.731 12.4898C117.441 20.1853 115.493 30.9148 107.847 38.3207C107.213 38.9367 106.533 39.5297 105.881 40.1044C104.826 40.984 103.83 41.9314 102.899 42.9407C102.876 42.9685 102.847 42.9919 102.816 43.0097Z" fill="#EF4D6D"/>
<path d="M121.237 2.37657C121.156 1.85638 120.968 1.3586 120.685 0.914704C119.849 -0.220769 118.043 -0.252949 116.885 0.551536C115.728 1.35602 115.116 2.73974 114.786 4.10966C114.216 6.46335 117.271 13.8141 117.271 13.8141C117.271 13.8141 121.885 5.50717 121.237 2.37657Z" fill="#EF4D6D"/>
<path d="M126.416 14.4392C126.701 14.114 126.914 13.7316 127.04 13.3175C127.325 12.2004 126.397 11.019 125.29 10.7293C124.183 10.4397 122.993 10.7569 121.949 11.2626C120.167 12.1314 117.125 17.8962 117.125 17.8962C117.125 17.8962 124.78 16.4803 126.416 14.4392Z" fill="#EF4D6D"/>
<path d="M126.898 25.7341C127.365 25.5024 127.778 25.1732 128.107 24.7687C128.934 23.6424 128.424 21.9277 127.326 21.091C126.227 20.2544 124.739 20.0705 123.351 20.1716C120.957 20.3325 114.934 25.3939 114.934 25.3939C114.934 25.3939 124.137 27.2603 126.898 25.7341Z" fill="#EF4D6D"/>
<path d="M122.574 37.8658C123.113 37.7349 123.617 37.4904 124.053 37.1486C125.175 36.1741 125.046 34.2755 124.104 33.1308C123.162 31.9861 121.655 31.4667 120.189 31.2368C117.671 30.8461 110.232 34.6984 110.232 34.6984C110.232 34.6984 119.348 38.8266 122.574 37.8658Z" fill="#EF4D6D"/>
<path d="M114.795 46.168C115.306 46.2071 115.82 46.135 116.302 45.9565C117.561 45.4141 117.983 43.7132 117.478 42.4398C116.973 41.1664 115.796 40.2838 114.574 39.6815C112.474 38.6242 104.852 39.9068 104.852 39.9068C104.852 39.9068 111.693 46.1082 114.795 46.168Z" fill="#EF4D6D"/>
<path d="M113.408 10.8722C113.087 10.5516 112.702 10.3025 112.277 10.1413C111.124 9.77355 109.851 10.67 109.456 11.81C109.061 12.9501 109.332 14.2235 109.796 15.3452C110.577 17.2668 116.426 20.8249 116.426 20.8249C116.426 20.8249 115.439 12.7157 113.408 10.8722Z" fill="#EF4D6D"/>
<path d="M105.357 27.3478C105.035 27.0272 104.65 26.7781 104.226 26.6169C103.073 26.2491 101.8 27.1456 101.4 28.2856C101.001 29.4257 101.281 30.7037 101.745 31.8208C102.535 33.7423 108.375 37.3005 108.375 37.3005C108.375 37.3005 107.387 29.1913 105.357 27.3478Z" fill="#EF4D6D"/>
<path d="M110.247 19.9055C109.918 19.5578 109.519 19.285 109.075 19.1056C107.876 18.6873 106.516 19.5929 106.061 20.7836C105.606 21.9742 105.868 23.3165 106.323 24.5072C107.104 26.5529 113.142 30.4558 113.142 30.4558C113.142 30.4558 112.333 21.8822 110.247 19.9055Z" fill="#EF4D6D"/>
<path d="M50.575 101.673C50.6764 101.665 50.7721 101.622 50.847 101.553C50.9218 101.484 50.9716 101.392 50.9885 101.292C51.0072 101.173 50.9781 101.051 50.9076 100.953C50.8371 100.854 50.7308 100.788 50.6118 100.768C49.1217 100.549 47.6193 100.424 46.1135 100.395C45.1945 100.359 44.2434 100.322 43.3199 100.239C32.2925 99.237 23.6543 91.7714 18.3566 85.6849C18.3203 85.6308 18.2729 85.5851 18.2176 85.5507C18.1624 85.5163 18.1004 85.4941 18.0359 85.4855C17.9714 85.4769 17.9058 85.4821 17.8434 85.5007C17.781 85.5194 17.7234 85.5511 17.6742 85.5938C17.625 85.6364 17.5854 85.689 17.5581 85.7481C17.5308 85.8072 17.5163 85.8715 17.5156 85.9366C17.515 86.0017 17.5282 86.0662 17.5543 86.1259C17.5805 86.1855 17.619 86.2389 17.6673 86.2825C23.0754 92.4977 31.9111 100.12 43.2372 101.149C44.1837 101.237 45.1486 101.274 46.0767 101.31C47.544 101.336 49.0082 101.455 50.4601 101.669C50.4981 101.675 50.5367 101.676 50.575 101.673Z" fill="#EF4D6D"/>
<path d="M7.95764 80.2188C7.67467 79.73 7.50068 79.1859 7.44762 78.6236C7.3787 77.1157 8.86281 75.8653 10.3653 75.7642C11.8678 75.6631 13.3059 76.3986 14.5006 77.318C16.559 78.8948 18.9529 87.0684 18.9529 87.0684C18.9529 87.0684 9.51986 83.262 7.95764 80.2188Z" fill="#EF4D6D"/>
<path d="M12.0334 93.4576C11.578 93.379 11.1443 93.2051 10.7607 92.9473C9.7728 92.2026 9.76821 90.6166 10.4804 89.6145C11.1926 88.6123 12.4148 88.0882 13.6186 87.8124C15.6863 87.3527 22.0913 90.111 22.0913 90.111C22.0913 90.111 14.7673 94.0644 12.0334 93.4576Z" fill="#EF4D6D"/>
<path d="M20.2221 81.1429C20.2796 80.6088 20.4503 80.0932 20.7229 79.6304C21.5132 78.4352 23.3419 78.3157 24.5596 79.0696C25.7772 79.8235 26.4618 81.2026 26.8569 82.5771C27.5507 84.94 24.8215 92.5528 24.8215 92.5528C24.8215 92.5528 19.7213 84.3516 20.2221 81.1429Z" fill="#EF4D6D"/>
<path d="M18.9261 103.471C18.381 103.588 17.8172 103.588 17.272 103.471C15.8293 103.089 15.0987 101.319 15.4341 99.8667C15.7695 98.414 16.9044 97.2785 18.1266 96.4189C20.2218 94.9478 28.6394 95.1087 28.6394 95.1087C28.6394 95.1087 22.2573 102.901 18.9261 103.471Z" fill="#EF4D6D"/>
<path d="M28.0592 86.3651C28.0991 85.8085 28.2557 85.2665 28.5187 84.7745C29.309 83.5103 31.2112 83.3356 32.4977 84.0849C33.7843 84.8342 34.5378 86.2547 34.9973 87.6706C35.7922 90.1117 33.1594 98.1105 33.1594 98.1105C33.1594 98.1105 27.6273 89.7163 28.0592 86.3651Z" fill="#EF4D6D"/>
<path d="M36.6023 87.2654C36.6516 86.6377 36.8349 86.0278 37.1399 85.4771C38.0267 84.0474 40.1771 83.8498 41.629 84.7002C43.081 85.5507 43.9264 87.1413 44.4502 88.741C45.3416 91.4993 42.3734 100.519 42.3734 100.519C42.3734 100.519 36.1429 91.0533 36.6023 87.2654Z" fill="#EF4D6D"/>
<path d="M28.8679 110.15C28.3301 110.403 27.744 110.538 27.1494 110.545C25.5642 110.485 24.3926 108.821 24.3926 107.23C24.3926 105.64 25.3115 104.201 26.3821 103.029C28.22 101.011 36.996 99.2178 36.996 99.2178C36.996 99.2178 32.1945 108.78 28.8679 110.15Z" fill="#EF4D6D"/>
<path d="M42.1476 114.706C41.766 115.209 41.2821 115.626 40.7278 115.929C39.207 116.655 37.2818 115.662 36.5144 114.159C35.7471 112.656 35.8895 110.854 36.3123 109.222C37.0612 106.413 44.4128 100.391 44.4128 100.391C44.4128 100.391 44.6058 111.773 42.1476 114.706Z" fill="#EF4D6D"/>
<path d="M52.3518 55.845C52.4429 55.8886 52.5458 55.901 52.6446 55.8803C52.7434 55.8595 52.8327 55.8067 52.8985 55.7301C52.9763 55.6377 53.0146 55.5184 53.0052 55.3979C52.9957 55.2775 52.9393 55.1656 52.848 55.0865C51.6791 54.1351 50.4514 53.2584 49.1722 52.4616C48.4003 51.9605 47.6054 51.4456 46.8748 50.8986C37.9012 44.3892 34.3035 33.5585 32.8654 25.6148C32.8441 25.4928 32.7752 25.3844 32.674 25.3133C32.5727 25.2421 32.4474 25.2142 32.3255 25.2355C32.2036 25.2568 32.0953 25.3257 32.0242 25.427C31.9531 25.5283 31.9251 25.6537 31.9464 25.7757C33.4168 33.8849 37.1018 44.9546 46.3188 51.6387C47.0862 52.1996 47.8948 52.7236 48.676 53.2293C49.9222 54.0047 51.1192 54.8568 52.2599 55.7807C52.2872 55.8064 52.3182 55.8281 52.3518 55.845Z" fill="#F4D7E0"/>
<path d="M26.7045 15.5972C26.7131 15.0312 26.8415 14.4734 27.0813 13.9607C27.7889 12.6321 29.7003 12.3287 31.0512 12.9999C32.402 13.6711 33.2521 15.0548 33.808 16.4523C34.7683 18.8612 32.641 27.1083 32.641 27.1083C32.641 27.1083 26.4932 19.0083 26.7045 15.5972Z" fill="#F4D7E0"/>
<path d="M23.4329 29.0624C23.0813 28.7608 22.7979 28.3879 22.6013 27.9683C22.1418 26.8282 22.9367 25.4629 24.067 24.9618C25.1973 24.4607 26.5068 24.6446 27.6831 25.0216C29.7048 25.6744 33.7941 31.3196 33.7941 31.3196C33.7941 31.3196 25.473 30.9794 23.4329 29.0624Z" fill="#F4D7E0"/>
<path d="M36.7719 22.663C37.0964 22.2348 37.5083 21.8806 37.9803 21.6241C39.2669 21.0035 40.9072 21.8355 41.5642 23.1089C42.2213 24.3823 42.111 25.9131 41.7572 27.3014C41.1461 29.6873 34.9064 34.8314 34.9064 34.8314C34.9064 34.8314 34.6951 25.1684 36.7719 22.663Z" fill="#F4D7E0"/>
<path d="M24.2362 41.1899C23.7058 41.0158 23.2186 40.7306 22.8072 40.3532C21.7642 39.2867 22.0445 37.3927 23.0783 36.3216C24.1121 35.2505 25.6652 34.8505 27.1493 34.7356C29.7039 34.5425 36.8534 38.9925 36.8534 38.9925C36.8534 38.9925 27.4112 42.4311 24.2362 41.1899Z" fill="#F4D7E0"/>
<path d="M40.8331 31.1675C41.1565 30.7113 41.5731 30.3289 42.0553 30.0459C43.3786 29.3609 45.1062 30.1838 45.8276 31.4893C46.549 32.7949 46.4754 34.3993 46.1446 35.852C45.5749 38.3528 39.2249 43.8784 39.2249 43.8784C39.2249 43.8784 38.7471 33.8246 40.8331 31.1675Z" fill="#F4D7E0"/>
<path d="M47.716 36.3209C48.0811 35.8069 48.5509 35.376 49.0945 35.0567C50.5878 34.2844 52.5359 35.213 53.3492 36.6841C54.1625 38.1552 54.0798 39.9664 53.7076 41.603C53.0689 44.4256 45.8965 50.6592 45.8965 50.6592C45.8965 50.6592 45.3589 39.3182 47.716 36.3209Z" fill="#F4D7E0"/>
<path d="M29.3655 52.0153C28.7743 51.9586 28.2023 51.7751 27.6884 51.4774C26.3559 50.6178 26.2043 48.5859 27.0313 47.2298C27.8584 45.8736 29.3747 45.0967 30.8909 44.637C33.4962 43.8417 41.9551 46.793 41.9551 46.793C41.9551 46.793 32.9264 52.544 29.3655 52.0153Z" fill="#F4D7E0"/>
<path d="M38.4396 62.7263C37.8573 62.965 37.2306 63.0763 36.6017 63.0527C34.9246 62.8964 33.7759 61.0621 33.8862 59.375C33.9965 57.6879 35.0395 56.2076 36.2387 55.0216C38.2972 52.9851 47.7256 51.583 47.7256 51.583C47.7256 51.583 42.0603 61.4667 38.4396 62.7263Z" fill="#F4D7E0"/>
<path d="M184.608 109.015V117.184C184.608 118.103 184.007 119.023 182.771 119.717L152.85 137.13L80.4729 179.175C79.108 179.87 77.5981 180.233 76.0665 180.233C74.5349 180.233 73.0251 179.87 71.6601 179.175L46.513 164.644L21.3613 150.113C20.1437 149.418 19.5234 148.499 19.5234 147.58V139.429L32.3428 133.88L38.4309 131.26L93.7288 99.0806L123.654 81.6854C125.007 80.9629 126.523 80.5989 128.056 80.628C129.589 80.595 131.103 80.9592 132.453 81.6854L157.619 96.2167L175.566 106.574L184.608 109.015Z" fill="#E5CCD1"/>
<path d="M184.608 108.909C184.608 109.828 184.006 110.747 182.77 111.442L152.849 128.855L80.4634 170.918C79.0975 171.61 77.588 171.971 76.057 171.971C74.526 171.971 73.0165 171.61 71.6506 170.918L46.5035 156.382L21.3518 141.851C20.194 141.189 19.592 140.297 19.5461 139.424C19.5393 139.384 19.5393 139.344 19.5461 139.304C19.5461 138.385 20.148 137.466 21.384 136.771L93.7698 94.7129L123.695 77.313C125.051 76.5984 126.565 76.2364 128.097 76.2603C129.628 76.2326 131.142 76.5948 132.494 77.313L157.66 91.8443L182.807 106.38C184.006 107.056 184.608 107.975 184.608 108.909Z" fill="#D7B4BC"/>
<path d="M151.108 93.3568L155.197 95.7151C155.514 95.8762 155.864 95.9601 156.219 95.9601C156.575 95.9601 156.925 95.8762 157.242 95.7151L157.701 95.4576C157.824 95.4151 157.93 95.3353 158.006 95.2295C158.081 95.1236 158.121 94.9969 158.121 94.8669C158.121 94.737 158.081 94.6103 158.006 94.5044C157.93 94.3985 157.824 94.3188 157.701 94.2762L153.612 91.9179C153.295 91.7568 152.945 91.6729 152.59 91.6729C152.234 91.6729 151.884 91.7568 151.567 91.9179L151.108 92.1753C150.985 92.2179 150.879 92.2977 150.803 92.4035C150.728 92.5094 150.688 92.6361 150.688 92.7661C150.688 92.896 150.728 93.0227 150.803 93.1286C150.879 93.2345 150.985 93.3142 151.108 93.3568Z" fill="#B06B74"/>
<path d="M167.552 125.178V124.125C167.564 123.87 167.647 123.623 167.791 123.412C167.934 123.182 168.129 122.988 168.361 122.847L171.343 121.123L180.418 115.905C180.5 115.847 180.594 115.808 180.694 115.792C180.794 115.776 180.896 115.784 180.992 115.814C181.072 115.852 181.137 115.914 181.18 115.992C181.223 116.069 181.241 116.158 181.231 116.246V117.298C181.219 117.553 181.136 117.8 180.992 118.011C180.847 118.242 180.65 118.437 180.418 118.581L177.436 120.3L168.379 125.532C168.298 125.59 168.204 125.628 168.105 125.645C168.007 125.662 167.906 125.656 167.81 125.628C167.726 125.588 167.657 125.523 167.611 125.443C167.565 125.362 167.545 125.27 167.552 125.178Z" fill="#D7B4BC"/>
<path d="M167.851 125.43V124.378C167.863 124.122 167.946 123.876 168.09 123.665C168.234 123.434 168.431 123.24 168.664 123.1L171.646 121.376L180.702 116.144C180.784 116.085 180.879 116.047 180.979 116.031C181.078 116.015 181.18 116.022 181.277 116.052C181.355 116.092 181.419 116.155 181.461 116.232C181.503 116.309 181.52 116.397 181.511 116.484V117.537C181.498 117.791 181.417 118.037 181.277 118.25C181.131 118.481 180.935 118.676 180.702 118.82L177.72 120.539L168.664 125.77C168.582 125.828 168.487 125.867 168.388 125.884C168.288 125.901 168.187 125.895 168.09 125.867C168.012 125.825 167.948 125.761 167.906 125.684C167.864 125.606 167.844 125.518 167.851 125.43Z" fill="#F2EFF7"/>
<path d="M54.6034 156.76C54.0313 156.77 53.4663 156.632 52.9631 156.36L44.5869 151.524C44.3699 151.443 44.1827 151.298 44.0506 151.107C43.9185 150.917 43.8477 150.691 43.8477 150.46C43.8477 150.228 43.9185 150.002 44.0506 149.812C44.1827 149.621 44.3699 149.476 44.5869 149.395L45.6161 148.802C46.123 148.54 46.6855 148.402 47.2564 148.402C47.8273 148.402 48.3898 148.54 48.8967 148.802L57.2776 153.638C57.4946 153.719 57.6817 153.864 57.8138 154.055C57.946 154.245 58.0168 154.471 58.0168 154.703C58.0168 154.934 57.946 155.16 57.8138 155.351C57.6817 155.541 57.4946 155.686 57.2776 155.767L56.2483 156.36C55.7435 156.632 55.177 156.77 54.6034 156.76ZM47.2518 148.807C46.7509 148.797 46.2557 148.916 45.8137 149.152L44.7844 149.745C44.6299 149.79 44.4942 149.884 44.3976 150.013C44.301 150.142 44.2488 150.298 44.2488 150.46C44.2488 150.621 44.301 150.777 44.3976 150.906C44.4942 151.035 44.6299 151.129 44.7844 151.174L53.1607 156.01C53.6063 156.237 54.099 156.355 54.5988 156.355C55.0986 156.355 55.5914 156.237 56.037 156.01L57.0662 155.417C57.2208 155.372 57.3565 155.278 57.4531 155.149C57.5496 155.02 57.6018 154.864 57.6018 154.703C57.6018 154.542 57.5496 154.385 57.4531 154.256C57.3565 154.127 57.2208 154.033 57.0662 153.988L48.69 149.152C48.2494 148.916 47.7559 148.797 47.2564 148.807H47.2518Z" fill="#B06B74"/>
<path d="M57.9449 168.528L36.1152 155.918V153.279L57.9449 165.889V168.528Z" fill="#2A3589"/>
<path d="M172.226 113.713L86.7634 163.071C84.3696 164.45 80.4962 164.45 78.1023 163.071L34.374 137.81C31.9847 136.431 31.9847 134.192 34.374 132.809L119.836 83.4455C122.23 82.0664 126.104 82.0664 128.498 83.4455L172.226 108.729C174.62 110.09 174.62 112.329 172.226 113.713Z" fill="#EE477B"/>
<path d="M76.0573 171.953V180.228C74.5253 180.257 73.0114 179.893 71.6601 179.17L46.513 164.639L21.3613 150.108C20.1437 149.414 19.5234 148.494 19.5234 147.575V139.429C19.5832 140.302 20.1851 141.194 21.3613 141.856L46.513 156.387L71.6601 170.923C73.0162 171.63 74.5284 171.984 76.0573 171.953Z" fill="#B06B74"/>
<path d="M21.3613 141.833C25.6253 144.135 29.8647 146.473 34.0796 148.848L46.7106 156.043L59.2405 163.398C63.4034 165.868 67.5463 168.375 71.6693 170.919C67.4054 168.617 63.166 166.279 58.951 163.903L46.3338 156.709L33.8039 149.354C29.6319 146.887 25.4844 144.38 21.3613 141.833Z" fill="#DD9FAA"/>
<path d="M80.4727 170.9C97.4457 160.85 114.515 150.976 131.534 141.019C148.622 131.167 165.65 121.224 182.784 111.455C165.816 121.504 148.742 131.379 131.723 141.336C114.639 151.183 97.6065 161.131 80.4727 170.9Z" fill="white"/>
<path d="M53.0834 167.222L35.4258 157.021V152.415L53.0834 162.616V167.222Z" fill="#A65B6C"/>
<path d="M102.765 89.3939L48.7999 120.58C47.9361 121.081 47.2285 120.787 47.2285 119.918V43.5061C47.2793 42.9991 47.4478 42.511 47.7207 42.0808C47.9935 41.6506 48.3631 41.2901 48.7999 41.0283L102.765 9.8602C103.634 9.35912 104.337 9.65792 104.337 10.5268V86.9115C104.287 87.4194 104.119 87.9085 103.846 88.3396C103.573 88.7708 103.203 89.1318 102.765 89.3939Z" fill="#D3ABB1"/>
<path d="M48.9473 50.3881C49.0526 49.9786 49.3086 49.6239 49.664 49.3951L102.683 18.7695L102.609 86.9117C102.503 87.3196 102.249 87.6734 101.897 87.9047L48.8691 118.535L48.9473 50.3881Z" fill="#FEF1EC"/>
<path d="M102.701 13.9746C102.659 14.3977 102.519 14.8051 102.29 15.1637C102.062 15.5222 101.753 15.822 101.387 16.0387C100.666 16.457 100.082 16.2088 100.082 15.487C100.123 15.065 100.263 14.6584 100.49 14.3C100.716 13.9416 101.024 13.6412 101.387 13.423C102.118 13.0092 102.701 13.2529 102.701 13.9746Z" fill="#B06B74"/>
<path d="M99.371 15.9151C99.3294 16.3383 99.1893 16.7459 98.9619 17.1051C98.7345 17.4644 98.4261 17.7653 98.0615 17.9838C97.3401 18.3975 96.752 18.1493 96.752 17.4276C96.7942 17.0052 96.9346 16.5985 97.162 16.2401C97.3894 15.8817 97.6974 15.5815 98.0615 15.3635C98.7829 14.9451 99.371 15.1934 99.371 15.9151Z" fill="#B06B74"/>
<path d="M96.0343 17.8643C95.9932 18.287 95.8532 18.6941 95.6257 19.0526C95.3982 19.4112 95.0896 19.7112 94.7248 19.9284C94.0035 20.3467 93.4199 20.0985 93.4199 19.3767C93.4606 18.9545 93.5999 18.5477 93.8266 18.1891C94.0532 17.8306 94.3609 17.5304 94.7248 17.3127C95.4508 16.8943 96.0343 17.1472 96.0343 17.8643Z" fill="#B06B74"/>
<path d="M98.6813 40.9823L32.2549 79.3861C30.1551 80.5951 28.4551 79.878 28.4551 77.7771V68.0727C28.4551 65.9765 30.1551 63.2918 32.2549 62.0965L98.6813 23.6743C100.781 22.4607 102.481 23.1824 102.481 25.2787V34.9831C102.481 37.0839 100.781 39.7686 98.6813 40.9823Z" fill="#D3ABB1"/>
<path d="M100.974 26.157V35.8521C100.974 37.1163 99.9497 38.7345 98.6769 39.4654L32.2505 77.8739C30.9824 78.6048 29.9531 78.1727 29.9531 76.9039V67.2133C29.9531 65.9445 30.9778 64.3125 32.2505 63.5816L98.6861 25.1732C99.9497 24.4422 100.974 24.8928 100.974 26.157Z" fill="#FEF1EC"/>
<path d="M100.974 26.1569V35.852C100.974 37.1162 99.9492 38.7344 98.6764 39.4653L80.7109 49.8363V35.5349L98.6718 25.1639C99.9492 24.4421 100.974 24.8927 100.974 26.1569Z" fill="#E2CCD0"/>
<path opacity="0.2" d="M85.7661 53.5001C82.5497 58.5569 77.3577 61.5634 74.1551 60.2072C70.9526 58.8511 70.9388 53.6518 74.1551 48.5905C77.3715 43.5291 82.5497 40.5272 85.7661 41.8834C88.9824 43.2395 88.9824 48.4388 85.7661 53.5001Z" fill="#E5CCD1"/>
<path d="M73.6667 60.957C70.2022 59.4951 70.2022 53.8545 73.6667 48.3886C77.1311 42.9227 82.7643 39.6542 86.2288 41.1299C89.6932 42.6055 89.6932 48.2369 86.2288 53.7028C82.7643 59.1687 77.1311 62.4235 73.6667 60.957ZM85.2777 42.6331C82.337 41.3919 77.5585 44.1547 74.6178 48.7886C71.6772 53.4224 71.6772 58.2125 74.6178 59.4584C77.5585 60.7042 82.337 57.9367 85.2777 53.2983C88.2183 48.6599 88.2183 43.8743 85.2777 42.6331Z" fill="#D7B8BF"/>
<path d="M92.245 58.0146L85.2793 55.0678C84.7923 54.861 84.7923 54.0703 85.2793 53.298C85.7664 52.5257 86.5613 52.0706 87.0483 52.2774L94.037 55.2241C94.524 55.431 94.524 56.2217 94.037 56.9894C93.5499 57.7571 92.732 58.2168 92.245 58.0146Z" fill="#D7B8BF"/>
<path d="M125.28 66.8867L64.1972 102.155C62.658 103.047 61.4082 102.519 61.4082 100.979V82.8845C61.4082 81.3445 62.658 79.3723 64.1972 78.4851L125.28 43.2165C126.819 42.3292 128.069 42.8579 128.069 44.3979V62.4873C128.037 64.0365 126.796 65.9949 125.28 66.8867Z" fill="#D3ABB1"/>
<path d="M62.916 82.8849C62.916 81.9655 63.7844 80.4622 64.9515 79.7911L126.011 44.5178C126.174 44.4197 126.351 44.3469 126.535 44.3018C126.535 44.3293 126.535 62.4831 126.535 62.4831C126.535 63.4025 125.662 64.9058 124.5 65.5769L63.4444 100.85C63.2827 100.95 63.1058 101.023 62.9206 101.066C62.9206 101.043 62.916 82.8849 62.916 82.8849Z" fill="#FDE9E9"/>
<path d="M110.985 58.1437C110.934 58.6153 110.773 59.0685 110.516 59.4674C110.26 59.8663 109.914 60.2 109.506 60.4422C108.693 60.902 108.059 60.6077 108.059 59.8125C108.1 59.342 108.253 58.8882 108.505 58.4885C108.757 58.0889 109.1 57.7548 109.506 57.5139C110.338 57.0542 110.985 57.33 110.985 58.1437Z" fill="#DD9FAA"/>
<path d="M104.994 63.2971L71.218 82.807C70.4277 83.2668 69.7891 82.9909 69.7891 82.2048C69.8337 81.7429 69.9863 81.2979 70.2346 80.9058C70.4828 80.5137 70.8197 80.1855 71.218 79.9477L104.994 60.4378C105.78 59.978 106.423 60.2539 106.423 61.04C106.377 61.5016 106.224 61.9462 105.976 62.3381C105.728 62.73 105.392 63.0585 104.994 63.2971Z" fill="#DD9FAA"/>
<path d="M93.4704 80.058L71.218 92.9298C70.4277 93.3895 69.7891 93.1182 69.7891 92.3275C69.8341 91.8663 69.9869 91.4221 70.2351 91.0308C70.4833 90.6395 70.82 90.3121 71.218 90.075L93.4704 77.2032C94.2561 76.7435 94.8994 77.0193 94.8994 77.81C94.853 78.2703 94.6996 78.7133 94.4515 79.1036C94.2033 79.4939 93.8674 79.8208 93.4704 80.058Z" fill="#DD9FAA"/>
<path d="M118.03 65.8752L98.3645 77.2346C97.5742 77.6943 96.9355 77.4231 96.9355 76.6324C96.9809 76.1706 97.1338 75.7259 97.382 75.3339C97.6301 74.9419 97.9667 74.6136 98.3645 74.3752L118.03 63.0159C118.82 62.5562 119.459 62.832 119.459 63.6181C119.414 64.0801 119.262 64.525 119.014 64.9171C118.765 65.3092 118.428 65.6374 118.03 65.8752Z" fill="#DD9FAA"/>
<path d="M119.665 58.1847C119.614 58.6567 119.454 59.1102 119.197 59.5093C118.941 59.9083 118.594 60.2419 118.186 60.4833C117.372 60.943 116.738 60.6534 116.738 59.8535C116.781 59.3832 116.934 58.9297 117.186 58.5301C117.437 58.1306 117.78 57.7964 118.186 57.5549C119.017 57.0952 119.665 57.3711 119.665 58.1847Z" fill="#DD9FAA"/>
<path d="M85.0299 79.878L71.218 87.8585C70.4277 88.3182 69.7891 88.047 69.7891 87.2563C69.8344 86.7945 69.9873 86.3498 70.2355 85.9578C70.4837 85.5659 70.8202 85.2375 71.218 84.9991L85.0299 77.0186C85.8202 76.5589 86.4588 76.8348 86.4588 77.6255C86.4135 78.0866 86.2605 78.5307 86.0123 78.9219C85.7642 79.3131 85.4276 79.6406 85.0299 79.878Z" fill="#DD9FAA"/>
<path d="M99.4857 71.5304L90.2961 76.8308C89.5104 77.2905 88.8672 77.0146 88.8672 76.2239C88.9136 75.7631 89.067 75.3194 89.3151 74.9284C89.5632 74.5373 89.8991 74.2096 90.2961 73.9714L99.4857 68.671C100.271 68.2113 100.915 68.4871 100.915 69.2778C100.869 69.7389 100.716 70.1828 100.468 70.574C100.22 70.9651 99.8832 71.2927 99.4857 71.5304Z" fill="#DD9FAA"/>
<path d="M113.937 63.1822L104.747 68.4826C103.957 68.9423 103.318 68.6665 103.318 67.8804C103.363 67.4184 103.516 66.9735 103.764 66.5814C104.012 66.1893 104.349 65.8611 104.747 65.6232L113.937 60.3274C114.727 59.8677 115.366 60.139 115.366 60.9296C115.321 61.3909 115.168 61.8351 114.92 62.2264C114.672 62.6177 114.335 62.9451 113.937 63.1822Z" fill="#DD9FAA"/>
<path d="M118.236 55.385L114.712 57.4123C113.922 57.872 113.283 57.5962 113.283 56.8055C113.329 56.3443 113.482 55.9003 113.73 55.509C113.978 55.1178 114.314 54.7903 114.712 54.5529L118.218 52.5256C119.008 52.0659 119.647 52.3418 119.647 53.1279C119.604 53.5881 119.454 54.032 119.21 54.424C118.965 54.816 118.631 55.1451 118.236 55.385Z" fill="#DD9FAA"/>
<path d="M147.367 105.843L133.385 97.7156L131.18 89.6523L145.162 97.7845L147.367 105.843Z" fill="#F3B82D"/>
<path d="M134.859 97.8991L120.873 89.7669L129.791 84.6182L143.778 92.7458L134.859 97.8991Z" fill="#D7A029"/>
<path d="M143.778 92.7458L129.791 84.6182L125.279 67.9814L139.261 76.1136L143.778 92.7458Z" fill="#F3B82D"/>
<path d="M135.246 72.5419L121.26 64.4143L129.521 59.6426L143.503 67.7702L135.246 72.5419Z" fill="#D7A029"/>
<path d="M124.462 119.073L110.48 110.941L121.26 64.4141L135.246 72.5417L124.462 119.073Z" fill="#F3B82D"/>
<path d="M143.503 67.7705L154.461 101.734L147.367 105.83L145.162 97.7663L133.551 104.492L131.396 115.065L124.453 119.078L135.246 72.5423L143.503 67.7705ZM134.86 97.8996L143.779 92.7463L139.262 76.1142L134.86 97.8996Z" fill="white"/>
<path d="M112.708 120.875L98.7266 112.743L102.347 114.416L116.329 122.549L112.708 120.875Z" fill="#D7B4BC"/>
<path d="M104.263 128.231L90.2812 120.122C91.9308 119.17 93.1943 117.772 94.3568 115.888L108.339 124.02C107.176 125.877 105.913 127.279 104.263 128.231Z" fill="#B06B74"/>
<path d="M112.066 113.267L98.084 105.14L101.516 104.321L115.503 112.449L112.066 113.267Z" fill="#D7B4BC"/>
<path d="M110.434 119.767L96.4473 111.635C97.1417 109.509 97.6867 107.337 98.0784 105.135L112.065 113.267C111.668 115.468 111.123 117.64 110.434 119.767Z" fill="#B06B74"/>
<path d="M101.281 128.746L87.2988 120.614C87.9651 121.004 89.0081 120.839 90.2808 120.099L104.263 128.231C102.99 128.966 101.952 129.132 101.281 128.746Z" fill="#D7B4BC"/>
<path d="M105.67 117.354L91.6836 109.227L96.4484 111.635L110.435 119.768L105.67 117.354Z" fill="#D7B4BC"/>
<path d="M103.013 115.984L89.0312 107.852C89.1691 107.934 89.3161 108.012 89.4907 108.095L103.477 116.223C103.298 116.131 103.151 116.048 103.013 115.984Z" fill="#B06B74"/>
<path d="M97.863 132.942L83.8812 124.81C82.8979 124.24 82.3373 123.059 82.3281 121.279C82.3281 118.264 83.8628 115.377 86.5783 111.81L100.56 119.942C97.8446 123.509 96.3054 126.378 96.3146 129.412C96.3329 131.186 96.8797 132.372 97.863 132.942Z" fill="#B06B74"/>
<path d="M91.453 100.975L105.435 109.088C105.825 109.314 106.041 109.833 106.041 110.628C106.041 112.306 105.099 114.03 103.459 116.191L89.4727 108.063C91.1176 105.903 92.0641 104.174 92.0595 102.501C92.0549 101.733 91.839 101.2 91.453 100.975Z" fill="#B06B74"/>
<path d="M112.709 120.875L116.329 122.544L113.154 126.479L110.448 125.054C108.819 127.903 106.477 130.28 103.652 131.949C99.3333 134.445 96.3238 133.512 96.3008 129.393C96.3008 126.378 97.8308 123.491 100.546 119.923C98.5292 118.857 97.5368 117.896 97.5276 115.538C97.5276 112.494 99.5539 108.642 103.629 106.279C107.443 104.077 109.819 105.098 109.828 108.261C109.828 111.29 107.99 114.278 105.656 117.335L110.42 119.749C111.11 117.621 111.655 115.449 112.052 113.248L115.488 112.43C114.802 115.319 113.872 118.144 112.709 120.875ZM104.264 128.23C105.913 127.279 107.177 125.877 108.339 123.996L102.825 121.1C101.194 123.325 100.45 125.067 100.454 126.801C100.454 129.044 101.985 129.559 104.264 128.23ZM103.694 109.382C102.998 109.784 102.42 110.362 102.017 111.057C101.613 111.752 101.4 112.541 101.396 113.345C101.396 114.844 102.072 115.492 103.473 116.214C105.114 114.053 106.06 112.329 106.055 110.651C106.051 108.973 105.136 108.55 103.708 109.382H103.694Z" fill="white"/>
<path d="M108.563 105.461C107.935 105.129 107.209 105.028 106.514 105.176C105.499 105.375 104.528 105.758 103.652 106.307C101.787 107.363 100.21 108.859 99.0567 110.665C98.1085 112.127 97.5866 113.824 97.5497 115.566C97.5021 116.43 97.7116 117.289 98.1516 118.034C98.6322 118.703 99.2613 119.25 99.9895 119.634L93.0009 115.566L86.0076 111.493C85.2798 111.117 84.6504 110.575 84.1697 109.911C83.7267 109.16 83.5156 108.295 83.5632 107.424C83.606 105.688 84.1276 103.997 85.0703 102.538C86.2185 100.724 87.7968 99.2221 89.6651 98.1658C90.5468 97.6269 91.5178 97.2501 92.5322 97.0533C93.2274 96.8998 93.9545 97.0009 94.5815 97.3384L101.57 101.393L108.563 105.461Z" fill="#B06B74"/>
<path d="M79.4513 142.647L65.4648 134.514C69.8253 132 72.8165 131.729 75.4584 132.363L89.4403 140.468C86.8029 139.833 83.8071 140.105 79.4513 142.647Z" fill="#F69FA1"/>
<path d="M67.0685 144.912L60.0753 140.848L53.082 136.78C53.7939 137.179 54.6226 137.317 55.4254 137.171C56.45 136.982 57.4302 136.603 58.3155 136.054L65.736 139.695L72.2973 144.186C71.4123 144.732 70.434 145.109 69.4118 145.298C68.6096 145.447 67.7806 145.311 67.0685 144.912Z" fill="#F69FA1"/>
<path d="M80.5216 124.258C80.5216 129.701 79.7818 133.912 78.3804 137.162C77.1769 140.105 75.0371 142.569 72.2924 144.173L58.3105 136.031C61.0533 134.434 63.1931 131.976 64.3986 129.039C65.8 125.798 66.5535 121.574 66.5398 116.117C66.5398 112.922 66.2503 110.435 65.7403 108.624C65.2302 106.812 64.4583 105.626 63.4659 105.052L70.4545 109.125L77.4477 113.225C78.4402 113.8 79.1937 114.958 79.7451 116.783C80.2965 118.608 80.5078 121.068 80.5216 124.258Z" fill="#F16465"/>
<path d="M78.3805 137.18C77.1769 140.123 75.0371 142.587 72.2924 144.191L69.1863 143.271L58.3105 136.059C61.0533 134.461 63.1931 132.004 64.3986 129.066L78.3805 137.18Z" fill="#F69FA1"/>
<path d="M82.7228 106.633C81.3131 105.857 79.6821 105.581 78.0959 105.851C76.0051 106.216 74.0019 106.973 72.1916 108.081C67.3913 110.938 63.515 115.118 61.0264 120.121C58.2343 125.657 56.8159 131.784 56.8911 137.985C56.8911 141.616 57.3506 144.554 58.173 146.802C58.9955 149.05 60.1901 150.599 61.6972 151.491L54.7086 147.423L47.7154 143.363C46.2083 142.476 45.0045 140.922 44.1912 138.674C43.3779 136.426 42.923 133.489 42.9092 129.857C42.8321 123.656 44.2506 117.528 47.0445 111.993C49.532 106.994 53.4027 102.815 58.196 99.9533C60.0028 98.8379 62.0074 98.0809 64.1003 97.7237C65.6994 97.4408 67.3472 97.7202 68.7639 98.5144L75.7526 102.583L82.7228 106.633Z" fill="#F16465"/>
<path d="M79.4521 142.646C83.808 140.127 86.8038 139.856 89.4411 140.49L85.3059 149.082C81.7449 146.995 78.4459 146.324 71.9811 150.08C62.9616 155.293 56.9608 151.404 56.924 137.948C56.8827 124.741 62.8421 113.483 72.2154 108.067C81.5887 102.652 87.5389 106.743 87.5757 120.185C87.6032 130.046 84.102 137.075 79.4521 142.646ZM72.2981 144.209C77.5178 141.194 80.5457 135.185 80.5135 124.295C80.486 113.528 77.481 110.963 72.2154 113.993C66.9498 117.022 63.9173 123.1 63.9448 133.921C63.9724 144.743 67.1612 147.165 72.2981 144.209Z" fill="white"/>
<path d="M108.565 105.461C107.937 105.129 107.211 105.028 106.516 105.176C105.501 105.375 104.53 105.758 103.653 106.307C101.789 107.363 100.212 108.859 99.0587 110.665L85.0723 102.538C86.2204 100.724 87.7988 99.2221 89.667 98.1658C90.5488 97.6269 91.5198 97.2501 92.5342 97.0533C93.2293 96.8998 93.9565 97.0009 94.5834 97.3384L101.572 101.393L108.565 105.461Z" fill="#D7B4BC"/>
<path d="M82.7232 106.633C81.3136 105.857 79.6826 105.581 78.0963 105.851C76.0055 106.216 74.0023 106.973 72.192 108.081C67.3917 110.938 63.5154 115.118 61.0268 120.121L47.0449 111.993C49.5324 106.994 53.4031 102.815 58.1964 99.9533C60.0032 98.8379 62.0078 98.081 64.1007 97.7237C65.6998 97.4408 67.3476 97.7202 68.7643 98.5144L75.753 102.583L82.7232 106.633Z" fill="#F69FA1"/>
<path d="M21.0392 114.145L23.286 112.849V115.984L26.3048 114.237V116.301L23.2768 118.02V121.146L21.03 122.443V119.317L17.9883 121.073V119.013L21.03 117.257L21.0392 114.145Z" fill="#B06B74"/>
<path d="M22.1508 128.318C16.2695 131.715 11.4863 129.697 11.4863 123.808C11.4863 117.919 16.2695 110.371 22.1508 106.974C28.0321 103.577 32.8152 105.595 32.8152 111.484C32.8152 117.372 28.0321 124.921 22.1508 128.318ZM22.1508 108.252C16.9725 111.24 12.7637 117.906 12.7637 123.068C12.7637 128.231 16.9725 130.028 22.1508 127.04C27.3291 124.052 31.5424 117.386 31.5424 112.224C31.5424 107.061 27.3291 105.259 22.1508 108.252Z" fill="#B06B74"/>
<path d="M177.905 108.293C177.905 109.24 178.686 109.58 179.637 109.042C180.11 108.76 180.514 108.375 180.819 107.916C181.123 107.457 181.321 106.935 181.397 106.39C181.404 106.347 181.404 106.303 181.397 106.261C181.397 105.295 180.616 104.955 179.651 105.525C179.463 105.634 179.288 105.762 179.127 105.907C178.524 106.433 178.107 107.139 177.937 107.92C177.913 108.043 177.902 108.168 177.905 108.293Z" fill="#FBB04A"/>
<path d="M177.949 107.92C178.445 108.26 179.125 108.715 179.608 109.028C179.809 109.17 180.023 109.294 180.247 109.396C180.472 109.396 181.294 109.469 181.919 109.511C182.402 109.55 182.852 109.768 183.183 110.122C183.287 110.227 183.419 110.301 183.564 110.334C183.682 110.355 183.803 110.353 183.92 110.326C184.037 110.299 184.147 110.248 184.244 110.177C184.378 110.078 184.485 109.947 184.556 109.796L184.726 109.368C184.809 109.156 184.83 108.925 184.787 108.702C184.745 108.479 184.641 108.272 184.488 108.104L182.783 106.362C182.711 106.292 182.623 106.242 182.527 106.214C182.431 106.187 182.329 106.184 182.232 106.206C182.232 106.206 181.492 106.376 181.395 106.389C180.573 106.559 179.907 106.219 179.139 105.93C178.541 106.45 178.124 107.147 177.949 107.92Z" fill="#FAC9CA"/>
<g style="mix-blend-mode:color-burn" opacity="0.1">
<path d="M181.502 127.159C177.51 129.457 177.51 133.204 181.502 135.507C185.495 137.81 191.965 137.806 195.953 135.507C199.941 133.209 199.946 129.466 195.953 127.159C191.96 124.851 185.472 124.856 181.502 127.159Z" fill="#4C6FB6"/>
</g>
<path d="M179.838 129.849C179.904 129.433 180.011 129.025 180.16 128.631L182.172 128.428L183.964 128.249C183.964 128.249 185.935 130.589 186.422 131.007C186.909 131.426 189.276 133.536 189.037 134.101C188.908 134.4 187.847 134.441 186.762 134.386C185.99 134.357 185.221 134.262 184.465 134.101C184.07 133.982 182.374 132.497 181.157 131.37L180.587 131.426L179.824 130.736L179.838 129.849Z" fill="#201E5C"/>
<path d="M195.406 129.057C194.946 129.057 193.733 128.336 193.333 128.184C191.957 127.525 190.702 126.637 189.621 125.559L189.161 125.587C189.161 125.587 188.27 125.104 188.16 124.856C188.049 124.607 188.509 122.599 188.509 122.599H188.752L189.589 122.139L190.278 121.978L192.088 121.56C192.162 123.941 193.701 124.575 194.896 125.421C195.015 125.513 195.134 125.591 195.245 125.683C195.391 125.799 195.525 125.93 195.644 126.074C195.83 126.305 195.964 126.573 196.04 126.86C196.115 127.146 196.129 127.446 196.081 127.738C195.975 128.34 195.792 129.044 195.406 129.057Z" fill="#201E5C"/>
<path d="M193.081 121.605C193.081 122.456 193.081 122.985 193.081 122.985C193.06 123.209 192.979 123.423 192.847 123.606C192.716 123.788 192.538 123.932 192.332 124.024C191.512 124.442 190.573 124.565 189.672 124.373C189.336 124.307 189.012 124.189 188.712 124.024C188.505 123.933 188.327 123.789 188.195 123.606C188.064 123.424 187.983 123.209 187.963 122.985C187.963 122.985 187.885 111.662 187.411 110.908C186.938 110.154 180.855 108.007 180.855 108.007C181.034 108.246 183.772 111.938 184.117 113.101C184.461 114.264 184.654 128.781 184.654 128.781C184.634 129.007 184.553 129.223 184.42 129.406C184.288 129.59 184.108 129.735 183.901 129.825C183.276 130.153 182.574 130.303 181.87 130.257C181.315 130.237 180.773 130.089 180.285 129.825C180.074 129.733 179.892 129.584 179.761 129.395C179.629 129.206 179.553 128.984 179.54 128.754C179.573 128.078 179.219 116.461 178.893 116.218C178.566 115.974 170.769 110.26 169.427 108.168C168.086 106.077 170.723 102.344 170.723 102.344L172.855 102.964L172.998 102.928L180.179 101.135C180.179 101.135 191.473 106.582 192.332 108.541C193.012 110.094 193.081 118.314 193.081 121.605Z" fill="#201E5C"/>
<path d="M183.965 117.142V116.536L174.164 110.872V111.479L183.965 117.142Z" fill="#6C6BB1"/>
<path d="M197.317 108.821V109.428L183.965 117.142V116.535L197.317 108.821Z" fill="#CECBE6"/>
<path d="M183.965 116.536L190.641 112.679L197.317 108.822L187.516 103.158L174.164 110.872L183.965 116.536Z" fill="#C7BDDE"/>
<path d="M187.958 102.477L185.867 104.698L184.788 105.783C184.788 105.783 180.193 98.5882 179.789 98.1791C179.384 97.7699 179.513 95.499 179.789 89.794C179.945 86.5761 180.216 85.197 180.418 84.5994C180.57 84.1672 180.68 84.1396 180.698 84.1396C181.838 84.204 182.757 85.413 183.294 87.2932C183.832 89.1734 183.331 95.6829 183.331 95.6829L187.958 102.477Z" fill="#FFDDB0"/>
<path d="M184.585 105.084C184.561 105.236 184.577 105.391 184.632 105.535C184.687 105.679 184.778 105.806 184.897 105.903C185.016 106.001 185.158 106.066 185.31 106.091C185.461 106.117 185.617 106.102 185.761 106.049C185.957 106.011 186.145 105.939 186.317 105.838C186.739 105.587 187.106 105.254 187.398 104.859C187.69 104.465 187.9 104.016 188.017 103.539C188.047 103.417 188.066 103.292 188.072 103.167C188.081 103.126 188.081 103.084 188.072 103.043C188.072 102.091 187.305 101.737 186.354 102.289C186.158 102.403 185.973 102.535 185.803 102.684C185.499 102.948 185.24 103.258 185.035 103.604C184.832 103.936 184.687 104.302 184.608 104.684C184.584 104.816 184.577 104.95 184.585 105.084Z" fill="#FBB04A"/>
<path d="M182.127 92.6125C182.127 92.6125 180.583 95.2972 180.446 96.3683C180.308 97.4394 180.179 101.135 180.179 101.135C179.531 102.629 178.635 102.974 173.875 104.625C172.919 104.951 171.711 104.625 170.383 104.358C168.869 102.146 167.963 99.5745 167.755 96.9015C167.702 96.2901 167.687 95.676 167.709 95.0627C167.709 94.8788 167.709 94.6995 167.737 94.5111C167.842 93.0112 168.151 91.5326 168.655 90.1163C168.692 90.0105 168.729 89.9048 168.77 89.7991C168.77 89.7991 174.789 84.9676 180.689 84.1631C180.863 84.2938 181.018 84.4486 181.149 84.6228C181.819 85.4503 182.954 87.6844 182.127 92.6125Z" fill="#FBB04A"/>
<path d="M180.85 105.295L179.012 108.054L178.296 109.157C178.296 109.157 167.626 106.022 167.218 105.617C166.809 105.213 166.147 101.995 166.423 96.2897C166.698 90.5848 168.766 89.7803 168.766 89.7803C168.999 89.7918 169.227 89.8563 169.432 89.9688C170.227 90.3825 170.811 91.4444 171.243 92.9339C171.785 94.8141 170.71 102.33 170.71 102.33L180.85 105.295Z" fill="#FFDDB0"/>
<path d="M185.053 103.636C185.293 103.928 185.427 104.293 185.434 104.671C185.437 105.139 185.544 105.6 185.747 106.022C185.904 106.325 186.101 106.606 186.33 106.859C186.615 107.199 187.548 107.318 187.548 107.318C187.4 107.011 187.277 106.693 187.18 106.367C187.024 105.843 186.955 105.287 187.336 105.245C188.071 105.19 189.703 108.054 189.703 108.054L190.162 107.728L190.704 107.346L190.162 104.877C190.127 104.724 190.058 104.58 189.96 104.457C189.863 104.334 189.738 104.234 189.597 104.165C189.137 103.981 188.503 103.705 188.035 103.558C187.98 103.533 187.923 103.513 187.865 103.498C187.405 103.388 186.79 102.777 186.362 102.308C186.166 102.422 185.982 102.554 185.811 102.703C185.51 102.971 185.254 103.287 185.053 103.636Z" fill="#FAC9CA"/>
<path d="M186.207 107.396L183.965 116.535L197.317 108.822L199.564 99.6826L186.207 107.396Z" fill="#E4DDEE"/>
<path d="M185.848 107.185L186.206 107.396L199.563 99.6822L199.2 99.4707L185.848 107.185Z" fill="#ACAAD4"/>
<path d="M183.965 116.535L183.602 116.324L185.848 107.185L186.207 107.396L183.965 116.535Z" fill="#6C6BB1"/>
<path d="M177.33 90.5804C175.952 90.1207 174.67 88.3692 174.031 87.3624C173.765 86.9395 173.613 86.6545 173.613 86.6545L173.875 85.4179L174.61 84.7881C174.61 84.7881 174.96 84.8479 175.447 84.9858C176.471 85.2708 178.089 85.9052 178.314 87.1234C178.64 88.9208 177.33 90.5804 177.33 90.5804Z" fill="#FAC9CA"/>
<path d="M178.341 88.5166C176.792 88.7419 174.284 86.7421 174.284 86.7421L174.123 85.5239C174.123 85.5239 173.957 85.648 173.291 84.8619C173.084 83.7632 172.754 81.7589 172.234 79.9201C173.153 77.5526 175.984 77.4699 177.67 77.9572C179.784 78.564 180.073 80.651 180.215 81.7589C180.358 82.8668 179.535 88.3373 178.341 88.5166Z" fill="#FAC9CA"/>
<path d="M180.528 81.2761C180.473 81.5979 180.441 81.9243 180.418 82.2507C180.39 82.669 180.482 83.2437 180.179 83.331C180.179 83.2345 180.179 83.1287 180.179 83.0322C180.202 82.7656 180.312 81.0233 179.692 81.2715C179.554 81.3687 179.397 81.4374 179.232 81.4738C179.162 81.4813 179.091 81.4813 179.021 81.4738C176.912 81.5795 176.765 81.1796 176.135 81.1888C176.052 81.194 175.971 81.2204 175.9 81.2654C175.829 81.3104 175.771 81.3726 175.731 81.4462C175.425 81.9318 175.266 82.4951 175.272 83.069C175.327 83.4685 175.327 83.8738 175.272 84.2734C175.221 84.3174 175.157 84.3416 175.09 84.3416C175.023 84.3416 174.959 84.3174 174.909 84.2734C174.867 84.2381 174.831 84.1962 174.803 84.1493C174.61 83.8505 174.803 82.384 174.077 82.5909C173.553 82.7885 173.25 83.3356 173.751 84.7975C173.874 85.1509 173.951 85.5186 173.981 85.8916H173.622C173.484 85.1574 173.158 84.4716 172.676 83.901C172.102 83.2108 171.724 82.3788 171.582 81.4922C171.457 80.9307 171.479 80.3462 171.646 79.7959C172.046 78.9831 172.684 78.3111 173.474 77.8686C174.264 77.4262 175.17 77.2342 176.071 77.318C176.071 77.318 178.732 77.2123 179.899 78.3846C180.157 78.635 180.375 78.9252 180.542 79.2442C180.643 79.4394 180.708 79.6511 180.735 79.8694C180.756 80.3472 180.686 80.8246 180.528 81.2761Z" fill="#201E5C"/>
<g style="mix-blend-mode:color-burn" opacity="0.1">
<path d="M14.6337 156.438C11.5414 158.226 11.5414 161.127 14.6337 162.915C17.7259 164.703 22.748 164.699 25.8403 162.915C28.9325 161.131 28.9371 158.226 25.8403 156.438C22.7434 154.649 17.7305 154.663 14.6337 156.438Z" fill="#4C6FB6"/>
</g>
<path d="M21.4395 158.668C22.1513 158.048 22.7923 157.351 23.3509 156.59H25.4783C25.5033 156.64 25.5248 156.693 25.5426 156.746C25.744 157.244 25.8695 157.769 25.9148 158.305V159.224L25.2624 159.771L24.7294 159.573C24.3756 159.974 23.9965 160.352 23.5945 160.704C22.9273 161.3 22.0629 161.628 21.1684 161.624C20.6798 161.63 20.1913 161.599 19.7073 161.532C19.429 161.528 19.1629 161.417 18.9629 161.224C18.6827 160.769 20.7963 159.555 21.4395 158.668Z" fill="#201E5C"/>
<path d="M17.763 157.743C17.8457 157.628 19.9363 155.123 19.9363 155.123L22.0729 155.151C22.3327 155.569 22.5235 156.027 22.638 156.507L22.6656 157.468C22.4188 157.69 22.1319 157.863 21.8202 157.978C21.5779 157.824 21.3169 157.702 21.0436 157.615C19.9593 158.221 19.7066 159.224 19.2333 159.605C19.0863 159.706 17.3219 160.819 16.5454 160.203C15.9481 159.72 17.1886 158.575 17.763 157.743Z" fill="#201E5C"/>
<path d="M19.9494 155.059C20.0597 154.263 20.6708 146.26 20.6708 146.26L22.1043 147.179L22.21 147.244L23.3082 147.947C23.3082 147.947 23.4552 149.625 22.1135 155.127C22.1044 155.203 22.0786 155.276 22.0381 155.34C21.9976 155.404 21.9433 155.459 21.8792 155.5C21.8792 155.5 19.1223 157.964 18.7272 158.047C18.038 158.198 17.8955 158.088 17.7715 157.748C18.4464 156.811 19.1735 155.913 19.9494 155.059Z" fill="#FAC9CA"/>
<path d="M21.218 158.915L23.3224 156.516C23.4464 155.509 24.0346 147.781 24.0346 147.781L25.5738 148.76L26.6765 149.464C26.6765 149.464 26.819 151.142 25.4819 156.644C25.4707 156.76 25.4166 156.866 25.3303 156.943C25.3578 156.943 23.281 160.032 22.1829 159.674C21.0847 159.315 21.218 158.915 21.218 158.915Z" fill="#FAC9CA"/>
<path d="M21.0156 136.17L21.9346 137.301L22.7157 138.248L27.021 133.885L29.7778 122.985C29.7778 122.985 28.0916 123.372 26.7085 127.049C25.3255 130.727 24.7236 133.062 24.7236 133.062L21.0156 136.17Z" fill="#2ABCB2"/>
<path d="M20.8822 136.592C20.9153 136.92 21.0247 137.237 21.2019 137.515C21.379 137.794 21.6189 138.027 21.9023 138.196C22.0836 138.317 22.3018 138.369 22.518 138.343C22.6451 138.315 22.7568 138.239 22.8308 138.132C22.9049 138.024 22.9359 137.893 22.9177 137.764C22.9128 137.587 22.8754 137.413 22.8074 137.249C22.6262 136.798 22.3039 136.417 21.8885 136.164C21.8311 136.131 21.7712 136.101 21.7093 136.077C21.2498 135.898 20.9144 136.077 20.873 136.5C20.8868 136.527 20.8822 136.56 20.8822 136.592Z" fill="#009E93"/>
<path d="M21.8981 147.63C23.0266 148.391 24.2667 148.971 25.5739 149.349C26.8124 149.664 28.1161 149.608 29.3232 149.188C29.3232 149.188 29.6265 148.352 31.8273 147.051C34.0282 145.75 37.2308 144.104 38.2003 142.523C39.1698 140.941 37.7408 138.385 37.3732 135.852C37.0056 133.319 38.2003 126.612 38.2003 126.612C35.7364 124.735 32.8516 123.488 29.7965 122.98C29.7965 122.98 29.6311 123.174 29.3921 123.477C28.7259 124.295 26.9339 130.432 27.444 130.943C27.8982 131.324 28.414 131.626 28.9694 131.834C29.0108 131.931 29.8562 133.963 29.5438 135.144C29.5438 135.144 23.033 138.716 21.3329 142.523C19.6329 146.329 20.6575 146.922 21.8981 147.63Z" fill="#009E93"/>
<path d="M25.7402 138.928L26.6086 140.11L27.3392 141.107C27.3392 141.107 33.8408 139.181 34.4795 138.597C35.1181 138.013 37.3466 133.081 38.192 130.378C39.0375 127.674 38.192 126.613 38.192 126.613C34.8884 125.854 33.3629 134.887 32.2188 136.06C31.0748 137.232 25.7402 138.928 25.7402 138.928Z" fill="#2ABCB2"/>
<path d="M25.5137 139.428C25.5447 139.757 25.6523 140.074 25.8278 140.353C26.0034 140.633 26.242 140.867 26.5246 141.037L26.6256 141.083C27.0438 141.29 27.3884 141.194 27.5032 140.863C27.5322 140.78 27.5462 140.693 27.5446 140.605C27.5126 140.276 27.4036 139.96 27.2264 139.681C27.0492 139.402 26.8087 139.169 26.5246 139.001L26.4556 138.964C26.3429 138.884 26.208 138.841 26.0697 138.841C25.9314 138.841 25.7965 138.884 25.6837 138.964C25.6234 139.024 25.577 139.097 25.5476 139.177C25.5183 139.258 25.5067 139.343 25.5137 139.428Z" fill="#009E93"/>
<path d="M30.2707 122.061C30.4545 123.518 30.9369 125.596 30.9369 125.596C30.9369 125.596 30.9966 125.508 31.1023 125.384C31.5349 124.868 32.1209 124.504 32.7748 124.345L33.0137 121.753L30.9553 119.693L30.6796 119.417L30.3855 119.123C30.2125 120.092 30.1739 121.081 30.2707 122.061Z" fill="#201E5C"/>
<path d="M31.9007 126.736C32.4278 126.507 32.9416 126.249 33.4399 125.963C33.7205 125.818 33.9715 125.622 34.1797 125.384C34.4829 124.924 34.4921 123.256 34.4829 122.695V122.516L32.3234 122.828L32.0431 123.692C31.8628 124.696 31.8149 125.719 31.9007 126.736Z" fill="#FAC9CA"/>
<path d="M30.6562 121.468C30.7994 122.429 31.1237 123.354 31.612 124.194C31.7256 124.228 31.8427 124.25 31.9612 124.258C31.9901 124.263 32.0195 124.263 32.0485 124.258H32.1771C32.5217 124.258 33.5555 123.403 33.6153 123.371L34.8099 122.884C34.8696 122.847 34.8834 122.76 34.9018 122.645C34.9018 122.447 34.9661 122.185 34.9661 122.185L34.6904 120.677C34.6904 120.677 33.7715 119.179 33.7715 119.133C33.6813 119.124 33.5905 119.124 33.5004 119.133H33.1282C32.269 119.165 30.8308 119.238 30.8308 119.238C30.6473 119.966 30.5883 120.72 30.6562 121.468Z" fill="#FAC9CA"/>
<path d="M30.6283 120.171C30.8029 120.107 30.9223 119.67 30.9223 119.67C31.3866 119.847 31.8645 119.985 32.3513 120.084C32.5769 120.126 32.8071 120.139 33.0359 120.121C33.1768 120.109 33.3178 120.14 33.4408 120.21C33.5637 120.279 33.6628 120.385 33.7252 120.511C33.7711 120.608 33.817 120.714 33.863 120.819C34.0238 121.242 33.8262 123.725 33.7297 124.833C33.697 125.54 33.926 126.234 34.373 126.782C34.6395 126.814 35.5401 125.315 35.7514 125.233C35.9628 125.15 36.4728 125.453 36.4728 125.453C36.2339 125.021 36.3901 121.371 36.4728 119.762C36.5555 118.153 35.4528 117.266 33.8768 116.861C33.4252 116.785 32.9623 116.813 32.523 116.942C32.0836 117.071 31.6793 117.298 31.3405 117.606C30.9216 117.904 30.6015 118.32 30.4215 118.801C30.3263 119.268 30.3996 119.753 30.6283 120.171Z" fill="#201E5C"/>
<g style="mix-blend-mode:multiply" opacity="0.15">
<g style="mix-blend-mode:multiply" opacity="0.15">
<path d="M19.4668 140.127L19.8206 140.173C19.8206 140.173 21.4517 137.898 21.539 138.247C21.539 138.247 21.6815 137.672 21.3231 137.921C20.6569 138.615 20.0368 139.352 19.4668 140.127Z" fill="#D03938"/>
</g>
</g>
<path d="M22.3066 145.837V145.46L28.3533 141.966V142.338L22.3066 145.837Z" fill="#6C6BB1"/>
<path d="M14.0645 140.702V141.075L22.3074 145.837V145.46L14.0645 140.702Z" fill="#CECBE6"/>
<path d="M22.3074 145.46L18.186 143.084L14.0645 140.702L20.1112 137.204L28.3541 141.967L22.3074 145.46Z" fill="#ACAAD4"/>
<path d="M19.467 140.127L19.8208 140.173C19.8208 140.173 21.452 137.898 21.5393 138.247C21.6266 138.596 20.6709 139.658 20.6709 139.658C20.6606 139.71 20.6618 139.763 20.6745 139.814C20.6872 139.865 20.7111 139.912 20.7444 139.952C20.8409 140.04 21.0522 140.058 21.5163 139.792C21.9994 139.431 22.3512 138.923 22.518 138.344C22.6407 137.993 22.7345 137.633 22.7982 137.268C22.7361 137.069 22.638 136.884 22.5088 136.721C22.3449 136.496 22.137 136.306 21.8977 136.164C21.8403 136.131 21.7804 136.102 21.7185 136.077C21.4196 136.174 21.1375 136.317 20.8822 136.5C20.0749 137.132 19.3951 137.912 18.8789 138.799L19.467 140.127Z" fill="#FAC9CA"/>
<path d="M22.4492 141.148L23.3084 141.865L23.6622 142.155L25.1923 141.47C25.3019 141.416 25.4201 141.382 25.5415 141.369L26.6259 141.093L27.5035 140.872C27.5325 140.79 27.5465 140.703 27.5448 140.615C27.5373 140.384 27.4793 140.159 27.3748 139.953C27.1876 139.564 26.8926 139.237 26.5248 139.011L26.4558 138.974H24.6179C24.4981 138.961 24.377 138.978 24.2655 139.024C24.154 139.07 24.0556 139.143 23.9793 139.236L22.4492 141.148Z" fill="#FAC9CA"/>
<path d="M20.9188 139.824L22.3064 145.46L14.0634 140.702L12.6758 135.062L20.9188 139.824Z" fill="#CECBE6"/>
<path d="M21.1439 139.691L20.9188 139.824L12.6758 135.061L12.9009 134.933L21.1439 139.691Z" fill="#B9B5DB"/>
<path d="M22.3075 145.46L22.5281 145.331L21.1451 139.69L20.9199 139.824L22.3075 145.46Z" fill="#6C6BB1"/>
</g>
<defs>
<clipPath id="clip0_2116_360">
<rect width="199.564" height="181" fill="white"/>
</clipPath>
</defs>
</svg>
